<svg width="12" height="18" viewBox="0 0 12 18" fill="none" xmlns="http://www.w3.org/2000/svg">
<path id="Vector" d="M12 5.73682C12 8.40963 9.70594 10.6221 6.75 10.9456V11.7368C6.75 11.9357 6.67098 12.1265 6.53033 12.2671C6.38968 12.4078 6.19891 12.4868 6 12.4868C5.80109 12.4868 5.61032 12.4078 5.46967 12.2671C5.32902 12.1265 5.25 11.9357 5.25 11.7368V10.2368C5.25 10.0379 5.32902 9.84714 5.46967 9.70649C5.61032 9.56583 5.80109 9.48682 6 9.48682C8.48156 9.48682 10.5 7.80494 10.5 5.73682C10.5 3.66869 8.48156 1.98682 6 1.98682C3.51844 1.98682 1.5 3.66869 1.5 5.73682C1.5 5.93573 1.42098 6.12649 1.28033 6.26715C1.13968 6.4078 0.948912 6.48682 0.75 6.48682C0.551088 6.48682 0.360322 6.4078 0.21967 6.26715C0.0790178 6.12649 0 5.93573 0 5.73682C0 2.84182 2.69156 0.486816 6 0.486816C9.30844 0.486816 12 2.84182 12 5.73682ZM6 14.7368C5.70333 14.7368 5.41332 14.8248 5.16665 14.9896C4.91997 15.1544 4.72771 15.3887 4.61418 15.6628C4.50065 15.9369 4.47094 16.2385 4.52882 16.5295C4.5867 16.8204 4.72956 17.0877 4.93934 17.2975C5.14912 17.5073 5.41639 17.6501 5.70736 17.708C5.99834 17.7659 6.29994 17.7362 6.57403 17.6226C6.84811 17.5091 7.08238 17.3168 7.2472 17.0702C7.41203 16.8235 7.5 16.5335 7.5 16.2368C7.5 15.839 7.34196 15.4575 7.06066 15.1762C6.77936 14.8949 6.39782 14.7368 6 14.7368Z" fill="white"/>
</svg>
