<svg width="23" height="23" viewBox="0 0 23 23" fill="none" xmlns="http://www.w3.org/2000/svg">
<path id="add_photo_alternate" d="M3.30918 22.3881C2.65335 22.3881 2.09191 22.1546 1.62487 21.6876C1.15783 21.2205 0.924316 20.6591 0.924316 20.0033V3.30918C0.924316 2.65335 1.15783 2.09191 1.62487 1.62487C2.09191 1.15783 2.65335 0.924316 3.30918 0.924316H14.0411V3.30918H3.30918V20.0033H20.0033V9.27136H22.3881V20.0033C22.3881 20.6591 22.1546 21.2205 21.6876 21.6876C21.2205 22.1546 20.6591 22.3881 20.0033 22.3881H3.30918ZM17.6184 8.07892V5.69405H15.2335V3.30918H17.6184V0.924316H20.0033V3.30918H22.3881V5.69405H20.0033V8.07892H17.6184ZM4.50162 17.6184H18.8108L14.3392 11.6562L10.7619 16.426L8.07892 12.8487L4.50162 17.6184Z" fill="#1C1B1F"/>
</svg>
