<svg width="15" height="15" viewBox="0 0 15 15" fill="none" xmlns="http://www.w3.org/2000/svg">
<path d="M0.227106 6.2214C0.228726 6.44758 0.303032 6.66724 0.439052 6.84796C0.575071 7.02867 0.765595 7.16086 0.982494 7.22501L0.995876 7.22902L6.21468 8.69027L7.67594 13.909L7.67996 13.9224C7.7442 14.1393 7.87642 14.3297 8.05711 14.4657C8.23781 14.6017 8.45742 14.6761 8.68358 14.6778H8.70365C8.92542 14.6799 9.1422 14.612 9.32321 14.4838C9.50421 14.3557 9.64023 14.1738 9.71195 13.9639L14.077 2.1956C14.0784 2.19213 14.0795 2.18855 14.0804 2.18489C14.1456 1.99543 14.1563 1.79147 14.1114 1.5962C14.0664 1.40094 13.9676 1.22221 13.8261 1.08035C13.6845 0.938487 13.5061 0.839191 13.3109 0.793754C13.1157 0.748318 12.9117 0.758566 12.7221 0.823333L12.7114 0.826678L0.941012 5.19304C0.727887 5.26589 0.543644 5.40498 0.415202 5.59C0.28676 5.77502 0.220852 5.99626 0.227106 6.2214Z" fill="#4D4D4D"/>
</svg>
