<svg width="30" height="29" viewBox="0 0 30 29" fill="none" xmlns="http://www.w3.org/2000/svg">
<path id="Vector" d="M14.9908 0.787109C12.2072 0.787109 9.48616 1.61254 7.17169 3.15902C4.85722 4.7055 3.05331 6.90357 1.98808 9.47527C0.922846 12.047 0.644133 14.8768 1.18718 17.6069C1.73023 20.337 3.07066 22.8448 5.03895 24.8131C7.00725 26.7813 9.51501 28.1218 12.2451 28.6648C14.9752 29.2079 17.805 28.9292 20.3767 27.8639C22.9484 26.7987 25.1465 24.9948 26.693 22.6803C28.2395 20.3658 29.0649 17.6448 29.0649 14.8612C29.061 11.1297 27.5769 7.55221 24.9383 4.91366C22.2998 2.27511 18.7223 0.79105 14.9908 0.787109ZM20.4039 15.9438H12.1909L14.6742 18.4257C14.7747 18.5263 14.8545 18.6457 14.909 18.7771C14.9634 18.9086 14.9914 19.0494 14.9914 19.1917C14.9914 19.3339 14.9634 19.4748 14.909 19.6062C14.8545 19.7376 14.7747 19.857 14.6742 19.9576C14.5736 20.0582 14.4542 20.138 14.3227 20.1924C14.1913 20.2469 14.0505 20.2749 13.9082 20.2749C13.766 20.2749 13.6251 20.2469 13.4937 20.1924C13.3623 20.138 13.2428 20.0582 13.1422 19.9576L8.81177 15.6271C8.71111 15.5266 8.63126 15.4072 8.57677 15.2758C8.52229 15.1443 8.49425 15.0035 8.49425 14.8612C8.49425 14.7189 8.52229 14.578 8.57677 14.4466C8.63126 14.3152 8.71111 14.1958 8.81177 14.0952L13.1422 9.76474C13.3454 9.5616 13.6209 9.44747 13.9082 9.44747C14.1955 9.44747 14.471 9.5616 14.6742 9.76474C14.8773 9.96789 14.9914 10.2434 14.9914 10.5307C14.9914 10.818 14.8773 11.0935 14.6742 11.2967L12.1909 13.7786H20.4039C20.6911 13.7786 20.9664 13.8926 21.1695 14.0957C21.3725 14.2987 21.4866 14.5741 21.4866 14.8612C21.4866 15.1483 21.3725 15.4237 21.1695 15.6267C20.9664 15.8297 20.6911 15.9438 20.4039 15.9438Z" fill="#263069"/>
</svg>
