<svg width="35" height="35" viewBox="0 0 35 35" fill="none" xmlns="http://www.w3.org/2000/svg">
<g id="CaretCircleRight">
<rect width="35" height="35" rx="17.5" fill="white"/>
<path id="Vector" d="M17.5 3.28125C14.6878 3.28125 11.9388 4.11517 9.60049 5.67754C7.26223 7.23992 5.43978 9.46058 4.36359 12.0587C3.28741 14.6569 3.00583 17.5158 3.55447 20.2739C4.1031 23.0321 5.4573 25.5656 7.44583 27.5542C9.43436 29.5427 11.9679 30.8969 14.7261 31.4455C17.4842 31.9942 20.3431 31.7126 22.9413 30.6364C25.5394 29.5602 27.7601 27.7378 29.3225 25.3995C30.8848 23.0613 31.7188 20.3122 31.7188 17.5C31.7148 13.7302 30.2155 10.1159 27.5498 7.45022C24.8841 4.78455 21.2698 3.28523 17.5 3.28125ZM17.5 29.5312C15.1205 29.5312 12.7943 28.8256 10.8158 27.5036C8.83727 26.1816 7.2952 24.3026 6.38458 22.1042C5.47396 19.9057 5.2357 17.4867 5.69993 15.1528C6.16416 12.819 7.31003 10.6752 8.99263 8.99262C10.6752 7.31002 12.819 6.16416 15.1528 5.69993C17.4867 5.2357 19.9057 5.47396 22.1042 6.38457C24.3026 7.29519 26.1816 8.83727 27.5036 10.8158C28.8256 12.7943 29.5313 15.1204 29.5313 17.5C29.5276 20.6898 28.2589 23.7479 26.0034 26.0034C23.7479 28.2589 20.6898 29.5276 17.5 29.5312ZM21.5551 16.7262C21.6568 16.8278 21.7375 16.9484 21.7925 17.0812C21.8475 17.2139 21.8759 17.3563 21.8759 17.5C21.8759 17.6437 21.8475 17.7861 21.7925 17.9188C21.7375 18.0516 21.6568 18.1722 21.5551 18.2738L16.0863 23.7426C15.9847 23.8442 15.8641 23.9248 15.7313 23.9798C15.5985 24.0348 15.4562 24.0631 15.3125 24.0631C15.1688 24.0631 15.0265 24.0348 14.8937 23.9798C14.7609 23.9248 14.6403 23.8442 14.5387 23.7426C14.4371 23.641 14.3564 23.5203 14.3015 23.3875C14.2465 23.2548 14.2181 23.1125 14.2181 22.9688C14.2181 22.825 14.2465 22.6827 14.3015 22.55C14.3564 22.4172 14.4371 22.2965 14.5387 22.1949L19.235 17.5L14.5387 12.8051C14.3334 12.5998 14.2181 12.3215 14.2181 12.0312C14.2181 11.741 14.3334 11.4627 14.5387 11.2574C14.7439 11.0522 15.0223 10.9369 15.3125 10.9369C15.6027 10.9369 15.8811 11.0522 16.0863 11.2574L21.5551 16.7262Z" fill="black"/>
</g>
</svg>
