<svg width="27" height="27" viewBox="0 0 27 27" fill="none" xmlns="http://www.w3.org/2000/svg">
<g id="Clock">
<path id="Vector" d="M13.3541 2.95361C11.2415 2.95361 9.17626 3.58009 7.41966 4.75381C5.66305 5.92754 4.29394 7.5958 3.48547 9.54764C2.67699 11.4995 2.46546 13.6472 2.87762 15.7193C3.28977 17.7913 4.30711 19.6946 5.80098 21.1885C7.29485 22.6824 9.19816 23.6997 11.2702 24.1119C13.3423 24.524 15.49 24.3125 17.4419 23.504C19.3937 22.6955 21.062 21.3264 22.2357 19.5698C23.4094 17.8132 24.0359 15.748 24.0359 13.6354C24.0327 10.8034 22.9063 8.08823 20.9038 6.0857C18.9013 4.08316 16.1861 2.95675 13.3541 2.95361ZM13.3541 21.9434C11.7109 21.9434 10.1047 21.4561 8.73843 20.5432C7.37218 19.6303 6.30732 18.3328 5.6785 16.8147C5.04969 15.2966 4.88516 13.6262 5.20573 12.0146C5.5263 10.403 6.31756 8.9226 7.47946 7.7607C8.64136 6.5988 10.1217 5.80754 11.7333 5.48697C13.3449 5.16641 15.0154 5.33093 16.5335 5.95975C18.0516 6.58856 19.3491 7.65342 20.262 9.01967C21.1749 10.3859 21.6622 11.9922 21.6622 13.6354C21.6598 15.8381 20.7837 17.9499 19.2262 19.5074C17.6686 21.065 15.5568 21.941 13.3541 21.9434ZM20.0797 13.6354C20.0797 13.9501 19.9546 14.252 19.732 14.4746C19.5095 14.6972 19.2076 14.8222 18.8928 14.8222H13.3541C13.0393 14.8222 12.7375 14.6972 12.5149 14.4746C12.2923 14.252 12.1673 13.9501 12.1673 13.6354V8.09668C12.1673 7.78191 12.2923 7.48002 12.5149 7.25744C12.7375 7.03486 13.0393 6.90982 13.3541 6.90982C13.6689 6.90982 13.9708 7.03486 14.1934 7.25744C14.4159 7.48002 14.541 7.78191 14.541 8.09668V12.4485H18.8928C19.2076 12.4485 19.5095 12.5736 19.732 12.7961C19.9546 13.0187 20.0797 13.3206 20.0797 13.6354Z" fill="black"/>
</g>
</svg>
