<svg width="30" height="30" viewBox="0 0 30 30" fill="none" xmlns="http://www.w3.org/2000/svg">
<g id="Component 13">
<rect x="1.38158" y="1.4537" width="27.2685" height="27.2685" rx="3.51852" fill="white"/>
<rect x="1.38158" y="1.4537" width="27.2685" height="27.2685" rx="3.51852" stroke="#263069" stroke-width="1.75926"/>
<path id="Vector" d="M16.3354 12.8889C16.3354 13.3727 15.9395 13.7685 15.4557 13.7685H14.0659C13.8196 13.7685 13.5821 13.7157 13.3622 13.619L11.3391 12.7306L10.1779 16.1875V23.4444C10.1779 23.9282 9.78211 24.3241 9.29831 24.3241H7.53905C7.05526 24.3241 6.65942 23.9282 6.65942 23.4444V15.8181C6.65942 15.6245 6.69461 15.431 6.75618 15.2463L8.05804 11.4463C8.13609 11.2141 8.26198 11.0008 8.42758 10.8202C8.59318 10.6396 8.7948 10.4958 9.01944 10.398C9.24408 10.3002 9.48673 10.2505 9.73174 10.2523C9.97674 10.2541 10.2186 10.3073 10.4418 10.4083L14.0923 12.0181L15.4557 12.0093C15.9395 12.0093 16.3354 12.4051 16.3354 12.8889ZM11.0576 5.85185C10.09 5.85185 9.29831 6.64352 9.29831 7.61111C9.29831 8.5787 10.09 9.37037 11.0576 9.37037C12.0252 9.37037 12.8168 8.5787 12.8168 7.61111C12.8168 6.64352 12.0252 5.85185 11.0576 5.85185ZM12.8168 21.6852H21.6131C22.0969 21.6852 22.4928 21.2894 22.4928 20.8056C22.4928 20.3218 22.0969 19.9259 21.6131 19.9259H12.8168C12.333 19.9259 11.9372 20.3218 11.9372 20.8056C11.9372 21.2894 12.333 21.6852 12.8168 21.6852ZM21.1733 19.0463C21.9034 19.0463 22.4928 18.4569 22.4928 17.7269C22.4928 16.9968 21.9034 16.4074 21.1733 16.4074C20.4432 16.4074 19.8539 16.9968 19.8539 17.7269C19.8539 18.4569 20.4432 19.0463 21.1733 19.0463ZM15.4557 15.5278C15.4557 15.044 15.0599 14.6481 14.5761 14.6481H12.8168C12.333 14.6481 11.9372 15.044 11.9372 15.5278C11.9372 16.0116 12.333 16.4074 12.8168 16.4074H13.6965V17.287C13.6965 18.2546 14.4881 19.0463 15.4557 19.0463H17.215C18.1826 19.0463 18.9742 18.2546 18.9742 17.287V15.5278C18.9742 15.044 18.5784 14.6481 18.0946 14.6481C17.6108 14.6481 17.215 15.044 17.215 15.5278V16.4074H15.4557V15.5278Z" fill="#263069"/>
</g>
</svg>
