<svg width="30" height="30" viewBox="0 0 30 30" fill="none" xmlns="http://www.w3.org/2000/svg">
<g id="Component 12">
<rect x="1.75194" y="1.4537" width="27.2685" height="27.2685" rx="3.51852" fill="white"/>
<rect x="1.75194" y="1.4537" width="27.2685" height="27.2685" rx="3.51852" stroke="#263069" stroke-width="1.75926"/>
<path id="Vector" d="M15.3328 10.4701V14.6523L18.828 16.7371C19.0041 16.8423 19.1309 17.0126 19.1806 17.2107C19.2304 17.4088 19.1989 17.6185 19.0931 17.7935C18.9874 17.9686 18.8161 18.0947 18.6168 18.1441C18.4176 18.1935 18.2067 18.1623 18.0307 18.0571L14.16 15.7481C14.0455 15.6797 13.9507 15.5829 13.8849 15.4673C13.8191 15.3516 13.7845 15.221 13.7846 15.0881V10.4701C13.7846 10.2659 13.8661 10.0702 14.0113 9.92581C14.1565 9.78147 14.3534 9.70038 14.5587 9.70038C14.764 9.70038 14.9609 9.78147 15.1061 9.92581C15.2513 10.0702 15.3328 10.2659 15.3328 10.4701ZM24.1443 8.21971C24.0029 8.16137 23.8472 8.14605 23.697 8.17567C23.5468 8.2053 23.4089 8.27855 23.3005 8.38615L22.1064 9.57627C21.7939 9.23857 21.4717 8.9028 21.1291 8.55741C19.8381 7.27369 18.1952 6.3967 16.4058 6.036C14.6163 5.67531 12.7597 5.84692 11.0677 6.52938C9.37583 7.21184 7.92371 8.37489 6.89282 9.87321C5.86194 11.3715 5.298 13.1387 5.27149 14.9538C5.24497 16.769 5.75705 18.5517 6.74373 20.0791C7.73042 21.6066 9.14795 22.8111 10.8192 23.5421C12.4905 24.2731 14.3414 24.4983 16.1406 24.1894C17.9398 23.8805 19.6076 23.0513 20.9356 21.8054C21.0095 21.736 21.069 21.6527 21.1106 21.5603C21.1522 21.468 21.175 21.3684 21.1779 21.2673C21.1808 21.1661 21.1636 21.0654 21.1273 20.9709C21.0911 20.8764 21.0364 20.7899 20.9665 20.7164C20.8966 20.6428 20.8129 20.5837 20.72 20.5424C20.6271 20.501 20.527 20.4783 20.4253 20.4754C20.3235 20.4725 20.2223 20.4896 20.1272 20.5257C20.0321 20.5618 19.9451 20.6161 19.8711 20.6856C18.7646 21.7237 17.375 22.4146 15.8758 22.672C14.3766 22.9294 12.8344 22.7419 11.4418 22.1329C10.0491 21.524 8.86785 20.5205 8.04549 19.2479C7.22313 17.9753 6.79615 16.49 6.81788 14.9775C6.83962 13.4651 7.30911 11.9925 8.1677 10.7438C9.02629 9.49509 10.2359 8.52559 11.6455 7.95642C13.055 7.38725 14.602 7.24365 16.0932 7.54354C17.5844 7.84344 18.9536 8.57355 20.0298 9.64265C20.3724 9.98708 20.6946 10.3257 21.0081 10.6654L19.4299 12.2345C19.3215 12.3422 19.2477 12.4794 19.2178 12.6288C19.1878 12.7781 19.2032 12.933 19.2618 13.0737C19.3205 13.2144 19.4198 13.3347 19.5472 13.4192C19.6746 13.5038 19.8244 13.5489 19.9776 13.5488H23.8482C24.0535 13.5488 24.2504 13.4677 24.3956 13.3233C24.5408 13.179 24.6224 12.9832 24.6224 12.7791V8.9307C24.6223 8.77847 24.5769 8.62967 24.4918 8.50312C24.4067 8.37657 24.2858 8.27794 24.1443 8.21971Z" fill="#263069"/>
</g>
</svg>
