<svg width="19" height="16" viewBox="0 0 19 16" fill="none" xmlns="http://www.w3.org/2000/svg">
<path id="Vector" d="M18.2692 0.611816H0.730769C0.536957 0.611816 0.351083 0.690834 0.214037 0.831486C0.0769915 0.972139 0 1.1629 0 1.36182V14.1118C0 14.5096 0.153983 14.8912 0.428075 15.1725C0.702166 15.4538 1.07391 15.6118 1.46154 15.6118H17.5385C17.9261 15.6118 18.2978 15.4538 18.5719 15.1725C18.846 14.8912 19 14.5096 19 14.1118V1.36182C19 1.1629 18.923 0.972139 18.786 0.831486C18.6489 0.690834 18.463 0.611816 18.2692 0.611816ZM16.3902 2.11182L9.5 8.59463L2.60976 2.11182H16.3902ZM17.5385 14.1118H1.46154V3.06713L9.00582 10.1649C9.14064 10.292 9.31699 10.3624 9.5 10.3624C9.68301 10.3624 9.85936 10.292 9.99418 10.1649L17.5385 3.06713V14.1118Z" fill="white"/>
</svg>
