<svg width="20" height="19" viewBox="0 0 20 19" fill="none" xmlns="http://www.w3.org/2000/svg">
<g id="edit">
<mask id="mask0_1961_1675" style="mask-type:alpha" maskUnits="userSpaceOnUse" x="0" y="0" width="20" height="19">
<rect id="Bounding box" x="0.692383" y="0.307617" width="18.4615" height="18.4615" fill="#D9D9D9"/>
</mask>
<g mask="url(#mask0_1961_1675)">
<path id="edit_2" d="M2.38477 17.0769V13.1154L13.1155 2.38462C13.2566 2.24359 13.4136 2.14423 13.5867 2.08654C13.7598 2.02885 13.936 2 14.1155 2C14.295 2 14.4649 2.02564 14.6252 2.07692C14.7854 2.12821 14.936 2.22436 15.0771 2.36538L17.0963 4.38462C17.2373 4.52564 17.3335 4.67949 17.3848 4.84615C17.436 5.01282 17.4617 5.1859 17.4617 5.36538C17.4617 5.54487 17.4328 5.71795 17.3752 5.88462C17.3175 6.05128 17.2181 6.20513 17.0771 6.34615L6.3463 17.0769H2.38477ZM14.0963 6.46154L15.1925 5.36538L14.0963 4.28846L13.0002 5.36538L14.0963 6.46154Z" fill="white"/>
</g>
</g>
</svg>
