<svg width="25" height="25" viewBox="0 0 25 25" fill="none" xmlns="http://www.w3.org/2000/svg">
<path d="M23.7939 12.0033C23.7602 11.9273 22.9453 10.1195 21.1337 8.30782C18.7197 5.89389 15.6708 4.61813 12.315 4.61813C8.95912 4.61813 5.91019 5.89389 3.49626 8.30782C1.68461 10.1195 0.865855 11.9302 0.83603 12.0033C0.792266 12.1017 0.769653 12.2082 0.769653 12.316C0.769653 12.4237 0.792266 12.5302 0.83603 12.6287C0.869703 12.7047 1.68461 14.5115 3.49626 16.3232C5.91019 18.7361 8.95912 20.0119 12.315 20.0119C15.6708 20.0119 18.7197 18.7361 21.1337 16.3232C22.9453 14.5115 23.7602 12.7047 23.7939 12.6287C23.8376 12.5302 23.8603 12.4237 23.8603 12.316C23.8603 12.2082 23.8376 12.1017 23.7939 12.0033ZM12.315 16.1634C11.5538 16.1634 10.8098 15.9377 10.1769 15.5149C9.54401 15.092 9.05074 14.491 8.75946 13.7877C8.46818 13.0845 8.39197 12.3107 8.54047 11.5642C8.68896 10.8177 9.05549 10.132 9.5937 9.59375C10.1319 9.05554 10.8176 8.68901 11.5642 8.54052C12.3107 8.39202 13.0845 8.46824 13.7877 8.75952C14.4909 9.05079 15.0919 9.54406 15.5148 10.1769C15.9377 10.8098 16.1634 11.5539 16.1634 12.315C16.1634 13.3357 15.7579 14.3145 15.0362 15.0363C14.3145 15.758 13.3356 16.1634 12.315 16.1634Z" fill="black"/>
</svg>
