<svg width="45" height="44" viewBox="0 0 45 44" fill="none" xmlns="http://www.w3.org/2000/svg">
<g id="Frame 6 10" clip-path="url(#clip0_1221_184)">
<path id="Vector" d="M1.3088 -0.00772351C1.3508 -0.00802784 1.39279 -0.00833217 1.43605 -0.00864573C1.48215 -0.00836113 1.52825 -0.00807653 1.57575 -0.00778331C1.64955 -0.00804833 1.64955 -0.00804833 1.72484 -0.00831872C1.89117 -0.00876548 2.05748 -0.00833897 2.22382 -0.00792219C2.3437 -0.00799474 2.46358 -0.00825012 2.58346 -0.00849685C2.84488 -0.00893677 3.1063 -0.00892204 3.36772 -0.00861268C3.75651 -0.00815385 4.1453 -0.00838745 4.53409 -0.00875957C5.22865 -0.00940076 5.92322 -0.00934373 6.61777 -0.0089931C7.22621 -0.00868745 7.83465 -0.00860739 8.44315 -0.00875273C8.48347 -0.00876201 8.5238 -0.0087713 8.56539 -0.00878086C8.72912 -0.00881871 8.89291 -0.00885742 9.05664 -0.00889753C10.5944 -0.00926975 12.1322 -0.00893181 13.6699 -0.00827794C15.0345 -0.00770212 16.399 -0.00775171 17.7636 -0.00833398C19.297 -0.00898611 20.8304 -0.00924226 22.3638 -0.00886737C22.5276 -0.00882838 22.6913 -0.00879035 22.8551 -0.00875273C22.8955 -0.00874311 22.9358 -0.0087335 22.9773 -0.0087236C23.5845 -0.00858571 24.1917 -0.00874633 24.7989 -0.00905415C25.4906 -0.00940303 26.1822 -0.00931212 26.8739 -0.00865533C27.2603 -0.00830043 27.6467 -0.00827209 28.0331 -0.00873388C28.2922 -0.00900913 28.5513 -0.0088321 28.8103 -0.00830783C28.9573 -0.00802231 29.1043 -0.00798105 29.2513 -0.00835718C30.2915 -0.0108119 31.3056 0.0722283 32.324 0.271137C32.4248 0.290368 32.5258 0.307801 32.6272 0.324716C33.4602 0.468429 34.2634 0.734592 35.0506 1.02053C35.1081 1.04067 35.1657 1.06075 35.2233 1.08068C35.5889 1.21084 35.9305 1.36755 36.2743 1.54113C36.4188 1.61406 36.5653 1.68155 36.7136 1.74738C37.048 1.90091 37.3593 2.08901 37.6722 2.27668C37.7428 2.31891 37.7428 2.31891 37.8148 2.362C38.4651 2.75747 39.0649 3.20874 39.6384 3.69491C39.7009 3.74732 39.7009 3.74732 39.7648 3.8008C39.9602 3.96452 40.152 4.12936 40.3374 4.30272C40.3746 4.33626 40.4118 4.36979 40.4501 4.40434C40.7251 4.65413 40.9722 4.9139 41.2113 5.19419C41.2521 5.24058 41.2929 5.28687 41.3338 5.33317C42.2004 6.31699 42.9586 7.4214 43.4833 8.59793C43.515 8.66459 43.515 8.66459 43.5473 8.73265C43.6698 8.99206 43.7824 9.2511 43.8742 9.52152C43.9149 9.63629 43.9592 9.74882 44.0048 9.86201C44.0914 10.082 44.1609 10.3034 44.2234 10.5302C44.2345 10.5702 44.2455 10.6102 44.2569 10.6514C44.4661 11.4198 44.6175 12.1859 44.7067 12.9742C44.711 13.0065 44.7152 13.0388 44.7195 13.072C44.7662 13.4659 44.7592 13.8625 44.7586 14.2582C44.7586 14.2971 44.7586 14.3361 44.7585 14.3762C44.7563 15.3226 44.6643 16.2177 44.4699 17.1478C44.4487 17.2495 44.4285 17.3514 44.4089 17.4535C44.341 17.795 44.2384 18.1196 44.1219 18.4489C44.0812 18.5651 44.0432 18.6821 44.0049 18.7991C43.9768 18.8835 43.9486 18.9679 43.9203 19.0523C43.9069 19.0926 43.8936 19.1329 43.8798 19.1745C43.7918 19.4311 43.6845 19.6721 43.5594 19.915C43.5033 20.0244 43.4505 20.1347 43.399 20.2461C43.071 20.9504 42.6647 21.6094 42.2162 22.2534C42.1867 22.2963 42.1572 22.3392 42.1268 22.3834C41.8992 22.7063 41.647 23.0071 41.3861 23.307C41.3516 23.3468 41.3173 23.3867 41.2818 23.4278C40.9979 23.7536 40.7005 24.0643 40.3811 24.3605C40.3294 24.415 40.2778 24.4695 40.2264 24.524C39.9015 24.8594 39.5533 25.1741 39.2092 25.4924C39.1304 25.5655 39.0516 25.6387 38.9728 25.7118C38.8037 25.8685 38.6347 26.0252 38.4655 26.1819C38.221 26.4083 37.9766 26.6349 37.7322 26.8615C37.3355 27.2292 36.9388 27.5969 36.542 27.9645C36.1568 28.3213 35.7717 28.6782 35.3866 29.0351C35.3629 29.0572 35.3391 29.0792 35.3146 29.1019C35.1953 29.2125 35.076 29.3232 34.9567 29.4337C33.9686 30.3496 32.9804 31.2654 31.9921 32.1811C32.219 32.436 32.4677 32.6681 32.72 32.9013C32.7675 32.9453 32.8149 32.9893 32.8623 33.0332C32.992 33.1536 33.1219 33.2738 33.2518 33.394C33.3921 33.5238 33.5322 33.6538 33.6724 33.7837C33.9151 34.0086 34.1578 34.2335 34.4007 34.4584C34.7518 34.7835 35.1028 35.1087 35.4537 35.434C36.0232 35.9619 36.5929 36.4897 37.1625 37.0175C37.1966 37.049 37.2307 37.0806 37.2658 37.1132C37.5077 37.3373 37.7497 37.5614 37.9916 37.7856C38.2684 38.042 38.5452 38.2984 38.822 38.5548C38.8731 38.6022 38.8731 38.6022 38.9253 38.6505C39.4931 39.1766 40.0609 39.7027 40.6286 40.2289C40.9788 40.5536 41.3292 40.8781 41.6796 41.2026C41.9194 41.4247 42.1592 41.6468 42.3989 41.869C42.5373 41.9974 42.6758 42.1257 42.8144 42.2539C42.9411 42.371 43.0676 42.4883 43.1941 42.6057C43.24 42.6483 43.286 42.6909 43.332 42.7334C43.3942 42.7909 43.4563 42.8485 43.5184 42.9062C43.553 42.9382 43.5876 42.9703 43.6233 43.0033C43.7503 43.1292 43.7593 43.2231 43.7701 43.3926C43.7737 43.4338 43.7774 43.4749 43.7812 43.5172C43.7345 43.689 43.6605 43.7591 43.5155 43.8712C43.2646 43.999 42.9718 43.9705 42.693 43.9675C42.6206 43.9677 42.5481 43.9681 42.4756 43.9686C42.276 43.9696 42.0764 43.9688 41.8768 43.9678C41.6599 43.9669 41.4429 43.9678 41.2259 43.9684C40.8454 43.9692 40.465 43.969 40.0846 43.9681C39.5189 43.9668 38.9533 43.967 38.3876 43.9676C37.436 43.9686 36.4844 43.9682 35.5328 43.967C34.5903 43.9659 33.6478 43.9653 32.7053 43.9653C32.6461 43.9653 32.5869 43.9653 32.5278 43.9653C32.29 43.9653 32.0522 43.9654 31.8144 43.9654C31.1497 43.9655 30.485 43.9654 29.8203 43.9653C29.7749 43.9653 29.7749 43.9653 29.7286 43.9653C28.764 43.9652 27.7994 43.9646 26.8348 43.9638C26.8036 43.9638 26.7723 43.9638 26.74 43.9637C26.2319 43.9632 25.7238 43.9628 25.2157 43.9623C23.2 43.9604 21.1843 43.9596 19.1686 43.9599C19.1049 43.9599 19.0412 43.9599 18.9775 43.9599C18.882 43.96 18.7865 43.96 18.691 43.96C18.3422 43.96 17.9934 43.9601 17.6446 43.9601C17.6133 43.9601 17.582 43.9601 17.5498 43.9601C15.8619 43.9603 14.174 43.9597 12.4861 43.9589C12.4266 43.9588 12.3671 43.9588 12.3076 43.9588C12.2482 43.9587 12.1888 43.9587 12.1295 43.9587C12.0854 43.9587 12.0854 43.9587 12.0405 43.9587C11.8927 43.9586 11.7449 43.9585 11.5971 43.9584C10.9488 43.9581 10.3005 43.9579 9.65226 43.9579C9.62304 43.9579 9.59376 43.9579 9.56368 43.9579C9.4165 43.9579 9.26933 43.9579 9.1221 43.9579C8.05921 43.958 6.99636 43.9574 5.93347 43.956C5.37093 43.9553 4.80842 43.955 4.2459 43.9553C3.87067 43.9555 3.49545 43.9551 3.12023 43.9542C2.9061 43.9537 2.69198 43.9535 2.47785 43.9539C2.2833 43.9543 2.08877 43.9541 1.89422 43.9531C1.82405 43.9529 1.75386 43.953 1.68369 43.9534C1.58875 43.9538 1.49389 43.9533 1.39896 43.9526C1.34629 43.9525 1.29363 43.9525 1.23937 43.9524C1.07152 43.9278 1.00132 43.8811 0.882564 43.77C0.772396 43.6289 0.782956 43.4784 0.784174 43.3105C0.784046 43.2803 0.783918 43.2501 0.783786 43.2189C0.783462 43.1168 0.783764 43.0148 0.784059 42.9127C0.783955 42.8388 0.783812 42.7648 0.783634 42.6909C0.783256 42.4864 0.783426 42.2819 0.78368 42.0773C0.783862 41.8553 0.78354 41.6333 0.783281 41.4114C0.782897 41.0218 0.782841 40.6323 0.782997 40.2428C0.783217 39.6907 0.782997 39.1385 0.782651 38.5864C0.781967 37.495 0.781851 36.4035 0.781958 35.3121C0.781973 35.1612 0.781987 35.0103 0.782001 34.8594C0.782003 34.8295 0.782006 34.7995 0.782009 34.7686C0.782064 34.1049 0.781951 33.4413 0.781803 32.7776C0.781769 32.6262 0.781737 32.4747 0.781704 32.3232C0.781691 32.2625 0.781678 32.2017 0.781664 32.1409C0.781658 32.1108 0.781651 32.0806 0.781645 32.0496C0.781631 31.9886 0.781618 31.9277 0.781605 31.8667C0.781226 30.137 0.781023 28.4073 0.781209 26.6775C0.781214 26.6295 0.781214 26.6295 0.781219 26.5804C0.781258 26.2232 0.781298 25.8658 0.78134 25.5085C0.781343 25.4762 0.781347 25.444 0.781351 25.4107C0.781382 25.1426 0.781382 25.1426 0.781396 25.0193C0.781638 22.9554 0.781309 20.8915 0.780489 18.8277C0.780283 18.3076 0.780078 17.7876 0.779884 17.2675C0.779872 17.2355 0.77986 17.2034 0.779848 17.1704C0.779483 16.1839 0.779278 15.1975 0.779242 14.211C0.779241 14.18 0.779239 14.149 0.779238 14.1171C0.779215 13.4375 0.779231 12.7579 0.779284 12.0784C0.779302 11.8352 0.779318 11.5921 0.779333 11.3489C0.779337 11.2884 0.779341 11.2279 0.779345 11.1674C0.779408 10.2026 0.779096 9.23776 0.778602 8.27294C0.778093 7.27451 0.778067 6.27608 0.778595 5.27765C0.778886 4.70162 0.778811 4.12556 0.77822 3.54951C0.777861 3.16527 0.777975 2.78104 0.778481 2.39681C0.778756 2.17752 0.778819 1.95823 0.778312 1.73895C0.777855 1.53973 0.777994 1.34053 0.778622 1.14131C0.778742 1.06942 0.778639 0.99754 0.778294 0.925652C0.77786 0.828472 0.778225 0.731325 0.778797 0.634146C0.778479 0.606145 0.77816 0.578139 0.777832 0.549291C0.779967 0.375011 0.810641 0.267002 0.926257 0.129077C1.05273 0.0180683 1.13618 -0.00768421 1.3088 -0.00772351Z" fill="#0061FF"/>
<path id="Vector_2" d="M4.05347 3.52013C8.85459 3.52013 13.6557 3.52013 18.6023 3.52013C18.3588 3.79115 18.3588 3.79115 18.2199 3.89803C17.7196 4.2943 17.2568 4.73908 16.8547 5.22158C16.8139 5.26811 16.7729 5.31455 16.7318 5.36084C16.3084 5.84002 15.9295 6.34256 15.5851 6.87356C15.5284 6.96081 15.4705 7.04745 15.4114 7.13339C14.9142 7.86249 14.5339 8.66203 14.2219 9.47303C14.1953 9.54166 14.1673 9.60981 14.1389 9.67782C13.9799 10.0598 13.8679 10.4577 13.7527 10.8526C13.7441 10.882 13.7356 10.9114 13.7267 10.9416C13.1493 12.9584 13.1074 15.3105 13.6368 17.3444C13.6659 17.4585 13.6926 17.573 13.7187 17.6878C13.8217 18.1359 13.9512 18.5668 14.1166 18.9985C14.1582 19.1089 14.1954 19.2206 14.2333 19.3321C14.3089 19.5419 14.404 19.7394 14.5067 19.9389C14.5628 20.0482 14.6156 20.1586 14.6671 20.2699C15.2834 21.593 16.1519 22.8361 17.2042 23.8972C17.2572 23.9528 17.31 24.0085 17.3626 24.0643C17.3869 24.0902 17.4112 24.116 17.4363 24.1427C17.4874 24.1971 17.5384 24.2517 17.5893 24.3063C17.7702 24.4998 17.9504 24.6847 18.1654 24.8467C18.3 24.9532 18.4036 25.0665 18.5149 25.1936C18.6266 25.3024 18.7386 25.4001 18.8644 25.4949C18.999 25.6014 19.1026 25.7146 19.214 25.8418C19.3257 25.9506 19.4376 26.0482 19.5635 26.1431C19.698 26.2496 19.8017 26.3628 19.913 26.4899C20.0247 26.5988 20.1367 26.6964 20.2626 26.7912C20.3971 26.8978 20.5007 27.011 20.6121 27.1381C20.7237 27.247 20.8358 27.3446 20.9616 27.4394C21.0961 27.546 21.1997 27.6592 21.3111 27.7863C21.4228 27.8952 21.5348 27.9928 21.6606 28.0876C21.7952 28.1941 21.8988 28.3074 22.0102 28.4345C22.1218 28.5433 22.2339 28.641 22.3597 28.7358C22.4942 28.8423 22.5978 28.9555 22.7092 29.0827C22.8209 29.1915 22.9329 29.2891 23.0587 29.3839C23.1932 29.4905 23.2969 29.6037 23.4082 29.7308C23.5199 29.8397 23.6319 29.9373 23.7578 30.0321C23.8923 30.1387 23.9959 30.2519 24.1073 30.379C24.219 30.4879 24.331 30.5855 24.4568 30.6803C24.5913 30.7868 24.6949 30.9001 24.8063 31.0272C24.918 31.136 25.03 31.2337 25.1558 31.3285C25.2904 31.435 25.394 31.5483 25.5054 31.6754C25.6171 31.7842 25.7291 31.8819 25.8549 31.9767C25.9894 32.0832 26.093 32.1964 26.2044 32.3235C26.3161 32.4324 26.4281 32.53 26.5539 32.6248C26.6884 32.7314 26.7921 32.8446 26.9034 32.9717C27.0151 33.0805 27.1271 33.1782 27.253 33.273C27.3875 33.3796 27.4911 33.4928 27.6025 33.6199C27.7142 33.7288 27.8262 33.8264 27.952 33.9212C28.0866 34.0277 28.1902 34.141 28.3015 34.2681C28.4132 34.3769 28.5252 34.4746 28.651 34.5693C28.7856 34.6759 28.8892 34.7892 29.0006 34.9162C29.1123 35.0251 29.2243 35.1228 29.3501 35.2176C29.4846 35.3241 29.5883 35.4373 29.6996 35.5644C29.8036 35.6657 29.9051 35.7577 30.0246 35.8429C30.1412 35.9326 30.2321 36.028 30.3277 36.1365C30.4189 36.2343 30.5183 36.324 30.6171 36.4152C30.6757 36.4695 30.7343 36.5238 30.7929 36.5781C30.8263 36.6091 30.8598 36.6401 30.8942 36.672C34.4172 39.9387 34.4172 39.9387 34.5104 40.0253C34.5603 40.0714 34.6103 40.1174 34.6607 40.163C34.7677 40.2602 34.8514 40.3537 34.9425 40.4663C24.7491 40.4663 14.5557 40.4663 4.05347 40.4663C4.05347 28.274 4.05347 16.0818 4.05347 3.52013Z" fill="#F4F4F4"/>
<path id="Vector_3" d="M33.2073 4.97083C33.2515 4.99091 33.2958 5.01099 33.3413 5.03168C33.6117 5.15647 33.8666 5.29306 34.1183 5.44809C34.2186 5.51081 34.2186 5.51081 34.3486 5.54583C34.3486 5.57255 34.3486 5.59933 34.3486 5.62685C34.372 5.63771 34.3954 5.64862 34.4196 5.6598C34.5416 5.71635 34.6635 5.77294 34.7854 5.82949C34.7854 5.85626 34.7854 5.88299 34.7854 5.91056C34.8168 5.92053 34.8482 5.9305 34.8805 5.9408C35.0183 5.99758 35.115 6.06648 35.2305 6.15626C35.2724 6.18884 35.3143 6.22137 35.3575 6.25488C35.5136 6.37972 35.6672 6.50681 35.8195 6.63563C35.9095 6.71127 36.0009 6.78481 36.0932 6.85792C36.4189 7.12211 36.7254 7.40296 36.9844 7.72515C37.0614 7.82078 37.1421 7.91294 37.2236 8.00534C37.5122 8.33979 37.795 8.68388 38.0094 9.06434C38.0702 9.16709 38.1392 9.26295 38.2092 9.3605C38.3785 9.60494 38.5084 9.86192 38.635 10.1268C38.673 10.2057 38.712 10.2841 38.7514 10.3625C38.9795 10.8236 39.1563 11.3014 39.2872 11.7943C39.3121 11.8876 39.3389 11.9806 39.3692 12.0726C39.848 13.5502 39.8362 15.3105 39.5034 16.8126C39.4943 16.8565 39.4851 16.9004 39.4757 16.9456C39.3439 17.5715 39.1442 18.1577 38.885 18.7481C38.851 18.8319 38.8256 18.9138 38.8044 19.0012C38.7756 19.0012 38.7468 19.0012 38.717 19.0012C38.7107 19.0488 38.7044 19.0964 38.698 19.1455C38.6312 19.4286 38.4486 19.6589 38.2848 19.9009C38.2187 20.0007 38.1592 20.1034 38.1 20.2069C37.9893 20.3986 37.8668 20.5814 37.7391 20.7638C37.6902 20.8344 37.6438 20.9066 37.5995 20.9798C37.5791 21.0089 37.5586 21.0381 37.5375 21.0681C37.5087 21.0681 37.4799 21.0681 37.4502 21.0681C37.4392 21.0974 37.4282 21.1266 37.4169 21.1568C37.2841 21.4367 37.0286 21.6675 36.7949 21.8787C36.726 21.9543 36.6581 22.0304 36.591 22.1074C36.5718 22.1256 36.5526 22.1437 36.5328 22.1624C36.504 22.1624 36.4752 22.1624 36.4455 22.1624C36.4339 22.1862 36.4224 22.2101 36.4105 22.2347C36.356 22.3281 36.2993 22.3891 36.2185 22.4638C36.1896 22.4908 36.1607 22.5177 36.1309 22.5455C36.0991 22.5748 36.0672 22.6041 36.0344 22.6342C36.0007 22.6656 35.9669 22.697 35.9321 22.7293C35.8186 22.8346 35.7048 22.9397 35.5909 23.0448C35.5097 23.1201 35.4284 23.1954 35.3471 23.2708C35.1719 23.4332 34.9966 23.5955 34.8211 23.7577C34.5674 23.9923 34.3139 24.2271 34.0606 24.4619C33.6493 24.8431 33.2379 25.224 32.8264 25.6049C32.8018 25.6277 32.7772 25.6505 32.7518 25.674C32.7271 25.6968 32.7025 25.7196 32.677 25.7431C32.3272 26.0669 31.9774 26.3906 31.6277 26.7145C31.5908 26.7486 31.5908 26.7486 31.5532 26.7835C31.1432 27.1631 30.7333 27.5428 30.3235 27.9225C30.0706 28.1569 29.8176 28.3911 29.5645 28.6252C29.3707 28.8045 29.1771 28.9838 28.9836 29.1631C28.9039 29.2368 28.8243 29.3105 28.7446 29.3842C28.6363 29.4843 28.528 29.5845 28.4198 29.6849C28.3719 29.729 28.3719 29.729 28.323 29.7741C28.2943 29.8008 28.2654 29.8276 28.2358 29.8551C28.2108 29.8783 28.1858 29.9014 28.16 29.9253C28.0972 29.9835 28.0972 29.9835 28.0581 30.0654C27.8841 30.044 27.8199 29.9727 27.7092 29.8508C27.5571 29.6885 27.4013 29.5329 27.237 29.3813C27.2146 29.3607 27.1921 29.34 27.169 29.3186C27.122 29.2753 27.075 29.2321 27.0279 29.1889C26.9531 29.1202 26.8784 29.0513 26.8037 28.9824C26.5919 28.7868 26.3798 28.5915 26.1675 28.3963C26.0368 28.2762 25.9064 28.1559 25.7761 28.0355C25.7265 27.9898 25.6769 27.9441 25.6272 27.8985C25.5582 27.8353 25.4895 27.7719 25.4208 27.7083C25.3621 27.6542 25.3621 27.6542 25.3022 27.5991C25.2185 27.5121 25.2185 27.5121 25.2185 27.431C25.1933 27.421 25.1681 27.411 25.1421 27.4006C25.0294 27.3425 24.9538 27.2777 24.8691 27.1878C24.8691 27.1611 24.8691 27.1343 24.8691 27.1068C24.8451 27.0979 24.8212 27.0889 24.7965 27.0797C24.6622 27.0088 24.5632 26.9127 24.4568 26.8104C24.4264 26.7816 24.4264 26.7816 24.3953 26.7522C24.3347 26.6949 24.2743 26.6374 24.2138 26.5799C24.1411 26.5123 24.0683 26.4448 23.9954 26.3773C23.9303 26.3169 23.8652 26.2566 23.8002 26.1962C23.7644 26.163 23.7287 26.1298 23.6918 26.0957C23.5814 25.9932 23.471 25.8908 23.3606 25.7884C23.3265 25.7568 23.2924 25.7251 23.2572 25.6925C23.2031 25.6423 23.149 25.5919 23.0952 25.5414C23.007 25.4585 22.9195 25.3841 22.8214 25.3109C22.7211 25.2347 22.6375 25.1544 22.5538 25.0627C22.3308 24.8196 22.0821 24.5989 21.8374 24.3747C21.7738 24.3161 21.7107 24.2571 21.6477 24.1979C21.5469 24.1029 21.5469 24.1029 21.418 24.0089C21.2835 23.9023 21.1799 23.7891 21.0685 23.6619C20.9569 23.553 20.8449 23.4553 20.719 23.3605C20.5845 23.2539 20.481 23.1406 20.3696 23.0134C20.2596 22.9062 20.1499 22.8099 20.0256 22.7171C19.812 22.5551 19.6431 22.3517 19.4686 22.1548C19.3684 22.0412 19.3684 22.0412 19.2621 21.9464C18.7777 21.493 18.3712 20.9609 18.0106 20.4197C17.9884 20.3881 17.9661 20.3565 17.9432 20.324C17.913 20.2811 17.913 20.2811 17.8823 20.2373C17.8648 20.2126 17.8473 20.188 17.8292 20.1626C17.7922 20.0954 17.7922 20.0954 17.7922 19.9738C17.7634 19.9738 17.7345 19.9738 17.7048 19.9738C17.6429 19.8531 17.581 19.7324 17.5192 19.6116C17.5019 19.578 17.4846 19.5443 17.4668 19.5096C16.9998 18.5969 16.6325 17.6468 16.438 16.6505C16.4314 16.6178 16.4248 16.5851 16.418 16.5514C16.1761 15.2868 16.1867 13.853 16.4817 12.5977C16.4884 12.5676 16.4952 12.5375 16.5021 12.5065C16.5453 12.3184 16.5992 12.1339 16.6564 11.9493C16.6802 11.8698 16.704 11.7904 16.7278 11.711C16.8824 11.2009 17.0498 10.7197 17.3125 10.248C17.3952 10.0896 17.4619 9.92488 17.5301 9.76076C17.5589 9.76076 17.5878 9.76076 17.6175 9.76076C17.6463 9.65376 17.6751 9.54675 17.7048 9.43652C17.7337 9.43652 17.7625 9.43652 17.7922 9.43652C17.8016 9.40408 17.811 9.37164 17.8207 9.33822C17.8973 9.14972 18.0058 8.99015 18.1226 8.82099C18.1461 8.78667 18.1697 8.75232 18.194 8.71693C18.3487 8.49473 18.5101 8.28788 18.6963 8.08735C18.7753 8.00113 18.8506 7.91421 18.9249 7.82457C18.9468 7.79826 18.9686 7.772 18.991 7.7449C19.0339 7.69313 19.0765 7.64117 19.119 7.58912C19.1698 7.52799 19.2234 7.46882 19.2775 7.41012C19.3063 7.41012 19.3351 7.41012 19.3648 7.41012C19.3791 7.37712 19.3791 7.37712 19.3937 7.34347C19.472 7.21568 19.5777 7.11968 19.6898 7.01749C19.7128 6.99624 19.7359 6.97499 19.7597 6.95308C19.9495 6.78073 20.1489 6.62411 20.3575 6.47147C20.4559 6.40083 20.4559 6.40083 20.5305 6.32613C20.588 6.27534 20.588 6.27534 20.6754 6.27534C20.6754 6.24856 20.6754 6.22184 20.6754 6.19427C20.7668 6.12742 20.8581 6.0654 20.9538 6.00427C20.9957 5.97712 20.9957 5.97712 21.0384 5.94941C21.095 5.91276 21.1515 5.87625 21.2082 5.83983C21.2757 5.7963 21.3426 5.75211 21.4095 5.70778C22.058 5.27813 22.7733 4.92374 23.5149 4.65419C23.6434 4.60321 23.7719 4.55205 23.9002 4.50063C24.0891 4.43386 24.282 4.3827 24.4759 4.32996C24.5453 4.31023 24.6146 4.29044 24.6839 4.2706C25.2131 4.12231 25.7408 4.01733 26.2872 3.94052C26.3809 3.92713 26.4743 3.91215 26.5677 3.89682C28.7746 3.57282 31.2312 4.05879 33.2073 4.97083Z" fill="#263069"/>
<path id="Vector_4" d="M27.995 18.6675C30.48 18.6675 32.4946 16.7992 32.4946 14.4945C32.4946 12.1898 30.48 10.3215 27.995 10.3215C25.5099 10.3215 23.4954 12.1898 23.4954 14.4945C23.4954 16.7992 25.5099 18.6675 27.995 18.6675Z" fill="#0061FF"/>
</g>
<defs>
<clipPath id="clip0_1221_184">
<rect width="43.9815" height="43.9815" fill="white" transform="translate(0.777832 -0.00925446)"/>
</clipPath>
</defs>
</svg>
