<svg width="41" height="41" viewBox="0 0 41 41" fill="none" xmlns="http://www.w3.org/2000/svg">
<g id="Frame" clip-path="url(#clip0_2910_1923)">
<path id="Vector" d="M41 20.5C41 9.17816 31.8218 0 20.5 0C9.17816 0 0 9.17816 0 20.5C0 31.8218 9.17816 41 20.5 41C31.8218 41 41 31.8218 41 20.5Z" fill="white" fill-opacity="0.9"/>
<path id="Vector_2" d="M31.4203 19.5262L26.797 23.6615L28.2056 29.8459C28.2833 30.1816 28.2633 30.5337 28.1481 30.8576C28.0329 31.1815 27.8276 31.4628 27.5583 31.6659C27.2889 31.869 26.9675 31.9847 26.6348 31.9986C26.302 32.0124 25.9727 31.9237 25.6885 31.7437L20.5002 28.4337L15.3088 31.7437C15.0247 31.9227 14.6958 32.0106 14.3636 31.9962C14.0314 31.9819 13.7107 31.8659 13.4419 31.663C13.1731 31.4601 12.9682 31.1793 12.8531 30.8559C12.738 30.5326 12.7177 30.1812 12.7948 29.8459L14.2085 23.6615L9.58529 19.5262C9.33388 19.3009 9.15207 19.0039 9.06254 18.6722C8.97301 18.3405 8.97974 17.9888 9.08189 17.661C9.18403 17.3333 9.37707 17.0439 9.63689 16.8292C9.89671 16.6145 10.2118 16.4839 10.5428 16.4537L16.6044 15.9468L18.9427 10.0808C19.0693 9.76112 19.2847 9.48767 19.5616 9.29521C19.8384 9.10276 20.1643 9 20.4976 9C20.831 9 21.1568 9.10276 21.4337 9.29521C21.7106 9.48767 21.926 9.76112 22.0526 10.0808L24.3899 15.9468L30.4514 16.4537C30.7831 16.4828 31.0991 16.6127 31.3599 16.8271C31.6206 17.0415 31.8146 17.3309 31.9174 17.6591C32.0201 17.9873 32.0272 18.3396 31.9377 18.6719C31.8482 19.0042 31.666 19.3017 31.4141 19.5272L31.4203 19.5262Z" fill="#FFC42E"/>
</g>
<defs>
<clipPath id="clip0_2910_1923">
<rect width="41" height="41" fill="white"/>
</clipPath>
</defs>
</svg>
