<svg width="25" height="25" viewBox="0 0 25 25" fill="none" xmlns="http://www.w3.org/2000/svg">
<g id="GenderFemale" clip-path="url(#clip0_2250_749)">
<path id="Vector" d="M20.375 9.50006C20.3752 7.99054 19.9414 6.51278 19.1255 5.24276C18.3096 3.97274 17.1459 2.96398 15.7729 2.33662C14.3999 1.70925 12.8756 1.4897 11.3814 1.70413C9.88715 1.91855 8.48604 2.55792 7.3449 3.54607C6.20376 4.53423 5.37067 5.82954 4.94484 7.27776C4.519 8.72597 4.51838 10.2661 4.94303 11.7146C5.36768 13.1632 6.19971 14.4592 7.34004 15.4483C8.48038 16.4373 9.88096 17.0779 11.375 17.2935V18.8751H8.75C8.45163 18.8751 8.16548 18.9936 7.9545 19.2046C7.74353 19.4155 7.625 19.7017 7.625 20.0001C7.625 20.2984 7.74353 20.5846 7.9545 20.7956C8.16548 21.0065 8.45163 21.1251 8.75 21.1251H11.375V23.0001C11.375 23.2984 11.4935 23.5846 11.7045 23.7956C11.9155 24.0065 12.2016 24.1251 12.5 24.1251C12.7984 24.1251 13.0845 24.0065 13.2955 23.7956C13.5065 23.5846 13.625 23.2984 13.625 23.0001V21.1251H16.25C16.5484 21.1251 16.8345 21.0065 17.0455 20.7956C17.2565 20.5846 17.375 20.2984 17.375 20.0001C17.375 19.7017 17.2565 19.4155 17.0455 19.2046C16.8345 18.9936 16.5484 18.8751 16.25 18.8751H13.625V17.2935C15.4981 17.0208 17.2107 16.0834 18.4499 14.6526C19.6892 13.2218 20.3725 11.3929 20.375 9.50006ZM6.875 9.50006C6.875 8.38754 7.2049 7.30001 7.82298 6.37498C8.44107 5.44995 9.31957 4.72898 10.3474 4.30324C11.3752 3.8775 12.5062 3.7661 13.5974 3.98315C14.6885 4.20019 15.6908 4.73592 16.4775 5.52259C17.2641 6.30926 17.7999 7.31154 18.0169 8.40268C18.234 9.49382 18.1226 10.6248 17.6968 11.6527C17.2711 12.6805 16.5501 13.559 15.6251 14.1771C14.7001 14.7952 13.6125 15.1251 12.5 15.1251C11.0087 15.1233 9.57896 14.5301 8.52444 13.4756C7.46993 12.4211 6.87674 10.9914 6.875 9.50006Z" fill="#263069"/>
</g>
<defs>
<clipPath id="clip0_2250_749">
<rect width="24" height="24" fill="white" transform="translate(0.5 0.5)"/>
</clipPath>
</defs>
</svg>
