<svg width="34" height="33" viewBox="0 0 34 33" fill="none" xmlns="http://www.w3.org/2000/svg">
<g clip-path="url(#clip0_1688_729)">
<path d="M33.7991 16.7293C33.7991 15.3837 33.6874 14.4017 33.4456 13.3835H17.7216V19.4568H26.9512C26.7652 20.9662 25.7603 23.2392 23.5273 24.7666L23.496 24.9699L28.4676 28.7335L28.8121 28.7671C31.9754 25.9122 33.7991 21.7117 33.7991 16.7293Z" fill="#4285F4"/>
<path d="M17.7216 32.7312C22.2434 32.7312 26.0394 31.2764 28.8121 28.7671L23.5274 24.7666C22.1132 25.7303 20.2151 26.4031 17.7216 26.4031C13.2929 26.4031 9.53402 23.5483 8.19409 19.6024L7.99769 19.6187L2.8281 23.5283L2.7605 23.7119C5.5145 29.058 11.1714 32.7312 17.7216 32.7312Z" fill="#34A853"/>
<path d="M8.19407 19.6024C7.84052 18.5841 7.6359 17.493 7.6359 16.3656C7.6359 15.2381 7.84052 14.1471 8.17547 13.1289L8.1661 12.912L2.93173 8.93961L2.76047 9.01921C1.62542 11.2377 0.974121 13.7289 0.974121 16.3656C0.974121 19.0023 1.62542 21.4934 2.76047 23.7119L8.19407 19.6024Z" fill="#FBBC05"/>
<path d="M17.7216 6.328C20.8664 6.328 22.9877 7.65543 24.1973 8.76473L28.9237 4.25506C26.0209 1.61839 22.2434 0 17.7216 0C11.1714 0 5.5145 3.67314 2.7605 9.01921L8.17549 13.1289C9.53402 9.18293 13.2929 6.328 17.7216 6.328Z" fill="#EB4335"/>
</g>
<defs>
<clipPath id="clip0_1688_729">
<rect width="32.8441" height="32.8441" fill="white" transform="translate(0.972412)"/>
</clipPath>
</defs>
</svg>
