<svg width="30" height="30" viewBox="0 0 30 30" fill="none" xmlns="http://www.w3.org/2000/svg">
<g id="Google" opacity="0.5" clip-path="url(#clip0_1495_464)">
<path id="Vector" d="M29.1878 15.4701C29.1878 14.3007 29.0908 13.4474 28.8806 12.5626H15.2166V17.8403H23.2371C23.0754 19.1519 22.2022 21.1271 20.2618 22.4543L20.2346 22.631L24.5549 25.9016L24.8542 25.9308C27.6031 23.4499 29.1878 19.7997 29.1878 15.4701Z" fill="#4285F4"/>
<path id="Vector_2" d="M15.2166 29.3756C19.146 29.3756 22.4447 28.1114 24.8542 25.9308L20.2618 22.4543C19.0328 23.2918 17.3834 23.8765 15.2166 23.8765C11.3681 23.8765 8.10172 21.3957 6.93734 17.9667L6.76666 17.9809L2.27436 21.3783L2.21561 21.5379C4.6088 26.1835 9.52461 29.3756 15.2166 29.3756Z" fill="#34A853"/>
<path id="Vector_3" d="M6.93732 17.9667C6.63009 17.0818 6.45228 16.1336 6.45228 15.154C6.45228 14.1742 6.63009 13.2262 6.92115 12.3413L6.91302 12.1528L2.36441 8.70087L2.21559 8.77004C1.22924 10.6979 0.663269 12.8628 0.663269 15.154C0.663269 17.4452 1.22924 19.61 2.21559 21.5378L6.93732 17.9667Z" fill="#FBBC05"/>
<path id="Vector_4" d="M15.2166 6.43139C17.9494 6.43139 19.7928 7.58491 20.8439 8.54888L24.9512 4.63003C22.4287 2.33879 19.146 0.932434 15.2166 0.932434C9.52461 0.932434 4.6088 4.12435 2.21561 8.77002L6.92117 12.3413C8.10172 8.91229 11.3681 6.43139 15.2166 6.43139Z" fill="#EB4335"/>
</g>
<defs>
<clipPath id="clip0_1495_464">
<rect width="28.5411" height="28.5411" fill="white" transform="translate(0.661804 0.932373)"/>
</clipPath>
</defs>
</svg>
