<svg width="337" height="312" viewBox="0 0 337 312" fill="none" xmlns="http://www.w3.org/2000/svg">
<path d="M239.118 88.5293C241.531 83.9514 243.596 80.1551 246.009 75.5771C246.38 74.8739 247.301 73.5484 248.12 74.1172C248.703 74.5226 248.557 76.6929 246.401 80.0881C248.475 76.4329 249.495 74.8355 251.569 71.1803C251.831 70.7179 252.181 70.1994 252.668 70.202C253.168 70.2041 253.518 70.8035 253.505 71.3588C253.492 71.9136 253.222 72.4207 252.961 72.8987C251.46 75.6404 251.59 75.9622 250.09 78.704C251.966 75.1075 252.019 74.6191 254.302 71.3204C254.68 70.7745 255.241 70.1673 255.818 70.3904C257.118 71.1035 255.633 73.4472 254.516 75.2948C253.876 76.353 253.254 77.3531 251.659 79.8073C253.343 77.4216 253.909 76.3561 255.599 73.975C255.916 73.5282 256.262 73.058 256.746 72.8763C257.23 72.6947 257.876 72.9604 257.937 73.5194C257.976 73.8749 257.778 74.2081 257.589 74.5034C255.835 77.2374 255.422 78.3796 253.669 81.1136C254.97 79.1482 255.107 78.9183 256.733 77.2768C257.216 76.7895 257.996 76.3188 258.436 76.8372C258.842 77.3162 258.478 78.0978 258.112 78.6293C254.508 83.8642 251.518 87.4519 247.914 92.6869" fill="white"/>
<path d="M239.118 88.5293C241.531 83.9514 243.596 80.1551 246.009 75.5771C246.38 74.8739 247.301 73.5484 248.12 74.1172C248.703 74.5226 248.557 76.6929 246.401 80.0881C248.475 76.4329 249.495 74.8355 251.569 71.1803C251.831 70.7179 252.181 70.1994 252.668 70.202C253.168 70.2041 253.518 70.8035 253.505 71.3588C253.492 71.9136 253.222 72.4207 252.961 72.8987C251.46 75.6404 251.59 75.9622 250.09 78.704C251.966 75.1075 252.019 74.6191 254.302 71.3204C254.68 70.7745 255.241 70.1673 255.818 70.3904C257.118 71.1035 255.633 73.4472 254.516 75.2948C253.876 76.353 253.254 77.3531 251.659 79.8073C253.343 77.4216 253.909 76.3561 255.599 73.975C255.916 73.5282 256.262 73.058 256.746 72.8763C257.23 72.6947 257.876 72.9604 257.937 73.5194C257.976 73.8749 257.778 74.2081 257.589 74.5034C255.835 77.2374 255.422 78.3796 253.669 81.1136C254.97 79.1482 255.107 78.9183 256.733 77.2768C257.216 76.7895 257.996 76.3188 258.436 76.8372C258.842 77.3162 258.478 78.0978 258.112 78.6293C254.508 83.8642 251.518 87.4519 247.914 92.6869" stroke="#010101" stroke-width="1.31944" stroke-linecap="round" stroke-linejoin="round"/>
<path d="M246.401 80.0881C247.12 80.8152 247.782 81.6176 248.214 82.5455C248.646 83.4729 248.835 84.54 248.59 85.5338" fill="white"/>
<path d="M246.401 80.0881C247.12 80.8152 247.782 81.6176 248.214 82.5455C248.646 83.4729 248.835 84.54 248.59 85.5338" stroke="#010101" stroke-width="1.31944" stroke-linecap="round" stroke-linejoin="round"/>
<path d="M143.322 284.24L230.258 208.933C230.258 208.933 175.09 170.685 145.15 154.582C115.005 171.447 86.5251 190.069 60.345 212.303C62.4721 216.873 143.322 284.24 143.322 284.24H143.322Z" fill="white" stroke="#010101" stroke-width="1.31944" stroke-linecap="round" stroke-linejoin="round"/>
<path d="M167.697 112.901C172.637 111.79 178.042 110.188 183.102 110.387C187.507 110.561 191.804 111.727 196.087 112.776C203.603 114.615 211.204 116.11 218.857 117.253C225.7 106.191 232.499 94.973 239.131 83.6561C243.822 86.7202 248.384 89.1438 252.938 91.5623C249.902 99.5935 246.073 107.525 242.016 115.338C238.004 123.063 233.565 130.911 226.597 136.12C225.339 137.06 223.995 137.912 222.511 138.425C220.592 139.09 218.523 139.162 216.494 139.133C205.764 138.979 195.266 136.195 184.898 133.43C183.186 151.292 182.144 169.016 181.102 186.739C162.162 188.464 142.998 190.398 123.893 192.806C123.704 187.683 123.93 182.416 123.862 177.152C118.545 178.094 104.809 182.856 97.9283 180.086C96.6165 179.558 95.3705 178.787 94.4971 177.674C93.2107 176.035 92.8645 173.829 92.9847 171.748C93.1749 168.45 94.4064 165.305 95.7851 162.304C100.302 152.473 105.224 144.056 111.408 135.181C112.704 133.321 114.006 131.453 115.559 129.803C122.035 122.923 131.899 120.68 140.829 119.088C145.613 122.046 150.887 124.209 156.368 125.462C157.047 125.617 157.761 125.757 158.431 125.566C159.206 125.344 159.789 124.717 160.325 124.114C164.146 119.818 167.359 115.819 167.698 112.901H167.697Z" fill="#263069" stroke="#010101" stroke-width="1.31944" stroke-linecap="round" stroke-linejoin="round"/>
<path d="M126.842 147.6C126.842 147.6 120.882 156.781 117.903 160.711C121.042 159.936 127.322 158.385 127.322 158.385L126.842 147.6Z" stroke="#010101" stroke-width="1.31944" stroke-linecap="round" stroke-linejoin="round"/>
<path d="M163.926 86.2962C163.308 84.7683 162.675 83.2337 161.77 81.8569C160.865 80.48 159.663 79.2557 158.162 78.579C155.917 77.5664 153.315 77.8851 150.902 78.3714C149.351 78.6838 147.807 79.0585 146.339 79.646C142.777 81.0711 139.74 83.7703 137.904 87.1422C136.068 90.514 135.448 94.5325 136.192 98.7243C135.908 98.1928 131.737 97.993 129.742 99.9916C127.646 102.09 126.547 104.288 126.912 107.233C127.277 110.179 129.149 112.882 131.743 114.319C134.337 115.757 137.582 115.919 140.334 114.815C141.553 114.326 142.697 113.584 143.496 112.541C144.403 111.358 144.813 109.868 145.035 108.394C145.38 106.112 145.56 104.803 144.402 102.795C146.551 102.204 148.676 101.468 150.611 100.363C152.547 99.2573 154.296 97.7647 155.481 95.8745C155.872 95.2512 156.207 94.5605 156.063 94.0228C157.57 90.6842 160.424 87.9793 163.926 86.2967L163.926 86.2962Z" fill="#010101" stroke="#010101" stroke-width="1.31944" stroke-linecap="round" stroke-linejoin="round"/>
<path d="M146.079 98.9038C145.795 98.1611 144.976 97.6624 144.187 97.7532C143.31 97.8534 142.627 98.5789 142.212 99.3584C141.578 100.549 141.398 102.02 141.916 103.266C142.435 104.512 143.714 105.456 145.062 105.398C145.811 105.366 146.573 105.003 146.972 104.498C147.118 108.863 147.263 113.229 147.259 117.564C145.122 118.007 142.999 118.524 140.611 118.925C141.325 122.476 142.038 126.028 142.752 129.58C143 130.811 143.322 132.163 144.347 132.888C144.982 133.338 145.785 133.463 146.558 133.546C153.283 134.265 160.023 132.67 166.563 130.945C167.431 130.716 168.334 130.465 169.001 129.864C170.108 128.865 170.261 127.209 170.313 125.719C170.472 121.232 170.399 116.738 169.989 112.413C166.794 113.022 164.278 113.8 160.89 114.763C160.783 112.737 160.762 110.705 160.891 108.455C163.785 107.23 165.903 105.088 166.715 102.049C167.109 100.577 167.011 99.0206 166.834 97.5072C166.36 93.4602 165.332 89.4786 163.591 85.5442C161.738 85.4149 159.878 85.171 158.119 84.5721C156.36 83.9732 154.696 83.0001 153.287 81.7992C153.723 85.0096 152.733 88.2372 151.533 91.2457C150.449 93.96 149.075 96.7324 146.079 98.9038H146.079Z" fill="white" stroke="#010101" stroke-width="1.31944" stroke-linecap="round" stroke-linejoin="round"/>
<path d="M160.26 91.0153C161.024 92.1721 161.781 93.333 162.532 94.4987C162.604 94.6097 162.678 94.7364 162.65 94.8656C162.632 94.9512 162.57 95.0208 162.509 95.0841C162.015 95.5937 161.385 95.9705 160.703 96.1641" stroke="#010101" stroke-width="1.31944" stroke-linecap="round" stroke-linejoin="round"/>
<path d="M155.096 108.517C156.898 108.844 159.414 108.802 161.199 108.394" stroke="#010101" stroke-width="1.31944" stroke-linecap="round" stroke-linejoin="round"/>
<path d="M145.778 179.642C166.373 174.759 187.067 170.298 207.844 166.261C208.939 166.632 209.953 167.037 210.957 167.439C213.193 168.336 215.429 169.233 217.665 170.129C215.127 156.615 212.492 143.573 209.619 130.584C187.395 133.646 164.486 138.04 141.105 142.607C143.799 154.263 145.453 166.16 145.778 179.642H145.778Z" fill="white" stroke="#010101" stroke-width="1.31944" stroke-linecap="round" stroke-linejoin="round"/>
<path d="M154.857 150.489C171.276 147.26 187.746 144.298 204.261 141.601" stroke="#010101" stroke-width="1.31944" stroke-linecap="round" stroke-linejoin="round"/>
<path d="M156.657 158.044C172.728 155.396 187.673 152.229 203.743 149.58" stroke="#010101" stroke-width="1.31944" stroke-linecap="round" stroke-linejoin="round"/>
<path d="M156.657 166.162C164.92 165.166 177.801 162.338 185.934 160.574" stroke="#010101" stroke-width="1.31944" stroke-linecap="round" stroke-linejoin="round"/>
<path d="M124.829 189.912C121.668 206.997 117.367 227.176 113.841 244.001C121.516 248.967 132.026 255.312 139.872 259.724C143.974 246.284 146.089 237.413 150.872 218.857C154.552 230.317 157.645 241.966 160.429 253.604C166.323 249.941 172.218 246.279 178.113 242.616C180.394 241.199 181.526 240.546 183.483 238.705C183.297 238.916 181.432 206.765 180.733 184.938C164.157 186.106 125.141 190.611 124.829 189.912Z" fill="#010101" stroke="#010101" stroke-width="1.31944" stroke-linecap="round" stroke-linejoin="round"/>
<path d="M49.4849 310.593L212.51 310.365L230.259 208.933L145.384 262.634C145.384 262.634 70.4674 219.04 60.3459 212.303C58.435 233.201 49.4854 310.593 49.4854 310.593L49.4849 310.593Z" fill="#E3E3FF" stroke="#010101" stroke-width="1.31944" stroke-linecap="round" stroke-linejoin="round"/>
<path d="M35.5662 310.225C33.7568 303.5 31.441 297.395 29.6943 290.652C27.9471 283.911 27.1935 276.674 29.316 270.041C31.072 264.553 35.6968 259.281 41.4474 259.502C44.0716 259.603 46.518 260.832 48.7368 262.239C56.7778 267.335 62.9337 275.007 67.5575 283.336C72.1813 291.664 74.7381 301.522 77.6852 310.593C65.5102 310.878 53.6037 310.335 35.5667 310.225L35.5662 310.225Z" fill="#55D087" stroke="#010101" stroke-width="1.31944" stroke-linecap="round" stroke-linejoin="round"/>
<path d="M298.013 12.8997C297.555 17.5866 296.858 22.2476 295.928 26.8546C301.442 23.7283 306.994 20.6777 312.582 17.7034C312.614 14.7177 313.036 11.7367 313.83 8.87292C309.336 9.71575 304.911 10.98 298.013 12.8997Z" fill="#FF8B37" stroke="#010101" stroke-width="1.31944" stroke-linecap="round" stroke-linejoin="round"/>
<path d="M258.706 63.6235C264.56 51.1903 274.044 40.4966 285.681 33.205" stroke="#010101" stroke-width="1.31944" stroke-linecap="round" stroke-linejoin="round"/>
<path d="M267.991 35.6462C272.159 30.3874 277.209 25.8312 282.864 22.2253" stroke="#010101" stroke-width="1.31944" stroke-linecap="round" stroke-linejoin="round"/>
<path d="M36.5579 310.192C33.7456 302.735 28.5895 286.466 23.1862 280.612C20.2349 277.414 16.9561 274.377 12.959 272.663C11.1397 271.882 9.15565 271.388 7.18453 271.569C5.21341 271.751 3.25681 272.672 2.10773 274.286C1.06645 275.748 0.772573 277.605 0.617082 279.394C-0.155712 288.27 1.55677 302.031 6.46824 310.594C13.8458 310.329 27.3357 310.524 36.5574 310.193L36.5579 310.192Z" fill="#55D087" stroke="#010101" stroke-width="1.31944" stroke-linecap="round" stroke-linejoin="round"/>
<path d="M38.6431 259.724C42.2458 277.229 50.9316 293.294 55.4082 310.595" stroke="#010101" stroke-width="1.31944" stroke-linecap="round" stroke-linejoin="round"/>
<path d="M6.53613 271.758C9.48373 284.845 13.6602 297.656 18.992 309.964" stroke="#010101" stroke-width="1.31944" stroke-linecap="round" stroke-linejoin="round"/>
<path d="M299.607 31.0091C299.607 31.0091 303.173 19.5552 305.436 14.027C300.278 13.1068 294.71 11.7658 288.84 9.78897C304.696 6.44206 320.593 3.30846 336.524 0.388672C331.606 6.15506 299.607 31.0091 299.607 31.0091Z" fill="#FF8B37" stroke="#010101" stroke-width="1.31944" stroke-linecap="round" stroke-linejoin="round"/>
<path d="M305.099 13.7825C315.655 8.75722 323.018 5.89088 336.523 0.38916L305.099 13.7825Z" fill="#FF8B37"/>
<path d="M305.099 13.7825C315.655 8.75722 323.018 5.89088 336.523 0.38916" stroke="#010101" stroke-width="1.31944" stroke-linecap="round" stroke-linejoin="round"/>
<path d="M13.1631 292.769C16.1293 288.754 19.3802 284.95 22.8839 281.396L13.1631 292.769Z" fill="#55D087"/>
<path d="M13.1631 292.769C16.1293 288.754 19.3802 284.95 22.8839 281.396" stroke="#010101" stroke-width="1.31944" stroke-linecap="round" stroke-linejoin="round"/>
<path d="M50.0396 292.639C53.0312 286.395 56.8573 278.639 60.346 272.659L50.0396 292.639Z" fill="#55D087"/>
<path d="M50.0396 292.639C53.0312 286.395 56.8573 278.639 60.346 272.659" stroke="#010101" stroke-width="1.31944" stroke-linecap="round" stroke-linejoin="round"/>
<path d="M30.7488 294.068C38.0636 295.991 45.2981 298.219 52.4274 300.746L30.7488 294.068Z" fill="#55D087"/>
<path d="M30.7488 294.068C38.0636 295.991 45.2981 298.219 52.4274 300.746" stroke="#010101" stroke-width="1.31944" stroke-linecap="round" stroke-linejoin="round"/>
<path d="M151.168 161.832C149.736 162.196 149.508 162.384 146.094 163.146C149.531 162.497 149.453 162.418 152.889 161.778C153.536 161.66 154.226 161.542 154.8 161.748C155.374 161.96 155.73 162.63 155.329 163.112C155.073 163.417 154.619 163.511 154.215 163.629C151.387 164.451 150.578 164.736 147.057 165.558C149.525 165.027 150.043 164.716 152.733 164.618C153.557 164.584 154.632 164.78 154.593 165.499C154.565 166.168 153.602 166.513 152.844 166.666C145.391 168.147 143.547 168.197 136.089 169.678L136.034 169.388C135.839 165.504 135.36 162.974 135.226 158.638C139.744 157.26 138.334 157.89 143.693 156.044C143.759 156.044 144.105 158.244 144.138 158.574C144.144 158.599 144.105 158.731 143.514 158.988C144.818 158.516 146.682 157.941 151.35 156.853C151.968 156.71 152.868 156.788 153.179 157.176C153.527 157.611 153.44 158.337 152.972 158.761C152.677 159.031 148.415 160.03 144.988 160.9C145.885 160.649 150.688 159.406 152.972 158.958C153.752 158.806 155.052 158.886 155.381 159.477C155.978 160.846 153.662 161.197 151.167 161.832H151.168Z" fill="white" stroke="#010101" stroke-width="1.31944" stroke-linecap="round" stroke-linejoin="round"/>
<path d="M108.809 162.88C119.603 160.255 129.511 157.818 135.192 156.205C135.192 163.946 136.066 166.461 136.066 173.911C131.468 174.847 128.864 175.904 123.601 177.201" stroke="#010101" stroke-width="1.31944" stroke-linecap="round" stroke-linejoin="round"/>
<path d="M14.6865 235.16C16.3632 234.121 18.0394 233.082 19.7162 232.043" stroke="#010101" stroke-width="1.31944" stroke-linecap="round" stroke-linejoin="round"/>
<path d="M239.222 179.232C238.553 179.141 237.845 179.466 237.475 180.032C237.106 180.598 237.094 181.378 237.446 181.955C238.072 182.984 239.791 183.032 240.502 182.06C241.213 181.088 240.698 179.432 239.223 179.232L239.222 179.232Z" fill="#010101"/>
<path d="M213.809 73.1691L216.026 71.3423C215.935 71.3937 215.844 71.4456 213.809 73.1691Z" stroke="#010101" stroke-width="1.31944" stroke-linecap="round" stroke-linejoin="round"/>
<path d="M50.9089 119.916C51.6781 120.365 52.4467 120.814 53.2159 121.263" stroke="#010101" stroke-width="1.31944" stroke-linecap="round" stroke-linejoin="round"/>
<path d="M63.2497 168.423C62.7713 168.359 62.2654 168.59 62.0016 168.995C61.7378 169.399 61.729 169.956 61.9803 170.369C62.4282 171.103 63.6555 171.138 64.1634 170.443C64.6714 169.749 64.3029 168.566 63.2497 168.423V168.423Z" fill="#010101"/>
<path d="M107.607 85.0968C107.32 85.0579 107.017 85.197 106.858 85.4399C106.7 85.6828 106.694 86.0165 106.845 86.264C107.114 86.7046 107.85 86.7254 108.155 86.3092C108.46 85.8924 108.239 85.1824 107.607 85.0968Z" fill="#010101"/>
</svg>
