<svg width="60" height="60" viewBox="0 0 60 60" fill="none" xmlns="http://www.w3.org/2000/svg">
<g id="icon-park:public-toilet">
<g id="Group">
<path id="Vector" d="M18.75 17.5001C21.5114 17.5001 23.75 15.2615 23.75 12.5001C23.75 9.73864 21.5114 7.50006 18.75 7.50006C15.9886 7.50006 13.75 9.73864 13.75 12.5001C13.75 15.2615 15.9886 17.5001 18.75 17.5001Z" fill="#AACBF4" stroke="#263069" stroke-width="4.66667" stroke-linecap="round" stroke-linejoin="round"/>
<path id="Vector_2" d="M41.25 17.5001C44.0114 17.5001 46.25 15.2615 46.25 12.5001C46.25 9.73864 44.0114 7.50006 41.25 7.50006C38.4886 7.50006 36.25 9.73864 36.25 12.5001C36.25 15.2615 38.4886 17.5001 41.25 17.5001Z" fill="#AACBF4" stroke="#263069" stroke-width="4.66667" stroke-linecap="round" stroke-linejoin="round"/>
<path id="Vector_3" d="M12.5 24.9999H25L22.5 52.4999H15L12.5 24.9999Z" fill="#AACBF4" stroke="#263069" stroke-width="4.66667" stroke-linecap="round" stroke-linejoin="round"/>
<path id="Vector_4" d="M35 24.9999H47.5L50 38.7499H46.25L45 52.4999H37.5L36.25 38.7499H32.5L35 24.9999Z" fill="#AACBF4" stroke="#263069" stroke-width="4.66667" stroke-linecap="round" stroke-linejoin="round"/>
</g>
</g>
</svg>
