<svg width="32" height="32" viewBox="0 0 32 32" fill="none" xmlns="http://www.w3.org/2000/svg">
<g id="LinkedinLogo">
<path id="Vector" d="M26.3423 2.70166H5.17623C4.53832 2.70166 3.92654 2.95507 3.47547 3.40614C3.0244 3.85721 2.771 4.46899 2.771 5.1069V26.273C2.771 26.9109 3.0244 27.5227 3.47547 27.9737C3.92654 28.4248 4.53832 28.6782 5.17623 28.6782H26.3423C26.9802 28.6782 27.592 28.4248 28.0431 27.9737C28.4942 27.5227 28.7476 26.9109 28.7476 26.273V5.1069C28.7476 4.46899 28.4942 3.85721 28.0431 3.40614C27.592 2.95507 26.9802 2.70166 26.3423 2.70166ZM25.8613 25.7919H5.65728V5.58794H25.8613V25.7919ZM13.8351 21.4625V14.7278C13.8354 14.4279 13.9291 14.1356 14.1032 13.8914C14.2773 13.6472 14.5232 13.4633 14.8066 13.3653C15.0901 13.2673 15.397 13.26 15.6848 13.3445C15.9725 13.429 16.2268 13.601 16.4123 13.8367C17.1453 13.4525 17.965 13.2639 18.7922 13.2891C19.6194 13.3144 20.4261 13.5526 21.1344 13.9807C21.8426 14.4089 22.4284 15.0126 22.8351 15.7333C23.2418 16.4541 23.4557 17.2676 23.456 18.0952V21.4625C23.456 21.8453 23.304 22.2123 23.0333 22.483C22.7627 22.7536 22.3956 22.9057 22.0129 22.9057C21.6301 22.9057 21.2631 22.7536 20.9924 22.483C20.7218 22.2123 20.5698 21.8453 20.5698 21.4625V18.0952C20.5698 17.5849 20.367 17.0954 20.0062 16.7346C19.6453 16.3737 19.1559 16.171 18.6456 16.171C18.1352 16.171 17.6458 16.3737 17.285 16.7346C16.9241 17.0954 16.7214 17.5849 16.7214 18.0952V21.4625C16.7214 21.8453 16.5693 22.2123 16.2987 22.483C16.028 22.7536 15.661 22.9057 15.2782 22.9057C14.8955 22.9057 14.5284 22.7536 14.2578 22.483C13.9871 22.2123 13.8351 21.8453 13.8351 21.4625ZM11.9109 14.7278V21.4625C11.9109 21.8453 11.7589 22.2123 11.4882 22.483C11.2176 22.7536 10.8505 22.9057 10.4678 22.9057C10.085 22.9057 9.71794 22.7536 9.4473 22.483C9.17666 22.2123 9.02461 21.8453 9.02461 21.4625V14.7278C9.02461 14.3451 9.17666 13.978 9.4473 13.7074C9.71794 13.4367 10.085 13.2847 10.4678 13.2847C10.8505 13.2847 11.2176 13.4367 11.4882 13.7074C11.7589 13.978 11.9109 14.3451 11.9109 14.7278ZM8.54357 9.91737C8.54357 9.5368 8.65642 9.16478 8.86785 8.84835C9.07928 8.53192 9.3798 8.28529 9.7314 8.13965C10.083 7.99401 10.4699 7.95591 10.8431 8.03015C11.2164 8.1044 11.5593 8.28766 11.8284 8.55676C12.0975 8.82587 12.2807 9.16873 12.355 9.54198C12.4292 9.91524 12.3911 10.3021 12.2455 10.6537C12.0998 11.0053 11.8532 11.3058 11.5368 11.5173C11.2203 11.7287 10.8483 11.8416 10.4678 11.8416C9.95743 11.8416 9.468 11.6388 9.10715 11.278C8.74629 10.9171 8.54357 10.4277 8.54357 9.91737Z" fill="#0061FF"/>
</g>
</svg>
