<svg width="22" height="22" viewBox="0 0 22 22" fill="none" xmlns="http://www.w3.org/2000/svg">
<g id="location_on">
<mask id="mask0_2368_3726" style="mask-type:alpha" maskUnits="userSpaceOnUse" x="0" y="0" width="22" height="22">
<rect id="Bounding box" x="0.69458" y="0.324219" width="21.1111" height="21.1111" fill="#D9D9D9"/>
</mask>
<g mask="url(#mask0_2368_3726)">
<path id="location_on_2" d="M11.2503 11.0998C11.7927 11.0998 12.2582 10.9056 12.6467 10.5171C13.0352 10.1286 13.2294 9.66308 13.2294 9.12064C13.2294 8.5782 13.0352 8.11273 12.6467 7.72423C12.2582 7.33573 11.7927 7.14148 11.2503 7.14148C10.7078 7.14148 10.2424 7.33573 9.85385 7.72423C9.46535 8.11273 9.2711 8.5782 9.2711 9.12064C9.2711 9.66308 9.46535 10.1286 9.85385 10.5171C10.2424 10.9056 10.7078 11.0998 11.2503 11.0998ZM11.2503 17.3012C13.0242 15.7472 14.3693 14.2885 15.2856 12.925C16.2018 11.5616 16.66 10.3301 16.66 9.2306C16.66 7.69124 16.1359 6.38279 15.0876 5.30525C14.0394 4.2277 12.7603 3.68893 11.2503 3.68893C9.74023 3.68893 8.4611 4.2277 7.41288 5.30525C6.36465 6.38279 5.84054 7.69124 5.84054 9.2306C5.84054 10.3301 6.29868 11.5579 7.21496 12.914C8.13124 14.2701 9.47634 15.7325 11.2503 17.3012ZM11.2503 20.4019C8.61137 18.2175 6.66153 16.22 5.40073 14.4094C4.13992 12.5988 3.50952 10.8726 3.50952 9.2306C3.50952 7.04618 4.26454 5.18796 5.77457 3.65594C7.2846 2.12392 9.10983 1.35791 11.2503 1.35791C13.3907 1.35791 15.2159 2.12392 16.726 3.65594C18.236 5.18796 18.991 7.04618 18.991 9.2306C18.991 10.8726 18.3606 12.5988 17.0998 14.4094C15.839 16.22 13.8892 18.2175 11.2503 20.4019Z" fill="#1C1B1F"/>
</g>
</g>
</svg>
