<svg width="26" height="35" viewBox="0 0 26 35" fill="none" xmlns="http://www.w3.org/2000/svg">
<g id="Clip path group">
<mask id="mask0_4529_1777" style="mask-type:luminance" maskUnits="userSpaceOnUse" x="0" y="0" width="26" height="35">
<g id="clippath">
<path id="Vector" d="M12.7589 0.686523C5.8801 0.686523 0.303711 6.26291 0.303711 13.1417C0.303711 22.6297 8.63106 25.0021 12.4297 34.5521C12.549 34.8516 12.9696 34.8516 13.0889 34.5521C16.8867 25.0021 25.2149 22.6297 25.2149 13.1417C25.214 6.26291 19.6376 0.686523 12.7589 0.686523Z" fill="white"/>
</g>
</mask>
<g mask="url(#mask0_4529_1777)">
<g id="Group">
<path id="Vector_2" d="M12.7589 0.686523C5.8801 0.686523 0.303711 6.26291 0.303711 13.1417C0.303711 22.6297 8.63106 25.0021 12.4297 34.5521C12.549 34.8516 12.9696 34.8516 13.0889 34.5521C16.8867 25.0021 25.2149 22.6297 25.2149 13.1417C25.214 6.26291 19.6376 0.686523 12.7589 0.686523Z" fill="#AACBF4"/>
<path id="Vector_3" d="M16.7224 12.2008C17.5021 12.2008 18.1342 11.5687 18.1342 10.789C18.1342 10.0093 17.5021 9.3772 16.7224 9.3772C15.9426 9.3772 15.3105 10.0093 15.3105 10.789C15.3105 11.5687 15.9426 12.2008 16.7224 12.2008Z" fill="#AACBF4"/>
<g id="Group_2">
<path id="Vector_4" d="M16.8902 29.4955C16.6866 29.4955 16.5485 29.4032 16.475 29.2184L13.3338 20.2183C13.2737 20.047 13.1123 19.9322 12.9302 19.9322H11.0215C10.7595 19.9322 10.547 20.1448 10.547 20.4067V30.9047C10.547 31.006 10.4644 31.0885 10.3631 31.0885H6.65775C6.5564 31.0885 6.47388 31.006 6.47388 30.9047V8.56145C6.47388 8.4 6.61111 8.32286 6.77167 8.32286L14.2577 8.26904C15.2174 8.26904 16.0902 8.41256 16.8759 8.69869C17.6607 8.98482 18.3343 9.38665 18.8985 9.9042C19.4618 10.4217 19.896 11.0397 20.2009 11.76C20.5059 12.4803 20.6584 13.2651 20.6584 14.1145C20.6584 15.3335 20.3633 16.3955 19.7722 17.3005C19.2107 18.1598 18.4411 18.82 17.4634 19.2792C17.3755 19.3205 17.3333 19.4209 17.3674 19.5106L21.0189 29.1628C21.0557 29.2552 21.0557 29.3341 21.0189 29.3987C20.9822 29.4633 20.9176 29.4955 20.8252 29.4955H16.8911H16.8902Z" fill="#1E295D"/>
<path id="Vector_5" d="M16.5188 30.5199C16.3152 30.5199 16.177 30.4275 16.1035 30.2427L12.6726 20.1905C12.6251 20.0515 12.495 19.9591 12.3488 19.9591H10.415C10.1342 19.9591 9.90642 20.1869 9.90642 20.4677V30.0418C9.90642 30.2508 9.73689 30.4194 9.5288 30.4194H6.21185C6.00286 30.4194 5.83423 30.2499 5.83423 30.0418V8.73728C5.83423 8.49421 6.03156 8.29688 6.27463 8.29688H13.6189C14.5787 8.29688 15.4514 8.44039 16.2371 8.72652C17.022 9.01265 17.6956 9.41448 18.2598 9.93203C18.8231 10.4496 19.2572 11.0676 19.5622 11.7878C19.8671 12.5081 20.0196 13.2929 20.0196 14.1423C20.0196 15.3613 19.7245 16.4233 19.1334 17.3283C18.5952 18.1517 17.8669 18.7913 16.9475 19.2478C16.7906 19.3259 16.7161 19.5088 16.7762 19.6739L20.6484 30.1889C20.6852 30.2813 20.6852 30.3602 20.6484 30.4248C20.6116 30.4894 20.547 30.5217 20.4546 30.5217H16.5206L16.5188 30.5199Z" fill="#253169"/>
<g id="Group_3">
<g id="Group_4">
<g id="Vector_6">
<mask id="path-6-inside-1_4529_1777" fill="white">
<path d="M9.49212 16.1989C9.49033 16.172 9.48495 16.1622 9.48315 16.1657C9.48764 16.1774 9.49123 16.1882 9.49212 16.198V16.1989Z"/>
</mask>
<path d="M9.49212 16.1989C9.49033 16.172 9.48495 16.1622 9.48315 16.1657C9.48764 16.1774 9.49123 16.1882 9.49212 16.198V16.1989Z" fill="#346287"/>
<path d="M9.49212 16.1989L9.40263 16.2049L9.58182 16.1989H9.49212ZM9.48315 16.1657L9.40293 16.1256L9.38523 16.161L9.39944 16.1979L9.48315 16.1657ZM9.49212 16.198H9.58219L9.58145 16.1899L9.49212 16.198ZM9.58162 16.193C9.58046 16.1755 9.57786 16.1579 9.57273 16.1425C9.57121 16.138 9.56543 16.1203 9.55063 16.1044C9.54455 16.0979 9.51953 16.0728 9.47814 16.0755C9.43116 16.0786 9.40919 16.1131 9.40293 16.1256L9.56338 16.2059C9.55757 16.2175 9.53616 16.2515 9.48982 16.2545C9.44908 16.2572 9.42478 16.2325 9.41949 16.2268C9.41154 16.2183 9.40743 16.2104 9.40596 16.2074C9.40407 16.2036 9.40303 16.2007 9.40255 16.1993C9.401 16.1946 9.402 16.1955 9.40263 16.2049L9.58162 16.193ZM9.39944 16.1979C9.40133 16.2029 9.40233 16.2058 9.40288 16.2077C9.40343 16.2096 9.40304 16.2088 9.4028 16.2062L9.58145 16.1899C9.57932 16.1665 9.57148 16.1455 9.56687 16.1335L9.39944 16.1979ZM9.40243 16.198V16.1989H9.58182V16.198H9.40243Z" fill="#AACBF4" mask="url(#path-6-inside-1_4529_1777)"/>
</g>
<path id="Vector_7" d="M15.5278 17.0102C17.0147 15.5233 17.0147 13.1125 15.5278 11.6255C14.0408 10.1385 11.63 10.1385 10.1431 11.6255C8.6561 13.1125 8.6561 15.5233 10.1431 17.0102C11.63 18.4972 14.0408 18.4972 15.5278 17.0102Z" fill="#AACBF4" stroke="#AACBF4" stroke-width="1.11492" stroke-miterlimit="10"/>
</g>
<g id="Group_5" opacity="0.9">
<g id="Vector_8">
<mask id="path-9-inside-2_4529_1777" fill="white">
<path d="M9.72172 13.4671C9.72172 13.4671 9.70468 13.4859 9.7002 13.4904C9.71006 13.477 9.71813 13.4662 9.72172 13.4671Z"/>
</mask>
<path d="M9.72172 13.4671C9.72172 13.4671 9.70468 13.4859 9.7002 13.4904C9.71006 13.477 9.71813 13.4662 9.72172 13.4671Z" fill="#4066B0"/>
<path d="M9.72172 13.4671L9.78824 13.5273L9.88858 13.4164L9.74348 13.3801L9.72172 13.4671ZM9.7002 13.4904L9.62786 13.4374L9.76362 13.5538L9.7002 13.4904ZM9.72172 13.4671C9.65521 13.4069 9.65521 13.4069 9.65521 13.4069C9.65521 13.4069 9.65521 13.4069 9.65521 13.4069C9.65521 13.4069 9.65521 13.4069 9.65521 13.4069C9.65521 13.4069 9.6552 13.4069 9.6552 13.4069C9.6552 13.4069 9.65518 13.4069 9.65517 13.407C9.65514 13.407 9.6551 13.407 9.65504 13.4071C9.65492 13.4072 9.65475 13.4074 9.65452 13.4077C9.65406 13.4082 9.6534 13.4089 9.6526 13.4098C9.65097 13.4116 9.64878 13.414 9.64646 13.4165C9.64413 13.4191 9.64176 13.4217 9.63976 13.4238C9.63742 13.4263 9.63657 13.4272 9.63677 13.427L9.76362 13.5538C9.76762 13.5498 9.77461 13.5422 9.77882 13.5376C9.78132 13.5349 9.78367 13.5323 9.78538 13.5304C9.78624 13.5295 9.78695 13.5287 9.78744 13.5281C9.78769 13.5279 9.78788 13.5277 9.78802 13.5275C9.78809 13.5274 9.78814 13.5274 9.78818 13.5273C9.78819 13.5273 9.78821 13.5273 9.78822 13.5273C9.78822 13.5273 9.78823 13.5273 9.78823 13.5273C9.78823 13.5273 9.78823 13.5273 9.78823 13.5273C9.78823 13.5273 9.78824 13.5273 9.78824 13.5273C9.78824 13.5273 9.78824 13.5273 9.72172 13.4671ZM9.77253 13.5435C9.77499 13.5401 9.77691 13.5375 9.77856 13.5353C9.77935 13.5343 9.77997 13.5335 9.78043 13.5329C9.7809 13.5323 9.78109 13.5321 9.78104 13.5322C9.78102 13.5322 9.78045 13.5329 9.77943 13.5339C9.77852 13.5348 9.77634 13.5369 9.77306 13.5395C9.77021 13.5417 9.76355 13.5465 9.75366 13.5505C9.74399 13.5544 9.72427 13.5602 9.69997 13.5541L9.74348 13.3801C9.71828 13.3738 9.69752 13.3797 9.68668 13.3841C9.67563 13.3885 9.66767 13.3942 9.66341 13.3975C9.65489 13.4041 9.64862 13.4111 9.64559 13.4146C9.63898 13.4222 9.6322 13.4315 9.62786 13.4374L9.77253 13.5435Z" fill="#AACBF4" mask="url(#path-9-inside-2_4529_1777)"/>
</g>
</g>
</g>
<path id="Vector_9" d="M16.1018 12.2183C16.7854 12.2183 17.3396 11.6778 17.3396 11.011C17.3396 10.3442 16.7854 9.80371 16.1018 9.80371C15.4182 9.80371 14.864 10.3442 14.864 11.011C14.864 11.6778 15.4182 12.2183 16.1018 12.2183Z" fill="#F6B319"/>
<path id="Vector_10" d="M16.2023 12.1789C16.9167 12.1789 17.4958 11.5998 17.4958 10.8855C17.4958 10.1711 16.9167 9.59204 16.2023 9.59204C15.488 9.59204 14.9089 10.1711 14.9089 10.8855C14.9089 11.5998 15.488 12.1789 16.2023 12.1789Z" fill="#253169"/>
</g>
</g>
</g>
</g>
</svg>
