<svg width="36" height="36" viewBox="0 0 36 36" fill="none" xmlns="http://www.w3.org/2000/svg">
<g id="MagnifyingGlass">
<path id="Vector" d="M32.1854 30.5045L25.3037 23.6241C27.2983 21.2295 28.2929 18.158 28.0806 15.0487C27.8683 11.9395 26.4655 9.0317 24.1639 6.93037C21.8624 4.82903 18.8393 3.69592 15.7236 3.76673C12.6078 3.83754 9.63934 5.10682 7.43562 7.31054C5.2319 9.51426 3.96261 12.4827 3.8918 15.5985C3.82099 18.7142 4.95411 21.7373 7.05544 24.0388C9.15677 26.3404 12.0645 27.7432 15.1738 27.9555C18.2831 28.1678 21.3546 27.1732 23.7492 25.1786L30.6296 32.0603C30.7317 32.1625 30.853 32.2435 30.9865 32.2988C31.1199 32.3541 31.263 32.3826 31.4075 32.3826C31.552 32.3826 31.695 32.3541 31.8285 32.2988C31.962 32.2435 32.0832 32.1625 32.1854 32.0603C32.2876 31.9582 32.3686 31.8369 32.4239 31.7034C32.4792 31.5699 32.5076 31.4269 32.5076 31.2824C32.5076 31.1379 32.4792 30.9949 32.4239 30.8614C32.3686 30.7279 32.2876 30.6066 32.1854 30.5045ZM6.11813 15.8889C6.11813 13.9317 6.69851 12.0184 7.78587 10.3911C8.87324 8.76369 10.4188 7.49532 12.227 6.74632C14.0352 5.99733 16.0249 5.80136 17.9445 6.18319C19.8641 6.56503 21.6274 7.50751 23.0114 8.89147C24.3953 10.2754 25.3378 12.0387 25.7197 13.9583C26.1015 15.8779 25.9055 17.8676 25.1565 19.6759C24.4075 21.4841 23.1392 23.0296 21.5118 24.117C19.8844 25.2043 17.9712 25.7847 16.014 25.7847C13.3903 25.7818 10.875 24.7383 9.01976 22.8831C7.16456 21.0279 6.12104 18.5125 6.11813 15.8889Z" fill="white"/>
</g>
</svg>
