<svg width="40" height="40" viewBox="0 0 40 40" fill="none" xmlns="http://www.w3.org/2000/svg">
<rect x="1" y="1" width="38" height="38" rx="4" fill="white"/>
<rect x="1" y="1" width="38" height="38" rx="4" stroke="#263069" stroke-width="2"/>
<path d="M32.5612 13.0606L16.5612 29.0606C16.4218 29.2005 16.2563 29.3114 16.0739 29.3872C15.8916 29.4629 15.6961 29.5018 15.4987 29.5018C15.3013 29.5018 15.1058 29.4629 14.9235 29.3872C14.7411 29.3114 14.5756 29.2005 14.4362 29.0606L7.4362 22.0606C7.29667 21.9211 7.18599 21.7555 7.11047 21.5732C7.03496 21.3909 6.99609 21.1955 6.99609 20.9981C6.99609 20.8008 7.03496 20.6054 7.11047 20.4231C7.18599 20.2408 7.29667 20.0752 7.4362 19.9356C7.57573 19.7961 7.74137 19.6854 7.92367 19.6099C8.10598 19.5344 8.30137 19.4955 8.4987 19.4955C8.69602 19.4955 8.89141 19.5344 9.07372 19.6099C9.25602 19.6854 9.42167 19.7961 9.5612 19.9356L15.4999 25.8744L30.4387 10.9381C30.7205 10.6564 31.1027 10.498 31.5012 10.498C31.8997 10.498 32.2819 10.6564 32.5637 10.9381C32.8455 11.2199 33.0038 11.6021 33.0038 12.0006C33.0038 12.3992 32.8455 12.7814 32.5637 13.0631L32.5612 13.0606Z" fill="#263069"/>
</svg>
