<svg width="33" height="33" viewBox="0 0 33 33" fill="none" xmlns="http://www.w3.org/2000/svg">
<g id="Property 1=Frame 182">
<rect x="1" y="1" width="31" height="31" rx="4" fill="#263069"/>
<rect x="1" y="1" width="31" height="31" rx="4" stroke="#263069" stroke-width="2"/>
<path id="Vector" d="M18 15.75H16.5V9.75H17.25C18.0456 9.75 18.8087 10.0661 19.3713 10.6287C19.9339 11.1913 20.25 11.9544 20.25 12.75C20.25 12.9489 20.329 13.1397 20.4697 13.2803C20.6103 13.421 20.8011 13.5 21 13.5C21.1989 13.5 21.3897 13.421 21.5303 13.2803C21.671 13.1397 21.75 12.9489 21.75 12.75C21.7488 11.5569 21.2743 10.413 20.4306 9.56939C19.587 8.72575 18.4431 8.25124 17.25 8.25H16.5V6.75C16.5 6.55109 16.421 6.36032 16.2803 6.21967C16.1397 6.07902 15.9489 6 15.75 6C15.5511 6 15.3603 6.07902 15.2197 6.21967C15.079 6.36032 15 6.55109 15 6.75V8.25H14.25C13.0565 8.25 11.9119 8.72411 11.068 9.56802C10.2241 10.4119 9.75 11.5565 9.75 12.75C9.75 13.9435 10.2241 15.0881 11.068 15.932C11.9119 16.7759 13.0565 17.25 14.25 17.25H15V23.25H13.5C12.7044 23.25 11.9413 22.9339 11.3787 22.3713C10.8161 21.8087 10.5 21.0456 10.5 20.25C10.5 20.0511 10.421 19.8603 10.2803 19.7197C10.1397 19.579 9.94891 19.5 9.75 19.5C9.55109 19.5 9.36032 19.579 9.21967 19.7197C9.07902 19.8603 9 20.0511 9 20.25C9.00124 21.4431 9.47575 22.587 10.3194 23.4306C11.163 24.2743 12.3069 24.7488 13.5 24.75H15V26.25C15 26.4489 15.079 26.6397 15.2197 26.7803C15.3603 26.921 15.5511 27 15.75 27C15.9489 27 16.1397 26.921 16.2803 26.7803C16.421 26.6397 16.5 26.4489 16.5 26.25V24.75H18C19.1935 24.75 20.3381 24.2759 21.182 23.432C22.0259 22.5881 22.5 21.4435 22.5 20.25C22.5 19.0565 22.0259 17.9119 21.182 17.068C20.3381 16.2241 19.1935 15.75 18 15.75ZM14.25 15.75C13.4544 15.75 12.6913 15.4339 12.1287 14.8713C11.5661 14.3087 11.25 13.5456 11.25 12.75C11.25 11.9544 11.5661 11.1913 12.1287 10.6287C12.6913 10.0661 13.4544 9.75 14.25 9.75H15V15.75H14.25ZM18 23.25H16.5V17.25H18C18.7956 17.25 19.5587 17.5661 20.1213 18.1287C20.6839 18.6913 21 19.4544 21 20.25C21 21.0456 20.6839 21.8087 20.1213 22.3713C19.5587 22.9339 18.7956 23.25 18 23.25Z" fill="white"/>
</g>
</svg>
