<svg width="33" height="33" viewBox="0 0 33 33" fill="none" xmlns="http://www.w3.org/2000/svg">
<g id="Property 1=Frame 182">
<rect x="1" y="1" width="31" height="31" rx="4" fill="#263069"/>
<rect x="1" y="1" width="31" height="31" rx="4" stroke="#263069" stroke-width="2"/>
<path id="Vector" d="M23.5 12.75H20.5V10.5C20.5 9.30653 20.0259 8.16193 19.182 7.31802C18.3381 6.47411 17.1935 6 16 6C14.8065 6 13.6619 6.47411 12.818 7.31802C11.9741 8.16193 11.5 9.30653 11.5 10.5V12.75H8.5C8.10218 12.75 7.72064 12.908 7.43934 13.1893C7.15804 13.4706 7 13.8522 7 14.25V24.75C7 25.1478 7.15804 25.5294 7.43934 25.8107C7.72064 26.092 8.10218 26.25 8.5 26.25H23.5C23.8978 26.25 24.2794 26.092 24.5607 25.8107C24.842 25.5294 25 25.1478 25 24.75V14.25C25 13.8522 24.842 13.4706 24.5607 13.1893C24.2794 12.908 23.8978 12.75 23.5 12.75ZM13 10.5C13 9.70435 13.3161 8.94129 13.8787 8.37868C14.4413 7.81607 15.2044 7.5 16 7.5C16.7956 7.5 17.5587 7.81607 18.1213 8.37868C18.6839 8.94129 19 9.70435 19 10.5V12.75H13V10.5ZM23.5 24.75H8.5V14.25H23.5V24.75ZM17.125 19.5C17.125 19.7225 17.059 19.94 16.9354 20.125C16.8118 20.31 16.6361 20.4542 16.4305 20.5394C16.225 20.6245 15.9988 20.6468 15.7805 20.6034C15.5623 20.56 15.3618 20.4528 15.2045 20.2955C15.0472 20.1382 14.94 19.9377 14.8966 19.7195C14.8532 19.5012 14.8755 19.275 14.9606 19.0695C15.0458 18.8639 15.19 18.6882 15.375 18.5646C15.56 18.441 15.7775 18.375 16 18.375C16.2984 18.375 16.5845 18.4935 16.7955 18.7045C17.0065 18.9155 17.125 19.2016 17.125 19.5Z" fill="white"/>
</g>
</svg>
