<svg width="15" height="15" viewBox="0 0 15 15" fill="none" xmlns="http://www.w3.org/2000/svg">
<path id="Vector" d="M10.6671 7.60113C10.6671 7.74439 10.6102 7.88178 10.5089 7.98308C10.4076 8.08438 10.2702 8.14128 10.127 8.14128H4.72542C4.58217 8.14128 4.44478 8.08438 4.34348 7.98308C4.24218 7.88178 4.18527 7.74439 4.18527 7.60113C4.18527 7.45787 4.24218 7.32048 4.34348 7.21918C4.44478 7.11788 4.58217 7.06097 4.72542 7.06097H10.127C10.2702 7.06097 10.4076 7.11788 10.5089 7.21918C10.6102 7.32048 10.6671 7.45787 10.6671 7.60113ZM14.4482 7.60113C14.4482 8.98995 14.0364 10.3476 13.2648 11.5024C12.4932 12.6571 11.3965 13.5572 10.1134 14.0886C8.83031 14.6201 7.41842 14.7592 6.05628 14.4882C4.69414 14.2173 3.44293 13.5485 2.46088 12.5665C1.47883 11.5844 0.810051 10.3332 0.539104 8.97106C0.268158 7.60892 0.407217 6.19702 0.938698 4.91391C1.47018 3.63081 2.37021 2.53412 3.52498 1.76253C4.67974 0.990936 6.03738 0.579102 7.4262 0.579102C9.28796 0.581068 11.0729 1.32152 12.3894 2.63798C13.7058 3.95444 14.4463 5.73937 14.4482 7.60113ZM13.3679 7.60113C13.3679 6.42597 13.0194 5.2772 12.3666 4.30009C11.7137 3.32298 10.7857 2.56141 9.7 2.1117C8.61429 1.66199 7.41961 1.54432 6.26703 1.77358C5.11445 2.00284 4.05574 2.56874 3.22478 3.3997C2.39381 4.23067 1.82792 5.28938 1.59866 6.44196C1.3694 7.59454 1.48706 8.78922 1.93678 9.87492C2.38649 10.9606 3.14805 11.8886 4.12516 12.5415C5.10227 13.1944 6.25104 13.5428 7.4262 13.5428C9.0015 13.5411 10.5118 12.9145 11.6257 11.8006C12.7396 10.6867 13.3661 9.17642 13.3679 7.60113Z" fill="#F61E1E"/>
</svg>
