<svg width="22" height="22" viewBox="0 0 22 22" fill="none" xmlns="http://www.w3.org/2000/svg">
<path id="Vector" d="M21.884 8.34418C21.77 7.9798 21.5542 7.65864 21.2639 7.42135C20.9736 7.18406 20.6218 7.04131 20.2532 7.01117L15.0508 6.57603L13.043 1.54772C12.9019 1.19234 12.662 0.888409 12.3538 0.67452C12.0455 0.460631 11.6829 0.346436 11.3119 0.346436C10.9409 0.346436 10.5783 0.460631 10.27 0.67452C9.96182 0.888409 9.72192 1.19234 9.58082 1.54772L7.57487 6.57699L2.37246 7.01117C2.00309 7.04272 1.65098 7.18663 1.36035 7.42483C1.06972 7.66303 0.853557 7.98488 0.739014 8.34994C0.624471 8.715 0.616662 9.10698 0.716569 9.47662C0.816475 9.84626 1.01964 10.1771 1.30053 10.4275L5.27014 13.9733L4.05664 19.2768C3.96814 19.6507 3.98907 20.0434 4.11679 20.405C4.24451 20.7665 4.47322 21.0805 4.77382 21.307C5.07441 21.5335 5.43328 21.6622 5.80473 21.6767C6.17618 21.6913 6.54341 21.591 6.85964 21.3886L11.3119 18.5503L15.7641 21.3886C16.0803 21.5896 16.4469 21.6889 16.8176 21.674C17.1883 21.6591 17.5463 21.5306 17.8464 21.3047C18.1466 21.0789 18.3752 20.766 18.5035 20.4055C18.6318 20.045 18.654 19.6532 18.5671 19.2796L17.3536 13.9762L21.3233 10.4303C21.6058 10.1793 21.81 9.84699 21.9098 9.47555C22.0097 9.10411 22.0007 8.71032 21.884 8.34418ZM15.4056 12.6955C15.2525 12.8322 15.1387 13.0098 15.0764 13.2089C15.0142 13.4081 15.0059 13.6211 15.0526 13.8248L16.2376 19.0083L11.8901 16.2394C11.7163 16.1286 11.5161 16.0699 11.3119 16.0699C11.1077 16.0699 10.9075 16.1286 10.7336 16.2394L6.38619 19.0083L7.57119 13.8286C7.61787 13.6249 7.60963 13.4119 7.54737 13.2127C7.48512 13.0136 7.37124 12.836 7.21818 12.6993L3.33222 9.22397L8.42524 8.79835C8.62791 8.78149 8.82215 8.70694 8.98648 8.58294C9.15082 8.45894 9.27888 8.2903 9.35651 8.09567L11.3119 3.19209L13.2673 8.09567C13.3449 8.2903 13.473 8.45894 13.6373 8.58294C13.8016 8.70694 13.9959 8.78149 14.1985 8.79835L19.2916 9.22397L15.4056 12.6955Z" fill="#FFC42E"/>
</svg>
