<svg width="10" height="9" viewBox="0 0 10 9" fill="none" xmlns="http://www.w3.org/2000/svg">
<path d="M9.75217 4.18361L7.91534 5.76859L8.47496 8.13892C8.50584 8.26759 8.49788 8.40253 8.45211 8.52669C8.40633 8.65085 8.32479 8.75865 8.21778 8.83649C8.11076 8.91432 7.98308 8.9587 7.85086 8.964C7.71864 8.96931 7.58781 8.93531 7.47491 8.86631L5.41357 7.59767L3.35102 8.86631C3.23812 8.93492 3.10745 8.96859 2.97546 8.96309C2.84347 8.95759 2.71606 8.91315 2.60926 8.83538C2.50247 8.75762 2.42108 8.64999 2.37534 8.52605C2.32959 8.40212 2.32154 8.26742 2.35219 8.13892L2.91385 5.76859L1.07702 4.18361C0.977137 4.09728 0.904899 3.98344 0.869329 3.85631C0.833758 3.72917 0.836432 3.59437 0.877016 3.46874C0.9176 3.34312 0.994295 3.23223 1.09752 3.14993C1.20075 3.06763 1.32594 3.01757 1.45745 3.006L3.86574 2.8117L4.79477 0.563421C4.84505 0.440891 4.93064 0.336082 5.04064 0.262318C5.15065 0.188555 5.28011 0.14917 5.41255 0.14917C5.545 0.14917 5.67446 0.188555 5.78446 0.262318C5.89447 0.336082 5.98005 0.440891 6.03034 0.563421L6.95896 2.8117L9.36725 3.006C9.49902 3.01714 9.62457 3.06693 9.72818 3.14911C9.83178 3.23129 9.90883 3.34222 9.94966 3.468C9.9905 3.59378 9.99331 3.72882 9.95774 3.85618C9.92218 3.98355 9.84981 4.09759 9.74972 4.18402L9.75217 4.18361Z" fill="#FFC42E"/>
</svg>
