<svg width="23" height="23" viewBox="0 0 23 23" fill="none" xmlns="http://www.w3.org/2000/svg">
<path id="Vector" d="M22.4203 10.5262L17.797 14.6615L19.2056 20.8459C19.2833 21.1816 19.2633 21.5337 19.1481 21.8576C19.0329 22.1815 18.8276 22.4628 18.5583 22.6659C18.2889 22.869 17.9675 22.9847 17.6348 22.9986C17.302 23.0124 16.9727 22.9237 16.6885 22.7437L11.5002 19.4337L6.30884 22.7437C6.02469 22.9227 5.6958 23.0106 5.36358 22.9962C5.03136 22.9819 4.71067 22.8659 4.44188 22.663C4.17309 22.4601 3.96823 22.1793 3.85309 21.8559C3.73795 21.5326 3.71768 21.1812 3.79483 20.8459L5.20851 14.6615L0.585288 10.5262C0.333885 10.3009 0.152066 10.0039 0.062537 9.67221C-0.0269917 9.3405 -0.0202621 8.9888 0.0818853 8.66103C0.184033 8.33326 0.377071 8.04395 0.636892 7.82923C0.896713 7.6145 1.2118 7.48389 1.54281 7.45369L7.60437 6.94675L9.94269 1.08081C10.0693 0.761122 10.2847 0.487667 10.5616 0.295213C10.8384 0.102759 11.1643 0 11.4976 0C11.831 0 12.1568 0.102759 12.4337 0.295213C12.7106 0.487667 12.926 0.761122 13.0526 1.08081L15.3899 6.94675L21.4514 7.45369C21.7831 7.48276 22.0991 7.61265 22.3599 7.82708C22.6206 8.0415 22.8146 8.33093 22.9174 8.6591C23.0201 8.98726 23.0272 9.33957 22.9377 9.67189C22.8482 10.0042 22.666 10.3017 22.4141 10.5272L22.4203 10.5262Z" fill="#FFC42E"/>
</svg>
