<svg width="11" height="30" viewBox="0 0 11 30" fill="none" xmlns="http://www.w3.org/2000/svg">
<path id="Vector" d="M5.5661 10.7377C4.61294 10.7377 3.68118 10.9689 2.88866 11.4022C2.09613 11.8355 1.47843 12.4513 1.11367 13.1718C0.748915 13.8923 0.653476 14.6851 0.839429 15.45C1.02538 16.2149 1.48437 16.9174 2.15836 17.4689C2.83235 18.0203 3.69106 18.3959 4.62591 18.548C5.56076 18.7002 6.52975 18.6221 7.41036 18.3236C8.29097 18.0252 9.04364 17.5198 9.57318 16.8714C10.1027 16.2229 10.3854 15.4606 10.3854 14.6807C10.3854 13.635 9.87764 12.632 8.97385 11.8926C8.07006 11.1531 6.84425 10.7377 5.5661 10.7377ZM5.5661 17.0466C4.99421 17.0466 4.43515 16.9078 3.95964 16.6478C3.48412 16.3879 3.1135 16.0184 2.89465 15.5861C2.67579 15.1538 2.61853 14.6781 2.7301 14.2192C2.84167 13.7603 3.11707 13.3387 3.52146 13.0078C3.92585 12.677 4.44108 12.4516 5.00199 12.3604C5.5629 12.2691 6.14429 12.3159 6.67266 12.495C7.20102 12.6741 7.65262 12.9773 7.97035 13.3663C8.28808 13.7554 8.45767 14.2128 8.45767 14.6807C8.45767 15.3082 8.15302 15.9099 7.61075 16.3536C7.06848 16.7973 6.33299 17.0466 5.5661 17.0466ZM5.5661 8.10899C6.51927 8.10899 7.45103 7.87774 8.24355 7.44447C9.03608 7.0112 9.65377 6.39538 10.0185 5.67488C10.3833 4.95439 10.4787 4.16157 10.2928 3.3967C10.1068 2.63182 9.64783 1.92924 8.97385 1.37779C8.29986 0.826349 7.44114 0.45081 6.5063 0.298667C5.57145 0.146523 4.60246 0.224609 3.72185 0.523049C2.84124 0.821488 2.08857 1.32688 1.55902 1.97531C1.02947 2.62374 0.746829 3.38609 0.746829 4.16595C0.746829 5.21171 1.25457 6.21464 2.15836 6.9541C3.06215 7.69356 4.28795 8.10899 5.5661 8.10899ZM5.5661 1.80012C6.138 1.80012 6.69705 1.93887 7.17257 2.19883C7.64809 2.45879 8.01871 2.82829 8.23756 3.26058C8.45642 3.69288 8.51368 4.16857 8.40211 4.6275C8.29054 5.08642 8.01514 5.50797 7.61075 5.83884C7.20636 6.1697 6.69113 6.39503 6.13022 6.48631C5.56931 6.5776 4.98791 6.53075 4.45955 6.35168C3.93119 6.17262 3.47958 5.86939 3.16186 5.48033C2.84413 5.09127 2.67454 4.63386 2.67454 4.16595C2.67454 3.53849 2.97919 2.93673 3.52146 2.49305C4.06373 2.04938 4.79921 1.80012 5.5661 1.80012ZM5.5661 21.2525C4.61294 21.2525 3.68118 21.4837 2.88866 21.917C2.09613 22.3503 1.47843 22.9661 1.11367 23.6866C0.748915 24.4071 0.653476 25.1999 0.839429 25.9648C1.02538 26.7296 1.48437 27.4322 2.15836 27.9837C2.83235 28.5351 3.69106 28.9107 4.62591 29.0628C5.56076 29.2149 6.52975 29.1369 7.41036 28.8384C8.29097 28.54 9.04364 28.0346 9.57318 27.3862C10.1027 26.7377 10.3854 25.9754 10.3854 25.1955C10.3854 24.1498 9.87764 23.1468 8.97385 22.4074C8.07006 21.6679 6.84425 21.2525 5.5661 21.2525ZM5.5661 27.5613C4.99421 27.5613 4.43515 27.4226 3.95964 27.1626C3.48412 26.9027 3.1135 26.5332 2.89465 26.1009C2.67579 25.6686 2.61853 25.1929 2.7301 24.734C2.84167 24.275 3.11707 23.8535 3.52146 23.5226C3.92585 23.1918 4.44108 22.9664 5.00199 22.8751C5.5629 22.7839 6.14429 22.8307 6.67266 23.0098C7.20102 23.1888 7.65262 23.4921 7.97035 23.8811C8.28808 24.2702 8.45767 24.7276 8.45767 25.1955C8.45767 25.823 8.15302 26.4247 7.61075 26.8684C7.06848 27.3121 6.33299 27.5613 5.5661 27.5613Z" fill="black" fill-opacity="0.7"/>
</svg>
