<svg width="20" height="25" viewBox="0 0 20 25" fill="none" xmlns="http://www.w3.org/2000/svg">
<path id="Vector" d="M12.1998 4.1875C12.1998 3.49527 12.4051 2.81858 12.7897 2.24301C13.1743 1.66743 13.7209 1.21883 14.3604 0.953923C15 0.689016 15.7037 0.619705 16.3827 0.754753C17.0616 0.889801 17.6852 1.22314 18.1747 1.71263C18.6642 2.20211 18.9975 2.82575 19.1326 3.50469C19.2676 4.18362 19.1983 4.88735 18.9334 5.52689C18.6685 6.16643 18.2199 6.71306 17.6443 7.09764C17.0688 7.48223 16.3921 7.6875 15.6998 7.6875C14.7716 7.6875 13.8813 7.31875 13.225 6.66237C12.5686 6.006 12.1998 5.11576 12.1998 4.1875ZM13.9498 16.4375C13.7178 16.4375 13.4952 16.5297 13.3311 16.6938C13.167 16.8579 13.0748 17.0804 13.0748 17.3125C13.0748 18.3509 12.7669 19.3659 12.1901 20.2292C11.6132 21.0926 10.7932 21.7655 9.83393 22.1629C8.87461 22.5602 7.81901 22.6642 6.80061 22.4616C5.78221 22.2591 4.84675 21.759 4.11253 21.0248C3.3783 20.2906 2.87829 19.3551 2.67571 18.3367C2.47314 17.3183 2.57711 16.2627 2.97447 15.3034C3.37183 14.3441 4.04473 13.5242 4.90809 12.9473C5.77145 12.3704 6.78648 12.0625 7.82484 12.0625C8.0569 12.0625 8.27946 11.9703 8.44355 11.8062C8.60765 11.6421 8.69984 11.4196 8.69984 11.1875C8.69984 10.9554 8.60765 10.7329 8.44355 10.5688C8.27946 10.4047 8.0569 10.3125 7.82484 10.3125C6.44037 10.3125 5.08699 10.723 3.93584 11.4922C2.7847 12.2614 1.88749 13.3546 1.35768 14.6337C0.827866 15.9128 0.689243 17.3203 0.959339 18.6781C1.22944 20.036 1.89612 21.2833 2.87509 22.2622C3.85406 23.2412 5.10134 23.9079 6.4592 24.178C7.81707 24.4481 9.22454 24.3095 10.5036 23.7797C11.7827 23.2498 12.876 22.3526 13.6451 21.2015C14.4143 20.0503 14.8248 18.697 14.8248 17.3125C14.8248 17.0804 14.7326 16.8579 14.5686 16.6938C14.4045 16.5297 14.1819 16.4375 13.9498 16.4375ZM18.3248 12.9375H11.9614L13.8339 9.68031C13.9453 9.48642 13.9783 9.25721 13.926 9.03977C13.8738 8.82232 13.7402 8.63315 13.5528 8.51109C11.6784 7.29255 9.46403 6.70409 7.232 6.83137C4.99997 6.95865 2.86683 7.79503 1.14312 9.21875C1.04978 9.29027 0.971814 9.37986 0.913877 9.48218C0.855941 9.58451 0.819222 9.69745 0.805915 9.81429C0.792607 9.93112 0.802984 10.0494 0.836425 10.1622C0.869867 10.2749 0.925686 10.3797 1.00055 10.4704C1.07541 10.5611 1.16778 10.6357 1.27215 10.6899C1.37651 10.7441 1.49072 10.7767 1.60796 10.7857C1.72519 10.7948 1.84305 10.7801 1.95449 10.7426C2.06593 10.7051 2.16866 10.6455 2.25655 10.5673C3.58496 9.47316 5.20624 8.79451 6.91799 8.61614C8.62974 8.43777 10.3561 8.76757 11.8816 9.56438L9.69077 13.375C9.61392 13.5081 9.57349 13.6591 9.57355 13.8128C9.5736 13.9665 9.61415 14.1175 9.6911 14.2506C9.76805 14.3836 9.87869 14.4941 10.0119 14.5708C10.1451 14.6475 10.2961 14.6877 10.4498 14.6875H17.2573L15.7173 22.3908C15.6719 22.6182 15.7186 22.8543 15.8472 23.0473C15.9758 23.2403 16.1758 23.3743 16.4031 23.42C16.4596 23.4316 16.5172 23.4375 16.5748 23.4375C16.7768 23.4371 16.9725 23.3669 17.1286 23.2387C17.2847 23.1105 17.3916 22.9323 17.4312 22.7342L19.1812 13.9842C19.2066 13.8574 19.2036 13.7265 19.1723 13.601C19.1411 13.4755 19.0824 13.3585 19.0005 13.2584C18.9186 13.1583 18.8155 13.0776 18.6987 13.0221C18.5818 12.9666 18.4542 12.9377 18.3248 12.9375Z" fill="#263069"/>
</svg>
