<svg width="35" height="35" viewBox="0 0 35 35" fill="none" xmlns="http://www.w3.org/2000/svg">
<path id="Vector" d="M33.263 32.5637H30.69V13.7113C30.69 13.0973 30.4792 12.5084 30.1039 12.0742C29.7286 11.64 29.2195 11.3961 28.6888 11.3961H19.2544V3.12747C19.2543 2.70843 19.1558 2.29729 18.9696 1.9379C18.7833 1.57851 18.5162 1.28434 18.1968 1.08675C17.8774 0.889171 17.5176 0.795585 17.1558 0.815975C16.7941 0.836366 16.4438 0.969968 16.1425 1.20253L4.70696 10.0218C4.43292 10.2334 4.20825 10.5199 4.0529 10.856C3.89755 11.192 3.81632 11.5673 3.81641 11.9484V32.5637H1.24341C1.01594 32.5637 0.797791 32.6682 0.636947 32.8543C0.476103 33.0404 0.385742 33.2928 0.385742 33.5559C0.385742 33.8191 0.476103 34.0715 0.636947 34.2576C0.797791 34.4436 1.01594 34.5482 1.24341 34.5482H33.263C33.4905 34.5482 33.7086 34.4436 33.8695 34.2576C34.0303 34.0715 34.1207 33.8191 34.1207 33.5559C34.1207 33.2928 34.0303 33.0404 33.8695 32.8543C33.7086 32.6682 33.4905 32.5637 33.263 32.5637ZM28.6888 13.3805C28.7646 13.3805 28.8373 13.4154 28.8909 13.4774C28.9446 13.5394 28.9747 13.6236 28.9747 13.7113V32.5637H19.2544V13.3805H28.6888ZM5.53175 11.9484C5.53184 11.8941 5.54349 11.8406 5.56568 11.7927C5.58787 11.7449 5.61991 11.7041 5.65897 11.6739L17.0945 2.85295C17.1376 2.81975 17.1876 2.80066 17.2392 2.79773C17.2908 2.7948 17.3422 2.80813 17.3878 2.8363C17.4335 2.86447 17.4716 2.90642 17.4982 2.9577C17.5249 3.00897 17.539 3.06764 17.5391 3.12747V32.5637H5.53175V11.9484ZM14.6802 16.3572V19.0032C14.6802 19.2663 14.5898 19.5187 14.429 19.7048C14.2682 19.8909 14.05 19.9954 13.8225 19.9954C13.5951 19.9954 13.3769 19.8909 13.2161 19.7048C13.0552 19.5187 12.9649 19.2663 12.9649 19.0032V16.3572C12.9649 16.0941 13.0552 15.8417 13.2161 15.6556C13.3769 15.4695 13.5951 15.365 13.8225 15.365C14.05 15.365 14.2682 15.4695 14.429 15.6556C14.5898 15.8417 14.6802 16.0941 14.6802 16.3572ZM10.106 16.3572V19.0032C10.106 19.2663 10.0156 19.5187 9.85477 19.7048C9.69393 19.8909 9.47578 19.9954 9.24831 19.9954C9.02084 19.9954 8.80269 19.8909 8.64185 19.7048C8.481 19.5187 8.39064 19.2663 8.39064 19.0032V16.3572C8.39064 16.0941 8.481 15.8417 8.64185 15.6556C8.80269 15.4695 9.02084 15.365 9.24831 15.365C9.47578 15.365 9.69393 15.4695 9.85477 15.6556C10.0156 15.8417 10.106 16.0941 10.106 16.3572ZM10.106 25.6181V28.264C10.106 28.5272 10.0156 28.7796 9.85477 28.9656C9.69393 29.1517 9.47578 29.2563 9.24831 29.2563C9.02084 29.2563 8.80269 29.1517 8.64185 28.9656C8.481 28.7796 8.39064 28.5272 8.39064 28.264V25.6181C8.39064 25.3549 8.481 25.1025 8.64185 24.9165C8.80269 24.7304 9.02084 24.6258 9.24831 24.6258C9.47578 24.6258 9.69393 24.7304 9.85477 24.9165C10.0156 25.1025 10.106 25.3549 10.106 25.6181ZM14.6802 25.6181V28.264C14.6802 28.5272 14.5898 28.7796 14.429 28.9656C14.2682 29.1517 14.05 29.2563 13.8225 29.2563C13.5951 29.2563 13.3769 29.1517 13.2161 28.9656C13.0552 28.7796 12.9649 28.5272 12.9649 28.264V25.6181C12.9649 25.3549 13.0552 25.1025 13.2161 24.9165C13.3769 24.7304 13.5951 24.6258 13.8225 24.6258C14.05 24.6258 14.2682 24.7304 14.429 24.9165C14.5898 25.1025 14.6802 25.3549 14.6802 25.6181Z" fill="black" fill-opacity="0.7"/>
</svg>
