<svg width="34" height="35" viewBox="0 0 34 35" fill="none" xmlns="http://www.w3.org/2000/svg">
<path id="Vector" d="M33.1246 16.3832H31.7859V9.03072C31.7859 8.22778 31.5885 7.45772 31.237 6.88996C30.8855 6.32219 30.4088 6.00322 29.9117 6.00322H27.5021V3.84073C27.5021 3.03779 27.3047 2.26773 26.9532 1.69997C26.6017 1.1322 26.125 0.813232 25.6279 0.813232H22.4151C21.918 0.813232 21.4413 1.1322 21.0899 1.69997C20.7384 2.26773 20.5409 3.03779 20.5409 3.84073V16.3832H13.5798V3.84073C13.5798 3.03779 13.3823 2.26773 13.0308 1.69997C12.6793 1.1322 12.2026 0.813232 11.7056 0.813232H8.49274C7.99568 0.813232 7.51898 1.1322 7.1675 1.69997C6.81603 2.26773 6.61857 3.03779 6.61857 3.84073V6.00322H4.20894C3.71188 6.00322 3.23518 6.32219 2.8837 6.88996C2.53223 7.45772 2.33477 8.22778 2.33477 9.03072V16.3832H0.996084C0.783059 16.3832 0.578758 16.5199 0.428127 16.7632C0.277495 17.0066 0.192871 17.3366 0.192871 17.6807C0.192871 18.0248 0.277495 18.3548 0.428127 18.5982C0.578758 18.8415 0.783059 18.9782 0.996084 18.9782H2.33477V26.3307C2.33477 27.1336 2.53223 27.9037 2.8837 28.4714C3.23518 29.0392 3.71188 29.3582 4.20894 29.3582H6.61857V31.5207C6.61857 32.3236 6.81603 33.0937 7.1675 33.6614C7.51898 34.2292 7.99568 34.5482 8.49274 34.5482H11.7056C12.2026 34.5482 12.6793 34.2292 13.0308 33.6614C13.3823 33.0937 13.5798 32.3236 13.5798 31.5207V18.9782H20.5409V31.5207C20.5409 32.3236 20.7384 33.0937 21.0899 33.6614C21.4413 34.2292 21.918 34.5482 22.4151 34.5482H25.6279C26.125 34.5482 26.6017 34.2292 26.9532 33.6614C27.3047 33.0937 27.5021 32.3236 27.5021 31.5207V29.3582H29.9117C30.4088 29.3582 30.8855 29.0392 31.237 28.4714C31.5885 27.9037 31.7859 27.1336 31.7859 26.3307V18.9782H33.1246C33.3376 18.9782 33.5419 18.8415 33.6926 18.5982C33.8432 18.3548 33.9278 18.0248 33.9278 17.6807C33.9278 17.3366 33.8432 17.0066 33.6926 16.7632C33.5419 16.5199 33.3376 16.3832 33.1246 16.3832ZM4.20894 26.7632C4.13793 26.7632 4.06983 26.7176 4.01962 26.6365C3.96941 26.5554 3.9412 26.4454 3.9412 26.3307V9.03072C3.9412 8.91601 3.96941 8.806 4.01962 8.72489C4.06983 8.64378 4.13793 8.59822 4.20894 8.59822H6.61857V26.7632H4.20894ZM11.9733 31.5207C11.9733 31.6354 11.9451 31.7454 11.8949 31.8265C11.8447 31.9076 11.7766 31.9532 11.7056 31.9532H8.49274C8.42173 31.9532 8.35363 31.9076 8.30342 31.8265C8.25321 31.7454 8.225 31.6354 8.225 31.5207V3.84073C8.225 3.72602 8.25321 3.61601 8.30342 3.5349C8.35363 3.45379 8.42173 3.40823 8.49274 3.40823H11.7056C11.7766 3.40823 11.8447 3.45379 11.8949 3.5349C11.9451 3.61601 11.9733 3.72602 11.9733 3.84073V31.5207ZM25.8957 31.5207C25.8957 31.6354 25.8675 31.7454 25.8173 31.8265C25.7671 31.9076 25.699 31.9532 25.6279 31.9532H22.4151C22.3441 31.9532 22.276 31.9076 22.2258 31.8265C22.1756 31.7454 22.1474 31.6354 22.1474 31.5207V3.84073C22.1474 3.72602 22.1756 3.61601 22.2258 3.5349C22.276 3.45379 22.3441 3.40823 22.4151 3.40823H25.6279C25.699 3.40823 25.7671 3.45379 25.8173 3.5349C25.8675 3.61601 25.8957 3.72602 25.8957 3.84073V31.5207ZM30.1795 26.3307C30.1795 26.4454 30.1513 26.5554 30.1011 26.6365C30.0509 26.7176 29.9828 26.7632 29.9117 26.7632H27.5021V8.59822H29.9117C29.9828 8.59822 30.0509 8.64378 30.1011 8.72489C30.1513 8.806 30.1795 8.91601 30.1795 9.03072V26.3307Z" fill="black" fill-opacity="0.7"/>
</svg>
