<svg width="28" height="27" viewBox="0 0 28 27" fill="none" xmlns="http://www.w3.org/2000/svg">
<path id="Vector" d="M14.0138 7.82573C12.854 7.82573 11.7202 8.16966 10.7558 8.81403C9.79144 9.45839 9.03982 10.3743 8.59597 11.4458C8.15212 12.5173 8.03599 13.6964 8.26226 14.834C8.48853 15.9715 9.04704 17.0164 9.86717 17.8365C10.6873 18.6567 11.7322 19.2152 12.8697 19.4414C14.0073 19.6677 15.1864 19.5516 16.2579 19.1077C17.3295 18.6639 18.2453 17.9123 18.8897 16.9479C19.534 15.9835 19.878 14.8498 19.878 13.6899C19.8764 12.1351 19.258 10.6445 18.1586 9.5451C17.0592 8.4457 15.5686 7.82735 14.0138 7.82573ZM14.0138 16.622C13.4339 16.622 12.867 16.4501 12.3848 16.1279C11.9026 15.8057 11.5268 15.3478 11.3049 14.812C11.083 14.2762 11.0249 13.6867 11.138 13.1179C11.2512 12.5491 11.5304 12.0267 11.9405 11.6166C12.3505 11.2066 12.873 10.9273 13.4418 10.8142C14.0105 10.701 14.6001 10.7591 15.1358 10.981C15.6716 11.2029 16.1295 11.5788 16.4517 12.0609C16.7739 12.5431 16.9459 13.11 16.9459 13.6899C16.9459 14.4676 16.637 15.2134 16.0871 15.7632C15.5372 16.3131 14.7914 16.622 14.0138 16.622ZM19.878 0.495483H8.14958C6.20618 0.497747 4.34301 1.27077 2.96882 2.64496C1.59462 4.01916 0.821599 5.88232 0.819336 7.82573V19.5541C0.821599 21.4975 1.59462 23.3607 2.96882 24.7349C4.34301 26.1091 6.20618 26.8821 8.14958 26.8844H19.878C21.8214 26.8821 23.6845 26.1091 25.0587 24.7349C26.4329 23.3607 27.206 21.4975 27.2082 19.5541V7.82573C27.206 5.88232 26.4329 4.01916 25.0587 2.64496C23.6845 1.27077 21.8214 0.497747 19.878 0.495483ZM24.2761 19.5541C24.2761 20.7206 23.8128 21.8393 22.9879 22.6641C22.1631 23.4889 21.0444 23.9523 19.878 23.9523H8.14958C6.98312 23.9523 5.86444 23.4889 5.03962 22.6641C4.21481 21.8393 3.75143 20.7206 3.75143 19.5541V7.82573C3.75143 6.65927 4.21481 5.54058 5.03962 4.71577C5.86444 3.89096 6.98312 3.42758 8.14958 3.42758H19.878C21.0444 3.42758 22.1631 3.89096 22.9879 4.71577C23.8128 5.54058 24.2761 6.65927 24.2761 7.82573V19.5541ZM22.3214 7.33705C22.3214 7.72366 22.2068 8.10158 21.992 8.42304C21.7772 8.74449 21.4719 8.99504 21.1147 9.14298C20.7575 9.29093 20.3645 9.32964 19.9853 9.25422C19.6061 9.1788 19.2578 8.99263 18.9845 8.71925C18.7111 8.44588 18.5249 8.09758 18.4495 7.7184C18.3741 7.33922 18.4128 6.94618 18.5607 6.589C18.7087 6.23182 18.9592 5.92654 19.2807 5.71175C19.6021 5.49696 19.9801 5.38231 20.3667 5.38231C20.8851 5.38231 21.3823 5.58826 21.7489 5.95484C22.1154 6.32143 22.3214 6.81862 22.3214 7.33705Z" fill="url(#paint0_linear_279_101)"/>
<defs>
<linearGradient id="paint0_linear_279_101" x1="14.0138" y1="0.495483" x2="14.0138" y2="26.8844" gradientUnits="userSpaceOnUse">
<stop stop-color="#F9CE34"/>
<stop offset="0.5" stop-color="#EE2A7B"/>
<stop offset="1" stop-color="#6228D7"/>
</linearGradient>
</defs>
</svg>
