<svg width="35" height="35" viewBox="0 0 35 35" fill="none" xmlns="http://www.w3.org/2000/svg">
<path id="Vector" d="M34.1326 13.3741V33.4715C34.1326 33.7571 34.0192 34.0309 33.8173 34.2328C33.6154 34.4347 33.3415 34.5482 33.056 34.5482C32.7705 34.5482 32.4966 34.4347 32.2947 34.2328C32.0928 34.0309 31.9794 33.7571 31.9794 33.4715V13.3741C31.976 10.6149 30.8784 7.96959 28.9274 6.01851C26.9763 4.06743 24.331 2.96985 21.5718 2.96653H12.9586C10.1993 2.96985 7.55406 4.06743 5.60298 6.01851C3.6519 7.96959 2.55432 10.6149 2.551 13.3741V33.4715C2.551 33.7571 2.43757 34.0309 2.23566 34.2328C2.03375 34.4347 1.7599 34.5482 1.47435 34.5482C1.18881 34.5482 0.914958 34.4347 0.713048 34.2328C0.511137 34.0309 0.397705 33.7571 0.397705 33.4715V13.3741C0.401504 10.0439 1.7261 6.85122 4.0809 4.49643C6.4357 2.14163 9.6284 0.817032 12.9586 0.813232H21.5718C24.9019 0.817032 28.0947 2.14163 30.4495 4.49643C32.8043 6.85122 34.1288 10.0439 34.1326 13.3741ZM26.955 13.3741V26.2939C26.9547 27.2888 26.5787 28.2469 25.9024 28.9765C25.226 29.7062 24.299 30.1535 23.307 30.229L23.9709 31.5551C24.0984 31.8107 24.1192 32.1064 24.0287 32.3773C23.9382 32.6482 23.7438 32.8721 23.4882 32.9996C23.2326 33.1271 22.9369 33.1479 22.666 33.0574C22.3951 32.9669 22.1712 32.7725 22.0437 32.5169L20.906 30.2416H13.6243L12.4867 32.5169C12.4235 32.6434 12.336 32.7563 12.2293 32.849C12.1225 32.9418 11.9985 33.0126 11.8644 33.0574C11.7302 33.1022 11.5886 33.1202 11.4475 33.1103C11.3064 33.1004 11.1687 33.0627 11.0422 32.9996C10.9156 32.9364 10.8028 32.849 10.71 32.7422C10.6173 32.6354 10.5465 32.5114 10.5016 32.3773C10.4568 32.2432 10.4389 32.1015 10.4488 31.9605C10.4587 31.8194 10.4963 31.6816 10.5595 31.5551L11.2234 30.229C10.2313 30.1535 9.30439 29.7062 8.628 28.9765C7.9516 28.2469 7.57565 27.2888 7.57535 26.2939V13.3741C7.57535 12.3271 7.99127 11.323 8.73161 10.5827C9.47195 9.84233 10.4761 9.42641 11.5231 9.42641H23.0073C24.0543 9.42641 25.0584 9.84233 25.7987 10.5827C26.5391 11.323 26.955 12.3271 26.955 13.3741ZM9.72865 13.3741V22.3462H24.8017V13.3741C24.8017 12.8982 24.6127 12.4418 24.2761 12.1053C23.9396 11.7688 23.4832 11.5797 23.0073 11.5797H11.5231C11.0471 11.5797 10.5907 11.7688 10.2542 12.1053C9.9177 12.4418 9.72865 12.8982 9.72865 13.3741ZM15.4708 24.4995V28.0883H19.0596V24.4995H15.4708ZM11.5231 28.0883H13.3175V24.4995H9.72865V26.2939C9.72865 26.7698 9.9177 27.2262 10.2542 27.5627C10.5907 27.8992 11.0471 28.0883 11.5231 28.0883ZM24.8017 26.2939V24.4995H21.2129V28.0883H23.0073C23.4832 28.0883 23.9396 27.8992 24.2761 27.5627C24.6127 27.2262 24.8017 26.7698 24.8017 26.2939Z" fill="black" fill-opacity="0.7"/>
</svg>
