<svg width="19" height="21" viewBox="0 0 19 21" fill="none" xmlns="http://www.w3.org/2000/svg">
<path id="Vector" fill-rule="evenodd" clip-rule="evenodd" d="M10.3894 1.48126C11.1335 0.674866 12.1431 0.160636 13.2353 0.0318103C14.3275 -0.0970156 15.4298 0.168092 16.3425 0.779062L16.5349 0.915245L16.88 1.17272C17.3509 1.52421 17.7392 1.97367 18.0179 2.4898C18.2966 3.00593 18.4589 3.57634 18.4936 4.1613L18.5 4.39855V19.9372C18.4997 20.2084 18.3954 20.4692 18.2084 20.6664C18.0215 20.8636 17.7659 20.9823 17.494 20.9982C17.2221 21.0141 16.9544 20.926 16.7456 20.7519C16.5367 20.5779 16.4025 20.331 16.3703 20.0617L16.3628 19.9372V4.39855C16.3622 4.1332 16.3063 3.87088 16.1985 3.6282C16.0907 3.38553 15.9334 3.16781 15.7366 2.98884L15.5977 2.875L15.2526 2.61753C14.8586 2.32252 14.3846 2.15229 13.8922 2.12895C13.3998 2.10562 12.9117 2.23025 12.4913 2.48667L12.3278 2.59625L13.1378 3.06226C14.0856 3.60693 14.7874 4.49277 15.0987 5.53728C15.41 6.58178 15.3072 7.70539 14.8112 8.67661L14.7022 8.87557L14.168 9.79693C14.037 10.0225 13.8275 10.1923 13.5791 10.2743C13.3307 10.3562 13.0608 10.3446 12.8205 10.2417L12.7083 10.1863L3.4543 4.86668C3.22754 4.73625 3.05677 4.52746 2.97443 4.27994C2.89209 4.03242 2.9039 3.76342 3.00764 3.524L3.0632 3.41335L3.5975 2.49199C4.14456 1.54838 5.03427 0.849614 6.08335 0.539647C7.13242 0.22968 8.26095 0.332125 9.23643 0.825875L9.43625 0.934395L10.3894 1.48126ZM4.34123 13.9761C4.58666 14.1171 4.76574 14.3495 4.83908 14.6221C4.91243 14.8946 4.87403 15.185 4.73233 15.4294L4.19804 16.3507C4.12839 16.4727 4.03519 16.5798 3.92381 16.6657C3.81244 16.7517 3.68508 16.8149 3.54908 16.8517C3.41308 16.8884 3.27112 16.898 3.13137 16.8799C2.99162 16.8619 2.85684 16.8164 2.7348 16.7463C2.61275 16.6761 2.50585 16.5826 2.42025 16.4712C2.33465 16.3597 2.27203 16.2325 2.23601 16.0968C2.19999 15.9612 2.19127 15.8198 2.21037 15.6808C2.22946 15.5417 2.27598 15.4079 2.34725 15.2868L2.88154 14.3654C3.02325 14.1211 3.25665 13.9428 3.53039 13.8698C3.80413 13.7967 4.0958 13.835 4.34123 13.9761ZM6.72632 14.1186C6.86175 13.8818 7.0833 13.7057 7.34528 13.6267C7.60726 13.5478 7.88969 13.5719 8.13432 13.6942C8.37895 13.8164 8.56714 14.0275 8.66006 14.2838C8.75299 14.5402 8.74357 14.8223 8.63374 15.0719L8.57711 15.1825L8.04281 16.1039C7.90618 16.3384 7.68481 16.5121 7.42391 16.5895C7.163 16.667 6.88224 16.6424 6.63894 16.5207C6.39564 16.3991 6.20816 16.1895 6.11478 15.9349C6.02139 15.6803 6.02915 15.3998 6.13646 15.1506L6.19202 15.04L6.72632 14.1186ZM2.63363 10.5374C2.87906 10.6785 3.05814 10.9109 3.13148 11.1834C3.20483 11.456 3.16643 11.7464 3.02473 11.9908L2.49044 12.9121C2.34773 13.1545 2.11453 13.3308 1.84172 13.4026C1.56892 13.4744 1.27866 13.4359 1.03428 13.2954C0.789912 13.1549 0.611267 12.9239 0.537333 12.6528C0.4634 12.3817 0.50018 12.0924 0.639649 11.8482L1.17394 10.9268C1.31565 10.6825 1.54905 10.5042 1.82279 10.4311C2.09653 10.3581 2.3882 10.3963 2.63363 10.5374ZM6.4784 10.2906C6.72383 10.4317 6.90291 10.6641 6.97626 10.9366C7.0496 11.2092 7.0112 11.4996 6.86951 11.7439L6.33521 12.6653C6.26556 12.7873 6.17236 12.8943 6.06099 12.9803C5.94961 13.0663 5.82226 13.1294 5.68625 13.1662C5.55025 13.203 5.40829 13.2126 5.26854 13.1945C5.12879 13.1764 4.99401 13.131 4.87197 13.0608C4.74992 12.9907 4.64302 12.8972 4.55742 12.7857C4.47182 12.6742 4.4092 12.547 4.37318 12.4114C4.33716 12.2757 4.32845 12.1343 4.34754 11.9953C4.36663 11.8563 4.41315 11.7224 4.48442 11.6014L5.01871 10.68C5.16042 10.4356 5.39382 10.2573 5.66756 10.1843C5.94131 10.1113 6.23297 10.1495 6.4784 10.2906ZM8.86349 10.4332C8.99942 10.1975 9.22077 10.0225 9.48215 9.94419C9.74353 9.86586 10.0251 9.89008 10.2691 10.0119C10.5131 10.1337 10.7011 10.3439 10.7944 10.5993C10.8877 10.8547 10.8793 11.1359 10.7709 11.3854L10.7143 11.4971L10.18 12.4185C10.0434 12.6529 9.82198 12.8266 9.56108 12.9041C9.30017 12.9815 9.01941 12.9569 8.77611 12.8353C8.53282 12.7136 8.34534 12.5041 8.25195 12.2494C8.15857 11.9948 8.16632 11.7143 8.27363 11.4652L8.3292 11.3545L8.86349 10.4332ZM4.7708 6.85091C5.01623 6.992 5.19531 7.22438 5.26866 7.49693C5.342 7.76948 5.3036 8.05988 5.16191 8.30424L4.62761 9.2256C4.4849 9.46797 4.2517 9.6443 3.97889 9.71611C3.70609 9.78793 3.41583 9.74939 3.17146 9.60891C2.92708 9.46843 2.74844 9.23742 2.67451 8.96629C2.60057 8.69515 2.63735 8.40591 2.77682 8.16167L3.31111 7.24031C3.45282 6.99595 3.68622 6.81765 3.95996 6.74462C4.2337 6.6716 4.52537 6.70983 4.7708 6.85091ZM5.44829 3.55486L12.8515 7.81058C13.1348 7.32185 13.2116 6.74106 13.065 6.19596C12.9183 5.65086 12.5601 5.1861 12.0692 4.90392L8.36766 2.77606C7.8768 2.4939 7.29347 2.41744 6.74598 2.56349C6.19849 2.70954 5.7317 3.06614 5.44829 3.55486Z" fill="#263069"/>
</svg>
