<svg width="34" height="35" viewBox="0 0 34 35" fill="none" xmlns="http://www.w3.org/2000/svg">
<path id="Vector" d="M33.3223 18.084L21.5641 12.2049V5.41349C21.5641 4.19343 21.0795 3.02335 20.2168 2.16064C19.354 1.29793 18.184 0.813263 16.9639 0.813263C15.7439 0.813263 14.5738 1.29793 13.7111 2.16064C12.8484 3.02335 12.3637 4.19343 12.3637 5.41349V12.2049L0.605526 18.084C0.452528 18.1604 0.323844 18.2779 0.233919 18.4234C0.143993 18.5688 0.0963844 18.7365 0.0964356 18.9075V23.8144C0.0964996 23.9505 0.126771 24.0849 0.185067 24.2079C0.243362 24.331 0.32823 24.4395 0.433549 24.5258C0.538868 24.612 0.662015 24.6738 0.794108 24.7067C0.926202 24.7396 1.06395 24.7428 1.19742 24.716L12.3637 22.4834V25.886L10.1801 28.0711C10.0075 28.2435 9.91045 28.4774 9.91024 28.7213V33.6282C9.91024 33.7786 9.9471 33.9266 10.0176 34.0595C10.0881 34.1923 10.1901 34.3058 10.3146 34.3901C10.4391 34.4744 10.5824 34.5269 10.7319 34.5429C10.8815 34.559 11.0326 34.5382 11.1722 34.4823L16.9639 32.1653L22.7556 34.4823C22.8952 34.5382 23.0464 34.559 23.1959 34.5429C23.3454 34.5269 23.4887 34.4744 23.6132 34.3901C23.7377 34.3058 23.8397 34.1923 23.9102 34.0595C23.9807 33.9266 24.0176 33.7786 24.0176 33.6282V28.7213C24.0174 28.4774 23.9203 28.2435 23.7477 28.0711L21.5641 25.886V22.4834L32.7304 24.716C32.8639 24.7428 33.0016 24.7396 33.1337 24.7067C33.2658 24.6738 33.3889 24.612 33.4943 24.5258C33.5996 24.4395 33.6844 24.331 33.7427 24.2079C33.801 24.0849 33.8313 23.9505 33.8314 23.8144V18.9075C33.8314 18.7365 33.7838 18.5688 33.6939 18.4234C33.604 18.2779 33.4753 18.1604 33.3223 18.084ZM31.9913 22.6919L20.825 20.4593C20.6916 20.4325 20.5538 20.4357 20.4217 20.4686C20.2896 20.5015 20.1665 20.5633 20.0611 20.6495C19.9558 20.7358 19.871 20.8443 19.8127 20.9674C19.7544 21.0904 19.7241 21.2248 19.724 21.3609V26.2678C19.7243 26.5118 19.8213 26.7456 19.9939 26.918L22.1775 29.1031V32.2696L17.3059 30.3206C17.0864 30.2327 16.8415 30.2327 16.622 30.3206L11.7503 32.2696V29.1031L13.9339 26.918C14.1065 26.7456 14.2036 26.5118 14.2038 26.2678V21.3609C14.2037 21.2248 14.1734 21.0904 14.1151 20.9674C14.0568 20.8443 13.972 20.7358 13.8667 20.6495C13.7613 20.5633 13.6382 20.5015 13.5061 20.4686C13.374 20.4357 13.2363 20.4325 13.1028 20.4593L1.93652 22.6919V19.4718L13.6947 13.5927C13.847 13.5166 13.9752 13.3999 14.0651 13.2553C14.155 13.1107 14.203 12.9441 14.2038 12.7738V5.41349C14.2038 4.68145 14.4946 3.9794 15.0122 3.46178C15.5298 2.94415 16.2319 2.65335 16.9639 2.65335C17.6959 2.65335 18.398 2.94415 18.9156 3.46178C19.4332 3.9794 19.724 4.68145 19.724 5.41349V12.7738C19.724 12.9448 19.7716 13.1125 19.8615 13.2579C19.9514 13.4034 20.0801 13.5209 20.2331 13.5973L31.9913 19.4764V22.6919Z" fill="black" fill-opacity="0.7"/>
</svg>
