<svg width="35" height="35" viewBox="0 0 35 35" fill="none" xmlns="http://www.w3.org/2000/svg">
<path id="Vector" d="M33.5306 7.46513L30.5681 4.00012C30.3937 3.80994 30.163 3.70641 29.9246 3.71133C29.6863 3.71625 29.4589 3.82924 29.2903 4.0265C29.1217 4.22377 29.0252 4.48989 29.021 4.76882C29.0168 5.04774 29.1052 5.31769 29.2677 5.52178L32.2288 8.98859C32.3716 9.15476 32.4849 9.35246 32.562 9.57023C32.6392 9.788 32.6786 10.0215 32.678 10.2572V24.8584C32.678 25.3343 32.5165 25.7907 32.2289 26.1272C31.9414 26.4637 31.5513 26.6528 31.1446 26.6528C30.738 26.6528 30.3479 26.4637 30.0604 26.1272C29.7728 25.7907 29.6112 25.3343 29.6112 24.8584V17.6807C29.6112 16.6337 29.2558 15.6296 28.6232 14.8893C27.9905 14.1489 27.1324 13.733 26.2377 13.733H23.4776V4.76095C23.4776 3.71396 23.1222 2.70984 22.4895 1.9695C21.8569 1.22917 20.9988 0.813248 20.1041 0.813248H7.83687C6.94216 0.813248 6.0841 1.22917 5.45145 1.9695C4.8188 2.70984 4.46338 3.71396 4.46338 4.76095V32.3949H1.70325C1.45924 32.3949 1.22522 32.5083 1.05268 32.7102C0.880136 32.9121 0.783203 33.186 0.783203 33.4715C0.783203 33.7571 0.880136 34.0309 1.05268 34.2328C1.22522 34.4348 1.45924 34.5482 1.70325 34.5482H26.2377C26.4818 34.5482 26.7158 34.4348 26.8883 34.2328C27.0609 34.0309 27.1578 33.7571 27.1578 33.4715C27.1578 33.186 27.0609 32.9121 26.8883 32.7102C26.7158 32.5083 26.4818 32.3949 26.2377 32.3949H23.4776V15.8863H26.2377C26.6444 15.8863 27.0345 16.0754 27.322 16.4119C27.6096 16.7484 27.7711 17.2048 27.7711 17.6807V24.8584C27.7711 25.9054 28.1266 26.9095 28.7592 27.6498C29.3919 28.3902 30.2499 28.8061 31.1446 28.8061C32.0393 28.8061 32.8974 28.3902 33.5301 27.6498C34.1627 26.9095 34.5181 25.9054 34.5181 24.8584V10.2572C34.5193 9.73858 34.4326 9.22479 34.2631 8.74555C34.0936 8.26632 33.8447 7.83113 33.5306 7.46513ZM6.30346 32.3949V4.76095C6.30346 4.28505 6.46502 3.82863 6.75259 3.49211C7.04016 3.1556 7.43019 2.96654 7.83687 2.96654H20.1041C20.5108 2.96654 20.9008 3.1556 21.1884 3.49211C21.476 3.82863 21.6375 4.28505 21.6375 4.76095V32.3949H6.30346ZM18.5707 14.8097C18.5707 15.0952 18.4738 15.3691 18.3012 15.571C18.1287 15.7729 17.8947 15.8863 17.6507 15.8863H10.2903C10.0463 15.8863 9.81229 15.7729 9.63975 15.571C9.46721 15.3691 9.37028 15.0952 9.37028 14.8097C9.37028 14.5241 9.46721 14.2503 9.63975 14.0484C9.81229 13.8464 10.0463 13.733 10.2903 13.733H17.6507C17.8947 13.733 18.1287 13.8464 18.3012 14.0484C18.4738 14.2503 18.5707 14.5241 18.5707 14.8097Z" fill="black" fill-opacity="0.7"/>
</svg>
