<svg width="16" height="16" viewBox="0 0 16 16" fill="none" xmlns="http://www.w3.org/2000/svg">
<path id="Vector" d="M10.5992 8.6792L7.3992 11.8792C7.21885 12.0595 6.97425 12.1609 6.7192 12.1609C6.46415 12.1609 6.21955 12.0595 6.0392 11.8792C5.85885 11.6989 5.75753 11.4542 5.75753 11.1992C5.75753 10.9442 5.85885 10.6995 6.0392 10.5192L7.6 8.96H0.96C0.705392 8.96 0.461212 8.85886 0.281178 8.67882C0.101143 8.49879 0 8.25461 0 8C0 7.74539 0.101143 7.50121 0.281178 7.32118C0.461212 7.14114 0.705392 7.04 0.96 7.04H7.6L6.0408 5.4792C5.9515 5.3899 5.88067 5.28389 5.83234 5.16721C5.78401 5.05054 5.75913 4.92549 5.75913 4.7992C5.75913 4.54415 5.86045 4.29955 6.0408 4.1192C6.22115 3.93885 6.46575 3.83753 6.7208 3.83753C6.97585 3.83753 7.22045 3.93885 7.4008 4.1192L10.6008 7.3192C10.6902 7.40849 10.7611 7.51455 10.8094 7.6313C10.8577 7.74805 10.8825 7.87318 10.8824 7.99953C10.8822 8.12588 10.8571 8.25096 10.8085 8.36759C10.7599 8.48422 10.6888 8.59012 10.5992 8.6792ZM15.04 0H9.92C9.66539 0 9.42121 0.101143 9.24118 0.281178C9.06114 0.461212 8.96 0.705392 8.96 0.96C8.96 1.21461 9.06114 1.45879 9.24118 1.63882C9.42121 1.81886 9.66539 1.92 9.92 1.92H14.08V14.08H9.92C9.66539 14.08 9.42121 14.1811 9.24118 14.3612C9.06114 14.5412 8.96 14.7854 8.96 15.04C8.96 15.2946 9.06114 15.5388 9.24118 15.7188C9.42121 15.8989 9.66539 16 9.92 16H15.04C15.2946 16 15.5388 15.8989 15.7188 15.7188C15.8989 15.5388 16 15.2946 16 15.04V0.96C16 0.705392 15.8989 0.461212 15.7188 0.281178C15.5388 0.101143 15.2946 0 15.04 0Z" fill="white"/>
</svg>
