<svg width="30" height="35" viewBox="0 0 30 35" fill="none" xmlns="http://www.w3.org/2000/svg">
<path id="Vector" d="M29.0879 14.985L25.6443 2.39574C25.5201 1.9412 25.2493 1.54002 24.8738 1.25405C24.4983 0.968074 24.0389 0.813185 23.5664 0.813263H5.75896C5.28644 0.813185 4.82701 0.968074 4.45151 1.25405C4.076 1.54002 3.80528 1.9412 3.68107 2.39574L0.237405 14.985C0.193977 15.1436 0.193977 15.3109 0.237405 15.4696L3.68107 28.0588C3.80528 28.5134 4.076 28.9145 4.45151 29.2005C4.82701 29.4865 5.28644 29.6414 5.75896 29.6413H7.8953L5.31139 33.0761C5.23868 33.1728 5.18578 33.2828 5.1557 33.3998C5.12562 33.5169 5.11896 33.6387 5.1361 33.7583C5.15324 33.8779 5.19384 33.9929 5.25559 34.0969C5.31733 34.2009 5.39901 34.2917 5.49596 34.3642C5.59291 34.4367 5.70323 34.4894 5.82062 34.5194C5.93802 34.5494 6.06019 34.556 6.18016 34.5389C6.30013 34.5219 6.41554 34.4814 6.51982 34.4198C6.6241 34.3583 6.7152 34.2768 6.78791 34.1802L10.2024 29.6413H19.123L22.5374 34.1802C22.6843 34.3754 22.9029 34.5044 23.1452 34.5389C23.3875 34.5735 23.6336 34.5106 23.8294 34.3642C24.0252 34.2178 24.1546 33.9998 24.1892 33.7583C24.2238 33.5167 24.1608 33.2713 24.0139 33.0761L21.43 29.6413H23.5664C24.0389 29.6414 24.4983 29.4865 24.8738 29.2005C25.2493 28.9145 25.5201 28.5134 25.6443 28.0588L29.0879 15.4696C29.1314 15.3109 29.1314 15.1436 29.0879 14.985ZM5.46212 2.87876C5.47999 2.81395 5.51871 2.75678 5.57235 2.71606C5.62598 2.67533 5.69154 2.6533 5.75896 2.65335H23.5664C23.6338 2.6533 23.6994 2.67533 23.753 2.71606C23.8066 2.75678 23.8453 2.81395 23.8632 2.87876L27.0423 14.502L14.6627 16.7454L2.283 14.502L5.46212 2.87876ZM5.46212 27.5758L2.40296 16.3942L13.7398 18.4474V27.8012H5.75896C5.69154 27.8013 5.62598 27.7792 5.57235 27.7385C5.51871 27.6978 5.47999 27.6406 5.46212 27.5758ZM23.8632 27.5758C23.8453 27.6406 23.8066 27.6978 23.753 27.7385C23.6994 27.7792 23.6338 27.8013 23.5664 27.8012H15.5855V18.4474L26.9224 16.3927L23.8632 27.5758ZM8.81812 10.3204C8.81812 10.0764 8.91535 9.84235 9.08841 9.66981C9.26147 9.49727 9.49619 9.40034 9.74094 9.40034H19.5844C19.8291 9.40034 20.0639 9.49727 20.2369 9.66981C20.41 9.84235 20.5072 10.0764 20.5072 10.3204C20.5072 10.5644 20.41 10.7984 20.2369 10.9709C20.0639 11.1435 19.8291 11.2404 19.5844 11.2404H9.74094C9.49619 11.2404 9.26147 11.1435 9.08841 10.9709C8.91535 10.7984 8.81812 10.5644 8.81812 10.3204Z" fill="black" fill-opacity="0.7"/>
</svg>
