<svg width="30" height="31" viewBox="0 0 30 31" fill="none" xmlns="http://www.w3.org/2000/svg">
<g id="X">
<rect x="0.65" y="0.871924" width="28.7" height="28.7" rx="4.35" stroke="#F61E1E" stroke-width="1.3"/>
<path id="Vector" d="M24.4324 22.6645C24.6966 22.9287 24.845 23.287 24.845 23.6606C24.845 24.0342 24.6966 24.3925 24.4324 24.6567C24.1682 24.9209 23.8099 25.0693 23.4363 25.0693C23.0627 25.0693 22.7044 24.9209 22.4402 24.6567L14.9999 17.2141L7.55737 24.6544C7.29319 24.9186 6.93488 25.067 6.56128 25.067C6.18767 25.067 5.82936 24.9186 5.56518 24.6544C5.301 24.3902 5.15259 24.0319 5.15259 23.6583C5.15259 23.2847 5.301 22.9264 5.56518 22.6622L13.0078 15.2219L5.56753 7.77937C5.30335 7.51519 5.15493 7.15688 5.15493 6.78327C5.15493 6.40967 5.30335 6.05136 5.56753 5.78718C5.83171 5.523 6.19001 5.37458 6.56362 5.37458C6.93723 5.37458 7.29553 5.523 7.55971 5.78718L14.9999 13.2298L22.4425 5.78601C22.7067 5.52183 23.065 5.37341 23.4386 5.37341C23.8122 5.37341 24.1705 5.52183 24.4347 5.78601C24.6989 6.05019 24.8473 6.40849 24.8473 6.7821C24.8473 7.15571 24.6989 7.51402 24.4347 7.7782L16.9921 15.2219L24.4324 22.6645Z" fill="#F61E1E"/>
</g>
</svg>
