<svg width="32" height="32" viewBox="0 0 32 32" fill="none" xmlns="http://www.w3.org/2000/svg">
<g id="XLogo">
<path id="Vector" d="M26.6252 25.4984L19.2892 13.9774L26.4712 6.07735C26.7232 5.79328 26.8531 5.42132 26.8327 5.04212C26.8123 4.66292 26.6433 4.30704 26.3622 4.05164C26.0812 3.79624 25.7108 3.66191 25.3314 3.67776C24.952 3.69361 24.5941 3.85837 24.3354 4.13633L17.6885 11.4531L13.1558 4.33235C13.0256 4.12754 12.8457 3.9589 12.633 3.84202C12.4203 3.72514 12.1815 3.66381 11.9388 3.6637H6.16621C5.90769 3.66382 5.65395 3.73337 5.43151 3.8651C5.20908 3.99683 5.02611 4.18589 4.90173 4.41252C4.77735 4.63915 4.71614 4.89503 4.72448 5.15341C4.73282 5.41179 4.81042 5.66319 4.94916 5.88132L12.2851 17.4024L5.09828 25.3024C4.96816 25.4422 4.86707 25.6064 4.80088 25.7855C4.73469 25.9647 4.70471 26.1552 4.71268 26.346C4.72066 26.5368 4.76642 26.7241 4.84732 26.8971C4.92822 27.0701 5.04266 27.2253 5.18399 27.3537C5.32531 27.4822 5.49073 27.5813 5.67065 27.6453C5.85056 27.7094 6.0414 27.737 6.23209 27.7268C6.42279 27.7165 6.60955 27.6685 6.78156 27.5856C6.95357 27.5026 7.1074 27.3863 7.23413 27.2434L13.8858 19.9267L18.4185 27.0474C18.5487 27.2522 18.7286 27.4209 18.9413 27.5377C19.154 27.6546 19.3928 27.716 19.6355 27.7161H25.4081C25.6666 27.716 25.9204 27.6464 26.1428 27.5147C26.3652 27.3829 26.5482 27.1939 26.6726 26.9672C26.797 26.7406 26.8582 26.4847 26.8498 26.2264C26.8415 25.968 26.7639 25.7166 26.6252 25.4984ZM20.4281 24.8298L8.79513 6.54998H11.1462L22.7792 24.8298H20.4281Z" fill="black"/>
</g>
</svg>
