<svg width="14" height="15" viewBox="0 0 14 15" fill="none" xmlns="http://www.w3.org/2000/svg">
<path id="Vector" d="M8.44444 5.71429C8.44444 6.10714 8.11944 6.42857 7.72222 6.42857H6.58111C6.37889 6.42857 6.18389 6.38571 6.00333 6.30714L4.34222 5.58571L3.38889 8.39286V14.2857C3.38889 14.6786 3.06389 15 2.66667 15H1.22222C0.825 15 0.5 14.6786 0.5 14.2857V8.09286C0.5 7.93571 0.528889 7.77857 0.579444 7.62857L1.64833 4.54286C1.71242 4.35427 1.81578 4.18107 1.95175 4.03444C2.08771 3.88781 2.25326 3.77101 2.4377 3.69158C2.62214 3.61216 2.82137 3.57187 3.02253 3.57332C3.22369 3.57477 3.42231 3.61792 3.60556 3.7L6.60278 5.00714L7.72222 5C8.11944 5 8.44444 5.32143 8.44444 5.71429ZM4.11111 0C3.31667 0 2.66667 0.642857 2.66667 1.42857C2.66667 2.21429 3.31667 2.85714 4.11111 2.85714C4.90556 2.85714 5.55556 2.21429 5.55556 1.42857C5.55556 0.642857 4.90556 0 4.11111 0ZM5.55556 12.8571H12.7778C13.175 12.8571 13.5 12.5357 13.5 12.1429C13.5 11.75 13.175 11.4286 12.7778 11.4286H5.55556C5.15833 11.4286 4.83333 11.75 4.83333 12.1429C4.83333 12.5357 5.15833 12.8571 5.55556 12.8571ZM12.4167 10.7143C13.0161 10.7143 13.5 10.2357 13.5 9.64286C13.5 9.05 13.0161 8.57143 12.4167 8.57143C11.8172 8.57143 11.3333 9.05 11.3333 9.64286C11.3333 10.2357 11.8172 10.7143 12.4167 10.7143ZM7.72222 7.85714C7.72222 7.46429 7.39722 7.14286 7 7.14286H5.55556C5.15833 7.14286 4.83333 7.46429 4.83333 7.85714C4.83333 8.25 5.15833 8.57143 5.55556 8.57143H6.27778V9.28571C6.27778 10.0714 6.92778 10.7143 7.72222 10.7143H9.16667C9.96111 10.7143 10.6111 10.0714 10.6111 9.28571V7.85714C10.6111 7.46429 10.2861 7.14286 9.88889 7.14286C9.49167 7.14286 9.16667 7.46429 9.16667 7.85714V8.57143H7.72222V7.85714Z" fill="#263069"/>
</svg>
