<svg width="12" height="13" viewBox="0 0 12 13" fill="none" xmlns="http://www.w3.org/2000/svg">
<path id="Vector" d="M11.3077 0.5H8.53856C8.35495 0.5 8.17886 0.57293 8.04903 0.702747C7.9192 0.832564 7.84627 1.00863 7.84627 1.19222C7.84627 1.37581 7.9192 1.55188 8.04903 1.6817C8.17886 1.81151 8.35495 1.88444 8.53856 1.88444H9.63468L7.74704 3.77306C6.76574 3.03976 5.54309 2.70529 4.32512 2.83696C3.10716 2.96863 1.98426 3.55666 1.18238 4.48274C0.380501 5.40881 -0.0408446 6.6042 0.00312518 7.82836C0.047095 9.05252 0.553117 10.2146 1.41937 11.0808C2.28562 11.9469 3.44781 12.4529 4.67209 12.4969C5.89637 12.5408 7.09187 12.1195 8.01803 11.3177C8.94419 10.5159 9.53229 9.39314 9.66397 8.17529C9.79565 6.95744 9.46115 5.73491 8.72778 4.75371L10.6154 2.86509V3.96111C10.6154 4.1447 10.6884 4.32077 10.8182 4.45059C10.948 4.5804 11.1241 4.65333 11.3077 4.65333C11.4913 4.65333 11.6674 4.5804 11.7972 4.45059C11.9271 4.32077 12 4.1447 12 3.96111V1.19222C12 1.00863 11.9271 0.832564 11.7972 0.702747C11.6674 0.57293 11.4913 0.5 11.3077 0.5ZM7.29301 10.1023C6.80887 10.5862 6.19209 10.9157 5.52068 11.0491C4.84926 11.1825 4.15335 11.1139 3.52094 10.8519C2.88852 10.5899 2.348 10.1463 1.96772 9.57715C1.58743 9.008 1.38445 8.33889 1.38445 7.6544C1.38445 6.96992 1.58743 6.30081 1.96772 5.73166C2.348 5.16251 2.88852 4.71889 3.52094 4.45689C4.15335 4.19488 4.84926 4.12626 5.52068 4.2597C6.19209 4.39313 6.80887 4.72263 7.29301 5.20653C7.94105 5.85641 8.30496 6.73669 8.30496 7.6544C8.30496 8.57212 7.94105 9.4524 7.29301 10.1023Z" fill="#263069"/>
</svg>
