<svg width="16" height="13" viewBox="0 0 16 13" fill="none" xmlns="http://www.w3.org/2000/svg">
<path id="Vector" d="M11.5 0.5H4.5C3.90326 0.5 3.33097 0.727571 2.90901 1.13265C2.48705 1.53773 2.25 2.08713 2.25 2.66V11.3C2.25 11.6183 2.3817 11.9235 2.61612 12.1485C2.85054 12.3736 3.16848 12.5 3.5 12.5H5.25C5.58152 12.5 5.89946 12.3736 6.13388 12.1485C6.3683 11.9235 6.5 11.6183 6.5 11.3V10.34H9.5V11.3C9.5 11.6183 9.6317 11.9235 9.86612 12.1485C10.1005 12.3736 10.4185 12.5 10.75 12.5H12.5C12.8315 12.5 13.1495 12.3736 13.3839 12.1485C13.6183 11.9235 13.75 11.6183 13.75 11.3V2.66C13.75 2.08713 13.5129 1.53773 13.091 1.13265C12.669 0.727571 12.0967 0.5 11.5 0.5ZM3.75 8.9V5.54H12.25V8.9H3.75ZM4.5 1.94H11.5C11.6989 1.94 11.8897 2.01586 12.0303 2.15088C12.171 2.28591 12.25 2.46904 12.25 2.66V4.1H3.75V2.66C3.75 2.46904 3.82902 2.28591 3.96967 2.15088C4.11032 2.01586 4.30109 1.94 4.5 1.94ZM5 11.06H3.75V10.34H5V11.06ZM11 11.06V10.34H12.25V11.06H11ZM6.75 7.22C6.75 7.40987 6.69135 7.59548 6.58147 7.75335C6.47159 7.91122 6.31541 8.03426 6.13268 8.10692C5.94996 8.17958 5.74889 8.1986 5.55491 8.16155C5.36093 8.12451 5.18275 8.03308 5.04289 7.89882C4.90304 7.76456 4.8078 7.59351 4.76921 7.40729C4.73063 7.22106 4.75043 7.02804 4.82612 6.85262C4.90181 6.67721 5.02998 6.52728 5.19443 6.42179C5.35888 6.3163 5.55222 6.26 5.75 6.26C6.01522 6.26 6.26957 6.36114 6.45711 6.54118C6.64464 6.72121 6.75 6.96539 6.75 7.22ZM11.25 7.22C11.25 7.40987 11.1914 7.59548 11.0815 7.75335C10.9716 7.91122 10.8154 8.03426 10.6327 8.10692C10.45 8.17958 10.2489 8.1986 10.0549 8.16155C9.86093 8.12451 9.68275 8.03308 9.54289 7.89882C9.40304 7.76456 9.3078 7.59351 9.26921 7.40729C9.23063 7.22106 9.25043 7.02804 9.32612 6.85262C9.40181 6.67721 9.52998 6.52728 9.69443 6.42179C9.85888 6.3163 10.0522 6.26 10.25 6.26C10.5152 6.26 10.7696 6.36114 10.9571 6.54118C11.1446 6.72121 11.25 6.96539 11.25 7.22ZM16 3.62V5.06C16 5.25096 15.921 5.43409 15.7803 5.56912C15.6397 5.70414 15.4489 5.78 15.25 5.78C15.0511 5.78 14.8603 5.70414 14.7197 5.56912C14.579 5.43409 14.5 5.25096 14.5 5.06V3.62C14.5 3.42904 14.579 3.24591 14.7197 3.11088C14.8603 2.97586 15.0511 2.9 15.25 2.9C15.4489 2.9 15.6397 2.97586 15.7803 3.11088C15.921 3.24591 16 3.42904 16 3.62ZM1.5 3.62V5.06C1.5 5.25096 1.42098 5.43409 1.28033 5.56912C1.13968 5.70414 0.948912 5.78 0.75 5.78C0.551088 5.78 0.360322 5.70414 0.21967 5.56912C0.0790176 5.43409 0 5.25096 0 5.06L0 3.62C0 3.42904 0.0790176 3.24591 0.21967 3.11088C0.360322 2.97586 0.551088 2.9 0.75 2.9C0.948912 2.9 1.13968 2.97586 1.28033 3.11088C1.42098 3.24591 1.5 3.42904 1.5 3.62Z" fill="#263069"/>
</svg>
