<svg width="13" height="15" viewBox="0 0 13 15" fill="none" xmlns="http://www.w3.org/2000/svg">
<path id="Vector" d="M2.93548 14.1667C2.93548 14.3315 2.89859 14.4926 2.82947 14.6296C2.76035 14.7667 2.66211 14.8735 2.54717 14.9366C2.43223 14.9996 2.30575 15.0161 2.18373 14.984C2.06171 14.9518 1.94963 14.8725 1.86166 14.7559C1.77369 14.6394 1.71378 14.4909 1.68951 14.3292C1.66523 14.1676 1.67769 14 1.7253 13.8478C1.77291 13.6955 1.85354 13.5653 1.95698 13.4738C2.06042 13.3822 2.18204 13.3333 2.30645 13.3333C2.47328 13.3333 2.63328 13.4211 2.75124 13.5774C2.86921 13.7337 2.93548 13.9457 2.93548 14.1667ZM3.98387 11.1111C3.85946 11.1111 3.73784 11.16 3.6344 11.2516C3.53096 11.3431 3.45033 11.4733 3.40272 11.6255C3.35511 11.7778 3.34265 11.9454 3.36693 12.107C3.3912 12.2687 3.45111 12.4172 3.53908 12.5337C3.62705 12.6502 3.73913 12.7296 3.86115 12.7618C3.98317 12.7939 4.10965 12.7774 4.22459 12.7143C4.33953 12.6513 4.43777 12.5445 4.50689 12.4074C4.57601 12.2704 4.6129 12.1093 4.6129 11.9444C4.6129 11.7234 4.54663 11.5115 4.42866 11.3552C4.3107 11.1989 4.1507 11.1111 3.98387 11.1111ZM0.629033 11.1111C0.504622 11.1111 0.383005 11.16 0.279561 11.2516C0.176117 11.3431 0.0954925 11.4733 0.0478825 11.6255C0.000272551 11.7778 -0.0121844 11.9454 0.012087 12.107C0.0363583 12.2687 0.0962678 12.4172 0.18424 12.5337C0.272211 12.6502 0.384294 12.7296 0.506314 12.7618C0.628335 12.7939 0.754812 12.7774 0.869753 12.7143C0.984693 12.6513 1.08293 12.5445 1.15205 12.4074C1.22117 12.2704 1.25806 12.1093 1.25806 11.9444C1.25806 11.7234 1.19179 11.5115 1.07383 11.3552C0.955859 11.1989 0.795862 11.1111 0.629033 11.1111ZM2.30645 8.88889C2.18204 8.88889 2.06042 8.93776 1.95698 9.02933C1.85354 9.1209 1.77291 9.25105 1.7253 9.40332C1.67769 9.55559 1.66523 9.72315 1.68951 9.8848C1.71378 10.0464 1.77369 10.1949 1.86166 10.3115C1.94963 10.428 2.06171 10.5074 2.18373 10.5395C2.30575 10.5717 2.43223 10.5552 2.54717 10.4921C2.66211 10.429 2.76035 10.3222 2.82947 10.1852C2.89859 10.0482 2.93548 9.88704 2.93548 9.72222C2.93548 9.50121 2.86921 9.28925 2.75124 9.13297C2.63328 8.97669 2.47328 8.88889 2.30645 8.88889ZM13 0.555556C13 0.702898 12.9558 0.844206 12.8772 0.948393C12.7985 1.05258 12.6919 1.11111 12.5806 1.11111H11.0767L9.61685 3.04583L8.48145 11.8507C8.4559 12.0519 8.38903 12.2398 8.28819 12.394C8.18735 12.5481 8.05642 12.6625 7.90976 12.7246C7.76309 12.7867 7.60635 12.7942 7.45671 12.7461C7.30707 12.698 7.17031 12.5963 7.06141 12.4521L1.92431 5.64653C1.81528 5.50215 1.7384 5.32075 1.70211 5.12227C1.66581 4.92378 1.67152 4.71588 1.71859 4.52141C1.76566 4.32693 1.85228 4.15341 1.96894 4.01989C2.08559 3.88638 2.22776 3.79804 2.37984 3.76458L9.02347 2.25972L10.6065 0.1625C10.6455 0.110926 10.6918 0.0700288 10.7427 0.0421465C10.7936 0.0142642 10.8481 -5.72144e-05 10.9032 1.71779e-07H12.5806C12.6919 1.71779e-07 12.7985 0.0585319 12.8772 0.162719C12.9558 0.266906 13 0.408213 13 0.555556ZM8.71262 3.45764L2.51613 4.86111L7.65323 11.6667L8.71262 3.45764Z" fill="#263069"/>
</svg>
