<svg width="15" height="21" viewBox="0 0 15 21" fill="none" xmlns="http://www.w3.org/2000/svg">
<path id="Vector" d="M12.2727 3.83333H8.18182V1.83333H10.9091C11.0899 1.83333 11.2633 1.7631 11.3912 1.63807C11.5191 1.51305 11.5909 1.34348 11.5909 1.16667C11.5909 0.989856 11.5191 0.820286 11.3912 0.695262C11.2633 0.570238 11.0899 0.5 10.9091 0.5H4.09091C3.91008 0.5 3.73666 0.570238 3.60879 0.695262C3.48093 0.820286 3.40909 0.989856 3.40909 1.16667C3.40909 1.34348 3.48093 1.51305 3.60879 1.63807C3.73666 1.7631 3.91008 1.83333 4.09091 1.83333H6.81818V3.83333H2.72727C2.00396 3.83333 1.31026 4.11428 0.7988 4.61438C0.287337 5.11448 0 5.79276 0 6.5V15.1667C0 15.8739 0.287337 16.5522 0.7988 17.0523C1.31026 17.5524 2.00396 17.8333 2.72727 17.8333H3.40909L2.18182 19.4333C2.1281 19.5034 2.08901 19.5831 2.06679 19.6679C2.04456 19.7527 2.03964 19.8409 2.05231 19.9276C2.06497 20.0143 2.09497 20.0977 2.14059 20.173C2.1862 20.2483 2.24655 20.3141 2.31818 20.3667C2.38981 20.4192 2.47132 20.4574 2.55806 20.4791C2.64479 20.5009 2.73506 20.5057 2.8237 20.4933C2.91233 20.4809 2.99761 20.4516 3.07465 20.407C3.1517 20.3624 3.219 20.3034 3.27273 20.2333L5.11364 17.8333H9.88636L11.7273 20.2333C11.8358 20.3748 11.9973 20.4683 12.1763 20.4933C12.3553 20.5183 12.5372 20.4727 12.6818 20.3667C12.8265 20.2606 12.9221 20.1026 12.9477 19.9276C12.9733 19.7526 12.9267 19.5748 12.8182 19.4333L11.5909 17.8333H12.2727C12.996 17.8333 13.6897 17.5524 14.2012 17.0523C14.7127 16.5522 15 15.8739 15 15.1667V6.5C15 5.79276 14.7127 5.11448 14.2012 4.61438C13.6897 4.11428 12.996 3.83333 12.2727 3.83333ZM12.2727 16.5H2.72727C2.36561 16.5 2.01877 16.3595 1.76304 16.1095C1.5073 15.8594 1.36364 15.5203 1.36364 15.1667V10.5H13.6364V15.1667C13.6364 15.5203 13.4927 15.8594 13.237 16.1095C12.9812 16.3595 12.6344 16.5 12.2727 16.5ZM4.77273 14.1667C4.77273 14.3644 4.71275 14.5578 4.60037 14.7222C4.48799 14.8867 4.32826 15.0149 4.14138 15.0905C3.9545 15.1662 3.74887 15.186 3.55048 15.1474C3.35209 15.1089 3.16985 15.0136 3.02682 14.8738C2.88379 14.7339 2.78639 14.5557 2.74692 14.3618C2.70746 14.1678 2.72772 13.9667 2.80512 13.784C2.88253 13.6013 3.01362 13.4451 3.1818 13.3352C3.34999 13.2253 3.54772 13.1667 3.75 13.1667C4.02124 13.1667 4.28138 13.272 4.47318 13.4596C4.66498 13.6471 4.77273 13.9014 4.77273 14.1667ZM12.2727 14.1667C12.2727 14.3644 12.2127 14.5578 12.1004 14.7222C11.988 14.8867 11.8283 15.0149 11.6414 15.0905C11.4545 15.1662 11.2489 15.186 11.0505 15.1474C10.8521 15.1089 10.6699 15.0136 10.5268 14.8738C10.3838 14.7339 10.2864 14.5557 10.2469 14.3618C10.2075 14.1678 10.2277 13.9667 10.3051 13.784C10.3825 13.6013 10.5136 13.4451 10.6818 13.3352C10.85 13.2253 11.0477 13.1667 11.25 13.1667C11.5212 13.1667 11.7814 13.272 11.9732 13.4596C12.165 13.6471 12.2727 13.9014 12.2727 14.1667Z" fill="#263069"/>
</svg>
