<svg width="10" height="15" viewBox="0 0 10 15" fill="none" xmlns="http://www.w3.org/2000/svg">
<path id="Vector" d="M6.66667 6.96429H5.55556V2.67857H6.11111C6.70048 2.67857 7.26571 2.90434 7.68246 3.3062C8.09921 3.70806 8.33333 4.25311 8.33333 4.82143C8.33333 4.96351 8.39186 5.09977 8.49605 5.20024C8.60024 5.3007 8.74155 5.35714 8.88889 5.35714C9.03623 5.35714 9.17754 5.3007 9.28173 5.20024C9.38591 5.09977 9.44444 4.96351 9.44444 4.82143C9.44353 3.96922 9.09204 3.15217 8.46712 2.54956C7.8422 1.94696 6.99488 1.60803 6.11111 1.60714H5.55556V0.535714C5.55556 0.393634 5.49702 0.257373 5.39284 0.156907C5.28865 0.0564411 5.14734 0 5 0C4.85266 0 4.71135 0.0564411 4.60716 0.156907C4.50298 0.257373 4.44444 0.393634 4.44444 0.535714V1.60714H3.88889C3.00483 1.60714 2.15699 1.94579 1.53187 2.54859C0.906745 3.15138 0.555556 3.96895 0.555556 4.82143C0.555556 5.67391 0.906745 6.49148 1.53187 7.09427C2.15699 7.69707 3.00483 8.03571 3.88889 8.03571H4.44444V12.3214H3.33333C2.74396 12.3214 2.17873 12.0957 1.76198 11.6938C1.34524 11.2919 1.11111 10.7469 1.11111 10.1786C1.11111 10.0365 1.05258 9.90023 0.948393 9.79976C0.844206 9.6993 0.702898 9.64286 0.555556 9.64286C0.408213 9.64286 0.266905 9.6993 0.162719 9.79976C0.0585317 9.90023 0 10.0365 0 10.1786C0.000919161 11.0308 0.352404 11.8478 0.977326 12.4504C1.60225 13.053 2.44956 13.392 3.33333 13.3929H4.44444V14.4643C4.44444 14.6064 4.50298 14.7426 4.60716 14.8431C4.71135 14.9436 4.85266 15 5 15C5.14734 15 5.28865 14.9436 5.39284 14.8431C5.49702 14.7426 5.55556 14.6064 5.55556 14.4643V13.3929H6.66667C7.55072 13.3929 8.39857 13.0542 9.02369 12.4514C9.64881 11.8486 10 11.0311 10 10.1786C10 9.32609 9.64881 8.50852 9.02369 7.90573C8.39857 7.30293 7.55072 6.96429 6.66667 6.96429ZM3.88889 6.96429C3.29952 6.96429 2.73429 6.73852 2.31754 6.33666C1.90079 5.93479 1.66667 5.38975 1.66667 4.82143C1.66667 4.25311 1.90079 3.70806 2.31754 3.3062C2.73429 2.90434 3.29952 2.67857 3.88889 2.67857H4.44444V6.96429H3.88889ZM6.66667 12.3214H5.55556V8.03571H6.66667C7.25604 8.03571 7.82127 8.26148 8.23801 8.66334C8.65476 9.06521 8.88889 9.61025 8.88889 10.1786C8.88889 10.7469 8.65476 11.2919 8.23801 11.6938C7.82127 12.0957 7.25604 12.3214 6.66667 12.3214Z" fill="#263069"/>
</svg>
