<svg width="13" height="15" viewBox="0 0 13 15" fill="none" xmlns="http://www.w3.org/2000/svg">
<path id="Vector" d="M13 1.06872V13.9404C13 14.0888 12.9405 14.2311 12.8345 14.3361C12.7285 14.441 12.5847 14.5 12.4348 14.5C12.2849 14.5 12.1411 14.441 12.0351 14.3361C11.9291 14.2311 11.8696 14.0888 11.8696 13.9404V10.5825H8.47826C8.32836 10.5825 8.18459 10.5236 8.07859 10.4186C7.97259 10.3137 7.91304 10.1713 7.91304 10.0229C7.93929 8.68235 8.1103 7.34842 8.42315 6.04389C9.11413 3.21143 10.424 1.31286 12.2122 0.554551C12.2982 0.518097 12.3919 0.503326 12.485 0.511559C12.5782 0.519792 12.6678 0.550774 12.7459 0.601727C12.8239 0.65268 12.888 0.722013 12.9324 0.803514C12.9767 0.885015 13 0.976137 13 1.06872ZM6.20962 0.977076C6.19855 0.903592 6.17281 0.833026 6.13391 0.769494C6.09501 0.705962 6.04371 0.650736 5.98303 0.607036C5.92234 0.563337 5.85348 0.53204 5.78045 0.51497C5.70741 0.497901 5.63168 0.4954 5.55766 0.507614C5.48365 0.519829 5.41283 0.546514 5.34934 0.586113C5.28585 0.625711 5.23095 0.677431 5.18786 0.738256C5.14477 0.799081 5.11434 0.867792 5.09835 0.940383C5.08236 1.01297 5.08113 1.08799 5.09473 1.16106L5.6444 4.42654H3.95652V1.06872C3.95652 0.920292 3.89697 0.777946 3.79097 0.672994C3.68497 0.568042 3.54121 0.50908 3.3913 0.50908C3.2414 0.50908 3.09763 0.568042 2.99164 0.672994C2.88564 0.777946 2.82609 0.920292 2.82609 1.06872V4.42654H1.13821L1.68788 1.16106C1.70148 1.08799 1.70025 1.01297 1.68426 0.940383C1.66827 0.867792 1.63784 0.799081 1.59475 0.738256C1.55166 0.677431 1.49676 0.625711 1.43327 0.586113C1.36978 0.546514 1.29896 0.519829 1.22494 0.507614C1.15093 0.4954 1.07519 0.497901 1.00216 0.51497C0.929133 0.53204 0.860266 0.563337 0.79958 0.607036C0.738894 0.650736 0.687603 0.705962 0.6487 0.769494C0.609796 0.833026 0.584059 0.903592 0.572989 0.977076L0.00777178 4.3349C0.00269927 4.36519 0.000100237 4.39583 0 4.42654C0.00112936 5.21969 0.285377 5.98692 0.802515 6.59265C1.31965 7.19839 2.03639 7.60364 2.82609 7.73679V13.9404C2.82609 14.0888 2.88564 14.2311 2.99164 14.3361C3.09763 14.441 3.2414 14.5 3.3913 14.5C3.54121 14.5 3.68497 14.441 3.79097 14.3361C3.89697 14.2311 3.95652 14.0888 3.95652 13.9404V7.73679C4.74621 7.60364 5.46296 7.19839 5.98009 6.59265C6.49723 5.98692 6.78148 5.21969 6.78261 4.42654C6.78251 4.39583 6.77991 4.36519 6.77484 4.3349L6.20962 0.977076Z" fill="#263069"/>
</svg>
