<svg width="11" height="13" viewBox="0 0 11 13" fill="none" xmlns="http://www.w3.org/2000/svg">
<path id="Vector" d="M1.60418 3.85182H9.39582C9.4566 3.85182 9.51489 3.82646 9.55787 3.78131C9.60085 3.73617 9.62499 3.67493 9.62499 3.61109V0.962956C9.62499 0.707564 9.52841 0.462633 9.35651 0.282043C9.1846 0.101454 8.95144 0 8.70833 0H2.29167C2.04856 0 1.8154 0.101454 1.64349 0.282043C1.47159 0.462633 1.37501 0.707564 1.37501 0.962956V3.61109C1.37501 3.67493 1.39915 3.73617 1.44213 3.78131C1.48511 3.82646 1.5434 3.85182 1.60418 3.85182ZM3.20834 1.44443H4.10953C4.22798 1.4426 4.34268 1.48794 4.43059 1.57135C4.51849 1.65476 4.57307 1.77005 4.58334 1.89401C4.5875 1.95987 4.57873 2.02593 4.55756 2.08808C4.5364 2.15023 4.5033 2.20714 4.46032 2.25528C4.41734 2.30343 4.36539 2.34178 4.30771 2.36794C4.25002 2.39411 4.18783 2.40754 4.125 2.40739H3.22381C3.10537 2.40923 2.99066 2.36388 2.90275 2.28047C2.81485 2.19706 2.76028 2.08178 2.75001 1.95781C2.74584 1.89195 2.75462 1.8259 2.77578 1.76375C2.79694 1.7016 2.83004 1.64468 2.87302 1.59654C2.916 1.5484 2.96795 1.51005 3.02563 1.48388C3.08332 1.45772 3.14551 1.44429 3.20834 1.44443ZM11 5.29987C11.0004 5.23634 10.9889 5.17334 10.9661 5.11451C10.9433 5.05567 10.9096 5.00217 10.867 4.95708C10.8244 4.91198 10.7737 4.8762 10.7178 4.85177C10.662 4.82735 10.6021 4.81478 10.5417 4.81478H0.458345C0.397866 4.81478 0.337984 4.82735 0.282151 4.85177C0.226319 4.8762 0.175639 4.91198 0.133034 4.95708C0.0904286 5.00217 0.0567399 5.05567 0.0339098 5.11451C0.0110796 5.17334 -0.000440704 5.23634 1.28919e-05 5.29987C0.00145507 6.35601 0.278156 7.39158 0.800102 8.29425C1.32205 9.19691 2.06931 9.93221 2.96084 10.4204L2.76204 11.8811C2.73203 12.087 2.76472 12.2976 2.85542 12.4829C2.93288 12.6386 3.04942 12.7691 3.19242 12.8603C3.33541 12.9514 3.49942 12.9997 3.66667 12.9999H7.31385C7.51293 13.0028 7.7078 12.9396 7.87072 12.8194C8.00606 12.7165 8.11207 12.5767 8.1773 12.4152C8.24253 12.2536 8.26449 12.0764 8.24083 11.9027L8.03916 10.4222C8.93095 9.93388 9.67838 9.19829 10.2003 8.29528C10.7223 7.39227 10.9989 6.35632 11 5.29987ZM3.66667 12.037L3.83454 10.8032C4.91824 11.1643 6.08176 11.1643 7.16547 10.8032L7.33333 12.037H3.66667Z" fill="#263069"/>
</svg>
