<svg width="14" height="13" viewBox="0 0 14 13" fill="none" xmlns="http://www.w3.org/2000/svg">
<path id="Vector" d="M13.5625 2.85375L12.3537 1.64625C12.2599 1.55243 12.1327 1.49972 12 1.49972C11.8673 1.49972 11.7401 1.55243 11.6462 1.64625C11.5524 1.74007 11.4997 1.86732 11.4997 2C11.4997 2.13268 11.5524 2.25993 11.6462 2.35375L12.8537 3.5625C12.947 3.65589 12.9996 3.78238 13 3.91437V9C13 9.13261 12.9473 9.25979 12.8535 9.35355C12.7598 9.44732 12.6326 9.5 12.5 9.5C12.3674 9.5 12.2402 9.44732 12.1464 9.35355C12.0527 9.25979 12 9.13261 12 9V6.5C12 6.10218 11.842 5.72064 11.5607 5.43934C11.2793 5.15804 10.8978 5 10.5 5H9.49999V2C9.49999 1.60218 9.34196 1.22064 9.06065 0.93934C8.77935 0.658035 8.39782 0.5 7.99999 0.5H3C2.60217 0.5 2.22064 0.658035 1.93934 0.93934C1.65803 1.22064 1.5 1.60218 1.5 2V11.5H0.5C0.367391 11.5 0.240215 11.5527 0.146446 11.6464C0.0526784 11.7402 0 11.8674 0 12C0 12.1326 0.0526784 12.2598 0.146446 12.3536C0.240215 12.4473 0.367391 12.5 0.5 12.5H10.5C10.6326 12.5 10.7598 12.4473 10.8535 12.3536C10.9473 12.2598 11 12.1326 11 12C11 11.8674 10.9473 11.7402 10.8535 11.6464C10.7598 11.5527 10.6326 11.5 10.5 11.5H9.49999V6H10.5C10.6326 6 10.7598 6.05268 10.8535 6.14645C10.9473 6.24021 11 6.36739 11 6.5V9C11 9.39782 11.158 9.77936 11.4393 10.0607C11.7206 10.342 12.1022 10.5 12.5 10.5C12.8978 10.5 13.2793 10.342 13.5606 10.0607C13.842 9.77936 14 9.39782 14 9V3.91437C14.0007 3.71745 13.9625 3.52233 13.8874 3.34028C13.8123 3.15824 13.7019 2.99288 13.5625 2.85375ZM7.49999 6H3.5C3.36739 6 3.24021 5.94732 3.14644 5.85355C3.05268 5.75979 3 5.63261 3 5.5C3 5.36739 3.05268 5.24021 3.14644 5.14645C3.24021 5.05268 3.36739 5 3.5 5H7.49999C7.6326 5 7.75978 5.05268 7.85355 5.14645C7.94732 5.24021 7.99999 5.36739 7.99999 5.5C7.99999 5.63261 7.94732 5.75979 7.85355 5.85355C7.75978 5.94732 7.6326 6 7.49999 6Z" fill="#263069"/>
</svg>
