<svg width="14" height="13" viewBox="0 0 14 13" fill="none" xmlns="http://www.w3.org/2000/svg">
<path id="Vector" d="M13.5166 11.5768H12.5992V5.11439C12.5992 4.86954 12.5009 4.63472 12.3259 4.46158C12.1508 4.28845 11.9135 4.19118 11.666 4.19118H9.09969C9.03782 4.19118 8.97848 4.2155 8.93472 4.25878C8.89097 4.30207 8.86639 4.36077 8.86639 4.42198V11.5768H7.9332V1.44524C7.93474 1.30144 7.9032 1.15917 7.84095 1.02922C7.77871 0.89926 7.68739 0.785016 7.57392 0.695134C7.41924 0.575831 7.2305 0.507774 7.0345 0.500627C6.8385 0.49348 6.64521 0.547607 6.48208 0.655321L1.81609 3.72958C1.68809 3.81407 1.5832 3.92855 1.51074 4.06285C1.43829 4.19714 1.40053 4.34708 1.40082 4.4993V11.5768H0.483371C0.362794 11.575 0.246016 11.6185 0.156527 11.6985C0.0670383 11.7784 0.0114789 11.889 0.0010252 12.0078C-0.00321263 12.071 0.00571771 12.1343 0.0272615 12.1939C0.0488053 12.2535 0.0825024 12.308 0.12626 12.3542C0.170017 12.4003 0.2229 12.4371 0.281624 12.4622C0.340348 12.4873 0.403659 12.5001 0.467624 12.5H13.5324C13.5963 12.5001 13.6597 12.4873 13.7184 12.4622C13.7771 12.4371 13.83 12.4003 13.8737 12.3542C13.9175 12.308 13.9512 12.2535 13.9727 12.1939C13.9943 12.1343 14.0032 12.071 13.999 12.0078C13.9885 11.889 13.933 11.7784 13.8435 11.6985C13.754 11.6185 13.6372 11.575 13.5166 11.5768ZM3.96711 10.192C3.96725 10.2553 3.95424 10.3179 3.92888 10.376C3.90352 10.4341 3.86636 10.4864 3.81971 10.5297C3.77305 10.573 3.71789 10.6063 3.65767 10.6276C3.59744 10.649 3.53343 10.6578 3.4696 10.6536C3.34936 10.6432 3.23756 10.5882 3.15671 10.4995C3.07586 10.4109 3.03198 10.2952 3.03391 10.1758V9.28437C3.03227 9.16512 3.07626 9.04967 3.15707 8.96117C3.23787 8.87267 3.34952 8.81767 3.4696 8.80719C3.53343 8.803 3.59744 8.81183 3.65767 8.83315C3.71789 8.85446 3.77305 8.8878 3.81971 8.93108C3.86636 8.97437 3.90352 9.02669 3.92888 9.08479C3.95424 9.14288 3.96725 9.20551 3.96711 9.26879V10.192ZM3.96711 6.96079C3.96725 7.02407 3.95424 7.0867 3.92888 7.1448C3.90352 7.20289 3.86636 7.25521 3.81971 7.2985C3.77305 7.34179 3.71789 7.37512 3.65767 7.39643C3.59744 7.41775 3.53343 7.42658 3.4696 7.42239C3.34941 7.41191 3.23769 7.35682 3.15687 7.2682C3.07605 7.17958 3.03212 7.06398 3.03391 6.94463V6.05317C3.03227 5.93392 3.07626 5.81846 3.15707 5.72996C3.23787 5.64146 3.34952 5.58646 3.4696 5.57599C3.53343 5.57179 3.59744 5.58063 3.65767 5.60194C3.71789 5.62325 3.77305 5.65659 3.81971 5.69988C3.86636 5.74317 3.90352 5.79548 3.92888 5.85358C3.95424 5.91167 3.96725 5.97431 3.96711 6.03759V6.96079ZM6.3001 10.192C6.30024 10.2553 6.28723 10.3179 6.26187 10.376C6.23652 10.4341 6.19935 10.4864 6.1527 10.5297C6.10604 10.573 6.05089 10.6063 5.99066 10.6276C5.93043 10.649 5.86642 10.6578 5.80259 10.6536C5.68256 10.6433 5.57092 10.5884 5.4901 10.5C5.40929 10.4116 5.36527 10.2962 5.36691 10.177V9.28437C5.36541 9.16522 5.40947 9.04991 5.49026 8.96153C5.57105 8.87316 5.68261 8.81824 5.80259 8.80777C5.86642 8.80358 5.93043 8.81241 5.99066 8.83372C6.05089 8.85504 6.10604 8.88837 6.1527 8.93166C6.19935 8.97495 6.23652 9.02727 6.26187 9.08536C6.28723 9.14346 6.30024 9.20609 6.3001 9.26937V10.192ZM6.3001 6.96079C6.30024 7.02407 6.28723 7.0867 6.26187 7.1448C6.23652 7.20289 6.19935 7.25521 6.1527 7.2985C6.10604 7.34179 6.05089 7.37512 5.99066 7.39643C5.93043 7.41775 5.86642 7.42658 5.80259 7.42239C5.68261 7.41192 5.57105 7.357 5.49026 7.26862C5.40947 7.18025 5.36541 7.06494 5.36691 6.94579V6.05317C5.36541 5.93402 5.40947 5.81871 5.49026 5.73033C5.57105 5.64195 5.68261 5.58703 5.80259 5.57656C5.86642 5.57237 5.93043 5.58121 5.99066 5.60252C6.05089 5.62383 6.10604 5.65717 6.1527 5.70046C6.19935 5.74375 6.23652 5.79606 6.26187 5.85416C6.28723 5.91225 6.30024 5.97488 6.3001 6.03816V6.96079Z" fill="#263069"/>
</svg>
