<svg width="14" height="17" viewBox="0 0 14 17" fill="none" xmlns="http://www.w3.org/2000/svg">
<path id="Vector" d="M9.91674 5.07143C9.91674 5.22298 9.85528 5.36833 9.74588 5.47549C9.63648 5.58265 9.4881 5.64286 9.33339 5.64286H4.66661C4.5119 5.64286 4.36352 5.58265 4.25412 5.47549C4.14472 5.36833 4.08326 5.22298 4.08326 5.07143C4.08326 4.91988 4.14472 4.77453 4.25412 4.66737C4.36352 4.5602 4.5119 4.5 4.66661 4.5H9.33339C9.4881 4.5 9.63648 4.5602 9.74588 4.66737C9.85528 4.77453 9.91674 4.91988 9.91674 5.07143ZM13.9798 7.50714L12.3471 13.3721C12.2798 13.6141 12.133 13.8276 11.9296 13.9798C11.7261 14.1319 11.4772 14.2143 11.2212 14.2143H10.5001L11.5501 15.5857C11.5961 15.6457 11.6295 15.7141 11.6485 15.7868C11.6675 15.8594 11.6718 15.9351 11.6609 16.0094C11.6501 16.0837 11.6244 16.1551 11.5854 16.2197C11.5464 16.2843 11.4947 16.3407 11.4334 16.3857C11.3722 16.4307 11.3024 16.4635 11.2282 16.4821C11.154 16.5007 11.0768 16.5049 11.0009 16.4943C10.9251 16.4836 10.8521 16.4585 10.7862 16.4203C10.7203 16.382 10.6627 16.3315 10.6168 16.2714L9.04172 14.2143H4.95828L3.38325 16.2714C3.33728 16.3315 3.2797 16.382 3.21378 16.4203C3.14786 16.4585 3.0749 16.4836 2.99907 16.4943C2.92323 16.5049 2.846 16.5007 2.77179 16.4821C2.69758 16.4635 2.62784 16.4307 2.56656 16.3857C2.50527 16.3407 2.45364 16.2843 2.41461 16.2197C2.37558 16.1551 2.34992 16.0837 2.33908 16.0094C2.32825 15.9351 2.33246 15.8594 2.35147 15.7868C2.37048 15.7141 2.40393 15.6457 2.44989 15.5857L3.49992 14.2143H2.77875C2.52277 14.2143 2.27386 14.1319 2.07041 13.9798C1.86696 13.8276 1.72025 13.6141 1.65289 13.3721L0.020247 7.50714C-0.00674901 7.40889 -0.00674901 7.3054 0.020247 7.20714L1.65289 1.34214C1.72025 1.10022 1.86696 0.886718 2.07041 0.734536C2.27386 0.582353 2.52277 0.49994 2.77875 0.5H11.2212C11.4772 0.49994 11.7261 0.582353 11.9296 0.734536C12.133 0.886718 12.2798 1.10022 12.3471 1.34214L13.9798 7.20714C14.0067 7.3054 14.0067 7.40889 13.9798 7.50714ZM7.58335 9.64286C7.58335 9.49131 7.52189 9.34596 7.41249 9.2388C7.30309 9.13163 7.15471 9.07143 7 9.07143C6.84529 9.07143 6.69691 9.13163 6.58751 9.2388C6.47811 9.34596 6.41665 9.49131 6.41665 9.64286V12.5C6.41665 12.6516 6.47811 12.7969 6.58751 12.9041C6.69691 13.0112 6.84529 13.0714 7 13.0714C7.15471 13.0714 7.30309 13.0112 7.41249 12.9041C7.52189 12.7969 7.58335 12.6516 7.58335 12.5V9.64286ZM12.6876 6.90643L11.2212 1.64286H2.77875L1.31236 6.90643L7 7.91929L12.6876 6.90643Z" fill="#263069"/>
</svg>
