<svg width="13" height="15" viewBox="0 0 13 15" fill="none" xmlns="http://www.w3.org/2000/svg">
<path id="Vector" d="M11.9125 12.7331L10.8502 13.0254L10.2231 10.622C10.7191 10.367 11.1143 9.94406 11.342 9.42462C11.5697 8.90518 11.616 8.321 11.4731 7.77059C10.7148 4.86598 9.13912 2.31858 9.07232 2.21167C9.01796 2.12442 8.93829 2.0569 8.84456 2.01865C8.75083 1.98039 8.64776 1.97333 8.54991 1.99846L7.23426 2.33651C7.23426 1.82666 7.22343 1.50653 7.22162 1.46636C7.21682 1.36015 7.1788 1.25836 7.11321 1.17609C7.04762 1.09382 6.95795 1.03546 6.8575 1.00966L4.93157 0.515257C4.83372 0.490129 4.73065 0.497191 4.63692 0.535447C4.54319 0.573702 4.46352 0.641219 4.40917 0.728467C4.34236 0.835382 2.76671 3.38155 2.00838 6.29048C1.86546 6.84089 1.91176 7.42507 2.13948 7.94451C2.3672 8.46395 2.76239 8.88686 3.25843 9.14193L2.6313 11.5422L1.56903 11.2499C1.44564 11.216 1.31418 11.2338 1.20357 11.2994C1.09296 11.365 1.01225 11.473 0.979213 11.5997C0.946171 11.7264 0.963499 11.8614 1.02738 11.975C1.09127 12.0886 1.19647 12.1714 1.31986 12.2054L4.20875 13.0001C4.24942 13.0111 4.29128 13.0167 4.33333 13.0168C4.45024 13.0169 4.56321 12.9734 4.65115 12.8943C4.73909 12.8152 4.796 12.7059 4.81125 12.5869C4.8265 12.4679 4.79906 12.3472 4.73405 12.2475C4.66903 12.1477 4.57088 12.0756 4.45792 12.0447L3.56116 11.7975L4.18829 9.39408C4.23704 9.39717 4.28519 9.39902 4.33333 9.39902C4.811 9.39764 5.27754 9.25082 5.67393 8.97712C6.07031 8.70343 6.37874 8.31516 6.56019 7.86143C6.6312 8.2551 6.71667 8.65371 6.81958 9.04923C6.95736 9.57525 7.26016 10.04 7.68111 10.3714C8.10206 10.7029 8.61767 10.8826 9.14815 10.8828C9.1963 10.8828 9.24444 10.8828 9.29319 10.8779L9.92032 13.2813L9.02356 13.5285C8.91112 13.5599 8.81357 13.6321 8.74901 13.7317C8.68445 13.8313 8.65725 13.9515 8.67246 14.0701C8.68767 14.1888 8.74426 14.2977 8.83174 14.3767C8.91921 14.4558 9.03163 14.4996 9.14815 14.5C9.1902 14.4999 9.23206 14.4943 9.27273 14.4833L12.1616 13.6886C12.285 13.6546 12.3902 13.5718 12.4541 13.4582C12.518 13.3446 12.5353 13.2096 12.5023 13.0829C12.4692 12.9562 12.3885 12.8482 12.2779 12.7826C12.1673 12.717 12.0358 12.6992 11.9125 12.7331ZM8.43917 3.04597C8.60648 3.33643 8.87431 3.82094 9.17343 4.434L7.22222 4.93582C7.19694 4.31782 7.19935 3.80797 7.20718 3.46559C7.20718 3.43099 7.21019 3.39638 7.21199 3.36177L8.43917 3.04597ZM5.04232 1.56277L6.26829 1.87733C6.2719 2.14184 6.26829 2.53674 6.25565 3.01878C6.25204 3.09356 6.24602 3.21592 6.24181 3.37969C6.24181 3.44149 6.23579 3.50329 6.23218 3.56509L4.25449 3.0608C4.57407 2.39583 4.86537 1.86992 5.04232 1.56277ZM10.1617 2.20487C10.1333 2.14677 10.1164 2.08351 10.1119 2.01869C10.1074 1.95388 10.1154 1.88879 10.1354 1.82714C10.1554 1.7655 10.1871 1.70851 10.2285 1.65943C10.27 1.61036 10.3205 1.57016 10.3771 1.54114L11.3401 1.04674C11.3967 1.01768 11.4583 1.00036 11.5214 0.995754C11.5845 0.991148 11.6479 0.999352 11.7079 1.0199C11.7679 1.04044 11.8234 1.07292 11.8712 1.11549C11.919 1.15806 11.9582 1.20987 11.9865 1.26798C12.0148 1.32609 12.0316 1.38935 12.0361 1.45416C12.0406 1.51896 12.0326 1.58404 12.0126 1.64567C11.9926 1.7073 11.961 1.76429 11.9195 1.81337C11.8781 1.86245 11.8276 1.90266 11.771 1.93172L10.8081 2.42612C10.7515 2.45521 10.6899 2.47257 10.6267 2.4772C10.5636 2.48182 10.5002 2.47363 10.4402 2.45308C10.3802 2.43253 10.3247 2.40004 10.2769 2.35745C10.2291 2.31486 10.1899 2.26301 10.1617 2.20487ZM13 3.96123C13 4.09235 12.9493 4.21811 12.859 4.31082C12.7687 4.40354 12.6462 4.45563 12.5185 4.45563H11.5556C11.4279 4.45563 11.3054 4.40354 11.2151 4.31082C11.1248 4.21811 11.0741 4.09235 11.0741 3.96123C11.0741 3.83011 11.1248 3.70435 11.2151 3.61164C11.3054 3.51892 11.4279 3.46683 11.5556 3.46683H12.5185C12.6462 3.46683 12.7687 3.51892 12.859 3.61164C12.9493 3.70435 13 3.83011 13 3.96123ZM1.01352 0.773581C1.04178 0.715444 1.08093 0.663598 1.12872 0.621008C1.17652 0.578418 1.23202 0.545919 1.29205 0.525371C1.35208 0.504823 1.41547 0.496628 1.47859 0.501255C1.54171 0.505882 1.60333 0.52324 1.65991 0.552337L2.62287 1.04674C2.67946 1.07579 2.72992 1.11601 2.77138 1.16509C2.81283 1.21417 2.84447 1.27115 2.86447 1.33278C2.88448 1.39442 2.89247 1.45949 2.88799 1.5243C2.8835 1.5891 2.86663 1.65236 2.83833 1.71047C2.81004 1.76858 2.77087 1.8204 2.72308 1.86296C2.67528 1.90553 2.61979 1.93801 2.55976 1.95856C2.43854 2.00005 2.30623 1.99039 2.19194 1.93172L1.22898 1.43731C1.17236 1.40829 1.12187 1.36809 1.08039 1.31902C1.03892 1.26994 1.00727 1.21296 0.987257 1.15131C0.967246 1.08967 0.959265 1.02458 0.963771 0.959762C0.968278 0.894948 0.985182 0.831682 1.01352 0.773581ZM1.44444 3.96123H0.481481C0.353785 3.96123 0.231318 3.90914 0.141023 3.81642C0.0507273 3.72371 0 3.59795 0 3.46683C0 3.33571 0.0507273 3.20995 0.141023 3.11724C0.231318 3.02452 0.353785 2.97243 0.481481 2.97243H1.44444C1.57214 2.97243 1.69461 3.02452 1.7849 3.11724C1.8752 3.20995 1.92593 3.33571 1.92593 3.46683C1.92593 3.59795 1.8752 3.72371 1.7849 3.81642C1.69461 3.90914 1.57214 3.96123 1.44444 3.96123Z" fill="#263069"/>
</svg>
