<svg width="11" height="15" viewBox="0 0 11 15" fill="none" xmlns="http://www.w3.org/2000/svg">
<path id="Vector" d="M10.2148 0H7.59727C7.38901 0 7.18928 0.0846618 7.04201 0.235361C6.89475 0.38606 6.81202 0.590451 6.81202 0.803571C6.81202 1.01669 6.89475 1.22108 7.04201 1.37178C7.18928 1.52248 7.38901 1.60714 7.59727 1.60714H8.31708L7.29364 2.65647C6.76958 2.21083 6.15252 1.8943 5.49003 1.73128C4.82753 1.56826 4.1373 1.56312 3.47255 1.71625C2.80781 1.86937 2.18631 2.17667 1.65597 2.61446C1.12563 3.05225 0.700617 3.60882 0.413707 4.24127C0.126796 4.87372 -0.0143494 5.56515 0.00115178 6.26225C0.016653 6.95935 0.188387 7.6435 0.503113 8.26194C0.817839 8.88038 1.26715 9.41659 1.8164 9.82924C2.36565 10.2419 3.00017 10.5199 3.67103 10.642V11.5179H2.36229C2.15403 11.5179 1.9543 11.6025 1.80704 11.7532C1.65977 11.9039 1.57704 12.1083 1.57704 12.3214C1.57704 12.5345 1.65977 12.7389 1.80704 12.8896C1.9543 13.0403 2.15403 13.125 2.36229 13.125H3.67103V14.1964C3.67103 14.4095 3.75376 14.6139 3.90103 14.7646C4.04829 14.9153 4.24802 15 4.45628 15C4.66454 15 4.86427 14.9153 5.01153 14.7646C5.1588 14.6139 5.24153 14.4095 5.24153 14.1964V13.125H6.55027C6.75853 13.125 6.95826 13.0403 7.10552 12.8896C7.25279 12.7389 7.33552 12.5345 7.33552 12.3214C7.33552 12.1083 7.25279 11.9039 7.10552 11.7532C6.95826 11.6025 6.75853 11.5179 6.55027 11.5179H5.24153V10.642C5.9443 10.5137 6.60654 10.2141 7.17224 9.7685C7.73793 9.32292 8.19044 8.74448 8.49149 8.08209C8.79253 7.41971 8.93326 6.69287 8.90176 5.96306C8.87026 5.23325 8.66747 4.52193 8.31053 3.88929L9.42951 2.74554V3.48214C9.42951 3.69526 9.51224 3.89965 9.6595 4.05035C9.80676 4.20105 10.0065 4.28571 10.2148 4.28571C10.423 4.28571 10.6227 4.20105 10.77 4.05035C10.9173 3.89965 11 3.69526 11 3.48214V0.803571C11 0.590451 10.9173 0.38606 10.77 0.235361C10.6227 0.0846618 10.423 0 10.2148 0ZM4.45628 9.10714C3.88682 9.10714 3.33015 8.93434 2.85666 8.61058C2.38317 8.28682 2.01414 7.82665 1.79621 7.28826C1.57829 6.74987 1.52127 6.15745 1.63237 5.58589C1.74346 5.01434 2.01768 4.48934 2.42035 4.07727C2.82302 3.66521 3.33605 3.38459 3.89457 3.2709C4.45309 3.15721 5.03201 3.21556 5.55812 3.43857C6.08423 3.66158 6.5339 4.03923 6.85028 4.52377C7.16665 5.0083 7.33552 5.57797 7.33552 6.16071C7.33465 6.94188 7.03103 7.6908 6.49125 8.24317C5.95148 8.79555 5.21964 9.10626 4.45628 9.10714Z" fill="#263069"/>
</svg>
