<svg width="30" height="30" viewBox="0 0 30 30" fill="none" xmlns="http://www.w3.org/2000/svg">
<path d="M15.1821 3.13037C12.7809 3.13037 10.4335 3.84244 8.4369 5.17652C6.4403 6.5106 4.88414 8.40679 3.96521 10.6253C3.04628 12.8438 2.80584 15.285 3.27431 17.6401C3.74278 19.9953 4.89911 22.1586 6.59708 23.8566C8.29504 25.5545 10.4584 26.7109 12.8135 27.1793C15.1687 27.6478 17.6099 27.4074 19.8284 26.4884C22.0469 25.5695 23.943 24.0133 25.2771 22.0167C26.6112 20.0202 27.3233 17.6728 27.3233 15.2715C27.3197 12.0526 26.0394 8.9665 23.7633 6.69037C21.4872 4.41424 18.4011 3.13394 15.1821 3.13037ZM16.5312 24.6168V18.4192H18.7795C19.1373 18.4192 19.4804 18.2771 19.7334 18.0241C19.9864 17.7711 20.1285 17.428 20.1285 17.0702C20.1285 16.7124 19.9864 16.3693 19.7334 16.1163C19.4804 15.8633 19.1373 15.7212 18.7795 15.7212H16.5312V13.4728C16.5312 13.115 16.6733 12.7719 16.9263 12.5189C17.1793 12.2659 17.5224 12.1238 17.8802 12.1238H19.6789C20.0366 12.1238 20.3798 11.9817 20.6328 11.7287C20.8857 11.4757 21.0279 11.1326 21.0279 10.7748C21.0279 10.417 20.8857 10.0739 20.6328 9.82089C20.3798 9.5679 20.0366 9.42577 19.6789 9.42577H17.8802C16.8068 9.42577 15.7775 9.85215 15.0185 10.6111C14.2595 11.3701 13.8331 12.3995 13.8331 13.4728V15.7212H11.5848C11.227 15.7212 10.8839 15.8633 10.6309 16.1163C10.3779 16.3693 10.2358 16.7124 10.2358 17.0702C10.2358 17.428 10.3779 17.7711 10.6309 18.0241C10.8839 18.2771 11.227 18.4192 11.5848 18.4192H13.8331V24.6168C11.4702 24.2757 9.32418 23.0523 7.82693 21.1928C6.32967 19.3332 5.59233 16.9756 5.76329 14.5943C5.93426 12.213 7.00085 9.9849 8.7484 8.35832C10.4959 6.73174 12.7947 5.82745 15.1821 5.82745C17.5696 5.82745 19.8683 6.73174 21.6159 8.35832C23.3635 9.9849 24.43 12.213 24.601 14.5943C24.772 16.9756 24.0346 19.3332 22.5374 21.1928C21.0401 23.0523 18.8941 24.2757 16.5312 24.6168Z" fill="#0061FF"/>
</svg>
