<svg width="41" height="41" viewBox="0 0 41 41" fill="none" xmlns="http://www.w3.org/2000/svg">
<path d="M40.2194 20.4048C40.2194 30.5087 32.732 38.8618 23.0052 40.2173C22.0958 40.3434 21.1653 40.4093 20.2208 40.4093C19.1305 40.4093 18.0599 40.3224 17.0173 40.1542C7.49515 38.6207 0.222168 30.3615 0.222168 20.4048C0.222168 9.35616 9.17676 0.398926 20.2222 0.398926C31.2676 0.398926 40.2222 9.35616 40.2222 20.4048H40.2194Z" fill="#1C1C1B"/>
<path d="M8.33309 9.22168L17.5567 21.5572L8.27563 31.5867H10.365L18.4914 22.8061L25.0567 31.5867H32.1658L22.4236 18.5574L31.0629 9.22168H28.9735L21.4903 17.3084L15.4435 9.22168H8.33448H8.33309ZM11.4048 10.7608H14.67L29.0912 30.0476H25.8261L11.4048 10.7608Z" fill="white"/>
</svg>
