<svg width="41" height="41" viewBox="0 0 41 41" fill="none" xmlns="http://www.w3.org/2000/svg">
<path d="M20.0827 0.398193H19.9916C8.97103 0.398193 0.0371094 9.33474 0.0371094 20.3585V20.4496C0.0371094 31.4734 8.97103 40.41 19.9916 40.41H20.0827C31.1032 40.41 40.0371 31.4734 40.0371 20.4496V20.3585C40.0371 9.33474 31.1032 0.398193 20.0827 0.398193Z" fill="url(#paint0_linear_2467_5307)"/>
<path d="M26.2265 8.53857H13.8494C10.43 8.53857 7.64819 11.3212 7.64819 14.7416V26.0682C7.64819 29.4886 10.43 32.2712 13.8494 32.2712H26.2265C29.6459 32.2712 32.4276 29.4886 32.4276 26.0682V14.7416C32.4276 11.3212 29.6459 8.53857 26.2265 8.53857ZM9.83577 14.7416C9.83577 12.5281 11.6366 10.7268 13.8494 10.7268H26.2265C28.4393 10.7268 30.2401 12.5281 30.2401 14.7416V26.0682C30.2401 28.2816 28.4393 30.083 26.2265 30.083H13.8494C11.6366 30.083 9.83577 28.2816 9.83577 26.0682V14.7416Z" fill="white"/>
<path d="M20.0379 26.1732C23.2177 26.1732 25.8061 23.5855 25.8061 20.4034C25.8061 17.2213 23.2191 14.6335 20.0379 14.6335C16.8568 14.6335 14.2698 17.2213 14.2698 20.4034C14.2698 23.5855 16.8568 26.1732 20.0379 26.1732ZM20.0379 16.8232C22.0125 16.8232 23.6185 18.4296 23.6185 20.4048C23.6185 22.3799 22.0125 23.9864 20.0379 23.9864C18.0634 23.9864 16.4574 22.3799 16.4574 20.4048C16.4574 18.4296 18.0634 16.8232 20.0379 16.8232Z" fill="white"/>
<path d="M26.3398 15.5658C27.196 15.5658 27.8939 14.8691 27.8939 14.0111C27.8939 13.1532 27.1974 12.4565 26.3398 12.4565C25.4821 12.4565 24.7856 13.1532 24.7856 14.0111C24.7856 14.8691 25.4821 15.5658 26.3398 15.5658Z" fill="white"/>
<defs>
<linearGradient id="paint0_linear_2467_5307" x1="5.88092" y1="34.5644" x2="34.2016" y2="6.25347" gradientUnits="userSpaceOnUse">
<stop stop-color="#FAAD4F"/>
<stop offset="0.35" stop-color="#DD2A7B"/>
<stop offset="0.62" stop-color="#9537B0"/>
<stop offset="1" stop-color="#515BD4"/>
</linearGradient>
</defs>
</svg>
