<svg width="41" height="41" viewBox="0 0 41 41" fill="none" xmlns="http://www.w3.org/2000/svg">
<path d="M40.8518 20.4048C40.8518 30.509 33.3642 38.8624 23.6371 40.2179C22.7276 40.3441 21.797 40.41 20.8525 40.41C19.7622 40.41 18.6916 40.3231 17.6489 40.1548C8.12504 38.6213 0.851807 30.3618 0.851807 20.4048C0.851807 9.35574 9.80672 0.398193 20.8511 0.398193C31.8955 0.398193 40.8518 9.35574 40.8518 20.4048Z" fill="#1877F2"/>
<path d="M23.6371 16.4614V20.8196H29.0269L28.1734 26.6904H23.6371V40.2164C22.7276 40.3426 21.7971 40.4085 20.8526 40.4085C19.7623 40.4085 18.6916 40.3216 17.649 40.1534V26.6904H12.6782V20.8196H17.649V15.4872C17.649 12.1789 20.3298 9.49585 23.6385 9.49585V9.49865C23.6483 9.49865 23.6567 9.49585 23.6666 9.49585H29.0283V14.5732H25.5248C24.4836 14.5732 23.6385 15.4185 23.6385 16.46L23.6371 16.4614Z" fill="white"/>
</svg>
