<svg width="41" height="41" viewBox="0 0 41 41" fill="none" xmlns="http://www.w3.org/2000/svg">
<path d="M20.4528 0.398193H20.3617C9.34115 0.398193 0.407227 9.33474 0.407227 20.3585V20.4496C0.407227 31.4734 9.34115 40.41 20.3617 40.41H20.4528C31.4733 40.41 40.4072 31.4734 40.4072 20.4496V20.3585C40.4072 9.33474 31.4733 0.398193 20.4528 0.398193Z" fill="#007EBB"/>
<path d="M9.94668 13.6984C9.41976 13.2092 9.15771 12.6036 9.15771 11.8831C9.15771 11.1626 9.42116 10.5304 9.94668 10.0397C10.4736 9.55049 11.1519 9.30518 11.9829 9.30518C12.8139 9.30518 13.4656 9.55049 13.9911 10.0397C14.518 10.529 14.7801 11.1443 14.7801 11.8831C14.7801 12.6218 14.5166 13.2092 13.9911 13.6984C13.4642 14.1877 12.7957 14.433 11.9829 14.433C11.1701 14.433 10.4736 14.1877 9.94668 13.6984ZM14.3373 16.5049V31.5042H9.59914V16.5049H14.3373Z" fill="#FEFFFC"/>
<path d="M30.1098 17.9866C31.1426 19.1081 31.6583 20.6472 31.6583 22.607V31.2393H27.1585V23.2154C27.1585 22.2271 26.902 21.4589 26.3905 20.9122C25.879 20.3655 25.1895 20.0907 24.3262 20.0907C23.463 20.0907 22.7735 20.3641 22.262 20.9122C21.7505 21.4589 21.494 22.2271 21.494 23.2154V31.2393H16.9675V16.4628H21.494V18.4226C21.9523 17.7693 22.5703 17.2535 23.3467 16.8736C24.123 16.4937 24.9961 16.3044 25.9673 16.3044C27.6966 16.3044 29.0783 16.8652 30.1098 17.9866Z" fill="#FEFFFC"/>
</svg>
