<svg width="36" height="36" viewBox="0 0 36 36" fill="none" xmlns="http://www.w3.org/2000/svg">
<path d="M11.1621 10.3271C12.7814 10.3271 14.0942 9.01434 14.0942 7.39499C14.0942 5.77564 12.7814 4.46289 11.1621 4.46289C9.54273 4.46289 8.22998 5.77564 8.22998 7.39499C8.22998 9.01434 9.54273 10.3271 11.1621 10.3271Z" fill="#263069" stroke="#AACBF4" stroke-width="4.10494" stroke-linecap="round" stroke-linejoin="round"/>
<path d="M24.3564 10.3271C25.9758 10.3271 27.2885 9.01434 27.2885 7.39499C27.2885 5.77564 25.9758 4.46289 24.3564 4.46289C22.7371 4.46289 21.4243 5.77564 21.4243 7.39499C21.4243 9.01434 22.7371 10.3271 24.3564 10.3271Z" fill="#263069" stroke="#AACBF4" stroke-width="4.10494" stroke-linecap="round" stroke-linejoin="round"/>
<path d="M7.49683 14.7251H14.8271L13.361 30.8516H8.96288L7.49683 14.7251Z" fill="#263069" stroke="#AACBF4" stroke-width="4.10494" stroke-linecap="round" stroke-linejoin="round"/>
<path d="M20.6914 14.7251H28.0216L29.4877 22.7884H27.2886L26.5556 30.8516H22.1574L21.4244 22.7884H19.2253L20.6914 14.7251Z" fill="#263069" stroke="#AACBF4" stroke-width="4.10494" stroke-linecap="round" stroke-linejoin="round"/>
</svg>
