<svg width="30" height="30" viewBox="0 0 30 30" fill="none" xmlns="http://www.w3.org/2000/svg">
<path d="M24.9714 3.13025H5.18586C4.58956 3.13025 4.01768 3.36713 3.59603 3.78878C3.17438 4.21043 2.9375 4.7823 2.9375 5.37861V25.1641C2.9375 25.7605 3.17438 26.3323 3.59603 26.754C4.01768 27.1756 4.58956 27.4125 5.18586 27.4125H24.9714C25.5677 27.4125 26.1396 27.1756 26.5612 26.754C26.9829 26.3323 27.2198 25.7605 27.2198 25.1641V5.37861C27.2198 4.7823 26.9829 4.21043 26.5612 3.78878C26.1396 3.36713 25.5677 3.13025 24.9714 3.13025ZM24.5217 24.7145H5.63553V5.82828H24.5217V24.7145ZM13.2799 20.6674V14.372C13.2802 14.0917 13.3678 13.8184 13.5306 13.5901C13.6933 13.3619 13.9232 13.19 14.1881 13.0984C14.4531 13.0067 14.74 12.9999 15.009 13.0789C15.278 13.1579 15.5157 13.3187 15.6891 13.539C16.3742 13.1799 17.1405 13.0036 17.9138 13.0272C18.687 13.0507 19.4411 13.2734 20.1031 13.6737C20.7652 14.0739 21.3127 14.6382 21.6929 15.3119C22.0731 15.9857 22.273 16.7461 22.2734 17.5197V20.6674C22.2734 21.0252 22.1312 21.3683 21.8783 21.6213C21.6253 21.8743 21.2821 22.0164 20.9244 22.0164C20.5666 22.0164 20.2234 21.8743 19.9705 21.6213C19.7175 21.3683 19.5753 21.0252 19.5753 20.6674V17.5197C19.5753 17.0427 19.3858 16.5852 19.0485 16.2479C18.7112 15.9106 18.2537 15.721 17.7767 15.721C17.2996 15.721 16.8421 15.9106 16.5048 16.2479C16.1675 16.5852 15.978 17.0427 15.978 17.5197V20.6674C15.978 21.0252 15.8358 21.3683 15.5829 21.6213C15.3299 21.8743 14.9867 22.0164 14.629 22.0164C14.2712 22.0164 13.928 21.8743 13.6751 21.6213C13.4221 21.3683 13.2799 21.0252 13.2799 20.6674ZM11.4813 14.372V20.6674C11.4813 21.0252 11.3391 21.3683 11.0861 21.6213C10.8332 21.8743 10.49 22.0164 10.1322 22.0164C9.77446 22.0164 9.43133 21.8743 9.17835 21.6213C8.92536 21.3683 8.78323 21.0252 8.78323 20.6674V14.372C8.78323 14.0143 8.92536 13.6711 9.17835 13.4181C9.43133 13.1651 9.77446 13.023 10.1322 13.023C10.49 13.023 10.8332 13.1651 11.0861 13.4181C11.3391 13.6711 11.4813 14.0143 11.4813 14.372ZM8.33356 9.87532C8.33356 9.51957 8.43905 9.17182 8.63669 8.87602C8.83433 8.58023 9.11525 8.34969 9.44392 8.21355C9.77258 8.07741 10.1342 8.04179 10.4831 8.1112C10.8321 8.1806 11.1526 8.35191 11.4041 8.60346C11.6557 8.85501 11.827 9.1755 11.8964 9.52441C11.9658 9.87332 11.9302 10.235 11.794 10.5636C11.6579 10.8923 11.4273 11.1732 11.1315 11.3709C10.8357 11.5685 10.488 11.674 10.1322 11.674C9.6552 11.674 9.1977 11.4845 8.86038 11.1472C8.52306 10.8099 8.33356 10.3524 8.33356 9.87532Z" fill="#0061FF"/>
</svg>
