<svg width="22" height="22" viewBox="0 0 22 22" fill="none" xmlns="http://www.w3.org/2000/svg">
<path d="M19.3715 10.7871C19.3715 11.0495 19.2672 11.3012 19.0816 11.4868C18.896 11.6724 18.6443 11.7766 18.3819 11.7766H12.1145V18.044C12.1145 18.3065 12.0103 18.5582 11.8247 18.7437C11.6391 18.9293 11.3874 19.0336 11.1249 19.0336C10.8625 19.0336 10.6108 18.9293 10.4252 18.7437C10.2396 18.5582 10.1354 18.3065 10.1354 18.044V11.7766H3.868C3.60555 11.7766 3.35384 11.6724 3.16826 11.4868C2.98268 11.3012 2.87842 11.0495 2.87842 10.7871C2.87842 10.5246 2.98268 10.2729 3.16826 10.0873C3.35384 9.90173 3.60555 9.79747 3.868 9.79747H10.1354V3.53011C10.1354 3.26766 10.2396 3.01595 10.4252 2.83037C10.6108 2.64479 10.8625 2.54053 11.1249 2.54053C11.3874 2.54053 11.6391 2.64479 11.8247 2.83037C12.0103 3.01595 12.1145 3.26766 12.1145 3.53011V9.79747H18.3819C18.6443 9.79747 18.896 9.90173 19.0816 10.0873C19.2672 10.2729 19.3715 10.5246 19.3715 10.7871Z" fill="#263069"/>
</svg>
