<svg width="345" height="281" viewBox="0 0 345 281" fill="none" xmlns="http://www.w3.org/2000/svg">
<g clip-path="url(#clip0_468_1010)">
<path d="M101.523 264.229C102.834 265.477 104.445 266.366 106.199 266.809C107.953 267.253 109.792 267.236 111.538 266.762C116.013 265.49 119.051 261.447 121.746 257.65L129.723 246.422L123 247.657C118.166 248.544 113.212 249.476 109.002 252.016C104.792 254.556 101.42 259.09 101.687 264.004" fill="#E6E6E6"/>
<path d="M95.2745 279.354C96.4533 275.329 97.639 271.248 99.7204 267.58C101.569 264.322 104.095 261.463 107.427 259.686C109.195 258.745 111.112 258.121 113.094 257.84C113.611 257.767 113.695 258.572 113.181 258.646C109.75 259.136 106.563 260.706 104.079 263.128C101.327 265.825 99.521 269.302 98.1861 272.881C97.3778 275.044 96.7257 277.261 96.0766 279.478C96.0574 279.582 95.9988 279.676 95.913 279.739C95.8272 279.802 95.7205 279.83 95.6149 279.817C95.509 279.8 95.4141 279.742 95.3507 279.655C95.2873 279.569 95.2606 279.46 95.2764 279.354L95.2745 279.354Z" fill="#F2F2F2"/>
<path d="M225.081 117.238C225.847 117.053 226.645 117.039 227.417 117.196C228.189 117.353 228.918 117.677 229.551 118.147C230.185 118.617 230.708 119.219 231.083 119.913C231.459 120.607 231.678 121.375 231.725 122.163L250.167 127.354L242.642 133.88L226.283 127.95C224.956 127.942 223.679 127.446 222.692 126.558C221.706 125.669 221.079 124.449 220.931 123.129C220.783 121.808 221.123 120.479 221.888 119.394C222.653 118.308 223.789 117.541 225.081 117.238Z" fill="#FFB7B7"/>
<path d="M272.471 274.485L267.096 274.485L264.538 253.722L272.472 253.723L272.471 274.485Z" fill="#FFB7B7"/>
<path d="M273.842 279.703L256.509 279.703V279.483C256.509 277.691 257.22 275.973 258.485 274.706C259.75 273.439 261.466 272.727 263.256 272.727L273.842 272.728L273.842 279.703Z" fill="#2F2E41"/>
<path d="M303.97 274.485L298.595 274.485L296.037 253.722L303.971 253.723L303.97 274.485Z" fill="#FFB7B7"/>
<path d="M305.341 279.703L288.008 279.703V279.483C288.008 277.691 288.719 275.973 289.984 274.706C291.249 273.439 292.965 272.727 294.754 272.727L305.341 272.728L305.341 279.703Z" fill="#2F2E41"/>
<path d="M268.079 155.316L260.16 210.239L262.133 268.107L274.024 269.055L277.742 217.159L287.207 188.222L292.772 229.472L293 268.107L305.279 269.055L309.561 187.829L306.411 152.504L268.079 155.316Z" fill="#2F2E41"/>
<path d="M290.981 81.7797C297.9 81.7797 303.508 76.1636 303.508 69.2357C303.508 62.3078 297.9 56.6917 290.981 56.6917C284.063 56.6917 278.455 62.3078 278.455 69.2357C278.455 76.1636 284.063 81.7797 290.981 81.7797Z" fill="#FFB7B7"/>
<path d="M283.26 88.6029L269.431 158.369C269.431 158.369 292.714 165.061 302.914 158.883C313.114 152.706 308.544 133.635 308.544 133.635L306.676 101.185L303.223 92.9785L300.294 86.2046L283.26 88.6029Z" fill="#CBCBCB"/>
<path d="M279.212 138.125L283.99 87.2485L280.169 90.0417L266.811 94.386L265.897 130.205L256.553 177.307C256.553 177.307 263.232 190.358 271.509 168.767L279.212 138.125Z" fill="#2F2E41"/>
<path d="M273.24 99.743L266.811 94.3857L252.363 125.816L236.24 122.279L235.478 131.815L258.838 141.072L274.757 118.88L273.24 99.743Z" fill="#2F2E41"/>
<path d="M298.249 126.989L300.05 85.5825L306.675 90.7206L318.508 94.0235L316.773 126.989L319.27 178.14L306.864 182.075L303.382 149.798L298.249 126.989Z" fill="#2F2E41"/>
<path d="M299.045 160.32C299.184 159.543 299.491 158.806 299.945 158.161C300.399 157.516 300.989 156.979 301.673 156.587C302.357 156.194 303.118 155.957 303.903 155.891C304.689 155.826 305.479 155.933 306.218 156.207L318.376 141.382L321.32 150.905L309.324 163.523C308.783 164.736 307.816 165.708 306.608 166.256C305.399 166.803 304.031 166.888 302.764 166.493C301.497 166.098 300.419 165.252 299.733 164.114C299.048 162.977 298.803 161.627 299.045 160.32Z" fill="#FFB7B7"/>
<path d="M310.586 98.6197L318.509 94.0234L338.443 133.444L319.008 160.47L307.922 151.594L321.383 134.016L309.115 115.136L310.586 98.6197Z" fill="#2F2E41"/>
<path d="M302.763 59.2075L303.37 57.9835L300.314 56.4632C300.314 56.4632 296.943 50.9707 290.844 52.5142C284.744 54.0578 281.999 54.9815 281.999 54.9815L278.951 56.5173L280.481 58.0415L277.737 58.9653L279.57 59.8775L277.437 61.1053L278.585 67.3996C278.585 67.3996 280.493 62.6256 284.16 64.45C287.826 66.2744 294.534 63.5069 294.534 63.5069L300.361 74.7998C300.361 74.7998 301.563 70.841 303.706 71.8966C303.706 71.8966 309.182 63.1642 302.763 59.2075Z" fill="#2F2E41"/>
<path d="M226.672 77.6111H226.592L180.653 97.2544L117.8 124.131C117.554 124.234 117.29 124.288 117.024 124.29C116.757 124.291 116.493 124.24 116.247 124.139L51.4 97.1983L4.33254 77.6431L4.26064 77.6111H4.18052C3.43786 77.6119 2.72587 77.9077 2.20074 78.4336C1.6756 78.9595 1.38022 79.6724 1.37939 80.4161V202.235C1.38022 202.979 1.6756 203.692 2.20074 204.218C2.72587 204.744 3.43786 205.039 4.18052 205.04H226.672C227.415 205.039 228.127 204.744 228.652 204.218C229.177 203.692 229.473 202.979 229.473 202.235V80.4161C229.473 79.6724 229.177 78.9595 228.652 78.4336C228.127 77.9077 227.415 77.6119 226.672 77.6111Z" fill="white"/>
<path d="M226.872 78.4126C226.79 78.4126 226.71 78.3876 226.643 78.3408L115.974 1.16049C115.637 0.926704 115.237 0.801764 114.827 0.802463C114.418 0.803163 114.018 0.929466 113.682 1.1644L3.80983 78.34C3.72291 78.4008 3.61543 78.4247 3.51098 78.4063C3.40652 78.3878 3.31365 78.3286 3.25274 78.2417C3.19184 78.1547 3.16789 78.0471 3.18616 77.9425C3.20442 77.8379 3.26341 77.7448 3.35016 77.6837L113.222 0.508168C113.693 0.179316 114.252 0.00253485 114.826 0.00159072C115.4 0.00064658 115.96 0.175584 116.432 0.502885L227.101 77.6829C227.171 77.7317 227.223 77.8016 227.251 77.8823C227.278 77.9631 227.279 78.0505 227.254 78.1319C227.228 78.2133 227.178 78.2844 227.109 78.3349C227.04 78.3854 226.957 78.4126 226.872 78.4126Z" fill="#3F3D56"/>
<path d="M10.0881 81.1485L114.936 3.33521L220.58 86.6852L120.338 146.192L65.9158 133.77L10.0881 81.1485Z" fill="#E6E6E6"/>
<path d="M70.51 182.947H18.7125C18.3944 182.948 18.0793 182.886 17.7851 182.765C17.491 182.644 17.2235 182.466 16.9981 182.241C16.7727 182.016 16.5938 181.749 16.4715 181.455C16.3493 181.161 16.2861 180.846 16.2856 180.527C16.2852 180.209 16.3474 179.893 16.4688 179.599C16.5902 179.305 16.7683 179.037 16.9931 178.812C17.2178 178.586 17.4847 178.407 17.7785 178.285C18.0723 178.163 18.3873 178.101 18.7053 178.1H70.51C70.8281 178.1 71.1432 178.161 71.4374 178.283C71.7315 178.404 71.9989 178.582 72.2243 178.807C72.4497 179.031 72.6287 179.298 72.7509 179.592C72.8732 179.886 72.9363 180.202 72.9368 180.52C72.9373 180.839 72.875 181.154 72.7537 181.449C72.6323 181.743 72.4541 182.011 72.2294 182.236C72.0047 182.461 71.7378 182.64 71.4439 182.762C71.1501 182.884 70.8352 182.947 70.5171 182.947H70.51Z" fill="#6C63FF"/>
<path d="M37.2963 172.528H18.7125C18.3944 172.529 18.0793 172.467 17.7851 172.346C17.491 172.225 17.2235 172.047 16.9981 171.822C16.7727 171.598 16.5938 171.331 16.4715 171.037C16.3493 170.742 16.2861 170.427 16.2856 170.109C16.2852 169.79 16.3474 169.475 16.4688 169.18C16.5902 168.886 16.7683 168.618 16.9931 168.393C17.2178 168.167 17.4847 167.989 17.7785 167.867C18.0723 167.745 18.3873 167.682 18.7053 167.682H37.2963C37.9375 167.682 38.5526 167.936 39.0064 168.39C39.4601 168.844 39.7156 169.459 39.7165 170.101C39.7175 170.744 39.4639 171.36 39.0114 171.815C38.559 172.27 37.9447 172.527 37.3035 172.528H37.2963Z" fill="#6C63FF"/>
<path d="M116.41 124.489C116.017 124.49 115.627 124.413 115.262 124.264L50.5994 97.3962V13.2953C50.6002 12.5516 50.8956 11.8386 51.4207 11.3128C51.9459 10.7869 52.6578 10.4911 53.4005 10.4902H177.452C178.194 10.4911 178.906 10.7869 179.432 11.3128C179.957 11.8386 180.252 12.5516 180.253 13.2953V97.4549L180.131 97.507L117.593 124.251C117.219 124.409 116.817 124.49 116.41 124.489Z" fill="#6C63FF"/>
<path d="M226.072 77.6111H225.992L180.053 97.2544L117.199 124.131C116.954 124.234 116.69 124.288 116.424 124.29C116.157 124.291 115.893 124.24 115.646 124.139L50.7997 97.1983L3.73224 77.6431L3.66035 77.6111H3.58018C2.83752 77.6119 2.12553 77.9077 1.60039 78.4336C1.07526 78.9595 0.779879 79.6724 0.779053 80.4161V202.235C0.779879 202.979 1.07526 203.692 1.60039 204.218C2.12553 204.744 2.83752 205.039 3.58018 205.04H226.072C226.815 205.039 227.527 204.744 228.052 204.218C228.577 203.692 228.872 202.979 228.873 202.235V80.4161C228.872 79.6724 228.577 78.9595 228.052 78.4336C227.527 77.9077 226.815 77.6119 226.072 77.6111ZM228.073 202.235C228.073 202.767 227.862 203.276 227.487 203.652C227.111 204.027 226.603 204.239 226.072 204.239H3.58018C3.04959 204.239 2.54079 204.027 2.16561 203.652C1.79042 203.276 1.57955 202.767 1.57934 202.235V80.4161C1.58006 79.898 1.78076 79.4002 2.13948 79.0268C2.4982 78.6534 2.98716 78.4333 3.50416 78.4125L50.7997 98.0639L115.338 124.88C116.037 125.165 116.82 125.16 117.515 124.868L180.053 98.124L226.152 78.4125C226.668 78.4348 227.156 78.6556 227.514 79.0287C227.871 79.4019 228.072 79.8988 228.073 80.4161L228.073 202.235Z" fill="#3F3D56"/>
<path d="M106.344 41.9275H62.3256C61.4775 41.926 60.6647 41.5876 60.0656 40.9866C59.4664 40.3856 59.1299 39.571 59.1299 38.7218C59.1299 37.8725 59.4664 37.058 60.0656 36.4569C60.6647 35.8559 61.4775 35.5175 62.3256 35.516H106.344C107.192 35.5175 108.005 35.8559 108.604 36.4569C109.203 37.058 109.54 37.8725 109.54 38.7218C109.54 39.571 109.203 40.3856 108.604 40.9866C108.005 41.5876 107.192 41.926 106.344 41.9275Z" fill="white"/>
<path d="M83.5346 28.3029H62.3258C61.4768 28.3029 60.6625 27.9651 60.0621 27.3639C59.4618 26.7627 59.1245 25.9473 59.1245 25.0971C59.1245 24.2469 59.4618 23.4315 60.0621 22.8303C60.6625 22.2291 61.4768 21.8914 62.3258 21.8914H83.5346C84.3836 21.8914 85.1979 22.2291 85.7983 22.8303C86.3986 23.4315 86.7359 24.2469 86.7359 25.0971C86.7359 25.9473 86.3986 26.7627 85.7983 27.3639C85.1979 27.9651 84.3836 28.3029 83.5346 28.3029Z" fill="white"/>
<path d="M148.348 73.985H81.1205C80.2715 73.985 79.4572 73.6473 78.8568 73.0461C78.2565 72.4449 77.9192 71.6295 77.9192 70.7792C77.9192 69.929 78.2565 69.1136 78.8568 68.5124C79.4572 67.9112 80.2715 67.5735 81.1205 67.5735H148.348C149.197 67.5735 150.012 67.9112 150.612 68.5124C151.212 69.1136 151.55 69.929 151.55 70.7792C151.55 71.6295 151.212 72.4449 150.612 73.0461C150.012 73.6473 149.197 73.985 148.348 73.985Z" fill="white"/>
<path d="M148.349 88.8118H81.1207C80.6999 88.8126 80.283 88.7302 79.8939 88.5694C79.5049 88.4086 79.1513 88.1726 78.8535 87.8749C78.5556 87.5771 78.3193 87.2234 78.158 86.8341C77.9968 86.4448 77.9138 86.0275 77.9138 85.606C77.9138 85.1846 77.9968 84.7673 78.158 84.378C78.3193 83.9887 78.5556 83.635 78.8535 83.3372C79.1513 83.0395 79.5049 82.8035 79.8939 82.6427C80.283 82.4819 80.6999 82.3995 81.1207 82.4003H148.349C148.769 82.3995 149.186 82.4819 149.575 82.6427C149.964 82.8035 150.318 83.0395 150.616 83.3372C150.914 83.635 151.15 83.9887 151.311 84.378C151.472 84.7673 151.555 85.1846 151.555 85.606C151.555 86.0275 151.472 86.4448 151.311 86.8341C151.15 87.2234 150.914 87.5771 150.616 87.8749C150.318 88.1726 149.964 88.4086 149.575 88.5694C149.186 88.7302 148.769 88.8126 148.349 88.8118Z" fill="white"/>
<path d="M343.994 280.21H215.56C215.431 280.21 215.306 280.158 215.215 280.067C215.123 279.975 215.072 279.851 215.072 279.721C215.072 279.591 215.123 279.467 215.215 279.375C215.306 279.283 215.431 279.232 215.56 279.232H343.994C344.123 279.232 344.248 279.283 344.339 279.375C344.431 279.467 344.482 279.591 344.482 279.721C344.482 279.851 344.431 279.975 344.339 280.067C344.248 280.158 344.123 280.21 343.994 280.21Z" fill="#CBCBCB"/>
<path d="M119.845 280.21H72.4759C72.3464 280.21 72.2222 280.158 72.1306 280.067C72.039 279.975 71.9875 279.851 71.9875 279.721C71.9875 279.591 72.039 279.467 72.1306 279.375C72.2222 279.283 72.3464 279.232 72.4759 279.232H119.845C119.975 279.232 120.099 279.283 120.19 279.375C120.282 279.467 120.333 279.591 120.333 279.721C120.333 279.851 120.282 279.975 120.19 280.067C120.099 280.158 119.975 280.21 119.845 280.21Z" fill="#CBCBCB"/>
<path d="M89.8936 265.09C91.7024 265.049 93.47 264.541 95.0261 263.617C96.5823 262.693 97.8745 261.383 98.7783 259.813C101.056 255.751 100.362 250.74 99.5996 246.144L97.3488 232.551L93.4518 238.173C90.649 242.216 87.7928 246.375 86.5964 251.149C85.4 255.923 86.2021 261.519 89.8517 264.815" fill="#E6E6E6"/>
<path d="M96.1139 280.226C94.1152 276.54 92.0827 272.81 90.975 268.739C89.9916 265.123 89.7695 261.313 90.8807 257.699C91.4715 255.784 92.3913 253.987 93.5989 252.389C93.914 251.972 94.5409 252.483 94.2277 252.899C92.1404 255.67 90.9859 259.033 90.9305 262.504C90.878 266.36 92.0463 270.1 93.6199 273.58C94.5705 275.686 95.6691 277.718 96.7698 279.748C96.83 279.836 96.8543 279.943 96.8378 280.049C96.8213 280.154 96.7653 280.249 96.6811 280.314C96.5942 280.377 96.486 280.403 96.3801 280.386C96.2742 280.369 96.1791 280.312 96.1155 280.225L96.1139 280.226Z" fill="#F2F2F2"/>
</g>
<defs>
<clipPath id="clip0_468_1010">
<rect width="343.703" height="280.389" fill="white" transform="translate(0.779053 0.00158691)"/>
</clipPath>
</defs>
</svg>
