<svg width="26" height="26" viewBox="0 0 26 26" fill="none" xmlns="http://www.w3.org/2000/svg">
<path d="M12.7958 7.78976C11.7116 7.78976 10.6517 8.11126 9.75028 8.71359C8.84882 9.31593 8.14622 10.1721 7.73132 11.1737C7.31642 12.1754 7.20787 13.2775 7.41938 14.3409C7.63089 15.4042 8.15298 16.381 8.91961 17.1476C9.68624 17.9143 10.663 18.4363 11.7263 18.6478C12.7897 18.8594 13.8919 18.7508 14.8935 18.3359C15.8952 17.921 16.7513 17.2184 17.3536 16.3169C17.956 15.4155 18.2775 14.3556 18.2775 13.2715C18.276 11.8181 17.6979 10.4247 16.6702 9.39698C15.6426 8.36929 14.2491 7.79127 12.7958 7.78976ZM12.7958 16.0123C12.2537 16.0123 11.7238 15.8516 11.273 15.5504C10.8223 15.2492 10.471 14.8212 10.2635 14.3203C10.0561 13.8195 10.0018 13.2684 10.1076 12.7368C10.2133 12.2051 10.4744 11.7167 10.8577 11.3334C11.241 10.9501 11.7294 10.689 12.261 10.5833C12.7927 10.4775 13.3438 10.5318 13.8446 10.7392C14.3455 10.9467 14.7735 11.298 15.0747 11.7487C15.3759 12.1995 15.5366 12.7294 15.5366 13.2715C15.5366 13.9984 15.2478 14.6955 14.7338 15.2095C14.2198 15.7236 13.5227 16.0123 12.7958 16.0123ZM18.2775 0.937622H7.31405C5.4974 0.939738 3.75576 1.66234 2.47119 2.9469C1.18663 4.23147 0.46403 5.97311 0.461914 7.78976V18.7532C0.46403 20.5698 1.18663 22.3115 2.47119 23.596C3.75576 24.8806 5.4974 25.6032 7.31405 25.6053H18.2775C20.0941 25.6032 21.8358 24.8806 23.1203 23.596C24.4049 22.3115 25.1275 20.5698 25.1296 18.7532V7.78976C25.1275 5.97311 24.4049 4.23147 23.1203 2.9469C21.8358 1.66234 20.0941 0.939738 18.2775 0.937622ZM22.3888 18.7532C22.3888 19.8436 21.9556 20.8893 21.1846 21.6603C20.4136 22.4313 19.3678 22.8645 18.2775 22.8645H7.31405C6.22367 22.8645 5.17795 22.4313 4.40693 21.6603C3.63592 20.8893 3.20277 19.8436 3.20277 18.7532V7.78976C3.20277 6.69938 3.63592 5.65366 4.40693 4.88264C5.17795 4.11163 6.22367 3.67848 7.31405 3.67848H18.2775C19.3678 3.67848 20.4136 4.11163 21.1846 4.88264C21.9556 5.65366 22.3888 6.69938 22.3888 7.78976V18.7532ZM20.5615 7.33295C20.5615 7.69434 20.4543 8.04762 20.2536 8.34811C20.0528 8.64859 19.7674 8.8828 19.4335 9.0211C19.0996 9.15939 18.7323 9.19558 18.3778 9.12508C18.0234 9.05457 17.6978 8.88054 17.4422 8.625C17.1867 8.36946 17.0127 8.04387 16.9422 7.68942C16.8716 7.33498 16.9078 6.96758 17.0461 6.6337C17.1844 6.29981 17.4186 6.01444 17.7191 5.81366C18.0196 5.61288 18.3729 5.50571 18.7343 5.50571C19.2189 5.50571 19.6837 5.69823 20.0263 6.0409C20.369 6.38357 20.5615 6.84834 20.5615 7.33295Z" fill="url(#paint0_linear_292_625)"/>
<defs>
<linearGradient id="paint0_linear_292_625" x1="12.7958" y1="0.937622" x2="12.7958" y2="25.6053" gradientUnits="userSpaceOnUse">
<stop stop-color="#F9CE34"/>
<stop offset="0.5" stop-color="#EE2A7B"/>
<stop offset="1" stop-color="#6228D7"/>
</linearGradient>
</defs>
</svg>
