<svg width="15" height="9" viewBox="0 0 15 9" fill="none" xmlns="http://www.w3.org/2000/svg">
<path d="M14.6365 1.51051L8.23961 8.10773C8.1802 8.16907 8.10965 8.21773 8.032 8.25093C7.95434 8.28413 7.8711 8.30122 7.78704 8.30122C7.70297 8.30122 7.61973 8.28413 7.54208 8.25093C7.46442 8.21773 7.39387 8.16907 7.33446 8.10773L0.937612 1.51051C0.848048 1.41824 0.787043 1.30065 0.762319 1.1726C0.737595 1.04456 0.750264 0.911833 0.798722 0.79122C0.847179 0.670608 0.929247 0.567535 1.03454 0.495051C1.13982 0.422567 1.2636 0.383931 1.39019 0.384033H14.1839C14.3105 0.383931 14.4342 0.422567 14.5395 0.495051C14.6448 0.567535 14.7269 0.670608 14.7754 0.79122C14.8238 0.911833 14.8365 1.04456 14.8118 1.1726C14.787 1.30065 14.726 1.41824 14.6365 1.51051Z" fill="black"/>
</svg>
