<svg width="29" height="30" viewBox="0 0 29 30" fill="none" xmlns="http://www.w3.org/2000/svg">
<path d="M24.5406 24.4404L17.6831 13.6707L24.3967 6.28601C24.6322 6.02046 24.7537 5.67277 24.7346 5.3183C24.7155 4.96383 24.5575 4.63117 24.2948 4.39243C24.0321 4.15369 23.6859 4.02811 23.3312 4.04293C22.9765 4.05775 22.642 4.21177 22.4001 4.47159L16.1868 11.3111L11.9498 4.65483C11.828 4.46338 11.6599 4.30573 11.4611 4.19648C11.2622 4.08722 11.039 4.02989 10.8121 4.02979H5.41604C5.17439 4.0299 4.9372 4.09492 4.72927 4.21805C4.52134 4.34119 4.35031 4.51792 4.23404 4.72977C4.11778 4.94162 4.06056 5.18081 4.06836 5.42233C4.07615 5.66386 4.14869 5.89886 4.27838 6.10277L11.1359 16.8724L4.41777 24.2571C4.29614 24.3878 4.20165 24.5413 4.13977 24.7087C4.0779 24.8762 4.04988 25.0543 4.05733 25.2326C4.06478 25.411 4.10756 25.5861 4.18318 25.7478C4.25881 25.9095 4.36578 26.0546 4.49789 26.1747C4.63 26.2947 4.78463 26.3874 4.95281 26.4472C5.12099 26.5071 5.29938 26.533 5.47764 26.5234C5.65589 26.5138 5.83048 26.4689 5.99126 26.3914C6.15205 26.3138 6.29585 26.2051 6.41432 26.0716L12.6321 19.2321L16.8692 25.8883C16.9909 26.0798 17.159 26.2374 17.3579 26.3467C17.5567 26.4559 17.78 26.5133 18.0068 26.5134H23.4029C23.6446 26.5132 23.8817 26.4482 24.0897 26.3251C24.2976 26.202 24.4686 26.0252 24.5849 25.8134C24.7012 25.6015 24.7584 25.3623 24.7506 25.1208C24.7428 24.8793 24.6703 24.6443 24.5406 24.4404ZM18.7477 23.8153L7.8735 6.72781H10.0713L20.9454 23.8153H18.7477Z" fill="black"/>
</svg>
