<svg width="22" height="22" viewBox="0 0 22 22" fill="none" xmlns="http://www.w3.org/2000/svg">
<g id="Plus">
<path id="Vector" d="M19.1437 11.2553C19.1437 11.5165 19.0399 11.7671 18.8552 11.9518C18.6705 12.1365 18.42 12.2403 18.1587 12.2403H11.9207V18.4783C11.9207 18.7395 11.8169 18.9901 11.6322 19.1748C11.4475 19.3595 11.197 19.4633 10.9357 19.4633C10.6745 19.4633 10.424 19.3595 10.2393 19.1748C10.0545 18.9901 9.95078 18.7395 9.95078 18.4783V12.2403H3.71274C3.45151 12.2403 3.20098 12.1365 3.01627 11.9518C2.83155 11.7671 2.72778 11.5165 2.72778 11.2553C2.72778 10.9941 2.83155 10.7436 3.01627 10.5588C3.20098 10.3741 3.45151 10.2704 3.71274 10.2704H9.95078V4.03232C9.95078 3.77109 10.0545 3.52056 10.2393 3.33585C10.424 3.15113 10.6745 3.04736 10.9357 3.04736C11.197 3.04736 11.4475 3.15113 11.6322 3.33585C11.8169 3.52056 11.9207 3.77109 11.9207 4.03232V10.2704H18.1587C18.42 10.2704 18.6705 10.3741 18.8552 10.5588C19.0399 10.7436 19.1437 10.9941 19.1437 11.2553Z" fill="white"/>
</g>
</svg>
