<svg width="19" height="18" viewBox="0 0 19 18" fill="none" xmlns="http://www.w3.org/2000/svg">
<path id="Vector" d="M12.3596 9.7641L8.75965 13.3641C8.55676 13.567 8.28158 13.681 7.99465 13.681C7.70772 13.681 7.43254 13.567 7.22965 13.3641C7.02676 13.1612 6.91277 12.886 6.91277 12.5991C6.91277 12.3122 7.02676 12.037 7.22965 11.8341L8.98555 10.08H1.51555C1.22911 10.08 0.954411 9.96621 0.751872 9.76367C0.549332 9.56114 0.435547 9.28643 0.435547 9C0.435547 8.71357 0.549332 8.43886 0.751872 8.23633C0.954411 8.03379 1.22911 7.92 1.51555 7.92H8.98555L7.23145 6.1641C7.13099 6.06364 7.0513 5.94437 6.99693 5.81312C6.94256 5.68186 6.91457 5.54117 6.91457 5.3991C6.91457 5.11217 7.02856 4.83699 7.23145 4.6341C7.43434 4.43121 7.70952 4.31723 7.99645 4.31723C8.28338 4.31723 8.55856 4.43121 8.76145 4.6341L12.3614 8.2341C12.462 8.33455 12.5418 8.45387 12.5961 8.58521C12.6505 8.71655 12.6784 8.85733 12.6782 8.99947C12.678 9.14162 12.6498 9.28233 12.5951 9.41354C12.5405 9.54475 12.4605 9.66388 12.3596 9.7641ZM17.3555 0H11.5955C11.3091 0 11.0344 0.113785 10.8319 0.316325C10.6293 0.518864 10.5155 0.793566 10.5155 1.08C10.5155 1.36643 10.6293 1.64114 10.8319 1.84368C11.0344 2.04621 11.3091 2.16 11.5955 2.16H16.2755V15.84H11.5955C11.3091 15.84 11.0344 15.9538 10.8319 16.1563C10.6293 16.3589 10.5155 16.6336 10.5155 16.92C10.5155 17.2064 10.6293 17.4811 10.8319 17.6837C11.0344 17.8862 11.3091 18 11.5955 18H17.3555C17.642 18 17.9167 17.8862 18.1192 17.6837C18.3218 17.4811 18.4355 17.2064 18.4355 16.92V1.08C18.4355 0.793566 18.3218 0.518864 18.1192 0.316325C17.9167 0.113785 17.642 0 17.3555 0Z" fill="#263069"/>
</svg>
