<svg width="36" height="35" viewBox="0 0 36 35" fill="none" xmlns="http://www.w3.org/2000/svg">
<path id="Vector" d="M34.6102 32.9411H31.9407V13.3817C31.9407 12.7447 31.7219 12.1337 31.3326 11.6832C30.9432 11.2328 30.4151 10.9797 29.8644 10.9797H20.0763V2.40102C20.0761 1.96626 19.974 1.53971 19.7807 1.16684C19.5875 0.793974 19.3104 0.488771 18.979 0.283779C18.6476 0.0787866 18.2743 -0.018309 17.899 0.00284589C17.5236 0.0240008 17.1603 0.162613 16.8477 0.403901L4.98326 9.55392C4.69895 9.77338 4.46586 10.0706 4.30468 10.4193C4.1435 10.768 4.05922 11.1573 4.05932 11.5528V32.9411H1.38983C1.15383 32.9411 0.927501 33.0496 0.760625 33.2426C0.59375 33.4357 0.5 33.6975 0.5 33.9706C0.5 34.2436 0.59375 34.5054 0.760625 34.6985C0.927501 34.8915 1.15383 35 1.38983 35H34.6102C34.8462 35 35.0725 34.8915 35.2394 34.6985C35.4062 34.5054 35.5 34.2436 35.5 33.9706C35.5 33.6975 35.4062 33.4357 35.2394 33.2426C35.0725 33.0496 34.8462 32.9411 34.6102 32.9411ZM29.8644 13.0386C29.9431 13.0386 30.0185 13.0747 30.0741 13.1391C30.1298 13.2034 30.161 13.2907 30.161 13.3817V32.9411H20.0763V13.0386H29.8644ZM5.83898 11.5528C5.83907 11.4964 5.85116 11.4409 5.87418 11.3912C5.8972 11.3416 5.93045 11.2992 5.97097 11.2679L17.8354 2.11621C17.88 2.08176 17.9319 2.06196 17.9855 2.05892C18.039 2.05588 18.0923 2.0697 18.1397 2.09893C18.187 2.12816 18.2266 2.17168 18.2542 2.22488C18.2819 2.27808 18.2965 2.33895 18.2966 2.40102V32.9411H5.83898V11.5528ZM15.3305 16.1269V18.8721C15.3305 19.1451 15.2368 19.407 15.0699 19.6C14.903 19.7931 14.6767 19.9015 14.4407 19.9015C14.2047 19.9015 13.9783 19.7931 13.8115 19.6C13.6446 19.407 13.5508 19.1451 13.5508 18.8721V16.1269C13.5508 15.8539 13.6446 15.592 13.8115 15.399C13.9783 15.2059 14.2047 15.0975 14.4407 15.0975C14.6767 15.0975 14.903 15.2059 15.0699 15.399C15.2368 15.592 15.3305 15.8539 15.3305 16.1269ZM10.5847 16.1269V18.8721C10.5847 19.1451 10.491 19.407 10.3241 19.6C10.1572 19.7931 9.93091 19.9015 9.69492 19.9015C9.45892 19.9015 9.23259 19.7931 9.06571 19.6C8.89884 19.407 8.80509 19.1451 8.80509 18.8721V16.1269C8.80509 15.8539 8.89884 15.592 9.06571 15.399C9.23259 15.2059 9.45892 15.0975 9.69492 15.0975C9.93091 15.0975 10.1572 15.2059 10.3241 15.399C10.491 15.592 10.5847 15.8539 10.5847 16.1269ZM10.5847 25.735V28.4802C10.5847 28.7532 10.491 29.0151 10.3241 29.2081C10.1572 29.4012 9.93091 29.5096 9.69492 29.5096C9.45892 29.5096 9.23259 29.4012 9.06571 29.2081C8.89884 29.0151 8.80509 28.7532 8.80509 28.4802V25.735C8.80509 25.462 8.89884 25.2002 9.06571 25.0071C9.23259 24.814 9.45892 24.7056 9.69492 24.7056C9.93091 24.7056 10.1572 24.814 10.3241 25.0071C10.491 25.2002 10.5847 25.462 10.5847 25.735ZM15.3305 25.735V28.4802C15.3305 28.7532 15.2368 29.0151 15.0699 29.2081C14.903 29.4012 14.6767 29.5096 14.4407 29.5096C14.2047 29.5096 13.9783 29.4012 13.8115 29.2081C13.6446 29.0151 13.5508 28.7532 13.5508 28.4802V25.735C13.5508 25.462 13.6446 25.2002 13.8115 25.0071C13.9783 24.814 14.2047 24.7056 14.4407 24.7056C14.6767 24.7056 14.903 24.814 15.0699 25.0071C15.2368 25.2002 15.3305 25.462 15.3305 25.735Z" fill="#263069"/>
</svg>
