<svg width="36" height="35" viewBox="0 0 36 35" fill="none" xmlns="http://www.w3.org/2000/svg">
<path id="Vector" d="M34.4754 6.90133L31.4018 3.30638C31.2209 3.10907 30.9815 3.00165 30.7342 3.00676C30.4869 3.01187 30.251 3.1291 30.0761 3.33375C29.9012 3.53841 29.801 3.81452 29.7967 4.1039C29.7923 4.39329 29.8841 4.67336 30.0527 4.88511L33.1248 8.48191C33.273 8.65432 33.3905 8.85943 33.4705 9.08537C33.5506 9.3113 33.5915 9.55357 33.5909 9.79814V24.9468C33.5909 25.4406 33.4233 25.9141 33.1249 26.2632C32.8266 26.6124 32.4219 26.8085 32 26.8085C31.5781 26.8085 31.1734 26.6124 30.875 26.2632C30.5767 25.9141 30.4091 25.4406 30.4091 24.9468V17.5C30.4091 16.4137 30.0403 15.372 29.384 14.6039C28.7276 13.8358 27.8373 13.4043 26.9091 13.4043H24.0454V4.09574C24.0454 3.00949 23.6767 1.96772 23.0203 1.19962C22.3639 0.431514 21.4737 0 20.5454 0H7.81818C6.88992 0 5.99968 0.431514 5.34331 1.19962C4.68693 1.96772 4.31818 3.00949 4.31818 4.09574V32.766H1.45455C1.20138 32.766 0.958592 32.8836 0.77958 33.0931C0.600568 33.3026 0.5 33.5867 0.5 33.883C0.5 34.1792 0.600568 34.4633 0.77958 34.6728C0.958592 34.8823 1.20138 35 1.45455 35H26.9091C27.1622 35 27.405 34.8823 27.584 34.6728C27.7631 34.4633 27.8636 34.1792 27.8636 33.883C27.8636 33.5867 27.7631 33.3026 27.584 33.0931C27.405 32.8836 27.1622 32.766 26.9091 32.766H24.0454V15.6383H26.9091C27.331 15.6383 27.7357 15.8344 28.034 16.1836C28.3324 16.5327 28.5 17.0062 28.5 17.5V24.9468C28.5 26.0331 28.8687 27.0748 29.5251 27.8429C30.1815 28.611 31.0717 29.0426 32 29.0426C32.9282 29.0426 33.8185 28.611 34.4749 27.8429C35.1312 27.0748 35.5 26.0331 35.5 24.9468V9.79814C35.5012 9.26003 35.4113 8.72698 35.2354 8.22977C35.0596 7.73256 34.8013 7.28105 34.4754 6.90133ZM6.22727 32.766V4.09574C6.22727 3.60199 6.39488 3.12846 6.69324 2.77932C6.99159 2.43019 7.39624 2.23404 7.81818 2.23404H20.5454C20.9674 2.23404 21.372 2.43019 21.6704 2.77932C21.9687 3.12846 22.1364 3.60199 22.1364 4.09574V32.766H6.22727ZM18.9545 14.5213C18.9545 14.8175 18.854 15.1016 18.675 15.3111C18.4959 15.5206 18.2532 15.6383 18 15.6383H10.3636C10.1105 15.6383 9.86768 15.5206 9.68867 15.3111C9.50966 15.1016 9.40909 14.8175 9.40909 14.5213C9.40909 14.225 9.50966 13.9409 9.68867 13.7314C9.86768 13.5219 10.1105 13.4043 10.3636 13.4043H18C18.2532 13.4043 18.4959 13.5219 18.675 13.7314C18.854 13.9409 18.9545 14.225 18.9545 14.5213Z" fill="#263069"/>
</svg>
