<svg width="36" height="35" viewBox="0 0 36 35" fill="none" xmlns="http://www.w3.org/2000/svg">
<path id="Vector" d="M35.271 6.95957C35.1781 6.84797 35.0617 6.75819 34.9302 6.69657C34.7987 6.63495 34.6552 6.60301 34.5099 6.603H7.59916L6.5475 0.81382C6.50613 0.585599 6.38597 0.379132 6.20796 0.23041C6.02996 0.0816894 5.8054 0.000147707 5.57343 0H1.49058C1.22786 0 0.975904 0.104351 0.790134 0.290096C0.604364 0.475842 0.5 0.727767 0.5 0.990451C0.5 1.25313 0.604364 1.50506 0.790134 1.6908C0.975904 1.87655 1.22786 1.9809 1.49058 1.9809H4.74629L9.00744 25.4117C9.14103 26.1504 9.50105 26.8294 10.0376 27.3546C9.38919 27.8725 8.90479 28.5672 8.64311 29.3547C8.38142 30.1422 8.35366 30.9887 8.56319 31.7916C8.77273 32.5946 9.21056 33.3196 9.82369 33.8788C10.4368 34.4381 11.199 34.8076 12.0178 34.9427C12.8367 35.0778 13.6771 34.9727 14.4375 34.64C15.1978 34.3074 15.8454 33.7614 16.3018 33.0684C16.7582 32.3753 17.0039 31.5648 17.0091 30.735C17.0143 29.9052 16.7788 29.0917 16.3311 28.3929H24.9525C24.4392 29.1961 24.2078 30.1474 24.2951 31.0966C24.3823 32.0458 24.783 32.939 25.4341 33.6352C26.0852 34.3315 26.9496 34.7912 27.891 34.9419C28.8323 35.0926 29.797 34.9257 30.633 34.4675C31.469 34.0093 32.1286 33.2859 32.5078 32.4113C32.8871 31.5368 32.9644 30.5609 32.7275 29.6376C32.4906 28.7143 31.9531 27.8961 31.1997 27.312C30.4462 26.728 29.5198 26.4113 28.5665 26.412H12.5801C12.1935 26.4121 11.8191 26.2764 11.5222 26.0288C11.2253 25.7811 11.0248 25.4371 10.9556 25.0567L10.3612 21.7899H29.9037C30.7544 21.7901 31.5781 21.4918 32.2313 20.947C32.8845 20.4022 33.3257 19.6454 33.4781 18.8087L35.484 7.77008C35.5099 7.62763 35.5043 7.48123 35.4675 7.34119C35.4307 7.20116 35.3636 7.07089 35.271 6.95957ZM15.0285 30.704C15.0285 31.161 14.893 31.6079 14.639 31.9879C14.385 32.368 14.024 32.6642 13.6017 32.8391C13.1793 33.014 12.7146 33.0598 12.2662 32.9706C11.8179 32.8814 11.406 32.6613 11.0828 32.3381C10.7595 32.0149 10.5394 31.6031 10.4502 31.1548C10.361 30.7065 10.4068 30.2419 10.5818 29.8196C10.7567 29.3973 11.0529 29.0363 11.433 28.7824C11.8131 28.5285 12.26 28.3929 12.7172 28.3929C13.3302 28.3929 13.9181 28.6364 14.3515 29.0698C14.785 29.5032 15.0285 30.091 15.0285 30.704ZM30.8778 30.704C30.8778 31.161 30.7423 31.6079 30.4883 31.9879C30.2343 32.368 29.8733 32.6642 29.451 32.8391C29.0286 33.014 28.5639 33.0598 28.1155 32.9706C27.6672 32.8814 27.2553 32.6613 26.9321 32.3381C26.6088 32.0149 26.3887 31.6031 26.2995 31.1548C26.2103 30.7065 26.2561 30.2419 26.431 29.8196C26.606 29.3973 26.9022 29.0363 27.2823 28.7824C27.6624 28.5285 28.1093 28.3929 28.5665 28.3929C29.1795 28.3929 29.7674 28.6364 30.2008 29.0698C30.6343 29.5032 30.8778 30.091 30.8778 30.704ZM31.5283 18.4537C31.4591 18.8341 31.2586 19.1781 30.9617 19.4258C30.6648 19.6734 30.2904 19.8091 29.9037 19.809H10.0013L7.96072 8.5839H33.3229L31.5283 18.4537Z" fill="#263069"/>
</svg>
