<svg width="36" height="36" viewBox="0 0 36 36" fill="none" xmlns="http://www.w3.org/2000/svg">
<path id="Vector" d="M8.27778 10.1434V1.5721C8.27778 1.28795 8.40069 1.01543 8.61949 0.814502C8.83828 0.613574 9.13503 0.500694 9.44444 0.500694C9.75386 0.500694 10.0506 0.613574 10.2694 0.814502C10.4882 1.01543 10.6111 1.28795 10.6111 1.5721V10.1434C10.6111 10.4275 10.4882 10.7 10.2694 10.901C10.0506 11.1019 9.75386 11.2148 9.44444 11.2148C9.13503 11.2148 8.83828 11.1019 8.61949 10.901C8.40069 10.7 8.27778 10.4275 8.27778 10.1434ZM35.5 1.5721V34.4286C35.5 34.7127 35.3771 34.9853 35.1583 35.1862C34.9395 35.3871 34.6428 35.5 34.3333 35.5C34.0239 35.5 33.7272 35.3871 33.5084 35.1862C33.2896 34.9853 33.1667 34.7127 33.1667 34.4286V25.5002H23.4444C23.135 25.5002 22.8383 25.3873 22.6195 25.1864C22.4007 24.9855 22.2778 24.7129 22.2778 24.4288C22.2778 23.6413 22.41 5.09882 33.8744 0.588193C34.0518 0.518516 34.2452 0.490308 34.4373 0.506096C34.6294 0.521884 34.8143 0.581174 34.9754 0.678659C35.1364 0.776145 35.2687 0.908783 35.3602 1.0647C35.4518 1.22062 35.4998 1.39496 35.5 1.5721ZM33.1667 3.35778C26.0131 7.69519 24.8406 19.6932 24.6481 23.3574H33.1667V3.35778ZM16.8178 1.39353C16.7922 1.25471 16.7372 1.12187 16.6557 1.00258C16.5743 0.883301 16.4681 0.779918 16.3431 0.698337C16.2182 0.616756 16.077 0.558574 15.9275 0.527113C15.7781 0.495653 15.6234 0.49153 15.4722 0.51498C15.3211 0.538429 15.1764 0.588993 15.0465 0.663783C14.9166 0.738573 14.804 0.836126 14.7152 0.95087C14.6264 1.06561 14.563 1.1953 14.5288 1.33253C14.4945 1.46976 14.49 1.61185 14.5156 1.75067L16.0556 10.2291C16.0556 11.8393 15.359 13.3835 14.1192 14.5221C12.8794 15.6607 11.1978 16.3004 9.44444 16.3004C7.69107 16.3004 6.00951 15.6607 4.76968 14.5221C3.52986 13.3835 2.83333 11.8393 2.83333 10.2291L4.37333 1.75067C4.4249 1.4703 4.35308 1.18261 4.17367 0.95087C3.99426 0.719133 3.72196 0.562339 3.41667 0.51498C3.11137 0.467621 2.7981 0.533577 2.54576 0.698338C2.29342 0.863098 2.12268 1.11317 2.07111 1.39353L0.515556 9.96479C0.505453 10.0239 0.500252 10.0836 0.5 10.1434C0.502808 12.1355 1.29281 14.0589 2.72327 15.5565C4.15373 17.0541 6.12742 18.024 8.27778 18.2861V34.4286C8.27778 34.7127 8.40069 34.9853 8.61949 35.1862C8.83828 35.3871 9.13503 35.5 9.44444 35.5C9.75386 35.5 10.0506 35.3871 10.2694 35.1862C10.4882 34.9853 10.6111 34.7127 10.6111 34.4286V18.2861C12.7615 18.024 14.7352 17.0541 16.1656 15.5565C17.5961 14.0589 18.3861 12.1355 18.3889 10.1434C18.3886 10.0836 18.3834 10.0239 18.3733 9.96479L16.8178 1.39353Z" fill="#263069"/>
</svg>
