<svg width="10" height="31" viewBox="0 0 10 31" fill="none" xmlns="http://www.w3.org/2000/svg">
<path id="Vector" d="M5 11.4091C4.01109 11.4091 3.0444 11.649 2.22215 12.0985C1.39991 12.548 0.759043 13.187 0.380605 13.9345C0.00216691 14.682 -0.0968504 15.5045 0.0960756 16.2981C0.289002 17.0917 0.765206 17.8206 1.46447 18.3927C2.16373 18.9648 3.05465 19.3545 4.02455 19.5123C4.99445 19.6702 5.99979 19.5891 6.91342 19.2795C7.82705 18.9699 8.60794 18.4455 9.15735 17.7728C9.70675 17.1 10 16.3091 10 15.5C10 14.415 9.47322 13.3745 8.53553 12.6073C7.59785 11.8401 6.32608 11.4091 5 11.4091ZM5 17.9545C4.40666 17.9545 3.82664 17.8106 3.33329 17.5409C2.83994 17.2712 2.45543 16.8878 2.22836 16.4393C2.0013 15.9908 1.94189 15.4973 2.05765 15.0211C2.1734 14.545 2.45912 14.1076 2.87868 13.7644C3.29824 13.4211 3.83279 13.1873 4.41473 13.0926C4.99667 12.9979 5.59987 13.0465 6.14805 13.2323C6.69623 13.4181 7.16476 13.7327 7.49441 14.1363C7.82405 14.54 8 15.0145 8 15.5C8 16.151 7.68393 16.7753 7.12132 17.2356C6.55871 17.6959 5.79565 17.9545 5 17.9545ZM5 8.68182C5.98891 8.68182 6.95561 8.44189 7.77785 7.99238C8.6001 7.54286 9.24096 6.90395 9.6194 6.15643C9.99783 5.40892 10.0969 4.58637 9.90392 3.79281C9.711 2.99925 9.2348 2.27033 8.53553 1.6982C7.83627 1.12608 6.94536 0.736456 5.97545 0.578607C5.00555 0.420759 4.00022 0.501773 3.08658 0.811404C2.17295 1.12103 1.39206 1.64538 0.842654 2.31812C0.293247 2.99087 2.53396e-06 3.7818 2.53396e-06 4.59091C2.53396e-06 5.67589 0.526787 6.71643 1.46447 7.48362C2.40215 8.25081 3.67392 8.68182 5 8.68182ZM5 2.13637C5.59334 2.13637 6.17336 2.28032 6.66671 2.55003C7.16006 2.81974 7.54458 3.20309 7.77164 3.6516C7.9987 4.10011 8.05811 4.59363 7.94235 5.06977C7.8266 5.5459 7.54088 5.98326 7.12132 6.32654C6.70176 6.66981 6.16721 6.90358 5.58527 6.99829C5.00333 7.093 4.40013 7.04439 3.85195 6.85861C3.30377 6.67284 2.83524 6.35823 2.50559 5.95458C2.17595 5.55093 2 5.07637 2 4.59091C2 3.93992 2.31607 3.3156 2.87868 2.85528C3.44129 2.39497 4.20435 2.13637 5 2.13637ZM5 22.3182C4.01109 22.3182 3.0444 22.5581 2.22215 23.0076C1.39991 23.4571 0.759043 24.0961 0.380605 24.8436C0.00216691 25.5911 -0.0968504 26.4136 0.0960756 27.2072C0.289002 28.0007 0.765206 28.7297 1.46447 29.3018C2.16373 29.8739 3.05465 30.2635 4.02455 30.4214C4.99445 30.5792 5.99979 30.4982 6.91342 30.1886C7.82705 29.879 8.60794 29.3546 9.15735 28.6819C9.70675 28.0091 10 27.2182 10 26.4091C10 25.3241 9.47322 24.2836 8.53553 23.5164C7.59785 22.7492 6.32608 22.3182 5 22.3182ZM5 28.8636C4.40666 28.8636 3.82664 28.7197 3.33329 28.45C2.83994 28.1803 2.45543 27.7969 2.22836 27.3484C2.0013 26.8999 1.94189 26.4064 2.05765 25.9302C2.1734 25.4541 2.45912 25.0167 2.87868 24.6735C3.29824 24.3302 3.83279 24.0964 4.41473 24.0017C4.99667 23.907 5.59987 23.9556 6.14805 24.1414C6.69623 24.3272 7.16476 24.6418 7.49441 25.0454C7.82405 25.4491 8 25.9236 8 26.4091C8 27.0601 7.68393 27.6844 7.12132 28.1447C6.55871 28.605 5.79565 28.8636 5 28.8636Z" fill="#263069"/>
</svg>
