<svg width="36" height="35" viewBox="0 0 36 35" fill="none" xmlns="http://www.w3.org/2000/svg">
<path id="Vector" d="M34.9718 17.9184L22.7727 11.8189V4.77273C22.7727 3.50692 22.2699 2.29296 21.3748 1.3979C20.4798 0.50284 19.2658 0 18 0C16.7342 0 15.5202 0.50284 14.6252 1.3979C13.7301 2.29296 13.2273 3.50692 13.2273 4.77273V11.8189L1.02818 17.9184C0.869446 17.9977 0.735937 18.1196 0.642639 18.2705C0.549341 18.4214 0.499947 18.5953 0.5 18.7727V23.8637C0.500066 24.0049 0.531473 24.1444 0.591955 24.272C0.652437 24.3996 0.740487 24.5122 0.849755 24.6017C0.959024 24.6912 1.08679 24.7553 1.22384 24.7895C1.36088 24.8236 1.5038 24.8269 1.64227 24.7991L13.2273 22.4827V26.013L10.9618 28.28C10.7828 28.4589 10.682 28.7015 10.6818 28.9546V34.0455C10.6818 34.2015 10.7201 34.3551 10.7932 34.4929C10.8663 34.6307 10.9721 34.7485 11.1013 34.836C11.2306 34.9234 11.3792 34.9779 11.5343 34.9945C11.6895 35.0112 11.8463 34.9896 11.9911 34.9316L18 32.5278L24.0089 34.9316C24.1537 34.9896 24.3105 35.0112 24.4657 34.9945C24.6208 34.9779 24.7694 34.9234 24.8986 34.836C25.0279 34.7485 25.1337 34.6307 25.2068 34.4929C25.2799 34.3551 25.3182 34.2015 25.3182 34.0455V28.9546C25.318 28.7015 25.2172 28.4589 25.0382 28.28L22.7727 26.013V22.4827L34.3577 24.7991C34.4962 24.8269 34.6391 24.8236 34.7762 24.7895C34.9132 24.7553 35.041 24.6912 35.1502 24.6017C35.2595 24.5122 35.3476 24.3996 35.408 24.272C35.4685 24.1444 35.4999 24.0049 35.5 23.8637V18.7727C35.5001 18.5953 35.4507 18.4214 35.3574 18.2705C35.2641 18.1196 35.1306 17.9977 34.9718 17.9184ZM33.5909 22.6991L22.0059 20.3827C21.8674 20.355 21.7245 20.3583 21.5875 20.3924C21.4504 20.4265 21.3227 20.4907 21.2134 20.5801C21.1041 20.6696 21.0161 20.7822 20.9556 20.9099C20.8951 21.0375 20.8637 21.177 20.8636 21.3182V26.4091C20.8639 26.6622 20.9646 26.9048 21.1436 27.0837L23.4091 29.3507V32.6359L18.3548 30.6139C18.127 30.5227 17.873 30.5227 17.6452 30.6139L12.5909 32.6359V29.3507L14.8564 27.0837C15.0354 26.9048 15.1361 26.6622 15.1364 26.4091V21.3182C15.1363 21.177 15.1049 21.0375 15.0444 20.9099C14.9839 20.7822 14.8959 20.6696 14.7866 20.5801C14.6773 20.4907 14.5496 20.4265 14.4125 20.3924C14.2755 20.3583 14.1326 20.355 13.9941 20.3827L2.40909 22.6991V19.3582L14.6082 13.2586C14.7662 13.1798 14.8992 13.0586 14.9925 12.9086C15.0857 12.7586 15.1355 12.5857 15.1364 12.4091V4.77273C15.1364 4.01325 15.4381 3.28487 15.9751 2.74783C16.5121 2.2108 17.2405 1.90909 18 1.90909C18.7595 1.90909 19.4879 2.2108 20.0249 2.74783C20.5619 3.28487 20.8636 4.01325 20.8636 4.77273V12.4091C20.8636 12.5865 20.913 12.7604 21.0063 12.9113C21.0996 13.0623 21.2331 13.1842 21.3918 13.2634L33.5909 19.363V22.6991Z" fill="#263069"/>
</svg>
