<svg width="36" height="35" viewBox="0 0 36 35" fill="none" xmlns="http://www.w3.org/2000/svg">
<path id="Vector" d="M16.1383 6.27359C16.1383 6.5363 16.0206 6.78825 15.8111 6.97402C15.6016 7.15979 15.3175 7.26415 15.0213 7.26415H12.0426C11.7463 7.26415 11.4622 7.15979 11.2527 6.97402C11.0432 6.78825 10.9255 6.5363 10.9255 6.27359C10.9255 6.01087 11.0432 5.75892 11.2527 5.57315C11.4622 5.38738 11.7463 5.28302 12.0426 5.28302H15.0213C15.3175 5.28302 15.6016 5.38738 15.8111 5.57315C16.0206 5.75892 16.1383 6.01087 16.1383 6.27359ZM25.8452 28.066L26.5378 32.3585C26.5912 32.6866 26.5644 33.021 26.4592 33.3391C26.354 33.6572 26.1729 33.9515 25.9281 34.202C25.6834 34.4526 25.3807 34.6535 25.0407 34.7912C24.7007 34.9289 24.3312 35.0001 23.9574 35H12.0426C11.6688 35.0001 11.2993 34.9289 10.9593 34.7912C10.6193 34.6535 10.3166 34.4526 10.0719 34.202C9.82712 33.9515 9.64601 33.6572 9.54082 33.3391C9.43564 33.021 9.40883 32.6866 9.46223 32.3585L10.1548 28.066C7.25499 26.7743 4.81678 24.7936 3.11203 22.345C1.40728 19.8963 0.502995 17.0759 0.5 14.1981C0.5 13.9354 0.617686 13.6834 0.827168 13.4977C1.03665 13.3119 1.32077 13.2075 1.61702 13.2075H4.96808V2.31132C4.96808 1.69832 5.24269 1.11043 5.73148 0.67697C6.22027 0.243514 6.88321 0 7.57447 0H28.4255C29.1168 0 29.7797 0.243514 30.2685 0.67697C30.7573 1.11043 31.0319 1.69832 31.0319 2.31132V13.2075H34.383C34.6792 13.2075 34.9633 13.3119 35.1728 13.4977C35.3823 13.6834 35.5 13.9354 35.5 14.1981C35.497 17.0759 34.5927 19.8963 32.888 22.345C31.1832 24.7936 28.745 26.7743 25.8452 28.066ZM7.20213 13.2075H28.7979V2.31132C28.7979 2.22375 28.7586 2.13976 28.6888 2.07784C28.619 2.01592 28.5243 1.98113 28.4255 1.98113H7.57447C7.47572 1.98113 7.38101 2.01592 7.31118 2.07784C7.24136 2.13976 7.20213 2.22375 7.20213 2.31132V13.2075ZM23.7173 28.8651C20.0133 30.0005 15.9867 30.0005 12.2827 28.8651L11.6702 32.6425C11.6628 32.6892 11.6667 32.7368 11.6818 32.7821C11.6969 32.8274 11.7228 32.8693 11.7577 32.905C11.793 32.9411 11.8368 32.97 11.886 32.9897C11.9352 33.0094 11.9886 33.0193 12.0426 33.0189H23.9574C24.0108 33.0188 24.0635 33.0087 24.112 32.989C24.1605 32.9693 24.2036 32.9407 24.2386 32.905C24.2735 32.8693 24.2993 32.8274 24.3144 32.7821C24.3295 32.7368 24.3335 32.6892 24.3261 32.6425L23.7173 28.8651ZM33.225 15.1887H2.775C3.05722 18.5984 4.78379 21.7871 7.60795 24.1145C10.4321 26.4418 14.1447 27.7354 18 27.7354C21.8553 27.7354 25.5679 26.4418 28.3921 24.1145C31.2162 21.7871 32.9428 18.5984 33.225 15.1887Z" fill="#263069"/>
</svg>
