<svg width="21" height="20" viewBox="0 0 21 20" fill="none" xmlns="http://www.w3.org/2000/svg">
<g id="ShoppingCart">
<path id="Vector" d="M18.1429 4.70169C18.0856 4.63312 18.0139 4.57796 17.9329 4.54012C17.852 4.50228 17.7637 4.48267 17.6743 4.48268H5.36431L4.90036 1.9317C4.8748 1.79104 4.80069 1.66381 4.69094 1.57219C4.5812 1.48057 4.44277 1.43038 4.29981 1.43036H2.41271C2.25081 1.43036 2.09553 1.49468 1.98105 1.60916C1.86656 1.72364 1.80225 1.87892 1.80225 2.04082C1.80225 2.20273 1.86656 2.358 1.98105 2.47249C2.09553 2.58697 2.25081 2.65129 2.41271 2.65129H3.78626L5.73669 13.3566C5.79415 13.674 5.93445 13.9707 6.14342 14.2166C5.85501 14.4859 5.64684 14.8299 5.542 15.2104C5.43716 15.5909 5.43974 15.9929 5.54946 16.372C5.65917 16.7511 5.87174 17.0924 6.16358 17.3581C6.45542 17.6237 6.81514 17.8033 7.20285 17.877C7.59055 17.9507 7.99109 17.9156 8.36005 17.7756C8.72902 17.6355 9.05198 17.396 9.29314 17.0837C9.5343 16.7713 9.68423 16.3982 9.7263 16.0058C9.76838 15.6134 9.70095 15.217 9.5315 14.8606H12.9974C12.8608 15.1465 12.7902 15.4594 12.7906 15.7763C12.7906 16.1989 12.9159 16.612 13.1507 16.9633C13.3855 17.3147 13.7192 17.5886 14.1096 17.7503C14.5 17.912 14.9296 17.9543 15.3441 17.8719C15.7585 17.7894 16.1393 17.5859 16.4381 17.2871C16.7369 16.9883 16.9404 16.6076 17.0228 16.1931C17.1053 15.7787 17.0629 15.3491 16.9012 14.9586C16.7395 14.5682 16.4657 14.2345 16.1143 13.9997C15.7629 13.765 15.3498 13.6397 14.9272 13.6397H7.53833C7.39537 13.6396 7.25694 13.5894 7.1472 13.4978C7.03745 13.4062 6.96334 13.279 6.93778 13.1383L6.69589 11.8083H15.5476C15.9765 11.8082 16.3918 11.6576 16.721 11.3828C17.0503 11.1079 17.2726 10.7262 17.3493 10.3042L18.2772 5.20227C18.2929 5.11409 18.289 5.02353 18.2658 4.93702C18.2426 4.85051 18.2006 4.77017 18.1429 4.70169ZM8.51736 15.7763C8.51736 15.9574 8.46366 16.1344 8.36304 16.285C8.26242 16.4356 8.11941 16.553 7.95209 16.6223C7.78477 16.6916 7.60065 16.7097 7.42302 16.6744C7.24539 16.6391 7.08223 16.5518 6.95417 16.4238C6.82611 16.2957 6.73889 16.1326 6.70356 15.9549C6.66823 15.7773 6.68636 15.5932 6.75567 15.4259C6.82498 15.2585 6.94234 15.1155 7.09293 15.0149C7.24352 14.9143 7.42056 14.8606 7.60166 14.8606C7.84452 14.8606 8.07743 14.9571 8.24916 15.1288C8.42089 15.3005 8.51736 15.5334 8.51736 15.7763ZM15.8429 15.7763C15.8429 15.9574 15.7892 16.1344 15.6886 16.285C15.588 16.4356 15.445 16.553 15.2777 16.6223C15.1103 16.6916 14.9262 16.7097 14.7486 16.6744C14.571 16.6391 14.4078 16.5518 14.2798 16.4238C14.1517 16.2957 14.0645 16.1326 14.0291 15.9549C13.9938 15.7773 14.0119 15.5932 14.0813 15.4259C14.1506 15.2585 14.2679 15.1155 14.4185 15.0149C14.5691 14.9143 14.7461 14.8606 14.9272 14.8606C15.1701 14.8606 15.403 14.9571 15.5747 15.1288C15.7465 15.3005 15.8429 15.5334 15.8429 15.7763Z" fill="black"/>
</g>
</svg>
