<svg width="21" height="21" viewBox="0 0 21 21" fill="none" xmlns="http://www.w3.org/2000/svg">
<g id="Tram">
<path id="Vector" d="M14.6222 4.40712H10.9594V2.57573H13.4012C13.5631 2.57573 13.7184 2.51141 13.8329 2.39693C13.9474 2.28244 14.0117 2.12717 14.0117 1.96526C14.0117 1.80336 13.9474 1.64808 13.8329 1.5336C13.7184 1.41911 13.5631 1.3548 13.4012 1.3548H7.29658C7.13467 1.3548 6.9794 1.41911 6.86492 1.5336C6.75043 1.64808 6.68611 1.80336 6.68611 1.96526C6.68611 2.12717 6.75043 2.28244 6.86492 2.39693C6.9794 2.51141 7.13467 2.57573 7.29658 2.57573H9.73844V4.40712H6.07565C5.42803 4.40712 4.80693 4.66439 4.34899 5.12233C3.89106 5.58027 3.63379 6.20136 3.63379 6.84898V14.785C3.63379 15.4327 3.89106 16.0537 4.34899 16.5117C4.80693 16.9696 5.42803 17.2269 6.07565 17.2269H6.68611L5.58728 18.692C5.53918 18.7561 5.50418 18.8291 5.48428 18.9068C5.46439 18.9844 5.45998 19.0653 5.47132 19.1446C5.48266 19.224 5.50952 19.3003 5.55036 19.3693C5.5912 19.4383 5.64524 19.4986 5.70937 19.5467C5.7735 19.5948 5.84648 19.6298 5.92414 19.6497C6.0018 19.6695 6.08262 19.674 6.16198 19.6626C6.24134 19.6513 6.3177 19.6244 6.38668 19.5836C6.45566 19.5427 6.51592 19.4887 6.56402 19.4246L8.21228 17.2269H12.4855L14.1338 19.4246C14.2309 19.5541 14.3755 19.6397 14.5358 19.6626C14.6961 19.6855 14.8589 19.6438 14.9884 19.5467C15.118 19.4495 15.2036 19.3049 15.2265 19.1446C15.2494 18.9843 15.2077 18.8215 15.1105 18.692L14.0117 17.2269H14.6222C15.2698 17.2269 15.8909 16.9696 16.3488 16.5117C16.8068 16.0537 17.064 15.4327 17.064 14.785V6.84898C17.064 6.20136 16.8068 5.58027 16.3488 5.12233C15.8909 4.66439 15.2698 4.40712 14.6222 4.40712ZM14.6222 16.006H6.07565C5.75184 16.006 5.44129 15.8773 5.21232 15.6484C4.98335 15.4194 4.85472 15.1088 4.85472 14.785V10.5118H15.8431V14.785C15.8431 15.1088 15.7145 15.4194 15.4855 15.6484C15.2565 15.8773 14.946 16.006 14.6222 16.006ZM7.90704 13.8693C7.90704 14.0504 7.85334 14.2275 7.75272 14.3781C7.6521 14.5287 7.50909 14.646 7.34177 14.7153C7.17445 14.7846 6.99033 14.8028 6.8127 14.7674C6.63508 14.7321 6.47191 14.6449 6.34385 14.5168C6.21579 14.3888 6.12858 14.2256 6.09324 14.048C6.05791 13.8703 6.07605 13.6862 6.14535 13.5189C6.21466 13.3516 6.33203 13.2086 6.48261 13.108C6.6332 13.0073 6.81024 12.9536 6.99135 12.9536C7.23421 12.9536 7.46712 13.0501 7.63884 13.2218C7.81057 13.3936 7.90704 13.6265 7.90704 13.8693ZM14.6222 13.8693C14.6222 14.0504 14.5685 14.2275 14.4678 14.3781C14.3672 14.5287 14.2242 14.646 14.0569 14.7153C13.8896 14.7846 13.7054 14.8028 13.5278 14.7674C13.3502 14.7321 13.187 14.6449 13.059 14.5168C12.9309 14.3888 12.8437 14.2256 12.8084 14.048C12.773 13.8703 12.7912 13.6862 12.8605 13.5189C12.9298 13.3516 13.0471 13.2086 13.1977 13.108C13.3483 13.0073 13.5254 12.9536 13.7065 12.9536C13.9493 12.9536 14.1822 13.0501 14.354 13.2218C14.5257 13.3936 14.6222 13.6265 14.6222 13.8693Z" fill="black"/>
</g>
</svg>
