<svg width="16" height="17" viewBox="0 0 16 17" fill="none" xmlns="http://www.w3.org/2000/svg">
<path d="M2.71818 5.18232H13.0961C13.177 5.18232 13.2547 5.14977 13.3119 5.09182C13.3691 5.03387 13.4013 4.95527 13.4013 4.87332V1.47434C13.4013 1.14653 13.2727 0.832151 13.0437 0.600357C12.8147 0.368563 12.5042 0.238342 12.1804 0.238342H3.63388C3.31007 0.238342 2.99952 0.368563 2.77055 0.600357C2.54158 0.832151 2.41295 1.14653 2.41295 1.47434V4.87332C2.41295 4.95527 2.44511 5.03387 2.50235 5.09182C2.55959 5.14977 2.63723 5.18232 2.71818 5.18232ZM4.85481 2.09233H6.05513C6.21288 2.08998 6.36567 2.14818 6.48275 2.25524C6.59983 2.3623 6.67252 2.51027 6.6862 2.66939C6.69174 2.75392 6.68006 2.83871 6.65187 2.91848C6.62369 2.99825 6.5796 3.0713 6.52235 3.1331C6.4651 3.19489 6.39591 3.24411 6.31908 3.27769C6.24225 3.31128 6.15942 3.32852 6.07573 3.32833H4.87541C4.71765 3.33069 4.56487 3.27248 4.44779 3.16542C4.33071 3.05836 4.25802 2.91039 4.24434 2.75127C4.2388 2.66674 4.25048 2.58196 4.27867 2.50219C4.30685 2.42242 4.35094 2.34936 4.40819 2.28757C4.46544 2.22577 4.53463 2.17655 4.61146 2.14297C4.68829 2.10938 4.77112 2.09215 4.85481 2.09233ZM15.2327 7.04095C15.2333 6.9594 15.2179 6.87854 15.1875 6.80303C15.1571 6.72751 15.1123 6.65884 15.0555 6.60096C14.9988 6.54308 14.9313 6.49714 14.8569 6.4658C14.7825 6.43445 14.7028 6.41831 14.6222 6.41832H1.19202C1.11147 6.41831 1.03171 6.43445 0.957347 6.4658C0.882982 6.49714 0.815481 6.54308 0.758734 6.60096C0.701987 6.65884 0.657116 6.72751 0.626708 6.80303C0.5963 6.87854 0.580956 6.9594 0.58156 7.04095C0.583481 8.39655 0.952025 9.72575 1.64722 10.8844C2.34241 12.043 3.33771 12.9868 4.52516 13.6133L4.26037 15.4882C4.22041 15.7525 4.26394 16.0229 4.38475 16.2607C4.48792 16.4606 4.64314 16.6281 4.8336 16.745C5.02406 16.862 5.2425 16.924 5.46527 16.9243H10.323C10.5882 16.9279 10.8477 16.8468 11.0647 16.6925C11.245 16.5605 11.3862 16.3811 11.4731 16.1738C11.56 15.9664 11.5892 15.739 11.5577 15.516L11.2891 13.6157C12.4769 12.9889 13.4724 12.0447 14.1676 10.8857C14.8628 9.72663 15.2312 8.39695 15.2327 7.04095ZM5.46527 15.6883L5.68885 14.1047C7.13227 14.5681 8.68198 14.5681 10.1254 14.1047L10.349 15.6883H5.46527Z" fill="black"/>
</svg>
