<svg width="5" height="18" viewBox="0 0 5 18" fill="none" xmlns="http://www.w3.org/2000/svg">
<path d="M4.48761 8.90705C4.48761 9.32964 4.3623 9.74273 4.12753 10.0941C3.89275 10.4455 3.55905 10.7193 3.16864 10.881C2.77822 11.0428 2.34861 11.0851 1.93415 11.0026C1.51968 10.9202 1.13897 10.7167 0.840161 10.4179C0.541348 10.1191 0.337853 9.73835 0.255411 9.32389C0.172969 8.90942 0.215281 8.47982 0.376998 8.0894C0.538714 7.69898 0.812571 7.36529 1.16394 7.13051C1.5153 6.89574 1.9284 6.77042 2.35098 6.77042C2.91765 6.77042 3.46111 6.99553 3.86181 7.39623C4.2625 7.79692 4.48761 8.34038 4.48761 8.90705ZM2.35098 4.93903C2.77357 4.93903 3.18667 4.81372 3.53803 4.57894C3.8894 4.34417 4.16325 4.01047 4.32497 3.62005C4.48669 3.22964 4.529 2.80003 4.44656 2.38557C4.36412 1.9711 4.16062 1.59039 3.86181 1.29158C3.563 0.992764 3.18228 0.789269 2.76782 0.706827C2.35335 0.624385 1.92375 0.666697 1.53333 0.828414C1.14291 0.99013 0.809219 1.26399 0.574443 1.61535C0.339668 1.96672 0.214357 2.37982 0.214357 2.8024C0.214357 3.36907 0.439465 3.91253 0.840161 4.31322C1.24086 4.71392 1.78432 4.93903 2.35098 4.93903ZM2.35098 12.8751C1.9284 12.8751 1.5153 13.0004 1.16394 13.2352C0.812571 13.4699 0.538714 13.8036 0.376998 14.1941C0.215281 14.5845 0.172969 15.0141 0.255411 15.4285C0.337853 15.843 0.541348 16.2237 0.840161 16.5225C1.13897 16.8213 1.51968 17.0248 1.93415 17.1073C2.34861 17.1897 2.77822 17.1474 3.16864 16.9857C3.55905 16.824 3.89275 16.5501 4.12753 16.1988C4.3623 15.8474 4.48761 15.4343 4.48761 15.0117C4.48761 14.445 4.2625 13.9016 3.86181 13.5009C3.46111 13.1002 2.91765 12.8751 2.35098 12.8751Z" fill="black"/>
</svg>
