<svg width="16" height="17" viewBox="0 0 16 17" fill="none" xmlns="http://www.w3.org/2000/svg">
<path id="Vector" d="M15.2229 2.39272C15.2062 2.498 15.1699 2.59658 15.1169 2.6801C15.064 2.76361 14.996 2.8296 14.9188 2.87244L11.2433 4.91397C12.4392 5.32178 13.4593 6.3183 14.0795 7.68467C14.3907 8.36198 14.5927 9.11176 14.6736 9.89C14.7545 10.6682 14.7126 11.4592 14.5505 12.2166C14.5281 12.3221 14.4857 12.419 14.4271 12.4987C14.3684 12.5785 14.2953 12.6386 14.2142 12.6739C14.1331 12.7091 14.0464 12.7184 13.9618 12.701C13.8772 12.6835 13.7972 12.6398 13.7289 12.5736L8.43061 7.4277V16.0477C8.43061 16.2247 8.37548 16.3944 8.27734 16.5196C8.17921 16.6448 8.0461 16.7151 7.90732 16.7151C7.76853 16.7151 7.63543 16.6448 7.5373 16.5196C7.43916 16.3944 7.38403 16.2247 7.38403 16.0477V7.4277L2.0857 12.5736C2.01743 12.64 1.93742 12.6838 1.85273 12.7014C1.76803 12.719 1.68125 12.7097 1.60002 12.6744C1.51879 12.6392 1.44561 12.579 1.38692 12.4991C1.32823 12.4193 1.28584 12.3222 1.26348 12.2166C1.10137 11.4592 1.05953 10.6682 1.14041 9.89C1.22128 9.11176 1.42325 8.36198 1.73444 7.68467C2.35486 6.31812 3.37521 5.32158 4.57134 4.91397L0.895865 2.87244C0.818704 2.82957 0.750788 2.7636 0.697878 2.68012C0.644969 2.59664 0.608627 2.49811 0.591937 2.3929C0.575246 2.28768 0.578698 2.17888 0.602001 2.07573C0.625304 1.97258 0.667769 1.87812 0.725795 1.80037C1.13497 1.24141 1.62989 0.795727 2.1798 0.491011C2.72972 0.186295 3.32288 0.0290527 3.92245 0.0290527C4.52202 0.0290527 5.11519 0.186295 5.6651 0.491011C6.21502 0.795727 6.70993 1.24141 7.11911 1.80037C7.43307 2.22232 7.69746 2.70005 7.90405 3.21868C8.11164 2.69979 8.37714 2.22205 8.69226 1.80037C9.10143 1.24141 9.59635 0.795727 10.1463 0.491011C10.6962 0.186295 11.2893 0.0290527 11.8889 0.0290527C12.4885 0.0290527 13.0816 0.186295 13.6316 0.491011C14.1815 0.795727 14.6764 1.24141 15.0856 1.80037C15.1442 1.87768 15.1873 1.97192 15.2112 2.07506C15.2351 2.17819 15.2392 2.28718 15.2229 2.39272Z" fill="black"/>
</svg>
