<svg width="15" height="16" viewBox="0 0 15 16" fill="none" xmlns="http://www.w3.org/2000/svg">
<path d="M14.0641 1.07545V15.1161C14.0641 15.2781 13.9998 15.4333 13.8853 15.5478C13.7709 15.6623 13.6156 15.7266 13.4537 15.7266C13.2918 15.7266 13.1365 15.6623 13.022 15.5478C12.9075 15.4333 12.8432 15.2781 12.8432 15.1161V11.4534H9.18041C9.01851 11.4534 8.86323 11.389 8.74875 11.2746C8.63426 11.1601 8.56995 11.0048 8.56995 10.8429C8.5983 9.38058 8.783 7.9255 9.12089 6.50248C9.86719 3.41277 11.2819 1.34176 13.2133 0.514583C13.3061 0.474819 13.4074 0.458706 13.508 0.467687C13.6085 0.476668 13.7053 0.510463 13.7897 0.566044C13.874 0.621625 13.9432 0.697255 13.9911 0.786158C14.039 0.875062 14.0641 0.97446 14.0641 1.07545ZM6.73016 0.975484C6.7182 0.895326 6.69041 0.818351 6.64839 0.749049C6.60637 0.679746 6.55097 0.619504 6.48543 0.571836C6.41989 0.524168 6.34551 0.490028 6.26663 0.471408C6.18775 0.452788 6.10596 0.45006 6.02601 0.463384C5.94607 0.476708 5.86958 0.505816 5.80101 0.549012C5.73243 0.592207 5.67315 0.648625 5.62661 0.714974C5.58006 0.781322 5.5472 0.856275 5.52993 0.935458C5.51266 1.01464 5.51133 1.09647 5.52602 1.17617L6.11969 4.73824H4.29669V1.07545C4.29669 0.913542 4.23238 0.758268 4.11789 0.643784C4.00341 0.5293 3.84813 0.464983 3.68623 0.464983C3.52432 0.464983 3.36905 0.5293 3.25456 0.643784C3.14008 0.758268 3.07576 0.913542 3.07576 1.07545V4.73824H1.25276L1.84644 1.17617C1.86113 1.09647 1.8598 1.01464 1.84253 0.935458C1.82526 0.856275 1.79239 0.781322 1.74585 0.714974C1.69931 0.648625 1.64002 0.592207 1.57145 0.549012C1.50287 0.505816 1.42638 0.476708 1.34644 0.463384C1.2665 0.45006 1.1847 0.452788 1.10583 0.471408C1.02695 0.490028 0.952571 0.524168 0.887026 0.571836C0.821482 0.619504 0.766086 0.679746 0.724068 0.749049C0.68205 0.818351 0.654253 0.895326 0.642297 0.975484L0.0318314 4.63828C0.0263529 4.67132 0.0235458 4.70475 0.0234375 4.73824C0.0246573 5.60343 0.33166 6.44034 0.890197 7.10109C1.44873 7.76184 2.22285 8.20389 3.07576 8.34914V15.1161C3.07576 15.2781 3.14008 15.4333 3.25456 15.5478C3.36905 15.6623 3.52432 15.7266 3.68623 15.7266C3.84813 15.7266 4.00341 15.6623 4.11789 15.5478C4.23238 15.4333 4.29669 15.2781 4.29669 15.1161V8.34914C5.1496 8.20389 5.92372 7.76184 6.48226 7.10109C7.0408 6.44034 7.3478 5.60343 7.34902 4.73824C7.34891 4.70475 7.3461 4.67132 7.34062 4.63828L6.73016 0.975484Z" fill="black"/>
</svg>
