<svg width="21" height="20" viewBox="0 0 21 20" fill="none" xmlns="http://www.w3.org/2000/svg">
<g id="Airplane">
<path id="Vector" d="M18.8953 10.7268V13.1687C18.8953 13.3306 18.831 13.4858 18.7165 13.6003C18.602 13.7148 18.4467 13.7791 18.2848 13.7791C18.2446 13.7792 18.2044 13.7751 18.165 13.7669L12.4854 12.6345V14.4453L13.833 15.7921C13.9467 15.906 14.0109 16.0601 14.0115 16.221V18.0524C14.0117 18.1524 13.9873 18.251 13.9404 18.3394C13.8936 18.4278 13.8257 18.5033 13.7428 18.5593C13.6599 18.6153 13.5645 18.6501 13.465 18.6606C13.3655 18.671 13.2649 18.6569 13.1722 18.6194L10.3488 17.4892L7.52536 18.6194C7.43261 18.6569 7.33206 18.671 7.23255 18.6606C7.13305 18.6501 7.03764 18.6153 6.95473 18.5593C6.87182 18.5033 6.80395 18.4278 6.75708 18.3394C6.71022 18.251 6.68579 18.1524 6.68597 18.0524V16.221C6.6859 16.1408 6.70164 16.0614 6.73228 15.9873C6.76292 15.9132 6.80786 15.8458 6.86453 15.7891L8.21213 14.4422V12.6345L2.53252 13.7669C2.49311 13.7751 2.45296 13.7792 2.41271 13.7791C2.25081 13.7791 2.09553 13.7148 1.98105 13.6003C1.86656 13.4858 1.80225 13.3306 1.80225 13.1687V10.7268C1.80217 10.6134 1.83368 10.5022 1.89325 10.4057C1.95283 10.3092 2.03811 10.2312 2.13953 10.1804L8.21213 7.1449V3.70645C8.21213 3.13978 8.43724 2.59632 8.83793 2.19563C9.23863 1.79493 9.78209 1.56982 10.3488 1.56982C10.9154 1.56982 11.4589 1.79493 11.8596 2.19563C12.2603 2.59632 12.4854 3.13978 12.4854 3.70645V7.1449L18.558 10.1804C18.6594 10.2312 18.7447 10.3092 18.8043 10.4057C18.8638 10.5022 18.8953 10.6134 18.8953 10.7268Z" fill="black"/>
</g>
</svg>
