<svg width="21" height="20" viewBox="0 0 21 20" fill="none" xmlns="http://www.w3.org/2000/svg">
<g id="Buildings">
<path id="Vector" d="M18.8747 16.2907H17.6743V7.7442C17.6743 7.42039 17.5457 7.10984 17.3167 6.88087C17.0878 6.6519 16.7772 6.52327 16.4534 6.52327H13.0958C13.0149 6.52327 12.9373 6.55543 12.88 6.61267C12.8228 6.66991 12.7906 6.74755 12.7906 6.8285V16.2907H11.5697V2.89176C11.5717 2.70159 11.5304 2.51345 11.449 2.34158C11.3676 2.16971 11.2481 2.01863 11.0996 1.89976C10.8973 1.74198 10.6503 1.65197 10.3939 1.64252C10.1375 1.63307 9.88457 1.70465 9.67113 1.8471L3.56648 5.9128C3.39901 6.02453 3.26177 6.17594 3.16698 6.35354C3.07219 6.53115 3.02278 6.72943 3.02317 6.93075V16.2907H1.82284C1.66508 16.2884 1.5123 16.3459 1.39522 16.4516C1.27814 16.5574 1.20545 16.7036 1.19177 16.8607C1.18623 16.9442 1.19791 17.028 1.2261 17.1068C1.25428 17.1856 1.29837 17.2577 1.35562 17.3188C1.41287 17.3798 1.48206 17.4284 1.55889 17.4616C1.63572 17.4948 1.71855 17.5118 1.80224 17.5116H18.8953C18.9789 17.5118 19.0618 17.4948 19.1386 17.4616C19.2154 17.4284 19.2846 17.3798 19.3419 17.3188C19.3991 17.2577 19.4432 17.1856 19.4714 17.1068C19.4996 17.028 19.5113 16.9442 19.5057 16.8607C19.492 16.7036 19.4194 16.5574 19.3023 16.4516C19.1852 16.3459 19.0324 16.2884 18.8747 16.2907ZM6.38072 14.4593C6.38091 14.543 6.36388 14.6258 6.33071 14.7027C6.29753 14.7795 6.24891 14.8487 6.18787 14.9059C6.12683 14.9632 6.05467 15.0073 5.97587 15.0355C5.89707 15.0636 5.81332 15.0753 5.72982 15.0698C5.5725 15.0561 5.42623 14.9833 5.32045 14.8661C5.21468 14.7488 5.15727 14.5958 5.15979 14.4379V13.259C5.15764 13.1013 5.2152 12.9486 5.32092 12.8316C5.42664 12.7145 5.57271 12.6418 5.72982 12.6279C5.81332 12.6224 5.89707 12.6341 5.97587 12.6622C6.05467 12.6904 6.12683 12.7345 6.18787 12.7918C6.24891 12.849 6.29753 12.9182 6.33071 12.995C6.36388 13.0719 6.38091 13.1547 6.38072 13.2384V14.4593ZM6.38072 10.1861C6.38091 10.2697 6.36388 10.3526 6.33071 10.4294C6.29753 10.5062 6.24891 10.5754 6.18787 10.6327C6.12683 10.6899 6.05467 10.734 5.97587 10.7622C5.89707 10.7904 5.81332 10.8021 5.72982 10.7965C5.57257 10.7827 5.4264 10.7098 5.32066 10.5926C5.21492 10.4754 5.15745 10.3225 5.15979 10.1647V8.98573C5.15764 8.82802 5.2152 8.67534 5.32092 8.5583C5.42664 8.44125 5.57271 8.36851 5.72982 8.35466C5.81332 8.34912 5.89707 8.3608 5.97587 8.38899C6.05467 8.41717 6.12683 8.46126 6.18787 8.51851C6.24891 8.57576 6.29753 8.64495 6.33071 8.72178C6.36388 8.79861 6.38091 8.88144 6.38072 8.96513V10.1861ZM9.43305 14.4593C9.43324 14.543 9.41621 14.6258 9.38303 14.7027C9.34986 14.7795 9.30124 14.8487 9.2402 14.9059C9.17915 14.9632 9.10699 15.0073 9.0282 15.0355C8.9494 15.0636 8.86565 15.0753 8.78214 15.0698C8.6251 15.0561 8.47904 14.9835 8.3733 14.8666C8.26757 14.7497 8.20999 14.5971 8.21212 14.4395V13.259C8.21016 13.1014 8.26781 12.9489 8.37351 12.832C8.47921 12.7152 8.62516 12.6425 8.78214 12.6287C8.86565 12.6231 8.9494 12.6348 9.0282 12.663C9.10699 12.6912 9.17915 12.7353 9.2402 12.7925C9.30124 12.8498 9.34986 12.919 9.38303 12.9958C9.41621 13.0726 9.43324 13.1555 9.43305 13.2391V14.4593ZM9.43305 10.1861C9.43324 10.2697 9.41621 10.3526 9.38303 10.4294C9.34986 10.5062 9.30124 10.5754 9.2402 10.6327C9.17915 10.6899 9.10699 10.734 9.0282 10.7622C8.9494 10.7904 8.86565 10.8021 8.78214 10.7965C8.62516 10.7827 8.47921 10.71 8.37351 10.5932C8.26781 10.4763 8.21016 10.3238 8.21212 10.1662V8.98573C8.21016 8.82816 8.26781 8.67566 8.37351 8.55878C8.47921 8.4419 8.62516 8.36927 8.78214 8.35543C8.86565 8.34988 8.9494 8.36156 9.0282 8.38975C9.10699 8.41794 9.17915 8.46202 9.2402 8.51927C9.30124 8.57652 9.34986 8.64571 9.38303 8.72254C9.41621 8.79937 9.43324 8.8822 9.43305 8.96589V10.1861Z" fill="black"/>
</g>
</svg>
