<svg width="21" height="20" viewBox="0 0 21 20" fill="none" xmlns="http://www.w3.org/2000/svg">
<g id="Building">
<path id="Vector" d="M18.2848 17.4884H16.4534V2.83726H17.0639C17.2258 2.83726 17.3811 2.77295 17.4955 2.65846C17.61 2.54398 17.6743 2.3887 17.6743 2.2268C17.6743 2.06489 17.61 1.90962 17.4955 1.79513C17.3811 1.68065 17.2258 1.61633 17.0639 1.61633H3.63364C3.47174 1.61633 3.31646 1.68065 3.20198 1.79513C3.08749 1.90962 3.02318 2.06489 3.02318 2.2268C3.02318 2.3887 3.08749 2.54398 3.20198 2.65846C3.31646 2.77295 3.47174 2.83726 3.63364 2.83726H4.24411V17.4884H2.41271C2.25081 17.4884 2.09553 17.5527 1.98105 17.6672C1.86656 17.7817 1.80225 17.937 1.80225 18.0989C1.80225 18.2608 1.86656 18.4161 1.98105 18.5306C2.09553 18.645 2.25081 18.7094 2.41271 18.7094H18.2848C18.4467 18.7094 18.602 18.645 18.7165 18.5306C18.831 18.4161 18.8953 18.2608 18.8953 18.0989C18.8953 17.937 18.831 17.7817 18.7165 17.6672C18.602 17.5527 18.4467 17.4884 18.2848 17.4884ZM7.29643 4.66866H9.12783C9.28973 4.66866 9.44501 4.73298 9.55949 4.84746C9.67398 4.96194 9.73829 5.11722 9.73829 5.27912C9.73829 5.44103 9.67398 5.5963 9.55949 5.71079C9.44501 5.82527 9.28973 5.88959 9.12783 5.88959H7.29643C7.13453 5.88959 6.97925 5.82527 6.86477 5.71079C6.75028 5.5963 6.68597 5.44103 6.68597 5.27912C6.68597 5.11722 6.75028 4.96194 6.86477 4.84746C6.97925 4.73298 7.13453 4.66866 7.29643 4.66866ZM7.29643 7.72098H9.12783C9.28973 7.72098 9.44501 7.7853 9.55949 7.89979C9.67398 8.01427 9.73829 8.16954 9.73829 8.33145C9.73829 8.49335 9.67398 8.64863 9.55949 8.76311C9.44501 8.8776 9.28973 8.94191 9.12783 8.94191H7.29643C7.13453 8.94191 6.97925 8.8776 6.86477 8.76311C6.75028 8.64863 6.68597 8.49335 6.68597 8.33145C6.68597 8.16954 6.75028 8.01427 6.86477 7.89979C6.97925 7.7853 7.13453 7.72098 7.29643 7.72098ZM6.68597 11.3838C6.68597 11.2219 6.75028 11.0666 6.86477 10.9521C6.97925 10.8376 7.13453 10.7733 7.29643 10.7733H9.12783C9.28973 10.7733 9.44501 10.8376 9.55949 10.9521C9.67398 11.0666 9.73829 11.2219 9.73829 11.3838C9.73829 11.5457 9.67398 11.701 9.55949 11.8154C9.44501 11.9299 9.28973 11.9942 9.12783 11.9942H7.29643C7.13453 11.9942 6.97925 11.9299 6.86477 11.8154C6.75028 11.701 6.68597 11.5457 6.68597 11.3838ZM12.1802 17.4884H8.51736V14.4361H12.1802V17.4884ZM13.4011 11.9942H11.5697C11.4078 11.9942 11.2525 11.9299 11.138 11.8154C11.0235 11.701 10.9592 11.5457 10.9592 11.3838C10.9592 11.2219 11.0235 11.0666 11.138 10.9521C11.2525 10.8376 11.4078 10.7733 11.5697 10.7733H13.4011C13.563 10.7733 13.7183 10.8376 13.8327 10.9521C13.9472 11.0666 14.0115 11.2219 14.0115 11.3838C14.0115 11.5457 13.9472 11.701 13.8327 11.8154C13.7183 11.9299 13.563 11.9942 13.4011 11.9942ZM13.4011 8.94191H11.5697C11.4078 8.94191 11.2525 8.8776 11.138 8.76311C11.0235 8.64863 10.9592 8.49335 10.9592 8.33145C10.9592 8.16954 11.0235 8.01427 11.138 7.89979C11.2525 7.7853 11.4078 7.72098 11.5697 7.72098H13.4011C13.563 7.72098 13.7183 7.7853 13.8327 7.89979C13.9472 8.01427 14.0115 8.16954 14.0115 8.33145C14.0115 8.49335 13.9472 8.64863 13.8327 8.76311C13.7183 8.8776 13.563 8.94191 13.4011 8.94191ZM13.4011 5.88959H11.5697C11.4078 5.88959 11.2525 5.82527 11.138 5.71079C11.0235 5.5963 10.9592 5.44103 10.9592 5.27912C10.9592 5.11722 11.0235 4.96194 11.138 4.84746C11.2525 4.73298 11.4078 4.66866 11.5697 4.66866H13.4011C13.563 4.66866 13.7183 4.73298 13.8327 4.84746C13.9472 4.96194 14.0115 5.11722 14.0115 5.27912C14.0115 5.44103 13.9472 5.5963 13.8327 5.71079C13.7183 5.82527 13.563 5.88959 13.4011 5.88959Z" fill="black"/>
</g>
</svg>
