<svg width="21" height="20" viewBox="0 0 21 20" fill="none" xmlns="http://www.w3.org/2000/svg">
<g id="Cheers">
<path id="Vector" d="M16.9059 16.3252L15.5591 16.6862L14.7639 13.7185C15.3929 13.4036 15.8939 12.8814 16.1826 12.24C16.4714 11.5986 16.5301 10.8773 16.3489 10.1977C15.3874 6.61121 13.3896 3.46579 13.3049 3.33377C13.236 3.22604 13.135 3.14268 13.0162 3.09544C12.8973 3.0482 12.7666 3.03948 12.6426 3.07051L10.9745 3.48792C10.9745 2.85837 10.9607 2.4631 10.9585 2.4135C10.9524 2.28236 10.9042 2.15667 10.821 2.05509C10.7378 1.95351 10.6242 1.88144 10.4968 1.84958L8.05493 1.23911C7.93087 1.20809 7.80019 1.21681 7.68135 1.26404C7.5625 1.31128 7.4615 1.39465 7.39258 1.50238C7.30788 1.63439 5.31013 4.77829 4.34865 8.37011C4.16744 9.04974 4.22615 9.77106 4.51487 10.4124C4.80359 11.0538 5.30465 11.576 5.93357 11.891L5.13844 14.8548L3.7916 14.4938C3.63516 14.4519 3.46848 14.4739 3.32824 14.5549C3.188 14.6359 3.08567 14.7693 3.04378 14.9257C3.00189 15.0822 3.02386 15.2489 3.10485 15.3891C3.18585 15.5293 3.31924 15.6317 3.47568 15.6736L7.13847 16.6549C7.19004 16.6684 7.24312 16.6754 7.29643 16.6755C7.44466 16.6757 7.58789 16.6219 7.69939 16.5242C7.81089 16.4265 7.88304 16.2916 7.90238 16.1447C7.92172 15.9977 7.88693 15.8487 7.80449 15.7255C7.72206 15.6023 7.59762 15.5133 7.45439 15.4752L6.3174 15.1699L7.11253 12.2023C7.17434 12.2061 7.23539 12.2084 7.29643 12.2084C7.90206 12.2067 8.49358 12.0254 8.99616 11.6875C9.49873 11.3495 9.88978 10.8701 10.1198 10.3099C10.2099 10.7959 10.3182 11.2881 10.4487 11.7765C10.6234 12.426 11.0073 12.9998 11.541 13.4091C12.0748 13.8184 12.7285 14.0403 13.4011 14.0406C13.4621 14.0406 13.5232 14.0406 13.585 14.0345L14.3801 17.0021L13.2431 17.3073C13.1006 17.3461 12.9769 17.4352 12.895 17.5582C12.8132 17.6812 12.7787 17.8296 12.798 17.9761C12.8173 18.1226 12.889 18.2571 12.9999 18.3547C13.1108 18.4523 13.2533 18.5064 13.4011 18.5069C13.4544 18.5067 13.5075 18.4998 13.559 18.4863L17.2218 17.505C17.3783 17.4631 17.5117 17.3607 17.5927 17.2205C17.6737 17.0803 17.6956 16.9136 17.6537 16.7571C17.6118 16.6007 17.5095 16.4673 17.3693 16.3863C17.229 16.3053 17.0624 16.2833 16.9059 16.3252ZM12.5022 4.36393C12.7143 4.72258 13.0539 5.32084 13.4331 6.07781L10.9592 6.69744C10.9272 5.93435 10.9302 5.30481 10.9401 4.88207C10.9401 4.83933 10.944 4.7966 10.9463 4.75387L12.5022 4.36393ZM8.19534 2.53254L9.74974 2.92095C9.75432 3.24754 9.74974 3.73515 9.73371 4.33036C9.72914 4.42269 9.7215 4.57378 9.71616 4.776C9.71616 4.8523 9.70853 4.92861 9.70395 5.00492L7.19647 4.38225C7.60167 3.56117 7.971 2.91179 8.19534 2.53254ZM14.6861 3.32538C14.6502 3.25364 14.6288 3.17552 14.623 3.09549C14.6173 3.01546 14.6274 2.93509 14.6528 2.85897C14.6782 2.78286 14.7183 2.71249 14.7709 2.6519C14.8235 2.5913 14.8875 2.54167 14.9593 2.50583L16.1802 1.89536C16.252 1.85949 16.3301 1.8381 16.4101 1.83241C16.4901 1.82673 16.5705 1.83685 16.6466 1.86222C16.7227 1.88759 16.793 1.9277 16.8536 1.98026C16.9142 2.03282 16.9639 2.0968 16.9998 2.16855C17.0357 2.2403 17.057 2.31841 17.0627 2.39843C17.0684 2.47844 17.0583 2.5588 17.0329 2.6349C17.0076 2.711 16.9674 2.78136 16.9149 2.84196C16.8623 2.90257 16.7983 2.95222 16.7266 2.9881L15.5057 3.59856C15.4339 3.63449 15.3558 3.65592 15.2758 3.66164C15.1957 3.66735 15.1154 3.65723 15.0393 3.63186C14.9631 3.60649 14.8928 3.56636 14.8322 3.51377C14.7716 3.46118 14.7219 3.39717 14.6861 3.32538ZM18.2848 5.49406C18.2848 5.65596 18.2205 5.81124 18.106 5.92572C17.9915 6.04021 17.8362 6.10452 17.6743 6.10452H16.4534C16.2915 6.10452 16.1362 6.04021 16.0217 5.92572C15.9073 5.81124 15.8429 5.65596 15.8429 5.49406C15.8429 5.33215 15.9073 5.17688 16.0217 5.06239C16.1362 4.94791 16.2915 4.88359 16.4534 4.88359H17.6743C17.8362 4.88359 17.9915 4.94791 18.106 5.06239C18.2205 5.17688 18.2848 5.33215 18.2848 5.49406ZM3.08728 1.55808C3.12311 1.4863 3.17275 1.42228 3.23334 1.36969C3.29394 1.3171 3.3643 1.27698 3.44042 1.2516C3.51654 1.22623 3.59691 1.21611 3.67694 1.22183C3.75697 1.22754 3.83508 1.24897 3.90682 1.2849L5.12775 1.89536C5.1995 1.93124 5.26349 1.9809 5.31605 2.0415C5.3686 2.1021 5.40871 2.17246 5.43408 2.24856C5.45945 2.32466 5.46958 2.40502 5.46389 2.48503C5.4582 2.56505 5.43681 2.64316 5.40094 2.71491C5.36506 2.78666 5.31541 2.85064 5.25481 2.9032C5.1942 2.95576 5.12384 2.99587 5.04774 3.02124C4.89405 3.07247 4.72629 3.06055 4.58139 2.9881L3.36046 2.37763C3.28867 2.3418 3.22465 2.29216 3.17207 2.23157C3.11948 2.17097 3.07935 2.1006 3.05398 2.02449C3.02861 1.94837 3.01849 1.868 3.0242 1.78797C3.02991 1.70794 3.05135 1.62982 3.08728 1.55808ZM3.63364 5.49406H2.41271C2.25081 5.49406 2.09553 5.42974 1.98105 5.31526C1.86656 5.20077 1.80225 5.0455 1.80225 4.88359C1.80225 4.72169 1.86656 4.56641 1.98105 4.45193C2.09553 4.33744 2.25081 4.27313 2.41271 4.27313H3.63364C3.79555 4.27313 3.95082 4.33744 4.06531 4.45193C4.17979 4.56641 4.24411 4.72169 4.24411 4.88359C4.24411 5.0455 4.17979 5.20077 4.06531 5.31526C3.95082 5.42974 3.79555 5.49406 3.63364 5.49406Z" fill="black"/>
</g>
</svg>
