<svg width="21" height="16" viewBox="0 0 21 16" fill="none" xmlns="http://www.w3.org/2000/svg">
<path d="M14.6222 0.50885H6.07573C5.34715 0.50885 4.64842 0.798275 4.13324 1.31345C3.61806 1.82863 3.32864 2.52737 3.32864 3.25594V14.2443C3.32864 14.6491 3.48943 15.0373 3.77564 15.3235C4.06185 15.6097 4.45004 15.7705 4.8548 15.7705H6.99143C7.39619 15.7705 7.78438 15.6097 8.07059 15.3235C8.3568 15.0373 8.51759 14.6491 8.51759 14.2443V13.0234H12.1804V14.2443C12.1804 14.6491 12.3412 15.0373 12.6274 15.3235C12.9136 15.6097 13.3018 15.7705 13.7065 15.7705H15.8432C16.2479 15.7705 16.6361 15.6097 16.9223 15.3235C17.2085 15.0373 17.3693 14.6491 17.3693 14.2443V3.25594C17.3693 2.52737 17.0799 1.82863 16.5647 1.31345C16.0495 0.798275 15.3508 0.50885 14.6222 0.50885ZM5.16003 11.192V6.91873H15.5379V11.192H5.16003ZM6.07573 2.34025H14.6222C14.8651 2.34025 15.098 2.43672 15.2697 2.60845C15.4415 2.78017 15.5379 3.01308 15.5379 3.25594V5.08734H5.16003V3.25594C5.16003 3.01308 5.25651 2.78017 5.42823 2.60845C5.59996 2.43672 5.83287 2.34025 6.07573 2.34025ZM6.68619 13.9391H5.16003V13.0234H6.68619V13.9391ZM14.0118 13.9391V13.0234H15.5379V13.9391H14.0118ZM8.82282 9.05536C8.82282 9.29684 8.75122 9.53289 8.61706 9.73368C8.4829 9.93446 8.29222 10.0909 8.06912 10.1834C7.84603 10.2758 7.60054 10.2999 7.3637 10.2528C7.12686 10.2057 6.90931 10.0894 6.73856 9.91869C6.56781 9.74794 6.45153 9.53039 6.40442 9.29355C6.35731 9.05672 6.38149 8.81123 6.4739 8.58813C6.56631 8.36504 6.7228 8.17435 6.92358 8.0402C7.12436 7.90604 7.36041 7.83443 7.60189 7.83443C7.9257 7.83443 8.23625 7.96307 8.46522 8.19203C8.69419 8.421 8.82282 8.73155 8.82282 9.05536ZM14.317 9.05536C14.317 9.29684 14.2454 9.53289 14.1112 9.73368C13.9771 9.93446 13.7864 10.0909 13.5633 10.1834C13.3402 10.2758 13.0947 10.2999 12.8579 10.2528C12.621 10.2057 12.4035 10.0894 12.2327 9.91869C12.062 9.74794 11.9457 9.53039 11.8986 9.29355C11.8515 9.05672 11.8757 8.81123 11.9681 8.58813C12.0605 8.36504 12.217 8.17435 12.4178 8.0402C12.6185 7.90604 12.8546 7.83443 13.0961 7.83443C13.4199 7.83443 13.7304 7.96307 13.9594 8.19203C14.1884 8.421 14.317 8.73155 14.317 9.05536ZM20.1164 4.47687V6.30827C20.1164 6.55113 20.02 6.78404 19.8482 6.95576C19.6765 7.12749 19.4436 7.22397 19.2007 7.22397C18.9579 7.22397 18.725 7.12749 18.5532 6.95576C18.3815 6.78404 18.285 6.55113 18.285 6.30827V4.47687C18.285 4.23402 18.3815 4.0011 18.5532 3.82938C18.725 3.65765 18.9579 3.56118 19.2007 3.56118C19.4436 3.56118 19.6765 3.65765 19.8482 3.82938C20.02 4.0011 20.1164 4.23402 20.1164 4.47687ZM2.41294 4.47687V6.30827C2.41294 6.55113 2.31646 6.78404 2.14474 6.95576C1.97301 7.12749 1.7401 7.22397 1.49724 7.22397C1.25438 7.22397 1.02147 7.12749 0.849745 6.95576C0.678018 6.78404 0.581543 6.55113 0.581543 6.30827L0.581543 4.47687C0.581543 4.23402 0.678018 4.0011 0.849745 3.82938C1.02147 3.65765 1.25438 3.56118 1.49724 3.56118C1.7401 3.56118 1.97301 3.65765 2.14474 3.82938C2.31646 4.0011 2.41294 4.23402 2.41294 4.47687Z" fill="black"/>
</svg>
