<svg width="18" height="15" viewBox="0 0 18 15" fill="none" xmlns="http://www.w3.org/2000/svg">
<path d="M16.9715 2.9435L15.4957 1.46922C15.3811 1.35468 15.2258 1.29032 15.0638 1.29032C14.9018 1.29032 14.7464 1.35468 14.6319 1.46922C14.5173 1.58377 14.453 1.73913 14.453 1.90113C14.453 2.06312 14.5173 2.21848 14.6319 2.33303L16.1061 3.80883C16.22 3.92285 16.2842 4.07729 16.2847 4.23845V10.4476C16.2847 10.6095 16.2204 10.7648 16.1059 10.8793C15.9914 10.9938 15.8361 11.0581 15.6742 11.0581C15.5123 11.0581 15.357 10.9938 15.2426 10.8793C15.1281 10.7648 15.0638 10.6095 15.0638 10.4476V7.39531C15.0638 6.9096 14.8708 6.44377 14.5274 6.10032C14.1839 5.75687 13.7181 5.56392 13.2324 5.56392H12.0114V1.90113C12.0114 1.41541 11.8185 0.949589 11.475 0.606136C11.1316 0.262683 10.6658 0.0697327 10.18 0.0697327H4.07539C3.58967 0.0697327 3.12385 0.262683 2.7804 0.606136C2.43694 0.949589 2.24399 1.41541 2.24399 1.90113V13.5H1.02306C0.861157 13.5 0.705883 13.5643 0.591399 13.6788C0.476914 13.7933 0.412598 13.9485 0.412598 14.1104C0.412598 14.2723 0.476914 14.4276 0.591399 14.5421C0.705883 14.6566 0.861157 14.7209 1.02306 14.7209H13.2324C13.3943 14.7209 13.5495 14.6566 13.664 14.5421C13.7785 14.4276 13.8428 14.2723 13.8428 14.1104C13.8428 13.9485 13.7785 13.7933 13.664 13.6788C13.5495 13.5643 13.3943 13.5 13.2324 13.5H12.0114V6.78485H13.2324C13.3943 6.78485 13.5495 6.84917 13.664 6.96365C13.7785 7.07813 13.8428 7.23341 13.8428 7.39531V10.4476C13.8428 10.9334 14.0358 11.3992 14.3792 11.7426C14.7227 12.0861 15.1885 12.279 15.6742 12.279C16.1599 12.279 16.6258 12.0861 16.9692 11.7426C17.3127 11.3992 17.5056 10.9334 17.5056 10.4476V4.23845C17.5065 3.99802 17.4598 3.75979 17.3681 3.53752C17.2764 3.31526 17.1416 3.11336 16.9715 2.9435ZM9.56957 6.78485H4.68585C4.52395 6.78485 4.36867 6.72053 4.25419 6.60605C4.1397 6.49156 4.07539 6.33629 4.07539 6.17438C4.07539 6.01248 4.1397 5.8572 4.25419 5.74272C4.36867 5.62824 4.52395 5.56392 4.68585 5.56392H9.56957C9.73148 5.56392 9.88675 5.62824 10.0012 5.74272C10.1157 5.8572 10.18 6.01248 10.18 6.17438C10.18 6.33629 10.1157 6.49156 10.0012 6.60605C9.88675 6.72053 9.73148 6.78485 9.56957 6.78485Z" fill="black"/>
</svg>
