<svg width="21" height="13" viewBox="0 0 21 13" fill="none" xmlns="http://www.w3.org/2000/svg">
<path d="M15.8445 1.67448V11.4419C15.8445 11.7657 15.7159 12.0763 15.4869 12.3053C15.2579 12.5342 14.9474 12.6629 14.6236 12.6629H13.4027C13.0788 12.6629 12.7683 12.5342 12.5393 12.3053C12.3104 12.0763 12.1817 11.7657 12.1817 11.4419V7.16867H8.51893V11.4419C8.51893 11.7657 8.3903 12.0763 8.16133 12.3053C7.93236 12.5342 7.62181 12.6629 7.298 12.6629H6.07707C5.75326 12.6629 5.44271 12.5342 5.21374 12.3053C4.98477 12.0763 4.85614 11.7657 4.85614 11.4419V1.67448C4.85614 1.35067 4.98477 1.04012 5.21374 0.811154C5.44271 0.582186 5.75326 0.453552 6.07707 0.453552H7.298C7.62181 0.453552 7.93236 0.582186 8.16133 0.811154C8.3903 1.04012 8.51893 1.35067 8.51893 1.67448V5.94774H12.1817V1.67448C12.1817 1.35067 12.3104 1.04012 12.5393 0.811154C12.7683 0.582186 13.0788 0.453552 13.4027 0.453552H14.6236C14.9474 0.453552 15.2579 0.582186 15.4869 0.811154C15.7159 1.04012 15.8445 1.35067 15.8445 1.67448ZM3.32998 2.28495H3.02474C2.70093 2.28495 2.39039 2.41358 2.16142 2.64255C1.93245 2.87152 1.80381 3.18207 1.80381 3.50588V5.94774H1.21395C1.0562 5.94541 0.903413 6.0029 0.786332 6.10866C0.669251 6.21441 0.596561 6.36058 0.582884 6.51776C0.57734 6.60126 0.589024 6.68502 0.61721 6.76381C0.645396 6.84261 0.689483 6.91477 0.746733 6.97581C0.803982 7.03686 0.87317 7.08547 0.950001 7.11865C1.02683 7.15183 1.10966 7.16885 1.19335 7.16867H1.80381V9.61053C1.80381 9.93434 1.93245 10.2449 2.16142 10.4739C2.39039 10.7028 2.70093 10.8315 3.02474 10.8315H3.32998C3.41093 10.8315 3.48857 10.7993 3.54581 10.7421C3.60305 10.6848 3.63521 10.6072 3.63521 10.5262V2.59018C3.63521 2.50923 3.60305 2.43159 3.54581 2.37435C3.48857 2.31711 3.41093 2.28495 3.32998 2.28495ZM20.1178 6.51776C20.1041 6.36085 20.0316 6.2149 19.9149 6.10918C19.7981 6.00347 19.6457 5.9458 19.4882 5.94774H18.8968V3.50588C18.8968 3.18207 18.7682 2.87152 18.5392 2.64255C18.3103 2.41358 17.9997 2.28495 17.6759 2.28495H17.3707C17.2897 2.28495 17.2121 2.31711 17.1548 2.37435C17.0976 2.43159 17.0654 2.50923 17.0654 2.59018V10.5262C17.0654 10.6072 17.0976 10.6848 17.1548 10.7421C17.2121 10.7993 17.2897 10.8315 17.3707 10.8315H17.6759C17.9997 10.8315 18.3103 10.7028 18.5392 10.4739C18.7682 10.2449 18.8968 9.93434 18.8968 9.61053V7.16867H19.5073C19.591 7.16885 19.6738 7.15183 19.7507 7.11865C19.8275 7.08547 19.8967 7.03686 19.9539 6.97581C20.0112 6.91477 20.0553 6.84261 20.0834 6.76381C20.1116 6.68502 20.1233 6.60126 20.1178 6.51776Z" fill="black"/>
</svg>
