<svg width="15" height="18" viewBox="0 0 15 18" fill="none" xmlns="http://www.w3.org/2000/svg">
<path d="M10.4012 5.66863C10.4012 5.83054 10.3368 5.98581 10.2224 6.1003C10.1079 6.21478 9.95261 6.2791 9.7907 6.2791H4.90698C4.74507 6.2791 4.5898 6.21478 4.47532 6.1003C4.36083 5.98581 4.29651 5.83054 4.29651 5.66863C4.29651 5.50673 4.36083 5.35145 4.47532 5.23697C4.5898 5.12248 4.74507 5.05817 4.90698 5.05817H9.7907C9.95261 5.05817 10.1079 5.12248 10.2224 5.23697C10.3368 5.35145 10.4012 5.50673 10.4012 5.66863ZM14.6531 8.27074L12.9445 14.5364C12.874 14.7948 12.7205 15.0229 12.5076 15.1855C12.2947 15.3481 12.0342 15.4361 11.7663 15.4361H11.0116L12.1105 16.9012C12.1586 16.9653 12.1936 17.0383 12.2135 17.116C12.2334 17.1936 12.2378 17.2744 12.2264 17.3538C12.2151 17.4332 12.1882 17.5095 12.1474 17.5785C12.1065 17.6475 12.0525 17.7077 11.9884 17.7558C11.9242 17.8039 11.8513 17.8389 11.7736 17.8588C11.6959 17.8787 11.6151 17.8831 11.5358 17.8718C11.4564 17.8605 11.38 17.8336 11.3111 17.7928C11.2421 17.7519 11.1818 17.6979 11.1337 17.6337L9.48547 15.4361H5.21221L3.56396 17.6337C3.51586 17.6979 3.4556 17.7519 3.38661 17.7928C3.31763 17.8336 3.24128 17.8605 3.16192 17.8718C3.08256 17.8831 3.00174 17.8787 2.92408 17.8588C2.84642 17.8389 2.77344 17.8039 2.70931 17.7558C2.64517 17.7077 2.59114 17.6475 2.5503 17.5785C2.50945 17.5095 2.48259 17.4332 2.47126 17.3538C2.45992 17.2744 2.46432 17.1936 2.48422 17.116C2.50412 17.0383 2.53911 16.9653 2.58721 16.9012L3.68605 15.4361H2.93136C2.66348 15.4361 2.403 15.3481 2.19009 15.1855C1.97718 15.0229 1.82365 14.7948 1.75316 14.5364L0.0446258 8.27074C0.0163747 8.16578 0.0163747 8.05521 0.0446258 7.95025L1.75316 1.68459C1.82365 1.42614 1.97718 1.19805 2.19009 1.03547C2.403 0.872891 2.66348 0.784848 2.93136 0.784912H11.7663C12.0342 0.784848 12.2947 0.872891 12.5076 1.03547C12.7205 1.19805 12.874 1.42614 12.9445 1.68459L14.6531 7.95025C14.6813 8.05521 14.6813 8.16578 14.6531 8.27074ZM7.9593 10.5524C7.9593 10.3904 7.89499 10.2352 7.7805 10.1207C7.66602 10.0062 7.51075 9.94189 7.34884 9.94189C7.18693 9.94189 7.03166 10.0062 6.91718 10.1207C6.80269 10.2352 6.73837 10.3904 6.73837 10.5524V13.6047C6.73837 13.7666 6.80269 13.9219 6.91718 14.0363C7.03166 14.1508 7.18693 14.2151 7.34884 14.2151C7.51075 14.2151 7.66602 14.1508 7.7805 14.0363C7.89499 13.9219 7.9593 13.7666 7.9593 13.6047V10.5524ZM13.3009 7.62899L11.7663 2.00584H2.93136L1.39681 7.62899L7.34884 8.71104L13.3009 7.62899Z" fill="black"/>
</svg>
