<svg width="13" height="15" viewBox="0 0 13 15" fill="none" xmlns="http://www.w3.org/2000/svg">
<g id="Group">
<path id="Vector" fill-rule="evenodd" clip-rule="evenodd" d="M7.06388 1.05804C7.59534 0.482047 8.31651 0.11474 9.09663 0.0227216C9.87675 -0.0692969 10.6642 0.120066 11.3161 0.556473L11.4535 0.653746L11.7 0.837654C12.0364 1.08872 12.3137 1.40976 12.5128 1.77843C12.7118 2.1471 12.8278 2.55453 12.8526 2.97235L12.8571 3.14182V14.2409C12.8569 14.4346 12.7824 14.6209 12.6489 14.7617C12.5153 14.9026 12.3328 14.9873 12.1386 14.9987C11.9444 15.01 11.7532 14.9471 11.604 14.8228C11.4548 14.6985 11.3589 14.5221 11.3359 14.3298L11.3306 14.2409V3.14182C11.3302 2.95229 11.2902 2.76491 11.2132 2.59157C11.1362 2.41823 11.0239 2.26272 10.8833 2.13489L10.7841 2.05357L10.5375 1.86967C10.2561 1.65894 9.91757 1.53735 9.56584 1.52068C9.21412 1.50401 8.86549 1.59304 8.56524 1.77619L8.44846 1.85447L9.02702 2.18733C9.70398 2.57638 10.2053 3.20912 10.4277 3.9552C10.65 4.70127 10.5765 5.50385 10.2223 6.19758L10.1445 6.33969L9.76282 6.99781C9.66927 7.1589 9.51961 7.28022 9.34221 7.33876C9.16481 7.39731 8.972 7.38902 8.80033 7.31547L8.72019 7.27595L2.11022 3.4762C1.94824 3.38304 1.82627 3.2339 1.76745 3.0571C1.70863 2.8803 1.71707 2.68816 1.79117 2.51714L1.83086 2.43811L2.2125 1.77999C2.60325 1.10599 3.23877 0.606867 3.98811 0.385462C4.73745 0.164057 5.54353 0.237232 6.2403 0.58991L6.38304 0.667425L7.06388 1.05804ZM2.74374 9.98289C2.91904 10.0837 3.04696 10.2497 3.09935 10.4443C3.15174 10.639 3.12431 10.8464 3.0231 11.021L2.64146 11.6791C2.59171 11.7662 2.52514 11.8427 2.44558 11.9041C2.36603 11.9655 2.27506 12.0106 2.17791 12.0369C2.08077 12.0632 1.97937 12.07 1.87955 12.0571C1.77973 12.0442 1.68346 12.0117 1.59628 11.9616C1.50911 11.9115 1.43275 11.8447 1.37161 11.7651C1.31046 11.6855 1.26574 11.5946 1.24001 11.4977C1.21428 11.4008 1.20805 11.2998 1.22169 11.2005C1.23533 11.1012 1.26856 11.0056 1.31946 10.9192L1.7011 10.261C1.80232 10.0865 1.96903 9.95914 2.16456 9.90697C2.36009 9.85481 2.56843 9.88212 2.74374 9.98289ZM4.44737 10.0847C4.54411 9.91556 4.70236 9.7898 4.88948 9.73339C5.07661 9.67698 5.27835 9.69422 5.45309 9.78155C5.62782 9.86888 5.76224 10.0196 5.82862 10.2027C5.89499 10.3858 5.88826 10.5873 5.80982 10.7656L5.76936 10.8447L5.38772 11.5028C5.29013 11.6703 5.13201 11.7943 4.94565 11.8497C4.75929 11.905 4.55874 11.8874 4.38496 11.8005C4.21117 11.7136 4.07726 11.5639 4.01056 11.3821C3.94385 11.2002 3.94939 10.9998 4.02604 10.8219L4.06573 10.7428L4.44737 10.0847ZM1.52402 7.52673C1.69933 7.62751 1.82724 7.7935 1.87963 7.98818C1.93202 8.18286 1.90459 8.39028 1.80338 8.56483L1.42174 9.22294C1.31981 9.39606 1.15323 9.52202 0.958372 9.57331C0.763511 9.6246 0.556183 9.59708 0.381631 9.49673C0.20708 9.39639 0.0794761 9.23138 0.0266665 9.03772C-0.026143 8.84405 0.000128875 8.63745 0.0997492 8.46299L0.481387 7.80488C0.582607 7.63034 0.749319 7.50298 0.944849 7.45082C1.14038 7.39865 1.34871 7.42596 1.52402 7.52673ZM4.27029 7.35043C4.44559 7.4512 4.57351 7.61719 4.6259 7.81187C4.67829 8.00655 4.65086 8.21397 4.54965 8.38852L4.16801 9.04663C4.11826 9.13376 4.05169 9.21023 3.97213 9.27163C3.89258 9.33304 3.80161 9.37817 3.70447 9.40443C3.60732 9.43069 3.50592 9.43755 3.4061 9.42464C3.30628 9.41172 3.21001 9.37927 3.12283 9.32916C3.03566 9.27904 2.9593 9.21226 2.89816 9.13265C2.83701 9.05303 2.79229 8.96216 2.76656 8.86527C2.74083 8.76838 2.7346 8.66737 2.74824 8.56808C2.76188 8.46878 2.79511 8.37315 2.84602 8.28668L3.22765 7.62857C3.32887 7.45403 3.49559 7.32667 3.69112 7.27451C3.88665 7.22235 4.09498 7.24965 4.27029 7.35043ZM5.97392 7.45226C6.07101 7.28392 6.22913 7.15895 6.41582 7.10299C6.60252 7.04704 6.80365 7.06434 6.97794 7.15135C7.15223 7.23836 7.28647 7.38848 7.35312 7.57091C7.41977 7.75334 7.41378 7.95425 7.33637 8.13241L7.29591 8.21221L6.91428 8.87033C6.81668 9.0378 6.65856 9.16187 6.4722 9.2172C6.28584 9.27253 6.08529 9.25495 5.91151 9.16805C5.73773 9.08115 5.60381 8.93148 5.53711 8.74961C5.4704 8.56773 5.47594 8.36736 5.55259 8.18941L5.59228 8.11038L5.97392 7.45226ZM3.05057 4.89351C3.22588 4.99429 3.35379 5.16027 3.40618 5.35495C3.45857 5.54963 3.43114 5.75705 3.32993 5.9316L2.94829 6.58972C2.84636 6.76284 2.67978 6.88879 2.48492 6.94008C2.29006 6.99138 2.08273 6.96385 1.90818 6.86351C1.73363 6.76317 1.60603 6.59816 1.55322 6.40449C1.50041 6.21082 1.52668 6.00422 1.6263 5.82977L2.00794 5.17165C2.10916 4.99711 2.27587 4.86975 2.4714 4.81759C2.66693 4.76543 2.87527 4.79274 3.05057 4.89351ZM3.53449 2.53918L8.82247 5.57898C9.02489 5.22989 9.07975 4.81504 8.97497 4.42568C8.87019 4.03633 8.61436 3.70436 8.26375 3.5028L5.61976 1.9829C5.26914 1.78136 4.85248 1.72674 4.46141 1.83106C4.07035 1.93538 3.73693 2.1901 3.53449 2.53918Z" fill="#263069"/>
</g>
</svg>
