<svg width="13" height="11" viewBox="0 0 13 11" fill="none" xmlns="http://www.w3.org/2000/svg">
<path id="Vector" d="M3.03937 6.17164C3.04084 6.20242 3.03632 6.2332 3.02609 6.26209C3.01586 6.29098 3.00014 6.31739 2.97987 6.3397C2.9596 6.36202 2.93521 6.37978 2.90818 6.3919C2.88116 6.40402 2.85207 6.41025 2.82268 6.41022H0.432547C0.334729 6.41037 0.239737 6.37582 0.16302 6.31219C0.0863018 6.24856 0.03237 6.15959 0.0099942 6.05974C-0.00393869 5.9914 -0.00329639 5.92068 0.0118751 5.85263C0.0270466 5.78458 0.0563725 5.72088 0.0977551 5.6661C0.480116 5.13442 0.98744 4.71579 1.57019 4.4511C1.31434 4.20651 1.11811 3.9012 0.997942 3.56074C0.877769 3.22028 0.837149 2.85458 0.879485 2.49428C0.92182 2.13397 1.04588 1.78955 1.24127 1.48985C1.43666 1.19016 1.69769 0.943919 2.00251 0.771756C2.30732 0.599592 2.64705 0.506519 2.99322 0.50033C3.3394 0.494142 3.68195 0.575018 3.99218 0.736186C4.30242 0.897354 4.5713 1.13412 4.77633 1.42666C4.98135 1.71919 5.11653 2.05898 5.17055 2.41756C5.17753 2.46578 5.16929 2.51507 5.14709 2.55793C5.1249 2.60079 5.08995 2.63488 5.04758 2.655C4.44647 2.94638 3.93739 3.41197 3.5804 3.99683C3.22342 4.58169 3.03344 5.26141 3.03287 5.95579C3.03287 6.0285 3.03287 6.10007 3.03937 6.17164ZM12.8989 5.66553C12.5175 5.13447 12.0113 4.71607 11.4298 4.4511C11.6856 4.20651 11.8818 3.9012 12.002 3.56074C12.1222 3.22028 12.1628 2.85458 12.1205 2.49428C12.0781 2.13397 11.9541 1.78955 11.7587 1.48985C11.5633 1.19016 11.3022 0.943919 10.9974 0.771756C10.6926 0.599592 10.3529 0.506519 10.0067 0.50033C9.66054 0.494142 9.318 0.575018 9.00776 0.736186C8.69752 0.897354 8.42864 1.13412 8.22362 1.42666C8.01859 1.71919 7.88341 2.05898 7.82939 2.41756C7.82241 2.46578 7.83065 2.51507 7.85285 2.55793C7.87504 2.60079 7.90999 2.63488 7.95236 2.655C8.55347 2.94638 9.06255 3.41197 9.41954 3.99683C9.77652 4.58169 9.9665 5.26141 9.96707 5.95579C9.96707 6.0285 9.96707 6.10007 9.96057 6.17164C9.9591 6.20242 9.96362 6.2332 9.97385 6.26209C9.98408 6.29098 9.9998 6.31739 10.0201 6.3397C10.0403 6.36202 10.0647 6.37978 10.0918 6.3919C10.1188 6.40402 10.1479 6.41025 10.1773 6.41022H12.5674C12.6652 6.41037 12.7602 6.37582 12.8369 6.31219C12.9136 6.24856 12.9676 6.15959 12.9899 6.05974C13.004 5.99128 13.0033 5.9204 12.988 5.85223C12.9728 5.78406 12.9433 5.7203 12.9016 5.66553H12.8989ZM8.0775 8.11827C8.50902 7.77175 8.82613 7.29217 8.98427 6.74692C9.14242 6.20167 9.13364 5.61816 8.95916 5.07842C8.78469 4.53867 8.4533 4.06982 8.01157 3.73775C7.56984 3.40568 7.03998 3.2271 6.49645 3.2271C5.95292 3.2271 5.42306 3.40568 4.98133 3.73775C4.53959 4.06982 4.2082 4.53867 4.03373 5.07842C3.85926 5.61816 3.85048 6.20167 4.00862 6.74692C4.16676 7.29217 4.48388 7.77175 4.9154 8.11827C4.14968 8.46614 3.51028 9.06192 3.09084 9.81837C3.0528 9.88746 3.03277 9.96583 3.03277 10.0456C3.03278 10.1254 3.05281 10.2037 3.09086 10.2728C3.12891 10.3419 3.18363 10.3993 3.24953 10.4392C3.31543 10.479 3.39018 10.5 3.46626 10.5H9.53368C9.60977 10.5 9.68451 10.479 9.75041 10.4392C9.81631 10.3993 9.87103 10.3419 9.90908 10.2728C9.94713 10.2037 9.96716 10.1254 9.96717 10.0456C9.96717 9.96583 9.94715 9.88746 9.9091 9.81837C9.48876 9.06143 8.84818 8.4656 8.08129 8.11827H8.0775Z" fill="#263069"/>
</svg>
