<svg width="5" height="17" viewBox="0 0 5 17" fill="none" xmlns="http://www.w3.org/2000/svg">
<path id="Vector" d="M4.27326 8.50007C4.27326 8.92266 4.14795 9.33575 3.91317 9.68712C3.67839 10.0385 3.3447 10.3123 2.95428 10.4741C2.56386 10.6358 2.13426 10.6781 1.71979 10.5956C1.30533 10.5132 0.924618 10.3097 0.625805 10.0109C0.326992 9.71208 0.123498 9.33137 0.0410557 8.91691C-0.0413866 8.50244 0.000925765 8.07284 0.162642 7.68242C0.324358 7.292 0.598215 6.9583 0.949582 6.72353C1.30095 6.48875 1.71404 6.36344 2.13663 6.36344C2.7033 6.36344 3.24676 6.58855 3.64745 6.98925C4.04815 7.38994 4.27326 7.9334 4.27326 8.50007ZM2.13663 4.53205C2.55921 4.53205 2.97231 4.40674 3.32368 4.17196C3.67504 3.93718 3.9489 3.60349 4.11062 3.21307C4.27233 2.82265 4.31464 2.39305 4.2322 1.97858C4.14976 1.56412 3.94627 1.18341 3.64745 0.884594C3.34864 0.585781 2.96793 0.382287 2.55346 0.299845C2.139 0.217402 1.70939 0.259715 1.31898 0.421431C0.928559 0.583147 0.594863 0.857005 0.360088 1.20837C0.125312 1.55974 1.15091e-06 1.97283 1.15091e-06 2.39542C1.15091e-06 2.96209 0.22511 3.50555 0.625805 3.90624C1.0265 4.30694 1.56996 4.53205 2.13663 4.53205ZM2.13663 12.4681C1.71404 12.4681 1.30095 12.5934 0.949582 12.8282C0.598215 13.063 0.324358 13.3967 0.162642 13.7871C0.000925765 14.1775 -0.0413866 14.6071 0.0410557 15.0216C0.123498 15.436 0.326992 15.8167 0.625805 16.1155C0.924618 16.4144 1.30533 16.6179 1.71979 16.7003C2.13426 16.7827 2.56386 16.7404 2.95428 16.5787C3.3447 16.417 3.67839 16.1431 3.91317 15.7918C4.14795 15.4404 4.27326 15.0273 4.27326 14.6047C4.27326 14.0381 4.04815 13.4946 3.64745 13.0939C3.24676 12.6932 2.7033 12.4681 2.13663 12.4681Z" fill="#263069"/>
</svg>
