<svg width="12" height="15" viewBox="0 0 12 15" fill="none" xmlns="http://www.w3.org/2000/svg">
<path id="Vector" d="M11.992 2.48318C11.9783 2.5715 11.9485 2.65422 11.9052 2.72429C11.8618 2.79436 11.8061 2.84972 11.7429 2.88567L8.73249 4.59856C9.71197 4.94073 10.5475 5.77683 11.0555 6.92325C11.3104 7.49153 11.4758 8.12062 11.542 8.77358C11.6083 9.42654 11.574 10.0902 11.4412 10.7256C11.4229 10.8142 11.3882 10.8955 11.3401 10.9624C11.2921 11.0293 11.2322 11.0797 11.1658 11.1093C11.0993 11.1389 11.0283 11.1467 10.959 11.132C10.8897 11.1174 10.8243 11.0807 10.7683 11.0252L6.42876 6.70765V13.94C6.42876 14.0885 6.38361 14.231 6.30323 14.336C6.22285 14.441 6.11383 14.5 6.00016 14.5C5.88649 14.5 5.77747 14.441 5.69709 14.336C5.61671 14.231 5.57156 14.0885 5.57156 13.94V6.70765L1.23198 11.0252C1.17606 11.0809 1.11053 11.1177 1.04116 11.1324C0.971791 11.1472 0.90071 11.1394 0.834179 11.1098C0.767649 11.0802 0.70771 11.0297 0.659642 10.9627C0.611574 10.8957 0.576853 10.8143 0.558537 10.7256C0.425765 10.0902 0.391494 9.42654 0.457735 8.77358C0.523976 8.12062 0.689394 7.49153 0.944277 6.92325C1.45243 5.77668 2.28815 4.94056 3.26783 4.59856L0.257445 2.88567C0.194246 2.84971 0.13862 2.79435 0.0952842 2.72431C0.0519489 2.65427 0.0221835 2.5716 0.00851285 2.48332C-0.00515776 2.39504 -0.00233017 2.30376 0.0167559 2.21722C0.035842 2.13067 0.0706233 2.05142 0.118149 1.98618C0.453285 1.5172 0.858646 1.14326 1.30905 0.887594C1.75946 0.63193 2.24529 0.5 2.73636 0.5C3.22744 0.5 3.71327 0.63193 4.16368 0.887594C4.61408 1.14326 5.01944 1.5172 5.35458 1.98618C5.61173 2.34021 5.82828 2.74103 5.99748 3.17617C6.16751 2.74081 6.38497 2.33998 6.64306 1.98618C6.9782 1.5172 7.38356 1.14326 7.83396 0.887594C8.28437 0.63193 8.7702 0.5 9.26128 0.5C9.75235 0.5 10.2382 0.63193 10.6886 0.887594C11.139 1.14326 11.5444 1.5172 11.8795 1.98618C11.9275 2.05105 11.9628 2.13011 11.9824 2.21665C12.002 2.30318 12.0053 2.39462 11.992 2.48318Z" fill="#263069"/>
</svg>
