<svg width="16" height="11" viewBox="0 0 16 11" fill="none" xmlns="http://www.w3.org/2000/svg">
<path id="Vector" d="M12.4994 1.1V9.9C12.4994 10.1917 12.394 10.4715 12.2065 10.6778C12.019 10.8841 11.7647 11 11.4995 11H10.4997C10.2345 11 9.98016 10.8841 9.79265 10.6778C9.60514 10.4715 9.49979 10.1917 9.49979 9.9V6.05H6.50021V9.9C6.50021 10.1917 6.39486 10.4715 6.20735 10.6778C6.01984 10.8841 5.76552 11 5.50034 11H4.50048C4.2353 11 3.98098 10.8841 3.79347 10.6778C3.60596 10.4715 3.50062 10.1917 3.50062 9.9V1.1C3.50062 0.808262 3.60596 0.528472 3.79347 0.322183C3.98098 0.115892 4.2353 0 4.50048 0H5.50034C5.76552 0 6.01984 0.115892 6.20735 0.322183C6.39486 0.528472 6.50021 0.808262 6.50021 1.1V4.95H9.49979V1.1C9.49979 0.808262 9.60514 0.528472 9.79265 0.322183C9.98016 0.115892 10.2345 0 10.4997 0H11.4995C11.7647 0 12.019 0.115892 12.2065 0.322183C12.394 0.528472 12.4994 0.808262 12.4994 1.1ZM2.25079 1.65H2.00082C1.73564 1.65 1.48132 1.76589 1.29381 1.97218C1.1063 2.17847 1.00096 2.45826 1.00096 2.75V4.95H0.517902C0.388711 4.9479 0.263591 4.9997 0.167709 5.09498C0.0718274 5.19026 0.012299 5.32195 0.00109844 5.46356C-0.00344214 5.5388 0.00612615 5.61425 0.029209 5.68525C0.0522918 5.75624 0.0883962 5.82125 0.13528 5.87625C0.182163 5.93124 0.238824 5.97505 0.301743 6.00494C0.364662 6.03483 0.432495 6.05017 0.50103 6.05H1.00096V8.25C1.00096 8.54174 1.1063 8.82153 1.29381 9.02782C1.48132 9.23411 1.73564 9.35 2.00082 9.35H2.25079C2.31708 9.35 2.38066 9.32103 2.42754 9.26945C2.47442 9.21788 2.50076 9.14793 2.50076 9.075V1.925C2.50076 1.85207 2.47442 1.78212 2.42754 1.73055C2.38066 1.67897 2.31708 1.65 2.25079 1.65ZM15.9989 5.46356C15.9877 5.32219 15.9284 5.1907 15.8327 5.09546C15.7371 5.00021 15.6123 4.94825 15.4833 4.95H14.999V2.75C14.999 2.45826 14.8937 2.17847 14.7062 1.97218C14.5187 1.76589 14.2644 1.65 13.9992 1.65H13.7492C13.6829 1.65 13.6193 1.67897 13.5725 1.73055C13.5256 1.78212 13.4992 1.85207 13.4992 1.925V9.075C13.4992 9.14793 13.5256 9.21788 13.5725 9.26945C13.6193 9.32103 13.6829 9.35 13.7492 9.35H13.9992C14.2644 9.35 14.5187 9.23411 14.7062 9.02782C14.8937 8.82153 14.999 8.54174 14.999 8.25V6.05H15.499C15.5675 6.05017 15.6353 6.03483 15.6983 6.00494C15.7612 5.97505 15.8178 5.93124 15.8647 5.87625C15.9116 5.82125 15.9477 5.75624 15.9708 5.68525C15.9939 5.61425 16.0034 5.5388 15.9989 5.46356Z" fill="#263069"/>
</svg>
