<svg width="16" height="17" viewBox="0 0 16 17" fill="none" xmlns="http://www.w3.org/2000/svg">
<path id="Vector" d="M16 9.0709V11.3565C16 11.508 15.9398 11.6534 15.8326 11.7605C15.7255 11.8677 15.5801 11.9279 15.4286 11.9279C15.3909 11.928 15.3533 11.9241 15.3164 11.9164L10 10.8565V12.5514L11.2614 13.812C11.3679 13.9186 11.4279 14.0628 11.4286 14.2134V15.9276C11.4287 16.0213 11.4059 16.1135 11.362 16.1963C11.3181 16.279 11.2546 16.3497 11.177 16.4021C11.0994 16.4545 11.0101 16.4871 10.9169 16.4969C10.8238 16.5067 10.7297 16.4934 10.6429 16.4583L8 15.4005L5.35714 16.4583C5.27032 16.4934 5.1762 16.5067 5.08306 16.4969C4.98992 16.4871 4.90062 16.4545 4.82301 16.4021C4.7454 16.3497 4.68187 16.279 4.638 16.1963C4.59413 16.1135 4.57127 16.0213 4.57143 15.9276V14.2134C4.57137 14.1384 4.5861 14.064 4.61478 13.9947C4.64346 13.9253 4.68552 13.8623 4.73857 13.8092L6 12.5485V10.8565L0.683572 11.9164C0.646688 11.9241 0.609105 11.928 0.571429 11.9279C0.419876 11.9279 0.274531 11.8677 0.167368 11.7605C0.060204 11.6534 1.46502e-07 11.508 1.46502e-07 11.3565V9.0709C-7.58574e-05 8.96475 0.0294222 8.86067 0.0851868 8.77034C0.140951 8.68002 0.220778 8.60701 0.315714 8.5595L6 5.71825V2.49988C6 1.96948 6.21071 1.4608 6.58579 1.08575C6.96086 0.710701 7.46957 0.5 8 0.5C8.53043 0.5 9.03914 0.710701 9.41421 1.08575C9.78929 1.4608 10 1.96948 10 2.49988V5.71825L15.6843 8.5595C15.7792 8.60701 15.859 8.68002 15.9148 8.77034C15.9706 8.86067 16.0001 8.96475 16 9.0709Z" fill="#263069"/>
</svg>
