<svg width="14" height="13" viewBox="0 0 14 13" fill="none" xmlns="http://www.w3.org/2000/svg">
<path id="Vector" d="M7.27953 3.2501V6.19338L9.80811 7.66062C9.93547 7.7346 10.0272 7.85449 10.0632 7.99392C10.0992 8.13334 10.0764 8.28087 9.99992 8.40406C9.92343 8.52724 9.79947 8.616 9.65532 8.65079C9.51117 8.68558 9.35863 8.66356 9.23127 8.58958L6.43107 6.96458C6.34819 6.91642 6.27962 6.84833 6.23202 6.76693C6.18442 6.68554 6.15942 6.59361 6.15945 6.5001V3.2501C6.15945 3.10644 6.21845 2.96867 6.32348 2.86708C6.42851 2.7655 6.57096 2.70843 6.71949 2.70843C6.86802 2.70843 7.01047 2.7655 7.1155 2.86708C7.22053 2.96867 7.27953 3.10644 7.27953 3.2501ZM13.6542 1.6664C13.5519 1.62535 13.4392 1.61456 13.3306 1.63541C13.2219 1.65626 13.1221 1.70781 13.0437 1.78354L12.1799 2.62109C11.9538 2.38343 11.7206 2.14713 11.4728 1.90406C10.5389 1.00063 9.35033 0.383438 8.05577 0.129598C6.7612 -0.124243 5.41799 -0.00347441 4.19398 0.476814C2.96998 0.957102 1.91945 1.77561 1.17366 2.83007C0.427867 3.88452 0.0198922 5.12817 0.000709026 6.4056C-0.0184742 7.68304 0.351985 8.93761 1.0658 10.0126C1.77961 11.0875 2.80512 11.9352 4.01419 12.4497C5.22326 12.9641 6.56227 13.1226 7.86391 12.9052C9.16556 12.6879 10.3721 12.1043 11.3328 11.2275C11.3863 11.1786 11.4293 11.12 11.4594 11.055C11.4895 10.99 11.5061 10.9199 11.5081 10.8488C11.5102 10.7776 11.4978 10.7067 11.4715 10.6402C11.4453 10.5737 11.4058 10.5128 11.3552 10.461C11.3047 10.4093 11.244 10.3677 11.1769 10.3386C11.1097 10.3095 11.0372 10.2935 10.9636 10.2915C10.89 10.2894 10.8168 10.3015 10.748 10.3269C10.6792 10.3522 10.6163 10.3905 10.5628 10.4394C9.76224 11.1699 8.75691 11.6562 7.67233 11.8373C6.58776 12.0185 5.47204 11.8865 4.46455 11.458C3.45707 11.0294 2.60248 10.3232 2.00755 9.4276C1.41261 8.532 1.10372 7.4867 1.11944 6.42229C1.13516 5.35788 1.47481 4.32155 2.09596 3.44276C2.7171 2.56396 3.59221 1.88167 4.61194 1.48111C5.63168 1.08055 6.75084 0.979489 7.82962 1.19054C8.90839 1.4016 9.89896 1.91542 10.6776 2.66781C10.9254 2.91021 11.1585 3.14854 11.3853 3.38755L10.2435 4.49187C10.1651 4.56763 10.1117 4.66418 10.0901 4.76931C10.0684 4.87444 10.0795 4.98342 10.1219 5.08244C10.1644 5.18147 10.2362 5.2661 10.3284 5.32561C10.4206 5.38513 10.5289 5.41685 10.6398 5.41677H13.44C13.5885 5.41677 13.7309 5.3597 13.836 5.25812C13.941 5.15653 14 5.01876 14 4.8751V2.16677C14 2.05964 13.9671 1.95492 13.9056 1.86585C13.844 1.77679 13.7565 1.70738 13.6542 1.6664Z" fill="#263069"/>
</svg>
