<svg width="12" height="15" viewBox="0 0 12 15" fill="none" xmlns="http://www.w3.org/2000/svg">
<path id="Vector" d="M7.43467 2.22222C7.43467 1.78271 7.56855 1.35306 7.81937 0.987622C8.07019 0.62218 8.42669 0.337352 8.8438 0.169158C9.2609 0.000962851 9.71987 -0.0430445 10.1627 0.0427004C10.6055 0.128445 11.0122 0.340091 11.3314 0.650875C11.6507 0.961658 11.8681 1.35762 11.9561 1.78869C12.0442 2.21976 11.999 2.66657 11.8262 3.07263C11.6535 3.47869 11.3609 3.82575 10.9855 4.06993C10.6101 4.31411 10.1688 4.44444 9.71733 4.44444C9.11193 4.44444 8.53133 4.21032 8.10325 3.79357C7.67516 3.37682 7.43467 2.81159 7.43467 2.22222ZM8.576 10C8.42465 10 8.2795 10.0585 8.17248 10.1627C8.06546 10.2669 8.00533 10.4082 8.00533 10.5556C8.00533 11.2148 7.80452 11.8593 7.42829 12.4075C7.05205 12.9556 6.5173 13.3829 5.89164 13.6352C5.26599 13.8874 4.57754 13.9535 3.91335 13.8248C3.24916 13.6962 2.63906 13.3788 2.16021 12.9126C1.68135 12.4464 1.35525 11.8525 1.22313 11.2059C1.09101 10.5593 1.15882 9.88903 1.41798 9.27994C1.67713 8.67086 2.11599 8.15026 2.67907 7.78399C3.24214 7.41772 3.90413 7.22222 4.58134 7.22222C4.73269 7.22222 4.87784 7.16369 4.98486 7.0595C5.09188 6.95532 5.152 6.81401 5.152 6.66667C5.152 6.51932 5.09188 6.37802 4.98486 6.27383C4.87784 6.16964 4.73269 6.11111 4.58134 6.11111C3.6784 6.11111 2.79574 6.37177 2.04498 6.86013C1.29421 7.3485 0.709061 8.04262 0.363522 8.85474C0.0179829 9.66685 -0.0724259 10.5605 0.103728 11.4226C0.279883 12.2848 0.714688 13.0767 1.35316 13.6982C1.99163 14.3198 2.8051 14.7431 3.69069 14.9146C4.57627 15.0861 5.49421 14.9981 6.32841 14.6617C7.16262 14.3253 7.87563 13.7556 8.37727 13.0248C8.87892 12.2939 9.14667 11.4346 9.14667 10.5556C9.14667 10.4082 9.08654 10.2669 8.97952 10.1627C8.8725 10.0585 8.72735 10 8.576 10ZM11.4293 7.77778H7.27916L8.50039 5.70972C8.57307 5.58661 8.59457 5.44109 8.56048 5.30303C8.52638 5.16497 8.43928 5.04485 8.31706 4.96736C7.09461 4.19368 5.6504 3.82005 4.19469 3.90087C2.73899 3.98168 1.34777 4.51272 0.223587 5.41667C0.162713 5.46207 0.111864 5.51896 0.0740785 5.58393C0.0362928 5.64889 0.0123453 5.72061 0.00366631 5.79478C-0.00501267 5.86896 0.00175518 5.94408 0.0235653 6.01566C0.0453753 6.08723 0.0817802 6.15379 0.130605 6.21136C0.179431 6.26893 0.239675 6.31633 0.307738 6.35073C0.375802 6.38513 0.450289 6.40582 0.52675 6.41156C0.60321 6.41731 0.680076 6.40799 0.752756 6.38417C0.825435 6.36035 0.892438 6.32251 0.94976 6.27292C1.81613 5.57819 2.87351 5.14731 3.9899 5.03406C5.10628 4.92081 6.2322 5.1302 7.22709 5.63611L5.79828 8.05556C5.74816 8.14007 5.72179 8.23595 5.72183 8.33354C5.72187 8.43113 5.74831 8.52699 5.79849 8.61147C5.84868 8.69594 5.92084 8.76606 6.00771 8.81477C6.09458 8.86347 6.19309 8.88903 6.29334 8.88889H10.7331L9.72875 13.7799C9.69913 13.9242 9.7296 14.0742 9.81347 14.1967C9.89733 14.3192 10.0277 14.4043 10.176 14.4333C10.2129 14.4407 10.2504 14.4444 10.288 14.4444C10.4197 14.4442 10.5473 14.3996 10.6491 14.3182C10.7509 14.2368 10.8207 14.1237 10.8465 13.9979L11.9879 8.44236C12.0044 8.36184 12.0024 8.27875 11.9821 8.19907C11.9617 8.11938 11.9234 8.04509 11.87 7.98153C11.8166 7.91798 11.7493 7.86674 11.6731 7.83151C11.597 7.79628 11.5137 7.77793 11.4293 7.77778Z" fill="#263069"/>
</svg>
