<svg width="13" height="13" viewBox="0 0 13 13" fill="none" xmlns="http://www.w3.org/2000/svg">
<path id="Vector" d="M12.5357 12.0714H11.1429V0.928571H11.6071C11.7303 0.928571 11.8484 0.879656 11.9354 0.792585C12.0225 0.705515 12.0714 0.587422 12.0714 0.464286C12.0714 0.341149 12.0225 0.223057 11.9354 0.135986C11.8484 0.0489157 11.7303 0 11.6071 0H1.39286C1.26972 0 1.15163 0.0489157 1.06456 0.135986C0.977487 0.223057 0.928571 0.341149 0.928571 0.464286C0.928571 0.587422 0.977487 0.705515 1.06456 0.792585C1.15163 0.879656 1.26972 0.928571 1.39286 0.928571H1.85714V12.0714H0.464286C0.341149 12.0714 0.223057 12.1203 0.135986 12.2074C0.0489157 12.2945 0 12.4126 0 12.5357C0 12.6588 0.0489157 12.7769 0.135986 12.864C0.223057 12.9511 0.341149 13 0.464286 13H12.5357C12.6588 13 12.7769 12.9511 12.864 12.864C12.9511 12.7769 13 12.6588 13 12.5357C13 12.4126 12.9511 12.2945 12.864 12.2074C12.7769 12.1203 12.6588 12.0714 12.5357 12.0714ZM4.17857 2.32143H5.57143C5.69456 2.32143 5.81266 2.37034 5.89973 2.45741C5.9868 2.54449 6.03571 2.66258 6.03571 2.78571C6.03571 2.90885 5.9868 3.02694 5.89973 3.11401C5.81266 3.20108 5.69456 3.25 5.57143 3.25H4.17857C4.05544 3.25 3.93734 3.20108 3.85027 3.11401C3.7632 3.02694 3.71429 2.90885 3.71429 2.78571C3.71429 2.66258 3.7632 2.54449 3.85027 2.45741C3.93734 2.37034 4.05544 2.32143 4.17857 2.32143ZM4.17857 4.64286H5.57143C5.69456 4.64286 5.81266 4.69177 5.89973 4.77884C5.9868 4.86591 6.03571 4.98401 6.03571 5.10714C6.03571 5.23028 5.9868 5.34837 5.89973 5.43544C5.81266 5.52251 5.69456 5.57143 5.57143 5.57143H4.17857C4.05544 5.57143 3.93734 5.52251 3.85027 5.43544C3.7632 5.34837 3.71429 5.23028 3.71429 5.10714C3.71429 4.98401 3.7632 4.86591 3.85027 4.77884C3.93734 4.69177 4.05544 4.64286 4.17857 4.64286ZM3.71429 7.42857C3.71429 7.30544 3.7632 7.18734 3.85027 7.10027C3.93734 7.0132 4.05544 6.96429 4.17857 6.96429H5.57143C5.69456 6.96429 5.81266 7.0132 5.89973 7.10027C5.9868 7.18734 6.03571 7.30544 6.03571 7.42857C6.03571 7.55171 5.9868 7.6698 5.89973 7.75687C5.81266 7.84394 5.69456 7.89286 5.57143 7.89286H4.17857C4.05544 7.89286 3.93734 7.84394 3.85027 7.75687C3.7632 7.6698 3.71429 7.55171 3.71429 7.42857ZM7.89286 12.0714H5.10714V9.75H7.89286V12.0714ZM8.82143 7.89286H7.42857C7.30544 7.89286 7.18734 7.84394 7.10027 7.75687C7.0132 7.6698 6.96429 7.55171 6.96429 7.42857C6.96429 7.30544 7.0132 7.18734 7.10027 7.10027C7.18734 7.0132 7.30544 6.96429 7.42857 6.96429H8.82143C8.94456 6.96429 9.06266 7.0132 9.14973 7.10027C9.2368 7.18734 9.28571 7.30544 9.28571 7.42857C9.28571 7.55171 9.2368 7.6698 9.14973 7.75687C9.06266 7.84394 8.94456 7.89286 8.82143 7.89286ZM8.82143 5.57143H7.42857C7.30544 5.57143 7.18734 5.52251 7.10027 5.43544C7.0132 5.34837 6.96429 5.23028 6.96429 5.10714C6.96429 4.98401 7.0132 4.86591 7.10027 4.77884C7.18734 4.69177 7.30544 4.64286 7.42857 4.64286H8.82143C8.94456 4.64286 9.06266 4.69177 9.14973 4.77884C9.2368 4.86591 9.28571 4.98401 9.28571 5.10714C9.28571 5.23028 9.2368 5.34837 9.14973 5.43544C9.06266 5.52251 8.94456 5.57143 8.82143 5.57143ZM8.82143 3.25H7.42857C7.30544 3.25 7.18734 3.20108 7.10027 3.11401C7.0132 3.02694 6.96429 2.90885 6.96429 2.78571C6.96429 2.66258 7.0132 2.54449 7.10027 2.45741C7.18734 2.37034 7.30544 2.32143 7.42857 2.32143H8.82143C8.94456 2.32143 9.06266 2.37034 9.14973 2.45741C9.2368 2.54449 9.28571 2.66258 9.28571 2.78571C9.28571 2.90885 9.2368 3.02694 9.14973 3.11401C9.06266 3.20108 8.94456 3.25 8.82143 3.25Z" fill="#263069"/>
</svg>
