<svg width="11" height="15" viewBox="0 0 11 15" fill="none" xmlns="http://www.w3.org/2000/svg">
<path id="Vector" d="M11 5.25035C11.0001 4.24403 10.6972 3.25889 10.1274 2.41224C9.55752 1.5656 8.74475 0.893113 7.78585 0.474882C6.82694 0.0566498 5.76231 -0.0897076 4.71873 0.0532384C3.67515 0.196184 2.6966 0.62241 1.89961 1.28116C1.10263 1.93991 0.520784 2.80342 0.223378 3.76886C-0.0740286 4.7343 -0.0744674 5.76099 0.222114 6.72666C0.518695 7.69234 1.0998 8.5563 1.89622 9.21567C2.69265 9.87504 3.67083 10.302 4.71429 10.4458V11.5001H2.88095C2.67257 11.5001 2.47272 11.5791 2.32537 11.7198C2.17802 11.8604 2.09524 12.0512 2.09524 12.2501C2.09524 12.449 2.17802 12.6398 2.32537 12.7804C2.47272 12.9211 2.67257 13.0001 2.88095 13.0001H4.71429V14.25C4.71429 14.4489 4.79707 14.6397 4.94442 14.7803C5.09177 14.921 5.29162 15 5.5 15C5.70838 15 5.90823 14.921 6.05558 14.7803C6.20293 14.6397 6.28571 14.4489 6.28571 14.25V13.0001H8.11905C8.32743 13.0001 8.52728 12.9211 8.67463 12.7804C8.82198 12.6398 8.90476 12.449 8.90476 12.2501C8.90476 12.0512 8.82198 11.8604 8.67463 11.7198C8.52728 11.5791 8.32743 11.5001 8.11905 11.5001H6.28571V10.4458C7.59394 10.264 8.79 9.63909 9.65552 8.68525C10.521 7.7314 10.9982 6.51222 11 5.25035ZM1.57143 5.25035C1.57143 4.50869 1.80184 3.78369 2.23351 3.16703C2.66519 2.55037 3.27875 2.06974 3.9966 1.78592C4.71445 1.5021 5.50436 1.42784 6.26643 1.57253C7.02849 1.71722 7.7285 2.07436 8.27792 2.59879C8.82734 3.12322 9.2015 3.79138 9.35309 4.51878C9.50467 5.24619 9.42687 6.00016 9.12953 6.68536C8.83218 7.37056 8.32865 7.95621 7.6826 8.36825C7.03655 8.78029 6.277 9.00021 5.5 9.00021C4.45845 8.99905 3.45991 8.60361 2.72342 7.90062C1.98693 7.19764 1.57264 6.24452 1.57143 5.25035Z" fill="#263069"/>
</svg>
