<svg width="13" height="15" viewBox="0 0 13 15" fill="none" xmlns="http://www.w3.org/2000/svg">
<path id="Vector" d="M7.94444 5.71429C7.94444 6.10714 7.61944 6.42857 7.22222 6.42857H6.08111C5.87889 6.42857 5.68389 6.38571 5.50333 6.30714L3.84222 5.58571L2.88889 8.39286V14.2857C2.88889 14.6786 2.56389 15 2.16667 15H0.722222C0.325 15 0 14.6786 0 14.2857V8.09286C0 7.93571 0.0288888 7.77857 0.0794444 7.62857L1.14833 4.54286C1.21242 4.35427 1.31578 4.18107 1.45175 4.03444C1.58771 3.88781 1.75326 3.77101 1.9377 3.69158C2.12214 3.61216 2.32137 3.57187 2.52253 3.57332C2.72369 3.57477 2.92231 3.61792 3.10556 3.7L6.10278 5.00714L7.22222 5C7.61944 5 7.94444 5.32143 7.94444 5.71429ZM3.61111 0C2.81667 0 2.16667 0.642857 2.16667 1.42857C2.16667 2.21429 2.81667 2.85714 3.61111 2.85714C4.40556 2.85714 5.05556 2.21429 5.05556 1.42857C5.05556 0.642857 4.40556 0 3.61111 0ZM5.05556 12.8571H12.2778C12.675 12.8571 13 12.5357 13 12.1429C13 11.75 12.675 11.4286 12.2778 11.4286H5.05556C4.65833 11.4286 4.33333 11.75 4.33333 12.1429C4.33333 12.5357 4.65833 12.8571 5.05556 12.8571ZM11.9167 10.7143C12.5161 10.7143 13 10.2357 13 9.64286C13 9.05 12.5161 8.57143 11.9167 8.57143C11.3172 8.57143 10.8333 9.05 10.8333 9.64286C10.8333 10.2357 11.3172 10.7143 11.9167 10.7143ZM7.22222 7.85714C7.22222 7.46429 6.89722 7.14286 6.5 7.14286H5.05556C4.65833 7.14286 4.33333 7.46429 4.33333 7.85714C4.33333 8.25 4.65833 8.57143 5.05556 8.57143H5.77778V9.28571C5.77778 10.0714 6.42778 10.7143 7.22222 10.7143H8.66667C9.46111 10.7143 10.1111 10.0714 10.1111 9.28571V7.85714C10.1111 7.46429 9.78611 7.14286 9.38889 7.14286C8.99167 7.14286 8.66667 7.46429 8.66667 7.85714V8.57143H7.22222V7.85714Z" fill="#263069"/>
</svg>
