<svg width="16" height="13" viewBox="0 0 16 13" fill="none" xmlns="http://www.w3.org/2000/svg">
<path id="Vector" opacity="0.7" d="M14.71 5.13974H14.035L12.2987 1.06366C12.2201 0.87924 12.092 0.722557 11.9298 0.61259C11.7676 0.502624 11.5784 0.444094 11.385 0.444092H4.03496C3.84155 0.444094 3.65229 0.502624 3.49011 0.61259C3.32792 0.722557 3.19978 0.87924 3.12121 1.06366L1.38496 5.13974H0.709961C0.577353 5.13974 0.450176 5.19471 0.356408 5.29256C0.262639 5.3904 0.209961 5.52311 0.209961 5.66148C0.209961 5.79986 0.262639 5.93256 0.356408 6.03041C0.450176 6.12825 0.577353 6.18322 0.709961 6.18322H1.20996V11.4006C1.20996 11.6774 1.31532 11.9428 1.50285 12.1385C1.69039 12.3342 1.94474 12.4441 2.20996 12.4441H3.70996C3.97518 12.4441 4.22953 12.3342 4.41707 12.1385C4.6046 11.9428 4.70996 11.6774 4.70996 11.4006V10.3571H10.71V11.4006C10.71 11.6774 10.8153 11.9428 11.0029 12.1385C11.1904 12.3342 11.4447 12.4441 11.71 12.4441H13.21C13.4752 12.4441 13.7295 12.3342 13.9171 12.1385C14.1046 11.9428 14.21 11.6774 14.21 11.4006V6.18322H14.71C14.8426 6.18322 14.9697 6.12825 15.0635 6.03041C15.1573 5.93256 15.21 5.79986 15.21 5.66148C15.21 5.52311 15.1573 5.3904 15.0635 5.29256C14.9697 5.19471 14.8426 5.13974 14.71 5.13974ZM4.03496 1.48757H11.385L12.9406 5.13974H2.47934L4.03496 1.48757ZM3.70996 11.4006H2.20996V10.3571H3.70996V11.4006ZM11.71 11.4006V10.3571H13.21V11.4006H11.71ZM13.21 9.31366H2.20996V6.18322H13.21V9.31366ZM3.20996 7.74844C3.20996 7.61007 3.26264 7.47736 3.35641 7.37951C3.45018 7.28167 3.57735 7.2267 3.70996 7.2267H4.70996C4.84257 7.2267 4.96975 7.28167 5.06351 7.37951C5.15728 7.47736 5.20996 7.61007 5.20996 7.74844C5.20996 7.88681 5.15728 8.01952 5.06351 8.11737C4.96975 8.21521 4.84257 8.27018 4.70996 8.27018H3.70996C3.57735 8.27018 3.45018 8.21521 3.35641 8.11737C3.26264 8.01952 3.20996 7.88681 3.20996 7.74844ZM10.21 7.74844C10.21 7.61007 10.2626 7.47736 10.3564 7.37951C10.4502 7.28167 10.5774 7.2267 10.71 7.2267H11.71C11.8426 7.2267 11.9697 7.28167 12.0635 7.37951C12.1573 7.47736 12.21 7.61007 12.21 7.74844C12.21 7.88681 12.1573 8.01952 12.0635 8.11737C11.9697 8.21521 11.8426 8.27018 11.71 8.27018H10.71C10.5774 8.27018 10.4502 8.21521 10.3564 8.11737C10.2626 8.01952 10.21 7.88681 10.21 7.74844Z" fill="black"/>
</svg>
