<svg width="35" height="35" viewBox="0 0 35 35" fill="none" xmlns="http://www.w3.org/2000/svg">
<g id="CaretCircleLeft">
<rect width="35" height="35" rx="17.5" fill="white"/>
<path id="Vector" d="M17.5 3.28125C14.6878 3.28125 11.9388 4.11517 9.60049 5.67754C7.26223 7.23992 5.43978 9.46058 4.36359 12.0587C3.28741 14.6569 3.00583 17.5158 3.55447 20.2739C4.1031 23.0321 5.4573 25.5656 7.44583 27.5542C9.43436 29.5427 11.9679 30.8969 14.7261 31.4455C17.4842 31.9942 20.3431 31.7126 22.9413 30.6364C25.5394 29.5602 27.7601 27.7378 29.3225 25.3995C30.8848 23.0613 31.7188 20.3122 31.7188 17.5C31.7148 13.7302 30.2155 10.1159 27.5498 7.45022C24.8841 4.78455 21.2698 3.28523 17.5 3.28125ZM17.5 29.5312C15.1205 29.5312 12.7943 28.8256 10.8158 27.5036C8.83727 26.1816 7.2952 24.3026 6.38458 22.1042C5.47396 19.9057 5.2357 17.4867 5.69993 15.1528C6.16416 12.819 7.31003 10.6752 8.99263 8.99262C10.6752 7.31002 12.819 6.16416 15.1528 5.69993C17.4867 5.2357 19.9057 5.47396 22.1042 6.38457C24.3026 7.29519 26.1816 8.83727 27.5036 10.8158C28.8256 12.7943 29.5313 15.1204 29.5313 17.5C29.5276 20.6898 28.2589 23.7479 26.0034 26.0034C23.7479 28.2589 20.6898 29.5276 17.5 29.5312ZM20.4613 12.8051L15.765 17.5L20.4613 22.1949C20.563 22.2965 20.6436 22.4172 20.6986 22.55C20.7536 22.6827 20.7819 22.825 20.7819 22.9688C20.7819 23.1125 20.7536 23.2548 20.6986 23.3875C20.6436 23.5203 20.563 23.641 20.4613 23.7426C20.3597 23.8442 20.2391 23.9248 20.1063 23.9798C19.9735 24.0348 19.8312 24.0631 19.6875 24.0631C19.5438 24.0631 19.4015 24.0348 19.2687 23.9798C19.1359 23.9248 19.0153 23.8442 18.9137 23.7426L13.4449 18.2738C13.3432 18.1722 13.2626 18.0516 13.2075 17.9188C13.1525 17.7861 13.1241 17.6437 13.1241 17.5C13.1241 17.3563 13.1525 17.2139 13.2075 17.0812C13.2626 16.9484 13.3432 16.8278 13.4449 16.7262L18.9137 11.2574C19.0153 11.1558 19.1359 11.0752 19.2687 11.0202C19.4015 10.9652 19.5438 10.9369 19.6875 10.9369C19.8312 10.9369 19.9735 10.9652 20.1063 11.0202C20.2391 11.0752 20.3597 11.1558 20.4613 11.2574C20.563 11.359 20.6436 11.4797 20.6986 11.6125C20.7536 11.7452 20.7819 11.8875 20.7819 12.0312C20.7819 12.175 20.7536 12.3173 20.6986 12.45C20.6436 12.5828 20.563 12.7035 20.4613 12.8051Z" fill="black"/>
</g>
</svg>
