<svg width="30" height="30" viewBox="0 0 30 30" fill="none" xmlns="http://www.w3.org/2000/svg">
<g id="Component 9">
<rect x="1.56664" y="1.4537" width="27.2685" height="27.2685" rx="3.51852" fill="white"/>
<rect x="1.56664" y="1.4537" width="27.2685" height="27.2685" rx="3.51852" stroke="#263069" stroke-width="1.75926"/>
<path id="Vector" d="M16.8719 7.1713C16.8719 6.56239 17.0524 5.96715 17.3907 5.46086C17.729 4.95457 18.2098 4.55996 18.7724 4.32694C19.335 4.09392 19.954 4.03296 20.5512 4.15175C21.1484 4.27054 21.697 4.56376 22.1275 4.99432C22.5581 5.42489 22.8513 5.97346 22.9701 6.57067C23.0889 7.16788 23.0279 7.7869 22.7949 8.34946C22.5619 8.91202 22.1673 9.39285 21.661 9.73114C21.1547 10.0694 20.5595 10.25 19.9506 10.25C19.134 10.25 18.351 9.92564 17.7736 9.34827C17.1962 8.7709 16.8719 7.98782 16.8719 7.1713ZM18.4112 17.9468C18.2071 17.9468 18.0113 18.0278 17.867 18.1722C17.7226 18.3165 17.6415 18.5123 17.6415 18.7164C17.6415 19.6298 17.3707 20.5227 16.8633 21.2821C16.3558 22.0415 15.6346 22.6334 14.7907 22.983C13.9469 23.3325 13.0184 23.4239 12.1225 23.2458C11.2267 23.0676 10.4039 22.6277 9.75802 21.9819C9.11217 21.336 8.67235 20.5132 8.49416 19.6174C8.31597 18.7216 8.40742 17.793 8.75695 16.9492C9.10648 16.1053 9.69839 15.3841 10.4578 14.8767C11.2173 14.3692 12.1101 14.0984 13.0235 14.0984C13.2276 14.0984 13.4234 14.0173 13.5677 13.8729C13.7121 13.7286 13.7932 13.5328 13.7932 13.3287C13.7932 13.1246 13.7121 12.9288 13.5677 12.7845C13.4234 12.6401 13.2276 12.559 13.0235 12.559C11.8057 12.559 10.6152 12.9202 9.60261 13.5967C8.59003 14.2733 7.80082 15.235 7.33478 16.3601C6.86874 17.4852 6.7468 18.7233 6.98438 19.9177C7.22197 21.1121 7.80841 22.2092 8.66953 23.0704C9.53066 23.9315 10.6278 24.5179 11.8222 24.7555C13.0166 24.9931 14.2547 24.8712 15.3798 24.4051C16.5049 23.9391 17.4666 23.1499 18.1432 22.1373C18.8198 21.1247 19.1809 19.9343 19.1809 18.7164C19.1809 18.5123 19.0998 18.3165 18.9555 18.1722C18.8111 18.0278 18.6153 17.9468 18.4112 17.9468ZM22.2596 14.8681H16.6621L18.3092 12.0029C18.4073 11.8324 18.4363 11.6308 18.3903 11.4395C18.3443 11.2482 18.2268 11.0818 18.062 10.9745C16.4132 9.90259 14.4654 9.38496 12.502 9.49692C10.5386 9.60888 8.66227 10.3446 7.14604 11.5969C7.06394 11.6598 6.99536 11.7386 6.94439 11.8287C6.89343 11.9187 6.86113 12.018 6.84943 12.1208C6.83772 12.2235 6.84685 12.3276 6.87627 12.4268C6.90568 12.5259 6.95478 12.6182 7.02063 12.6979C7.08649 12.7777 7.16774 12.8433 7.25954 12.891C7.35134 12.9387 7.4518 12.9673 7.55493 12.9753C7.65805 12.9832 7.76172 12.9703 7.85975 12.9373C7.95777 12.9043 8.04814 12.8519 8.12545 12.7832C9.29396 11.8207 10.7201 11.2238 12.2258 11.0669C13.7315 10.91 15.2501 11.2001 16.5919 11.901L14.6648 15.2529C14.5972 15.37 14.5616 15.5028 14.5617 15.638C14.5617 15.7732 14.5974 15.906 14.6651 16.0231C14.7328 16.1401 14.8301 16.2372 14.9473 16.3047C15.0644 16.3722 15.1973 16.4076 15.3325 16.4074H21.3206L19.966 23.1834C19.926 23.3835 19.9671 23.5912 20.0802 23.7609C20.1933 23.9307 20.3692 24.0486 20.5692 24.0888C20.6189 24.099 20.6695 24.1042 20.7202 24.1042C20.8979 24.1038 21.07 24.0421 21.2073 23.9293C21.3446 23.8165 21.4387 23.6598 21.4736 23.4855L23.0129 15.7888C23.0352 15.6772 23.0326 15.5621 23.0051 15.4517C22.9776 15.3413 22.9259 15.2384 22.8539 15.1503C22.7819 15.0623 22.6912 14.9913 22.5884 14.9425C22.4857 14.8937 22.3734 14.8683 22.2596 14.8681Z" fill="#263069"/>
</g>
</svg>
