<svg width="15" height="23" viewBox="0 0 15 23" fill="none" xmlns="http://www.w3.org/2000/svg">
<path id="Vector" d="M9.375 10.375H8.25V5.125H8.625C9.32119 5.125 9.98887 5.40156 10.4812 5.89384C10.9734 6.38613 11.25 7.05381 11.25 7.75C11.25 8.04837 11.3685 8.33452 11.5795 8.5455C11.7905 8.75647 12.0766 8.875 12.375 8.875C12.6734 8.875 12.9595 8.75647 13.1705 8.5455C13.3815 8.33452 13.5 8.04837 13.5 7.75C13.4985 6.45753 12.9844 5.21842 12.0705 4.3045C11.1566 3.39058 9.91747 2.87649 8.625 2.875H8.25V1.75C8.25 1.45163 8.13147 1.16548 7.92049 0.954505C7.70952 0.743526 7.42337 0.625 7.125 0.625C6.82663 0.625 6.54048 0.743526 6.3295 0.954505C6.11853 1.16548 6 1.45163 6 1.75V2.875H5.625C4.33207 2.875 3.09209 3.38861 2.17785 4.30285C1.26361 5.21709 0.75 6.45707 0.75 7.75C0.75 9.04293 1.26361 10.2829 2.17785 11.1971C3.09209 12.1114 4.33207 12.625 5.625 12.625H6V17.875H4.875C4.17881 17.875 3.51113 17.5984 3.01884 17.1062C2.52656 16.6139 2.25 15.9462 2.25 15.25C2.25 14.9516 2.13147 14.6655 1.9205 14.4545C1.70952 14.2435 1.42337 14.125 1.125 14.125C0.826631 14.125 0.540483 14.2435 0.329505 14.4545C0.118526 14.6655 0 14.9516 0 15.25C0.00148874 16.5425 0.515581 17.7816 1.4295 18.6955C2.34342 19.6094 3.58253 20.1235 4.875 20.125H6V21.25C6 21.5484 6.11853 21.8345 6.3295 22.0455C6.54048 22.2565 6.82663 22.375 7.125 22.375C7.42337 22.375 7.70952 22.2565 7.92049 22.0455C8.13147 21.8345 8.25 21.5484 8.25 21.25V20.125H9.375C10.6679 20.125 11.9079 19.6114 12.8221 18.6971C13.7364 17.7829 14.25 16.5429 14.25 15.25C14.25 13.9571 13.7364 12.7171 12.8221 11.8029C11.9079 10.8886 10.6679 10.375 9.375 10.375ZM5.625 10.375C4.92881 10.375 4.26113 10.0984 3.76884 9.60616C3.27656 9.11387 3 8.44619 3 7.75C3 7.05381 3.27656 6.38613 3.76884 5.89384C4.26113 5.40156 4.92881 5.125 5.625 5.125H6V10.375H5.625ZM9.375 17.875H8.25V12.625H9.375C10.0712 12.625 10.7389 12.9016 11.2312 13.3938C11.7234 13.8861 12 14.5538 12 15.25C12 15.9462 11.7234 16.6139 11.2312 17.1062C10.7389 17.5984 10.0712 17.875 9.375 17.875Z" fill="black"/>
</svg>
