<svg width="25" height="25" viewBox="0 0 25 25" fill="none" xmlns="http://www.w3.org/2000/svg">
<g clip-path="url(#clip0_1688_704)">
<path d="M9.61934 5.68315C9.57388 5.63335 9.5423 5.57248 9.52776 5.50664C9.51323 5.44079 9.51625 5.37229 9.53651 5.30797C9.55678 5.24366 9.59359 5.18581 9.64325 5.14019C9.69291 5.09458 9.75368 5.06282 9.81948 5.04808C10.7424 4.83717 11.6863 4.73161 12.633 4.73343C15.9893 4.73343 19.0386 6.00935 21.4528 8.42358C23.2647 10.2355 24.0797 12.0435 24.1134 12.1195C24.1572 12.2179 24.1798 12.3245 24.1798 12.4322C24.1798 12.54 24.1572 12.6465 24.1134 12.7449C24.0797 12.821 23.2647 14.628 21.4528 16.4399C21.1783 16.7132 20.8963 16.972 20.607 17.2164C20.5309 17.281 20.4326 17.3136 20.333 17.3071C20.2334 17.3006 20.1401 17.2557 20.073 17.1818L9.61934 5.68315ZM20.9005 20.3812C20.9699 20.4557 21.0238 20.5433 21.0591 20.6389C21.0944 20.7344 21.1104 20.8361 21.1062 20.9378C21.1019 21.0396 21.0775 21.1395 21.0344 21.2318C20.9912 21.3241 20.9302 21.4069 20.8548 21.4754C20.7794 21.5439 20.6912 21.5968 20.5952 21.6309C20.4992 21.6651 20.3974 21.6798 20.2957 21.6744C20.194 21.6689 20.0944 21.6433 20.0026 21.599C19.9109 21.5548 19.8288 21.4927 19.7612 21.4165L17.6366 19.0831C16.061 19.78 14.3559 20.1365 12.633 20.1291C9.27678 20.1291 6.22748 18.8532 3.81325 16.4399C2.00137 14.628 1.18252 12.821 1.15269 12.7449C1.10892 12.6465 1.0863 12.54 1.0863 12.4322C1.0863 12.3245 1.10892 12.2179 1.15269 12.1195C1.18252 12.0464 2.00137 10.2355 3.81325 8.42358C4.53712 7.69637 5.34461 7.05748 6.21882 6.52029L4.36557 4.48133C4.29616 4.40677 4.24224 4.31917 4.20693 4.22362C4.17163 4.12807 4.15564 4.02646 4.15989 3.92468C4.16414 3.82291 4.18855 3.72299 4.23171 3.63071C4.27486 3.53844 4.3359 3.45565 4.41129 3.38714C4.48667 3.31863 4.57491 3.26576 4.67087 3.2316C4.76684 3.19744 4.86864 3.18267 4.97035 3.18815C5.07207 3.19362 5.17169 3.21923 5.26344 3.26348C5.35519 3.30774 5.43725 3.36977 5.50485 3.44597L20.9005 20.3812ZM14.5989 15.7384L9.52889 10.1575C9.00646 10.8733 8.74704 11.7475 8.79442 12.6324C8.8418 13.5173 9.19308 14.3587 9.78895 15.0146C10.3848 15.6706 11.1888 16.1008 12.0651 16.2326C12.9414 16.3645 13.8363 16.1899 14.5989 15.7384Z" fill="black"/>
</g>
<defs>
<clipPath id="clip0_1688_704">
<rect width="24.633" height="24.633" fill="white" transform="translate(0.316528 0.0275345)"/>
</clipPath>
</defs>
</svg>
