<svg width="32" height="32" viewBox="0 0 32 32" fill="none" xmlns="http://www.w3.org/2000/svg">
<g id="FacebookLogo">
<path id="Vector" d="M16.2407 2.70166C13.6719 2.70166 11.1607 3.46341 9.02483 4.89058C6.88891 6.31775 5.22417 8.34624 4.24112 10.7195C3.25807 13.0928 3.00086 15.7043 3.50201 18.2238C4.00317 20.7433 5.24018 23.0576 7.05663 24.874C8.87307 26.6905 11.1874 27.9275 13.7068 28.4287C16.2263 28.9298 18.8378 28.6726 21.2111 27.6895C23.5844 26.7065 25.6129 25.0418 27.0401 22.9058C28.4673 20.7699 29.229 18.2588 29.229 15.6899C29.2252 12.2464 27.8556 8.94501 25.4206 6.51006C22.9857 4.07511 19.6843 2.70548 16.2407 2.70166ZM17.6839 25.6873V19.0573H20.0891C20.4719 19.0573 20.8389 18.9052 21.1096 18.6346C21.3802 18.3639 21.5322 17.9969 21.5322 17.6141C21.5322 17.2314 21.3802 16.8643 21.1096 16.5937C20.8389 16.323 20.4719 16.171 20.0891 16.171H17.6839V13.7658C17.6839 13.383 17.8359 13.0159 18.1066 12.7453C18.3772 12.4747 18.7443 12.3226 19.127 12.3226H21.0512C21.4339 12.3226 21.801 12.1706 22.0717 11.8999C22.3423 11.6293 22.4943 11.2622 22.4943 10.8795C22.4943 10.4967 22.3423 10.1297 22.0717 9.85901C21.801 9.58837 21.4339 9.43632 21.0512 9.43632H19.127C17.9788 9.43632 16.8776 9.89246 16.0656 10.7044C15.2537 11.5163 14.7976 12.6175 14.7976 13.7658V16.171H12.3923C12.0096 16.171 11.6425 16.323 11.3719 16.5937C11.1013 16.8643 10.9492 17.2314 10.9492 17.6141C10.9492 17.9969 11.1013 18.3639 11.3719 18.6346C11.6425 18.9052 12.0096 19.0573 12.3923 19.0573H14.7976V25.6873C12.2698 25.3225 9.97402 24.0137 8.37229 22.0244C6.77056 20.0351 5.98177 17.5129 6.16467 14.9655C6.34757 12.4181 7.48857 10.0345 9.35806 8.29439C11.2275 6.55431 13.6867 5.58693 16.2407 5.58693C18.7947 5.58693 21.2539 6.55431 23.1234 8.29439C24.9929 10.0345 26.1339 12.4181 26.3168 14.9655C26.4997 17.5129 25.7109 20.0351 24.1092 22.0244C22.5074 24.0137 20.2117 25.3225 17.6839 25.6873Z" fill="#0061FF"/>
</g>
</svg>
