<svg width="24" height="25" viewBox="0 0 24 25" fill="none" xmlns="http://www.w3.org/2000/svg">
<path id="Vector" d="M23.4114 9.6213C23.2872 9.22412 23.052 8.87406 22.7355 8.61542C22.4191 8.35678 22.0357 8.20118 21.6338 8.16832L15.9632 7.69403L13.7747 2.2132C13.6209 1.82584 13.3595 1.49456 13.0235 1.26142C12.6875 1.02828 12.2923 0.903809 11.8879 0.903809C11.4835 0.903809 11.0882 1.02828 10.7523 1.26142C10.4163 1.49456 10.1548 1.82584 10.001 2.2132L7.81455 7.69507L2.14395 8.16832C1.74135 8.20271 1.35754 8.35958 1.04076 8.61921C0.72398 8.87885 0.48836 9.22966 0.363508 9.62757C0.238657 10.0255 0.230145 10.4527 0.339043 10.8556C0.44794 11.2586 0.669388 11.6191 0.975558 11.8921L5.30241 15.757L3.9797 21.5378C3.88323 21.9453 3.90605 22.3734 4.04526 22.7675C4.18447 23.1616 4.43377 23.5039 4.76142 23.7507C5.08906 23.9976 5.48023 24.1379 5.88511 24.1537C6.28999 24.1695 6.69026 24.0602 7.03495 23.8397L11.8879 20.7459L16.7408 23.8397C17.0854 24.0588 17.485 24.167 17.8891 24.1507C18.2931 24.1344 18.6834 23.9944 19.0105 23.7482C19.3376 23.5021 19.5869 23.161 19.7267 22.768C19.8666 22.3751 19.8907 21.948 19.7961 21.5409L18.4733 15.7601L22.8002 11.8952C23.1082 11.6216 23.3307 11.2594 23.4396 10.8545C23.5484 10.4496 23.5386 10.0204 23.4114 9.6213ZM16.35 14.3642C16.1832 14.5132 16.059 14.7068 15.9912 14.9238C15.9233 15.1409 15.9143 15.3731 15.9652 15.5951L17.2569 21.2451L12.5182 18.2271C12.3286 18.1062 12.1104 18.0423 11.8879 18.0423C11.6653 18.0423 11.4471 18.1062 11.2576 18.2271L6.5189 21.2451L7.81054 15.5992C7.86141 15.3773 7.85243 15.1451 7.78458 14.928C7.71672 14.7109 7.5926 14.5173 7.42575 14.3684L3.19009 10.5803L8.74144 10.1163C8.96236 10.098 9.17407 10.0167 9.3532 9.88154C9.53233 9.74638 9.67191 9.56257 9.75652 9.35042L11.8879 4.00555L14.0192 9.35042C14.1039 9.56257 14.2434 9.74638 14.4226 9.88154C14.6017 10.0167 14.8134 10.098 15.0343 10.1163L20.5857 10.5803L16.35 14.3642Z" fill="#FFC42E"/>
</svg>
