<svg width="23" height="23" viewBox="0 0 23 23" fill="none" xmlns="http://www.w3.org/2000/svg">
<path id="Vector" d="M21.46 10.3739L17.0348 14.3322L18.383 20.2516C18.4574 20.573 18.4382 20.91 18.328 21.22C18.2177 21.5301 18.0212 21.7993 17.7634 21.9937C17.5056 22.1881 17.198 22.2989 16.8795 22.3122C16.5609 22.3254 16.2457 22.2405 15.9737 22.0682L11.0077 18.9L6.03864 22.0682C5.76666 22.2395 5.45186 22.3236 5.13386 22.3099C4.81587 22.2961 4.50891 22.1852 4.25164 21.991C3.99436 21.7967 3.79827 21.528 3.68806 21.2185C3.57786 20.9089 3.55845 20.5726 3.6323 20.2516L4.98544 14.3322L0.56022 10.3739C0.319585 10.1583 0.145553 9.87404 0.0598586 9.55654C-0.0258357 9.23903 -0.0193943 8.9024 0.0783782 8.58867C0.176151 8.27493 0.360921 7.99801 0.609614 7.79249C0.858307 7.58696 1.1599 7.46194 1.47673 7.43303L7.27868 6.94781L9.51685 1.33311C9.638 1.02711 9.84419 0.765365 10.1092 0.581153C10.3742 0.396942 10.6861 0.298584 11.0052 0.298584C11.3243 0.298584 11.6362 0.396942 11.9012 0.581153C12.1662 0.765365 12.3724 1.02711 12.4935 1.33311L14.7307 6.94781L20.5327 7.43303C20.8501 7.46087 21.1526 7.58519 21.4022 7.79043C21.6518 7.99567 21.8374 8.2727 21.9358 8.58682C22.0342 8.90093 22.041 9.23815 21.9553 9.55623C21.8696 9.87432 21.6953 10.1591 21.4541 10.3749L21.46 10.3739Z" fill="#FFC42E"/>
</svg>
