<svg width="430" height="36" viewBox="0 0 430 36" fill="none" xmlns="http://www.w3.org/2000/svg">
<path d="M167.162 10.3271C168.781 10.3271 170.094 9.01434 170.094 7.39499C170.094 5.77564 168.781 4.46289 167.162 4.46289C165.543 4.46289 164.23 5.77564 164.23 7.39499C164.23 9.01434 165.543 10.3271 167.162 10.3271Z" fill="#263069" stroke="#AACBF4" stroke-width="4.10494" stroke-linecap="round" stroke-linejoin="round"/>
<path d="M180.356 10.3271C181.976 10.3271 183.289 9.01434 183.289 7.39499C183.289 5.77564 181.976 4.46289 180.356 4.46289C178.737 4.46289 177.424 5.77564 177.424 7.39499C177.424 9.01434 178.737 10.3271 180.356 10.3271Z" fill="#263069" stroke="#AACBF4" stroke-width="4.10494" stroke-linecap="round" stroke-linejoin="round"/>
<path d="M163.497 14.7252H170.827L169.361 30.8517H164.963L163.497 14.7252Z" fill="#263069" stroke="#AACBF4" stroke-width="4.10494" stroke-linecap="round" stroke-linejoin="round"/>
<path d="M176.691 14.7252H184.022L185.488 22.7884H183.289L182.556 30.8517H178.157L177.424 22.7884H175.225L176.691 14.7252Z" fill="#263069" stroke="#AACBF4" stroke-width="4.10494" stroke-linecap="round" stroke-linejoin="round"/>
<path d="M207.959 24.6573L204.877 19.0628H204.011V24.6573H200.401V9.83729H206.46C207.628 9.83729 208.621 10.0414 209.437 10.4495C210.267 10.8577 210.887 11.4206 211.295 12.1384C211.703 12.8421 211.907 13.6302 211.907 14.5028C211.907 15.488 211.625 16.3677 211.063 17.1417C210.514 17.9158 209.697 18.4647 208.614 18.7884L212.034 24.6573H207.959ZM204.011 16.5084H206.249C206.911 16.5084 207.403 16.3465 207.727 16.0228C208.065 15.6991 208.234 15.2417 208.234 14.6506C208.234 14.0877 208.065 13.6443 207.727 13.3206C207.403 12.9969 206.911 12.8351 206.249 12.8351H204.011V16.5084ZM225.278 18.5773C225.278 18.9151 225.256 19.2669 225.214 19.6328H217.044C217.101 20.3647 217.333 20.9277 217.741 21.3217C218.163 21.7017 218.677 21.8917 219.282 21.8917C220.183 21.8917 220.809 21.5117 221.161 20.7517H225.003C224.806 21.5258 224.447 22.2225 223.926 22.8417C223.42 23.461 222.779 23.9465 222.005 24.2984C221.231 24.6503 220.366 24.8262 219.409 24.8262C218.255 24.8262 217.227 24.5799 216.326 24.0873C215.426 23.5947 214.722 22.891 214.215 21.9762C213.709 21.0614 213.455 19.9917 213.455 18.7673C213.455 17.5428 213.702 16.4732 214.194 15.5584C214.701 14.6436 215.405 13.9399 216.305 13.4473C217.206 12.9547 218.241 12.7084 219.409 12.7084C220.549 12.7084 221.562 12.9477 222.449 13.4262C223.335 13.9047 224.025 14.5873 224.518 15.474C225.024 16.3606 225.278 17.3951 225.278 18.5773ZM221.583 17.6273C221.583 17.008 221.372 16.5154 220.95 16.1495C220.528 15.7836 220 15.6006 219.366 15.6006C218.761 15.6006 218.248 15.7765 217.825 16.1284C217.417 16.4803 217.164 16.9799 217.065 17.6273H221.583ZM234.74 24.6573L231.658 19.0628H230.792V24.6573H227.182V9.83729H233.241C234.409 9.83729 235.401 10.0414 236.218 10.4495C237.048 10.8577 237.667 11.4206 238.075 12.1384C238.483 12.8421 238.688 13.6302 238.688 14.5028C238.688 15.488 238.406 16.3677 237.843 17.1417C237.294 17.9158 236.478 18.4647 235.394 18.7884L238.814 24.6573H234.74ZM230.792 16.5084H233.03C233.691 16.5084 234.184 16.3465 234.508 16.0228C234.845 15.6991 235.014 15.2417 235.014 14.6506C235.014 14.0877 234.845 13.6443 234.508 13.3206C234.184 12.9969 233.691 12.8351 233.03 12.8351H230.792V16.5084ZM252.058 18.5773C252.058 18.9151 252.037 19.2669 251.995 19.6328H243.825C243.881 20.3647 244.113 20.9277 244.521 21.3217C244.944 21.7017 245.457 21.8917 246.063 21.8917C246.963 21.8917 247.59 21.5117 247.941 20.7517H251.784C251.587 21.5258 251.228 22.2225 250.707 22.8417C250.2 23.461 249.56 23.9465 248.786 24.2984C248.012 24.6503 247.146 24.8262 246.189 24.8262C245.035 24.8262 244.008 24.5799 243.107 24.0873C242.206 23.5947 241.503 22.891 240.996 21.9762C240.489 21.0614 240.236 19.9917 240.236 18.7673C240.236 17.5428 240.482 16.4732 240.975 15.5584C241.481 14.6436 242.185 13.9399 243.086 13.4473C243.987 12.9547 245.021 12.7084 246.189 12.7084C247.329 12.7084 248.343 12.9477 249.229 13.4262C250.116 13.9047 250.806 14.5873 251.298 15.474C251.805 16.3606 252.058 17.3951 252.058 18.5773ZM248.364 17.6273C248.364 17.008 248.153 16.5154 247.73 16.1495C247.308 15.7836 246.78 15.6006 246.147 15.6006C245.542 15.6006 245.028 15.7765 244.606 16.1284C244.198 16.4803 243.944 16.9799 243.846 17.6273H248.364ZM258.755 24.8262C257.727 24.8262 256.813 24.6503 256.01 24.2984C255.208 23.9465 254.575 23.468 254.11 22.8628C253.646 22.2436 253.386 21.554 253.329 20.794H256.897C256.939 21.2021 257.129 21.5328 257.467 21.7862C257.805 22.0395 258.22 22.1662 258.713 22.1662C259.163 22.1662 259.508 22.0817 259.747 21.9128C260 21.7299 260.127 21.4977 260.127 21.2162C260.127 20.8784 259.951 20.6321 259.599 20.4773C259.247 20.3084 258.677 20.1254 257.889 19.9284C257.045 19.7314 256.341 19.5273 255.778 19.3162C255.215 19.091 254.73 18.7462 254.322 18.2817C253.913 17.8032 253.709 17.1628 253.709 16.3606C253.709 15.6851 253.892 15.0728 254.258 14.524C254.638 13.961 255.187 13.5177 255.905 13.194C256.637 12.8702 257.502 12.7084 258.502 12.7084C259.979 12.7084 261.14 13.0743 261.985 13.8062C262.843 14.538 263.336 15.5091 263.463 16.7195H260.127C260.071 16.3114 259.888 15.9877 259.578 15.7484C259.283 15.5091 258.889 15.3895 258.396 15.3895C257.974 15.3895 257.65 15.474 257.425 15.6428C257.2 15.7977 257.087 16.0158 257.087 16.2973C257.087 16.6351 257.263 16.8884 257.615 17.0573C257.981 17.2262 258.544 17.3951 259.304 17.564C260.176 17.7891 260.887 18.0143 261.436 18.2395C261.985 18.4506 262.463 18.8025 262.872 19.2951C263.294 19.7736 263.512 20.421 263.526 21.2373C263.526 21.9269 263.329 22.5462 262.935 23.0951C262.555 23.6299 261.999 24.0521 261.267 24.3617C260.549 24.6714 259.712 24.8262 258.755 24.8262ZM272.3 21.5962V24.6573H270.463C269.155 24.6573 268.134 24.3406 267.402 23.7073C266.67 23.0599 266.305 22.0114 266.305 20.5617V15.8751H264.869V12.8773H266.305V10.0062H269.915V12.8773H272.279V15.8751H269.915V20.604C269.915 20.9558 269.999 21.2091 270.168 21.364C270.337 21.5188 270.618 21.5962 271.012 21.5962H272.3Z" fill="#AACBF4"/>
</svg>
