<svg width="41" height="41" viewBox="0 0 41 41" fill="none" xmlns="http://www.w3.org/2000/svg">
<g id="Frame" clip-path="url(#clip0_2910_1926)">
<path id="Vector" d="M41 20.5C41 9.17816 31.8218 0 20.5 0C9.17816 0 0 9.17816 0 20.5C0 31.8218 9.17816 41 20.5 41C31.8218 41 41 31.8218 41 20.5Z" fill="white" fill-opacity="0.9"/>
<path id="Vector_2" d="M31.898 17.6232C31.7751 17.2304 31.5424 16.8841 31.2294 16.6282C30.9163 16.3724 30.5371 16.2185 30.1396 16.186L24.5303 15.7168L22.3655 10.2952C22.2133 9.91206 21.9547 9.58436 21.6223 9.35374C21.29 9.12313 20.899 9 20.499 9C20.099 9 19.708 9.12313 19.3757 9.35374C19.0433 9.58436 18.7847 9.91206 18.6325 10.2952L16.4697 15.7178L10.8604 16.186C10.4622 16.22 10.0825 16.3752 9.76917 16.632C9.45581 16.8888 9.22274 17.2358 9.09924 17.6294C8.97574 18.0231 8.96732 18.4457 9.07504 18.8442C9.18276 19.2428 9.40181 19.5995 9.70467 19.8695L13.9847 23.6926L12.6763 29.4109C12.5809 29.814 12.6035 30.2375 12.7412 30.6273C12.8789 31.0171 13.1255 31.3557 13.4496 31.5999C13.7737 31.8441 14.1606 31.9828 14.5611 31.9985C14.9616 32.0142 15.3576 31.906 15.6986 31.6879L20.499 28.6275L25.2995 31.6879C25.6403 31.9046 26.0356 32.0117 26.4353 31.9956C26.835 31.9795 27.221 31.8409 27.5446 31.5974C27.8682 31.354 28.1148 31.0165 28.2531 30.6278C28.3914 30.2391 28.4153 29.8167 28.3217 29.4139L27.0133 23.6957L31.2933 19.8726C31.598 19.6019 31.8181 19.2436 31.9258 18.8431C32.0335 18.4426 32.0238 18.018 31.898 17.6232ZM24.9129 22.3149C24.7478 22.4622 24.6251 22.6537 24.5579 22.8684C24.4908 23.0832 24.4819 23.3129 24.5323 23.5324L25.8099 29.1213L21.1225 26.1359C20.935 26.0164 20.7192 25.9531 20.499 25.9531C20.2789 25.9531 20.063 26.0164 19.8755 26.1359L15.1881 29.1213L16.4658 23.5365C16.5161 23.317 16.5072 23.0873 16.4401 22.8726C16.3729 22.6578 16.2502 22.4663 16.0851 22.319L11.8953 18.5718L17.3866 18.1129C17.6051 18.0947 17.8145 18.0144 17.9917 17.8807C18.1689 17.747 18.307 17.5651 18.3907 17.3553L20.499 12.0682L22.6073 17.3553C22.691 17.5651 22.8291 17.747 23.0063 17.8807C23.1835 18.0144 23.3929 18.0947 23.6114 18.1129L29.1028 18.5718L24.9129 22.3149Z" fill="#FFC42E"/>
</g>
<defs>
<clipPath id="clip0_2910_1926">
<rect width="41" height="41" fill="white"/>
</clipPath>
</defs>
</svg>
