<svg width="31" height="32" viewBox="0 0 31 32" fill="none" xmlns="http://www.w3.org/2000/svg">
<g id="FunnelSimple">
<path id="Vector" d="M24.1355 17.05C24.1355 17.3052 24.0341 17.5499 23.8537 17.7303C23.6733 17.9108 23.4286 18.0121 23.1734 18.0121H7.77989C7.52473 18.0121 7.28002 17.9108 7.09959 17.7303C6.91916 17.5499 6.8178 17.3052 6.8178 17.05C6.8178 16.7949 6.91916 16.5502 7.09959 16.3697C7.28002 16.1893 7.52473 16.0879 7.77989 16.0879H23.1734C23.4286 16.0879 23.6733 16.1893 23.8537 16.3697C24.0341 16.5502 24.1355 16.7949 24.1355 17.05ZM27.9839 10.3154H2.96942C2.71426 10.3154 2.46954 10.4167 2.28912 10.5972C2.10869 10.7776 2.00732 11.0223 2.00732 11.2775C2.00732 11.5326 2.10869 11.7773 2.28912 11.9578C2.46954 12.1382 2.71426 12.2396 2.96942 12.2396H27.9839C28.239 12.2396 28.4838 12.1382 28.6642 11.9578C28.8446 11.7773 28.946 11.5326 28.946 11.2775C28.946 11.0223 28.8446 10.7776 28.6642 10.5972C28.4838 10.4167 28.239 10.3154 27.9839 10.3154ZM18.3629 21.8605H12.5904C12.3352 21.8605 12.0905 21.9619 11.9101 22.1423C11.7296 22.3227 11.6283 22.5674 11.6283 22.8226C11.6283 23.0778 11.7296 23.3225 11.9101 23.5029C12.0905 23.6833 12.3352 23.7847 12.5904 23.7847H18.3629C18.6181 23.7847 18.8628 23.6833 19.0432 23.5029C19.2237 23.3225 19.325 23.0778 19.325 22.8226C19.325 22.5674 19.2237 22.3227 19.0432 22.1423C18.8628 21.9619 18.6181 21.8605 18.3629 21.8605Z" fill="#263069"/>
</g>
</svg>
