<svg width="30" height="30" viewBox="0 0 30 30" fill="none" xmlns="http://www.w3.org/2000/svg">
<g id="gis:location-poi-o" clip-path="url(#clip0_290_272)">
<path id="Vector" d="M20.4761 14.771L20.4622 14.8076C20.4665 14.7965 20.47 14.7852 20.4743 14.7742L20.4761 14.771Z" fill="#263069"/>
<path id="Vector_2" d="M14.9865 0.574081C10.2033 0.574081 6.27759 4.48703 6.27759 9.25977C6.27759 11.1094 6.86975 12.8331 7.86831 14.245L7.83261 14.1893L13.4077 23.8259L13.4358 23.8628C13.6605 24.156 13.8829 24.3922 14.152 24.5702C14.421 24.7481 14.7656 24.8605 15.1041 24.8265C15.7804 24.7586 16.1734 24.2912 16.5366 23.7989L16.5592 23.7684L22.7056 13.3086L22.7105 13.2999C22.8577 13.0343 22.9642 12.7663 23.0554 12.5068C23.4769 11.4761 23.6939 10.3733 23.6943 9.25977C23.6943 4.48703 19.7697 0.574081 14.9865 0.574081ZM14.9865 2.02547C18.979 2.02547 22.2429 5.28181 22.2429 9.25977C22.2431 10.1889 22.0617 11.1091 21.7088 11.9686L21.7015 11.9866L21.6951 12.0055C21.6188 12.2253 21.5357 12.4247 21.44 12.5977L15.356 22.9507C15.0869 23.3052 14.8988 23.389 14.9592 23.3827C14.9903 23.3798 15.019 23.4041 14.9525 23.36C14.889 23.3179 14.7592 23.1946 14.6054 22.9983L9.07296 13.4334L9.05351 13.4064C8.21955 12.2279 7.72898 10.8006 7.72898 9.25977C7.72898 5.2821 10.994 2.02547 14.9865 2.02547ZM14.9865 4.30415C12.2399 4.30415 10.0184 6.51781 10.0184 9.25977C10.0184 12.0017 12.2402 14.2154 14.9865 14.2154C17.7328 14.2154 19.9534 12.0014 19.9534 9.25977C19.9534 6.51781 17.7328 4.30415 14.9865 4.30415ZM14.9865 5.75554C16.9653 5.75554 18.5021 7.28966 18.5021 9.25977C18.5021 11.2299 16.9656 12.764 14.9865 12.764C13.0074 12.764 11.4698 11.2296 11.4698 9.25977C11.4698 7.28966 13.0077 5.75554 14.9865 5.75554Z" fill="#263069"/>
<path id="Vector_3" d="M10.3434 20.6198C6.24294 21.1992 3.375 22.5853 3.375 24.6256C3.375 27.374 8.16691 29.6019 14.9861 29.6019C21.8053 29.6019 26.5972 27.374 26.5972 24.6256C26.5972 22.5853 23.7296 21.1992 19.6294 20.6198L19.0613 21.587C22.1516 22.0157 24.275 22.9168 24.275 23.9623C24.275 25.4282 20.1162 26.6164 14.9861 26.6164C9.85603 26.6164 5.69722 25.4282 5.69722 23.9623C5.69693 22.9202 7.80638 22.0201 10.9063 21.5896C10.719 21.2662 10.5309 20.9435 10.3434 20.6198Z" fill="#263069"/>
</g>
<defs>
<clipPath id="clip0_290_272">
<rect width="29.0278" height="29.0278" fill="white" transform="translate(0.472168 0.574081)"/>
</clipPath>
</defs>
</svg>
