<svg width="25" height="25" viewBox="0 0 25 25" fill="none" xmlns="http://www.w3.org/2000/svg">
<g id="Group">
<path id="Vector" d="M11.9835 2.82031H3.88008C3.26604 2.82031 2.67714 3.06424 2.24294 3.49844C1.80875 3.93263 1.56482 4.52153 1.56482 5.13558V21.3424C1.56482 21.9565 1.80875 22.5454 2.24294 22.9796C2.67714 23.4138 3.26604 23.6577 3.88008 23.6577H20.0869C20.701 23.6577 21.2899 23.4138 21.7241 22.9796C22.1583 22.5454 22.4022 21.9565 22.4022 21.3424V13.239" stroke="black" stroke-width="1.75926" stroke-linecap="round" stroke-linejoin="round"/>
<path id="Vector_2" d="M19.3634 2.38613C19.8239 1.9256 20.4485 1.66687 21.0998 1.66687C21.7511 1.66687 22.3757 1.9256 22.8363 2.38613C23.2968 2.84666 23.5555 3.47128 23.5555 4.12258C23.5555 4.77387 23.2968 5.39849 22.8363 5.85902L12.4025 16.2939C12.1277 16.5686 11.7881 16.7696 11.4151 16.8785L8.08921 17.8509C7.9896 17.88 7.88401 17.8817 7.78349 17.856C7.68298 17.8302 7.59123 17.7779 7.51786 17.7046C7.44449 17.6312 7.39219 17.5394 7.36644 17.4389C7.34068 17.3384 7.34243 17.2328 7.37148 17.1332L8.34389 13.8073C8.45332 13.4346 8.65475 13.0954 8.92965 12.821L19.3634 2.38613Z" stroke="black" stroke-width="1.75926" stroke-linecap="round" stroke-linejoin="round"/>
</g>
</svg>
