<svg width="36" height="36" viewBox="0 0 36 36" fill="none" xmlns="http://www.w3.org/2000/svg">
<g id="icon-park:public-toilet">
<g id="Group">
<path id="Vector" d="M11.5324 10.9939C13.1518 10.9939 14.4645 9.68115 14.4645 8.0618C14.4645 6.44244 13.1518 5.1297 11.5324 5.1297C9.91309 5.1297 8.60034 6.44244 8.60034 8.0618C8.60034 9.68115 9.91309 10.9939 11.5324 10.9939Z" fill="#263069" stroke="#AACBF4" stroke-width="4.10494" stroke-linecap="round" stroke-linejoin="round"/>
<path id="Vector_2" d="M24.7268 10.9939C26.3461 10.9939 27.6589 9.68115 27.6589 8.0618C27.6589 6.44244 26.3461 5.1297 24.7268 5.1297C23.1074 5.1297 21.7947 6.44244 21.7947 8.0618C21.7947 9.68115 23.1074 10.9939 24.7268 10.9939Z" fill="#263069" stroke="#AACBF4" stroke-width="4.10494" stroke-linecap="round" stroke-linejoin="round"/>
<path id="Vector_3" d="M7.86719 15.392H15.1974L13.7314 31.5185H9.33324L7.86719 15.392Z" fill="#263069" stroke="#AACBF4" stroke-width="4.10494" stroke-linecap="round" stroke-linejoin="round"/>
<path id="Vector_4" d="M21.0618 15.392H28.392L29.858 23.4552H27.659L26.9259 31.5185H22.5278L21.7948 23.4552H19.5957L21.0618 15.392Z" fill="#263069" stroke="#AACBF4" stroke-width="4.10494" stroke-linecap="round" stroke-linejoin="round"/>
</g>
</g>
</svg>
