<svg width="19" height="21" viewBox="0 0 19 21" fill="none" xmlns="http://www.w3.org/2000/svg">
<path id="Vector" d="M17 6.75H14.375V4.875C14.375 3.58207 13.8614 2.34209 12.9471 1.42785C12.0329 0.513615 10.7929 0 9.5 0C8.20707 0 6.96709 0.513615 6.05285 1.42785C5.13861 2.34209 4.625 3.58207 4.625 4.875V6.75H2C1.50272 6.75 1.02581 6.94754 0.674175 7.29917C0.322544 7.65081 0.125 8.12772 0.125 8.625V19.125C0.125 19.6223 0.322544 20.0992 0.674175 20.4508C1.02581 20.8025 1.50272 21 2 21H17C17.4973 21 17.9742 20.8025 18.3258 20.4508C18.6775 20.0992 18.875 19.6223 18.875 19.125V8.625C18.875 8.12772 18.6775 7.65081 18.3258 7.29917C17.9742 6.94754 17.4973 6.75 17 6.75ZM6.875 4.875C6.875 4.17881 7.15156 3.51113 7.64384 3.01884C8.13613 2.52656 8.80381 2.25 9.5 2.25C10.1962 2.25 10.8639 2.52656 11.3562 3.01884C11.8484 3.51113 12.125 4.17881 12.125 4.875V6.75H6.875V4.875ZM16.625 18.75H2.375V9H16.625V18.75ZM11 13.875C11 14.1717 10.912 14.4617 10.7472 14.7084C10.5824 14.955 10.3481 15.1473 10.074 15.2608C9.79994 15.3744 9.49834 15.4041 9.20737 15.3462C8.91639 15.2883 8.64912 15.1454 8.43934 14.9357C8.22956 14.7259 8.0867 14.4586 8.02882 14.1676C7.97094 13.8767 8.00065 13.5751 8.11418 13.301C8.22771 13.0269 8.41997 12.7926 8.66665 12.6278C8.91332 12.463 9.20333 12.375 9.5 12.375C9.89782 12.375 10.2794 12.533 10.5607 12.8143C10.842 13.0956 11 13.4772 11 13.875Z" fill="black"/>
</svg>
