<svg width="23" height="23" viewBox="0 0 23 23" fill="none" xmlns="http://www.w3.org/2000/svg">
<path id="Vector" d="M13.2693 20.8284C13.2693 21.1787 13.4085 21.5147 13.6562 21.7624C13.9039 22.0101 14.2398 22.1492 14.5901 22.1492H21.6344C21.9847 22.1492 22.3206 22.0101 22.5683 21.7624C22.816 21.5147 22.9552 21.1787 22.9552 20.8284V1.45522C22.9552 1.1049 22.816 0.76892 22.5683 0.521205C22.3206 0.273489 21.9847 0.134323 21.6344 0.134323H14.5901C14.2398 0.134323 13.9039 0.273489 13.6562 0.521205C13.4085 0.76892 13.2693 1.1049 13.2693 1.45522C13.2693 1.80554 13.4085 2.14152 13.6562 2.38923C13.9039 2.63695 14.2398 2.77611 14.5901 2.77611H20.3136V19.5075H14.5901C14.2398 19.5075 13.9039 19.6466 13.6562 19.8943C13.4085 20.1421 13.2693 20.478 13.2693 20.8284ZM1.3282 10.2073L5.73087 5.80427C5.97899 5.55612 6.31553 5.41671 6.66643 5.41671C7.01734 5.41671 7.35387 5.55612 7.602 5.80427C7.85013 6.05241 7.98952 6.38897 7.98952 6.7399C7.98952 7.09083 7.85013 7.42739 7.602 7.67554L5.4546 9.82089H14.5901C14.9404 9.82089 15.2764 9.96006 15.5241 10.2078C15.7718 10.4555 15.9109 10.7915 15.9109 11.1418C15.9109 11.4921 15.7718 11.8281 15.5241 12.0758C15.2764 12.3235 14.9404 12.4627 14.5901 12.4627H5.4546L7.6031 14.6102C7.85123 14.8584 7.99063 15.1949 7.99063 15.5459C7.99063 15.8968 7.85123 16.2334 7.6031 16.4815C7.35497 16.7297 7.01844 16.8691 6.66754 16.8691C6.31663 16.8691 5.9801 16.7297 5.73197 16.4815L1.3293 12.0785C1.2061 11.9559 1.10831 11.8101 1.04155 11.6496C0.974794 11.4891 0.940376 11.317 0.940275 11.1431C0.940172 10.9693 0.974388 10.7971 1.04096 10.6365C1.10752 10.4759 1.20514 10.33 1.3282 10.2073Z" fill="black"/>
</svg>
