<svg width="279" height="388" viewBox="0 0 279 388" fill="none" xmlns="http://www.w3.org/2000/svg">
<g clip-path="url(#clip0_4335_489)">
<mask id="mask0_4335_489" style="mask-type:luminance" maskUnits="userSpaceOnUse" x="0" y="0" width="279" height="381">
<path d="M139.36 0.77002C62.67 0.77002 0.5 62.94 0.5 139.63C0.5 245.41 93.34 271.86 135.69 378.33C137.02 381.67 141.71 381.67 143.04 378.33C185.38 271.86 278.23 245.41 278.23 139.63C278.22 62.94 216.05 0.77002 139.36 0.77002Z" fill="white"/>
</mask>
<g mask="url(#mask0_4335_489)">
<path d="M139.36 0.77002C62.67 0.77002 0.5 62.94 0.5 139.63C0.5 245.41 93.34 271.86 135.69 378.33C137.02 381.67 141.71 381.67 143.04 378.33C185.38 271.86 278.23 245.41 278.23 139.63C278.22 62.94 216.05 0.77002 139.36 0.77002Z" fill="white"/>
<path d="M183.55 129.14C192.243 129.14 199.29 122.093 199.29 113.4C199.29 104.707 192.243 97.6602 183.55 97.6602C174.857 97.6602 167.81 104.707 167.81 113.4C167.81 122.093 174.857 129.14 183.55 129.14Z" fill="white"/>
<path d="M185.42 321.96C183.15 321.96 181.61 320.93 180.79 318.87L145.77 218.53C145.1 216.62 143.3 215.34 141.27 215.34H119.99C117.07 215.34 114.7 217.71 114.7 220.63V337.67C114.7 338.8 113.78 339.72 112.65 339.72H71.3398C70.2098 339.72 69.2898 338.8 69.2898 337.67V88.5701C69.2898 86.7701 70.8198 85.9101 72.6098 85.9101L156.07 85.3101C166.77 85.3101 176.5 86.9101 185.26 90.1001C194.01 93.2901 201.52 97.7701 207.81 103.54C214.09 109.31 218.93 116.2 222.33 124.23C225.73 132.26 227.43 141.01 227.43 150.48C227.43 164.07 224.14 175.91 217.55 186C211.29 195.58 202.71 202.94 191.81 208.06C190.83 208.52 190.36 209.64 190.74 210.64L231.45 318.25C231.86 319.28 231.86 320.16 231.45 320.88C231.04 321.6 230.32 321.96 229.29 321.96H185.43H185.42Z" fill="#1E295D"/>
<path d="M181.28 333.38C179.01 333.38 177.47 332.35 176.65 330.29L138.4 218.22C137.87 216.67 136.42 215.64 134.79 215.64H113.23C110.1 215.64 107.56 218.18 107.56 221.31V328.05C107.56 330.38 105.67 332.26 103.35 332.26H66.3699C64.0399 332.26 62.1599 330.37 62.1599 328.05V90.5301C62.1599 87.8201 64.3599 85.6201 67.0699 85.6201H148.95C159.65 85.6201 169.38 87.2201 178.14 90.4101C186.89 93.6001 194.4 98.0801 200.69 103.85C206.97 109.62 211.81 116.51 215.21 124.54C218.61 132.57 220.31 141.32 220.31 150.79C220.31 164.38 217.02 176.22 210.43 186.31C204.43 195.49 196.31 202.62 186.06 207.71C184.31 208.58 183.48 210.62 184.15 212.46L227.32 329.69C227.73 330.72 227.73 331.6 227.32 332.32C226.91 333.04 226.19 333.4 225.16 333.4H181.3L181.28 333.38Z" fill="#253169"/>
<mask id="path-6-inside-1_4335_489" fill="white">
<path d="M102.94 173.72C102.92 173.42 102.86 173.31 102.84 173.35C102.89 173.48 102.93 173.6 102.94 173.71V173.72Z"/>
</mask>
<path d="M102.94 173.72C102.92 173.42 102.86 173.31 102.84 173.35C102.89 173.48 102.93 173.6 102.94 173.71V173.72Z" fill="#346287"/>
<path d="M102.94 173.72L101.942 173.787L103.94 173.72H102.94ZM102.84 173.35L101.946 172.903L101.748 173.297L101.907 173.709L102.84 173.35ZM102.94 173.71H103.94V173.665L103.936 173.62L102.94 173.71ZM103.938 173.654C103.925 173.459 103.896 173.263 103.839 173.091C103.822 173.04 103.757 172.843 103.592 172.667C103.525 172.594 103.246 172.314 102.784 172.344C102.26 172.379 102.015 172.763 101.946 172.903L103.735 173.797C103.67 173.927 103.431 174.306 102.914 174.34C102.46 174.37 102.189 174.095 102.13 174.031C102.042 173.936 101.996 173.848 101.979 173.815C101.958 173.773 101.947 173.74 101.941 173.724C101.924 173.672 101.935 173.682 101.942 173.787L103.938 173.654ZM101.907 173.709C101.928 173.764 101.939 173.797 101.945 173.818C101.951 173.839 101.947 173.83 101.944 173.801L103.936 173.62C103.912 173.359 103.825 173.125 103.773 172.991L101.907 173.709ZM101.94 173.71V173.72H103.94V173.71H101.94Z" fill="white" mask="url(#path-6-inside-1_4335_489)"/>
<path d="M170.231 182.764C186.808 166.186 186.808 139.308 170.231 122.73C153.653 106.153 126.775 106.153 110.197 122.73C93.6196 139.308 93.6196 166.186 110.197 182.764C126.775 199.342 153.653 199.342 170.231 182.764Z" fill="white" stroke="white" stroke-width="12.43" stroke-miterlimit="10"/>
<g opacity="0.9">
<mask id="path-9-inside-2_4335_489" fill="white">
<path d="M105.5 143.26C105.5 143.26 105.31 143.47 105.26 143.52C105.37 143.37 105.46 143.25 105.5 143.26Z"/>
</mask>
<path d="M105.5 143.26C105.5 143.26 105.31 143.47 105.26 143.52C105.37 143.37 105.46 143.25 105.5 143.26Z" fill="#4066B0"/>
<path d="M105.5 143.26L106.242 143.931L107.36 142.695L105.743 142.29L105.5 143.26ZM105.26 143.52L104.454 142.929L105.967 144.227L105.26 143.52ZM105.5 143.26C104.758 142.589 104.758 142.589 104.758 142.589C104.758 142.589 104.758 142.589 104.758 142.589C104.758 142.589 104.758 142.589 104.758 142.589C104.758 142.589 104.758 142.589 104.758 142.59C104.758 142.59 104.758 142.59 104.758 142.59C104.758 142.59 104.757 142.591 104.757 142.592C104.755 142.593 104.753 142.595 104.751 142.598C104.746 142.604 104.738 142.612 104.729 142.622C104.711 142.641 104.687 142.668 104.661 142.697C104.635 142.725 104.608 142.754 104.586 142.778C104.56 142.806 104.551 142.815 104.553 142.813L105.967 144.227C106.012 144.183 106.09 144.098 106.137 144.047C106.164 144.016 106.191 143.987 106.21 143.966C106.219 143.956 106.227 143.947 106.233 143.941C106.235 143.938 106.238 143.936 106.239 143.934C106.24 143.933 106.24 143.932 106.241 143.932C106.241 143.932 106.241 143.932 106.241 143.931C106.241 143.931 106.241 143.931 106.241 143.931C106.242 143.931 106.242 143.931 106.242 143.931C106.242 143.931 106.242 143.931 106.242 143.931C106.242 143.931 106.242 143.931 105.5 143.26ZM106.066 144.112C106.094 144.074 106.115 144.045 106.134 144.021C106.143 144.01 106.149 144.001 106.155 143.994C106.16 143.988 106.162 143.985 106.161 143.986C106.161 143.986 106.155 143.994 106.143 144.005C106.133 144.015 106.109 144.039 106.072 144.067C106.041 144.092 105.966 144.146 105.856 144.19C105.748 144.234 105.528 144.298 105.257 144.23L105.743 142.29C105.462 142.22 105.23 142.286 105.109 142.335C104.986 142.384 104.897 142.448 104.85 142.484C104.755 142.558 104.685 142.636 104.651 142.675C104.578 142.759 104.502 142.863 104.454 142.929L106.066 144.112Z" fill="white" mask="url(#path-9-inside-2_4335_489)"/>
</g>
<path d="M176.63 129.34C184.251 129.34 190.43 123.314 190.43 115.88C190.43 108.446 184.251 102.42 176.63 102.42C169.008 102.42 162.83 108.446 162.83 115.88C162.83 123.314 169.008 129.34 176.63 129.34Z" fill="#F6B319"/>
<path d="M177.75 128.9C185.714 128.9 192.17 122.444 192.17 114.48C192.17 106.516 185.714 100.06 177.75 100.06C169.786 100.06 163.33 106.516 163.33 114.48C163.33 122.444 169.786 128.9 177.75 128.9Z" fill="#253169"/>
</g>
<path d="M139.36 0.77002C62.67 0.77002 0.5 62.94 0.5 139.63C0.5 245.41 93.34 271.86 135.69 378.33C137.02 381.67 141.71 381.67 143.04 378.33C185.38 271.86 278.23 245.41 278.23 139.63C278.22 62.94 216.05 0.77002 139.36 0.77002Z" stroke="white" stroke-miterlimit="10"/>
</g>
<defs>
<clipPath id="clip0_4335_489">
<rect width="278.72" height="387.38" fill="white"/>
</clipPath>
</defs>
</svg>
