<svg width="39" height="46" viewBox="0 0 39 46" fill="none" xmlns="http://www.w3.org/2000/svg">
<g id="Group 12">
<path id="Vector" d="M21.0356 0.0262474C21.1721 0.0324784 21.1721 0.0324784 21.3114 0.0388354C25.3562 0.261182 29.4236 2.06371 32.4218 4.75261C32.5154 4.8332 32.609 4.91379 32.7055 4.99682C34.502 6.56177 35.8371 8.44971 36.9333 10.5532C37.0305 10.7351 37.0305 10.7351 37.1297 10.9207C38.9002 14.4458 39.4884 19.0272 38.5715 22.886C38.5524 22.9677 38.5334 23.0495 38.5138 23.1337C37.3963 27.8145 34.834 31.1772 31.4752 34.5005C31.2952 34.6794 31.1153 34.8584 30.9354 35.0374C30.5005 35.47 30.065 35.9019 29.629 36.3333C28.9031 35.7369 28.2455 35.0749 27.5817 34.4116C27.4576 34.2878 27.3334 34.164 27.2092 34.0402C26.9506 33.7822 26.6921 33.5239 26.4338 33.2655C26.1022 32.9339 25.7698 32.603 25.4372 32.2722C25.1813 32.0175 24.9259 31.7624 24.6707 31.507C24.5482 31.3847 24.4256 31.2626 24.3028 31.1406C24.1321 30.9709 23.962 30.8006 23.7921 30.63C23.6952 30.5332 23.5982 30.4364 23.4983 30.3367C23.2913 30.1031 23.2913 30.1031 23.2913 29.8883C23.3759 29.8582 23.4605 29.8282 23.5477 29.7972C26.5608 28.6883 28.8281 26.6845 30.1925 23.7672C31.3831 21.1035 31.5736 17.8852 30.5336 15.1318C29.2511 11.9774 26.9675 9.7912 23.867 8.45054C21.0315 7.37268 17.9245 7.52774 15.1513 8.72433C14.0295 9.24232 13.0375 9.94289 12.1199 10.768C12.0375 10.8415 11.9551 10.915 11.8702 10.9908C10.645 12.1476 9.86618 13.5276 9.21964 15.0647C9.18225 15.1514 9.14486 15.2381 9.10634 15.3274C8.366 17.2736 8.52379 19.4785 8.52077 21.5231C8.51975 21.9845 8.51693 22.446 8.51432 22.9075C8.50966 23.7782 8.50657 24.649 8.50408 25.5197C8.50116 26.5123 8.49644 27.505 8.49159 28.4976C8.48166 30.5366 8.47394 32.5756 8.46771 34.6147C8.34749 34.5121 8.22734 34.4095 8.10722 34.3069C8.00685 34.2212 8.00685 34.2212 7.90445 34.1338C6.7792 33.1578 5.70592 32.0498 4.81552 30.8551C4.75259 30.7722 4.75259 30.7722 4.68838 30.6877C1.57839 26.5786 0.31339 21.499 0.929216 16.3879C1.08806 15.2759 1.35449 14.1991 1.70041 13.1312C1.72293 13.0606 1.74545 12.9899 1.76865 12.9172C2.37167 11.0677 3.3184 9.30791 4.49327 7.7603C4.59691 7.62281 4.59691 7.62281 4.70265 7.48253C7.92964 3.3326 12.4713 0.821578 17.6611 0.100097C18.7851 -0.0344405 19.9064 -0.0263806 21.0356 0.0262474Z" fill="#263069"/>
<path id="Vector_2" d="M22.6536 14.0107C24.088 14.8897 25.0977 16.0644 25.5014 17.7168C25.5848 18.1696 25.5824 18.6203 25.5807 19.0794C25.5824 19.1741 25.5842 19.2688 25.5859 19.3664C25.587 20.7925 24.9826 22.1087 24.0202 23.1583C22.6601 24.4172 21.2461 24.9126 19.4176 24.8665C17.9052 24.7705 16.6343 24.0542 15.5573 23.0136C14.5687 21.831 14.1218 20.6398 14.1273 19.1063C14.1256 19.0116 14.1239 18.9168 14.1221 18.8193C14.121 17.3411 14.7448 16.0339 15.7512 14.9644C16.4575 14.2995 17.2214 13.8719 18.1353 13.5608C18.2306 13.5224 18.3259 13.4839 18.424 13.4442C19.8498 13.0507 21.3841 13.3147 22.6536 14.0107Z" fill="#263069"/>
<path id="Vector_3" d="M14.1608 29.029C14.8012 29.5598 15.3876 30.1337 15.9743 30.7228C16.0792 30.8277 16.1841 30.9326 16.289 31.0374C16.5717 31.3201 16.8541 31.6031 17.1364 31.8862C17.4322 32.1827 17.7284 32.4789 18.0245 32.7752C18.5843 33.3353 19.1438 33.8957 19.7033 34.4562C20.3405 35.0947 20.9781 35.7329 21.6157 36.371C22.9265 37.6829 24.2369 38.9952 25.5471 40.3078C25.1751 40.7484 24.798 41.1784 24.3942 41.5905C24.2992 41.6876 24.2042 41.7846 24.1063 41.8846C24.0047 41.9879 23.9029 42.0911 23.8011 42.1943C23.7491 42.2471 23.697 42.2999 23.6433 42.3542C23.3687 42.6324 23.0936 42.9101 22.8182 43.1875C22.591 43.4167 22.3647 43.6468 22.1391 43.8777C21.8654 44.1579 21.5901 44.4365 21.3136 44.714C21.2089 44.8196 21.1047 44.9259 21.0011 45.0326C20.8567 45.1812 20.71 45.3276 20.5633 45.4739C20.4805 45.5577 20.3978 45.6416 20.3126 45.728C20.0688 45.8935 20.0688 45.8935 19.804 45.8863C18.6887 45.4758 17.7065 44.5737 16.8127 43.8056C16.7181 43.7247 16.7181 43.7247 16.6217 43.6423C14.8907 42.1353 14.0196 40.6035 13.8432 38.2955C13.6722 35.212 13.8806 32.1005 14.1608 29.029Z" fill="#263069"/>
</g>
</svg>
