<svg width="30" height="30" viewBox="0 0 30 30" fill="none" xmlns="http://www.w3.org/2000/svg">
<g id="gis:location-poi-o" clip-path="url(#clip0_5122_495)">
<path id="Vector" d="M20.5918 14.9932L20.5779 15.0298C20.5822 15.0188 20.5857 15.0074 20.5901 14.9964L20.5918 14.9932Z" fill="#CEE4FF"/>
<path id="Vector_2" d="M15.1022 0.796295C10.319 0.796295 6.39331 4.70924 6.39331 9.48199C6.39331 11.3316 6.98548 13.0553 7.98403 14.4672L7.94833 14.4115L13.5234 24.0481L13.5516 24.085C13.7762 24.3782 13.9986 24.6145 14.2677 24.7924C14.5368 24.9703 14.8813 25.0827 15.2198 25.0487C15.8961 24.9808 16.2892 24.5134 16.6523 24.0211L16.6749 23.9907L22.8213 13.5308L22.8262 13.5221C22.9734 13.2565 23.0799 12.9885 23.1711 12.729C23.5926 11.6984 23.8096 10.5955 23.81 9.48199C23.81 4.70924 19.8854 0.796295 15.1022 0.796295ZM15.1022 2.24768C19.0947 2.24768 22.3586 5.50402 22.3586 9.48199C22.3588 10.4111 22.1774 11.3314 21.8245 12.1909L21.8172 12.2089L21.8108 12.2277C21.7345 12.4475 21.6515 12.6469 21.5557 12.8199L15.4717 23.1729C15.2027 23.5274 15.0146 23.6113 15.0749 23.6049C15.106 23.602 15.1347 23.6264 15.0683 23.5822C15.0047 23.5401 14.8749 23.4168 14.7211 23.2205L9.18869 13.6556L9.16924 13.6286C8.33527 12.4501 7.8447 11.0228 7.8447 9.48199C7.8447 5.50431 11.1097 2.24768 15.1022 2.24768ZM15.1022 4.52636C12.3556 4.52636 10.1341 6.74002 10.1341 9.48199C10.1341 12.224 12.3559 14.4376 15.1022 14.4376C17.8485 14.4376 20.0692 12.2237 20.0692 9.48199C20.0692 6.74002 17.8485 4.52636 15.1022 4.52636ZM15.1022 5.97775C17.081 5.97775 18.6178 7.51187 18.6178 9.48199C18.6178 11.4521 17.0813 12.9862 15.1022 12.9862C13.1231 12.9862 11.5855 11.4518 11.5855 9.48199C11.5855 7.51187 13.1234 5.97775 15.1022 5.97775Z" fill="#CEE4FF"/>
<path id="Vector_3" d="M10.4591 20.842C6.35867 21.4214 3.49072 22.8075 3.49072 24.8478C3.49072 27.5962 8.28263 29.8241 15.1018 29.8241C21.921 29.8241 26.7129 27.5962 26.7129 24.8478C26.7129 22.8075 23.8453 21.4214 19.7451 20.842L19.177 21.8092C22.2673 22.238 24.3907 23.139 24.3907 24.1846C24.3907 25.6505 20.2319 26.8386 15.1018 26.8386C9.97175 26.8386 5.81294 25.6505 5.81294 24.1846C5.81265 23.1425 7.9221 22.2423 11.022 21.8118C10.8348 21.4885 10.6467 21.1657 10.4591 20.842Z" fill="#CEE4FF"/>
</g>
<defs>
<clipPath id="clip0_5122_495">
<rect width="29.0278" height="29.0278" fill="white" transform="translate(0.587891 0.796295)"/>
</clipPath>
</defs>
</svg>
