<svg width="390" height="280" viewBox="0 0 390 280" fill="none" xmlns="http://www.w3.org/2000/svg">
<path d="M342.137 52.9419C357.988 98.2142 344.29 151.016 312.524 186.963C280.757 222.91 233.114 242.676 185.233 245.932C151.069 248.257 105.711 242.188 77.2262 223.181C48.742 204.173 28.9423 176.244 35.8108 140.264C38.2345 127.557 46.4371 110.544 56.2246 102.117C71.8438 88.605 95.1899 91.0816 115.604 94.3574C136.018 97.6331 159.337 100.169 175.042 86.736C187.089 76.4069 190.833 59.6584 198.289 45.6507C210.97 21.8291 236.277 5.2259 263.177 3.0795C266.912 2.78393 270.665 2.75965 274.404 3.00685C303.43 4.93531 328.83 23.282 340.757 49.818L342.137 52.9419Z" fill="#F5F5F5"/>
<path d="M68.9648 116.667L68.9648 271.868C68.9648 276.081 72.38 279.496 76.5928 279.496H305.96C310.172 279.496 313.588 276.081 313.588 271.868V116.667C313.588 112.455 310.172 109.039 305.96 109.039L76.5928 109.039C72.38 109.039 68.9648 112.455 68.9648 116.667Z" fill="#263238"/>
<path d="M85.6992 114.415L85.6992 274.126H289.99V114.415H85.6992Z" fill="white"/>
<path d="M307.68 195.787C308.506 192.272 306.327 188.753 302.812 187.926C299.296 187.1 295.777 189.28 294.95 192.795C294.124 196.31 296.304 199.829 299.819 200.656C303.334 201.482 306.853 199.303 307.68 195.787Z" fill="#455A64"/>
<path d="M76.0049 169.403V219.133C76.0049 219.578 76.3656 219.939 76.8106 219.939H77.9003C78.3453 219.939 78.706 219.578 78.706 219.133V169.403C78.706 168.958 78.3453 168.597 77.9003 168.597H76.8106C76.3656 168.597 76.0049 168.958 76.0049 169.403Z" fill="#455A64"/>
<path d="M143.651 208.123C148.662 200.509 146.552 190.274 138.938 185.263C131.324 180.252 121.089 182.363 116.078 189.977C111.067 197.591 113.177 207.825 120.791 212.836C128.405 217.847 138.64 215.737 143.651 208.123Z" fill="#1E1E1E"/>
<path d="M143.651 208.123C148.662 200.509 146.552 190.274 138.938 185.263C131.324 180.252 121.089 182.363 116.078 189.977C111.067 197.591 113.177 207.825 120.791 212.836C128.405 217.847 138.64 215.737 143.651 208.123Z" fill="#E24444"/>
<path d="M124.143 194.908C124.764 194.855 125.332 195.569 125.411 196.454C125.49 197.339 125.034 198.125 124.407 198.177C123.78 198.23 123.218 197.517 123.146 196.639C123.073 195.76 123.542 194.961 124.143 194.908Z" fill="#263238"/>
<path d="M134.657 194.69C134.036 194.69 133.495 195.351 133.455 196.289C133.415 197.226 133.897 197.946 134.525 197.973C135.152 197.999 135.694 197.312 135.727 196.381C135.76 195.45 135.284 194.717 134.657 194.69Z" fill="#263238"/>
<path d="M136.46 202.344C136.46 202.536 133.383 202.694 129.592 202.694C125.801 202.694 122.717 202.536 122.717 202.344C122.717 202.153 125.794 201.988 129.592 201.988C133.389 201.988 136.46 202.14 136.46 202.344Z" fill="#263238"/>
<path d="M125.464 193.013C125.424 193.211 124.638 193.204 123.72 193.35C122.802 193.495 122.056 193.733 121.957 193.561C121.858 193.389 122.551 192.821 123.614 192.656C124.678 192.491 125.464 192.828 125.464 193.013Z" fill="#263238"/>
<path d="M137.635 193.812C137.516 193.97 136.803 193.6 135.885 193.323C134.967 193.046 134.174 192.947 134.155 192.742C134.135 192.537 135.033 192.319 136.09 192.649C137.146 192.98 137.761 193.673 137.635 193.812Z" fill="#263238"/>
<path d="M266.244 200.398C267.73 191.069 261.372 182.301 252.043 180.815C242.714 179.329 233.946 185.688 232.46 195.017C230.974 204.346 237.332 213.114 246.662 214.6C255.991 216.086 264.758 209.727 266.244 200.398Z" fill="#1E1E1E"/>
<path d="M266.244 200.398C267.73 191.069 261.372 182.301 252.043 180.815C242.714 179.329 233.946 185.688 232.46 195.017C230.974 204.346 237.332 213.114 246.662 214.6C255.991 216.086 264.758 209.727 266.244 200.398Z" fill="#009C89"/>
<path d="M243.436 193.389C244.097 193.336 244.678 194.05 244.757 194.987C244.836 195.925 244.374 196.724 243.727 196.777C243.079 196.83 242.485 196.117 242.406 195.179C242.327 194.241 242.789 193.442 243.436 193.389Z" fill="#263238"/>
<path d="M254.313 193.165C253.653 193.165 253.105 193.878 253.065 194.816C253.026 195.753 253.527 196.533 254.175 196.559C254.822 196.586 255.383 195.846 255.423 194.908C255.463 193.97 254.967 193.191 254.313 193.165Z" fill="#263238"/>
<path d="M256.183 201.09C256.11 201.182 255.397 200.674 254.201 200.046C252.629 199.225 250.883 198.795 249.11 198.791C247.334 198.87 245.595 199.32 244.004 200.112C242.763 200.72 242.023 201.182 241.964 201.09C241.904 200.997 242.552 200.429 243.773 199.676C245.384 198.703 247.216 198.155 249.096 198.085C250.988 198.08 252.842 198.608 254.446 199.61C255.628 200.363 256.229 201.024 256.183 201.09Z" fill="#263238"/>
<path d="M244.744 191.421C244.804 191.494 244.692 191.712 244.408 191.956C244.035 192.292 243.579 192.52 243.087 192.617C242.586 192.712 242.068 192.655 241.601 192.452C241.251 192.293 241.092 192.108 241.132 192.022C241.172 191.936 242.023 192.108 242.961 191.923C243.899 191.738 244.619 191.263 244.744 191.421Z" fill="#263238"/>
<path d="M257.404 192.253C257.404 192.339 257.245 192.504 256.862 192.623C256.358 192.766 255.823 192.747 255.33 192.57C254.846 192.4 254.413 192.111 254.069 191.731C253.818 191.441 253.725 191.21 253.791 191.144C253.857 191.078 254.63 191.579 255.554 191.903C256.479 192.227 257.338 192.055 257.404 192.253Z" fill="#263238"/>
<path d="M216.557 245.18L220.519 243.218L224.389 245.371L223.742 240.993L226.985 237.981L222.619 237.241L220.757 233.226L218.71 237.149L214.318 237.677L217.409 240.841L216.557 245.18Z" fill="#E0E0E0"/>
<path d="M200.389 245.18L204.352 243.218L208.222 245.371L207.575 240.993L210.817 237.981L206.452 237.241L204.59 233.226L202.542 237.149L198.15 237.677L201.241 240.841L200.389 245.18Z" fill="#008C7B"/>
<path d="M184.222 245.18L188.185 243.218L192.048 245.371L191.408 240.993L194.65 237.981L190.285 237.241L188.423 233.226L186.375 237.149L181.983 237.677L185.074 240.841L184.222 245.18Z" fill="#008C7B"/>
<path d="M168.056 245.18L172.018 243.218L175.882 245.371L175.241 240.993L178.484 237.981L174.118 237.241L172.256 233.226L170.209 237.149L165.817 237.677L168.908 240.841L168.056 245.18Z" fill="#008C7B"/>
<path d="M151.888 245.18L155.85 243.218L159.714 245.371L159.073 240.993L162.316 237.981L157.951 237.241L156.088 233.226L154.041 237.149L149.649 237.677L152.74 240.841L151.888 245.18Z" fill="#008C7B"/>
<path d="M227.169 147.866C227.169 147.965 209.43 148.044 187.543 148.044C165.657 148.044 147.917 147.965 147.917 147.866C147.917 147.767 165.65 147.694 187.543 147.694C209.436 147.694 227.169 147.773 227.169 147.866Z" fill="#263238"/>
<path d="M207.688 143.111C207.688 143.21 198.93 143.289 188.126 143.289C177.321 143.289 168.557 143.21 168.557 143.111C168.557 143.012 177.314 142.932 188.126 142.932C198.937 142.932 207.688 143.012 207.688 143.111Z" fill="#263238"/>
<path d="M212.398 200.689C216.215 188.844 209.706 176.147 197.861 172.33C186.016 168.513 173.319 175.022 169.502 186.867C165.685 198.713 172.194 211.409 184.039 215.226C195.885 219.043 208.581 212.534 212.398 200.689Z" fill="#E4A70A"/>
<path d="M183.159 188.079C184.011 188.013 184.784 188.951 184.889 190.186C184.995 191.421 184.381 192.471 183.529 192.544C182.677 192.616 181.898 191.672 181.799 190.444C181.7 189.215 182.307 188.152 183.159 188.079Z" fill="#263238"/>
<path d="M197.483 187.815C196.631 187.776 195.892 188.753 195.846 189.988C195.799 191.223 196.447 192.253 197.299 192.286C198.15 192.319 198.89 191.349 198.943 190.114C198.996 188.879 198.342 187.815 197.483 187.815Z" fill="#263238"/>
<path d="M199.94 195.179C199.98 195.218 199.795 195.45 199.432 195.839C198.915 196.397 198.349 196.907 197.741 197.365C196.83 198.047 195.828 198.596 194.763 198.996C193.443 199.491 192.037 199.716 190.628 199.657C189.23 199.582 187.856 199.265 186.567 198.719C185.521 198.296 184.519 197.771 183.575 197.154C181.977 196.084 181.131 195.251 181.178 195.172C181.224 195.093 182.208 195.767 183.819 196.704C184.77 197.246 185.761 197.712 186.785 198.098C188.02 198.579 189.324 198.862 190.648 198.937C191.966 198.992 193.283 198.802 194.531 198.375C195.556 198.019 196.534 197.54 197.444 196.949C198.21 196.42 198.831 195.978 199.234 195.628C199.637 195.278 199.907 195.146 199.94 195.179Z" fill="#263238"/>
<path d="M184.176 183.014C184.137 183.212 183.06 183.139 181.779 183.344C180.498 183.548 179.494 183.938 179.395 183.76C179.296 183.581 180.247 182.868 181.673 182.65C183.1 182.432 184.242 182.829 184.176 183.014Z" fill="#263238"/>
<path d="M202.318 184.064C202.192 184.223 201.241 183.655 199.96 183.272C198.679 182.889 197.576 182.809 197.569 182.611C197.563 182.413 198.752 182.162 200.171 182.611C201.591 183.06 202.443 183.925 202.318 184.064Z" fill="#263238"/>
<path d="M181.548 193.561C181.634 193.561 181.779 193.779 181.799 194.221C181.809 194.78 181.638 195.327 181.31 195.78C180.99 196.243 180.525 196.586 179.989 196.757C179.58 196.876 179.329 196.817 179.296 196.757C179.296 196.559 180.128 196.269 180.722 195.397C181.317 194.525 181.35 193.594 181.548 193.561Z" fill="#263238"/>
<path d="M201.85 195.634C201.85 195.72 201.678 195.859 201.328 195.885C200.868 195.906 200.415 195.766 200.047 195.489C199.671 195.217 199.402 194.822 199.287 194.373C199.215 194.029 199.287 193.812 199.38 193.805C199.578 193.805 199.803 194.465 200.463 194.921C201.123 195.377 201.804 195.436 201.85 195.634Z" fill="#263238"/>
<path d="M218.485 193.561C218.485 193.561 218.485 193.409 218.446 193.105L218.36 191.785C218.36 191.494 218.327 191.164 218.307 190.807C218.287 190.45 218.188 190.061 218.129 189.638C218.069 189.215 217.99 188.76 217.911 188.278C217.816 187.761 217.694 187.25 217.547 186.745C216.893 184.129 215.847 181.626 214.443 179.322C212.612 176.25 210.206 173.559 207.357 171.397L206.148 170.506C205.726 170.228 205.283 169.971 204.828 169.7C204.372 169.429 203.949 169.132 203.467 168.914L202.021 168.22L201.288 167.87L200.515 167.593L198.943 167.018C198.415 166.84 197.853 166.728 197.305 166.583C196.753 166.418 196.19 166.29 195.621 166.2C194.459 165.982 193.282 165.846 192.101 165.79C191.5 165.79 190.893 165.711 190.285 165.724L188.442 165.816C188.132 165.816 187.822 165.816 187.511 165.876L186.58 166.021C185.966 166.12 185.332 166.193 184.711 166.325C183.45 166.603 182.21 166.967 180.999 167.415C179.754 167.863 178.54 168.394 177.367 169.006C176.779 169.33 176.218 169.7 175.637 170.043C175.353 170.228 175.049 170.38 174.778 170.585L173.959 171.199C172.85 172.023 171.795 172.919 170.802 173.88L169.389 175.439L169.032 175.835L168.709 176.258L168.048 177.11L167.388 177.962L166.826 178.88L166.265 179.804L165.988 180.267L165.75 180.749L164.806 182.73L164.053 184.791C162.137 190.488 162.137 196.654 164.053 202.351C164.31 203.012 164.561 203.725 164.812 204.412C165.063 205.099 165.44 205.733 165.757 206.393L165.994 206.882L166.272 207.344L166.833 208.262L167.394 209.18L168.055 210.039L168.715 210.891L169.032 211.313L169.389 211.703L170.802 213.262C171.795 214.225 172.849 215.123 173.959 215.95L174.785 216.557C175.055 216.769 175.359 216.92 175.643 217.105C176.224 217.449 176.786 217.819 177.374 218.142C179.698 219.345 182.165 220.246 184.718 220.824C185.338 220.956 185.972 221.028 186.593 221.127L187.518 221.273C187.828 221.312 188.139 221.312 188.449 221.332L190.292 221.425C190.899 221.425 191.507 221.378 192.108 221.359C193.289 221.303 194.465 221.167 195.628 220.949C196.196 220.856 196.759 220.728 197.312 220.566C197.867 220.421 198.421 220.302 198.956 220.13L200.522 219.556L201.294 219.278L202.027 218.928L203.474 218.235C203.94 217.996 204.395 217.734 204.834 217.449C205.277 217.178 205.726 216.92 206.155 216.643L207.357 215.745C210.208 213.583 212.617 210.893 214.45 207.82C215.853 205.505 216.897 202.991 217.547 200.364C217.694 199.862 217.816 199.352 217.911 198.838C217.99 198.356 218.063 197.9 218.129 197.477C218.195 197.055 218.267 196.665 218.307 196.308C218.347 195.952 218.347 195.648 218.36 195.331C218.399 194.756 218.426 194.314 218.446 194.01C218.465 193.706 218.485 193.554 218.485 193.554C218.485 193.554 218.485 193.706 218.485 194.01C218.485 194.314 218.452 194.763 218.432 195.331C218.432 195.628 218.432 195.991 218.393 196.315C218.353 196.639 218.287 197.068 218.234 197.491C218.181 197.913 218.102 198.376 218.03 198.864C217.939 199.381 217.822 199.892 217.68 200.397C217.051 203.042 216.02 205.574 214.622 207.906C212.792 211.007 210.379 213.725 207.515 215.91L206.3 216.821C205.878 217.105 205.429 217.363 204.979 217.64C204.53 217.918 204.094 218.215 203.606 218.433L202.153 219.139L201.413 219.516L200.634 219.8L199.055 220.381C198.514 220.566 197.953 220.678 197.398 220.83C196.838 220.996 196.269 221.129 195.694 221.226C194.518 221.447 193.329 221.586 192.134 221.643C191.533 221.643 190.919 221.728 190.305 221.722L188.442 221.629C188.125 221.629 187.782 221.629 187.498 221.57L186.56 221.425C185.933 221.326 185.292 221.253 184.665 221.121C183.39 220.837 182.135 220.47 180.907 220.024C179.648 219.572 178.422 219.036 177.235 218.42C176.634 218.096 176.066 217.72 175.478 217.37C175.178 217.203 174.886 217.02 174.606 216.821L173.774 216.201C172.65 215.37 171.582 214.465 170.578 213.493L169.145 211.914L168.781 211.518L168.458 211.089L167.797 210.23L167.137 209.359L166.569 208.434L166.001 207.503L165.717 207.034L165.479 206.539L164.522 204.557C164.264 203.864 164.013 203.164 163.756 202.47C161.818 196.702 161.818 190.459 163.756 184.692L164.522 182.605L165.479 180.623L165.724 180.128L166.008 179.659L166.576 178.728L167.143 177.803L167.804 176.938L168.464 176.073L168.788 175.644L169.145 175.247C169.627 174.726 170.102 174.197 170.578 173.676C171.584 172.703 172.651 171.796 173.774 170.961L174.606 170.34C174.884 170.136 175.188 169.977 175.478 169.792C176.066 169.449 176.64 169.072 177.235 168.749C178.422 168.132 179.648 167.596 180.907 167.144C182.135 166.698 183.39 166.332 184.665 166.048C185.292 165.916 185.933 165.843 186.56 165.744L187.498 165.599C187.808 165.559 188.125 165.559 188.436 165.539L190.298 165.447C190.919 165.447 191.527 165.499 192.134 165.526C193.329 165.583 194.518 165.722 195.694 165.942C196.268 166.041 196.837 166.171 197.398 166.332C197.953 166.49 198.514 166.602 199.049 166.781L200.634 167.362L201.413 167.652L202.153 168.009L203.612 168.709C204.101 168.934 204.53 169.251 204.979 169.508C205.429 169.766 205.878 170.043 206.3 170.327L207.515 171.239C210.377 173.419 212.79 176.133 214.622 179.23C216.02 181.555 217.053 184.081 217.686 186.719C217.805 187.267 217.983 187.769 218.036 188.258C218.089 188.747 218.175 189.202 218.241 189.632C218.307 190.061 218.366 190.444 218.399 190.807C218.432 191.17 218.399 191.468 218.439 191.785C218.439 192.366 218.479 192.808 218.492 193.105C218.505 193.403 218.485 193.561 218.485 193.561Z" fill="#1E1E1E"/>
<path d="M289.99 114.415H85.6992V124.605H289.99V114.415Z" fill="#E0E0E0"/>
<path d="M92.2899 119.23C92.2899 119.503 92.2089 119.77 92.0573 119.997C91.9056 120.224 91.69 120.4 91.4378 120.505C91.1856 120.609 90.9081 120.637 90.6403 120.583C90.3726 120.53 90.1266 120.399 89.9336 120.206C89.7405 120.013 89.6091 119.767 89.5558 119.499C89.5026 119.231 89.5299 118.954 89.6344 118.701C89.7388 118.449 89.9158 118.234 90.1427 118.082C90.3697 117.93 90.6366 117.849 90.9096 117.849C91.2757 117.849 91.6268 117.995 91.8856 118.254C92.1445 118.513 92.2899 118.864 92.2899 119.23Z" fill="white"/>
<path d="M96.8739 119.23C96.8739 119.503 96.7929 119.77 96.6413 119.997C96.4896 120.224 96.274 120.4 96.0218 120.505C95.7696 120.609 95.492 120.637 95.2243 120.583C94.9565 120.53 94.7106 120.399 94.5176 120.206C94.3245 120.013 94.1931 119.767 94.1398 119.499C94.0865 119.231 94.1139 118.954 94.2183 118.701C94.3228 118.449 94.4997 118.234 94.7267 118.082C94.9537 117.93 95.2206 117.849 95.4936 117.849C95.8597 117.849 96.2107 117.995 96.4696 118.254C96.7285 118.513 96.8739 118.864 96.8739 119.23Z" fill="white"/>
<path d="M101.464 119.23C101.464 119.503 101.383 119.77 101.232 119.997C101.08 120.224 100.864 120.4 100.612 120.505C100.36 120.609 100.082 120.637 99.8146 120.583C99.5469 120.53 99.3009 120.399 99.1079 120.206C98.9149 120.013 98.7834 119.767 98.7301 119.499C98.6769 119.231 98.7042 118.954 98.8087 118.701C98.9132 118.449 99.0901 118.234 99.3171 118.082C99.544 117.93 99.8109 117.849 100.084 117.849C100.449 117.851 100.8 117.997 101.058 118.256C101.316 118.514 101.462 118.864 101.464 119.23Z" fill="white"/>
<path d="M267.455 155.904C267.455 156.003 232.01 156.082 188.29 156.082C144.569 156.082 109.118 156.003 109.118 155.904C109.118 155.805 144.563 155.732 188.29 155.732C232.017 155.732 267.455 155.811 267.455 155.904Z" fill="#E0E0E0"/>
<path d="M267.455 159.833C267.455 159.925 232.01 160.004 188.29 160.004C144.569 160.004 109.118 159.925 109.118 159.833C109.118 159.74 144.563 159.654 188.29 159.654C232.017 159.654 267.455 159.733 267.455 159.833Z" fill="#E0E0E0"/>
<path d="M163.571 110.116C163.571 110.116 162.178 106.952 161.914 106.259C161.207 104.363 156.63 91.6632 157.733 89.748C162.799 80.852 166.728 74.5581 176.72 74.5581L194.374 74.4393C194.374 74.4393 211.096 71.0315 222.884 109.072L163.571 110.116Z" fill="#455A64"/>
<path d="M126.336 113.299L149.451 108.319L176.621 94.0341L176.72 74.5316C172.645 73.4089 164.832 76.2356 150.798 83.388L129.935 94.1596C128.265 95.0206 126.813 96.2515 125.69 97.7586C124.567 99.2657 123.803 101.009 123.456 102.856C123.109 104.703 123.188 106.605 123.687 108.417C124.186 110.229 125.092 111.903 126.336 113.312V113.299Z" fill="#455A64"/>
<path d="M178.351 151.049C178.014 149.953 178.245 149.246 179.843 149.788C183.37 150.97 186.52 150.58 187.286 149.9C188.052 149.22 187.352 147.919 186.203 148.018C184.949 148.014 183.7 147.841 182.492 147.502C181.511 147.269 180.576 146.874 179.724 146.334C178.985 145.865 178.351 145.422 177.789 145.013C177.789 145.013 174.534 142.662 173.516 140.773L162.362 145.548L164.158 151.135C164.372 152.114 164.829 153.024 165.488 153.779C166.148 154.534 166.987 155.111 167.929 155.454C171.119 156.491 176.191 156.114 176.191 156.114C177.122 155.507 180.709 160.698 181.798 162.527C182.888 164.357 184.176 164.588 184.598 163.472C184.882 162.706 181.693 157.019 180.583 155.229C179.687 153.918 178.939 152.511 178.351 151.036" fill="#B77153"/>
<path d="M170.795 156.115C170.795 156.154 170.518 156.115 170.135 155.956C169.64 155.704 169.232 155.308 168.966 154.82C168.693 154.336 168.567 153.783 168.603 153.229C168.642 152.806 168.774 152.568 168.814 152.568C168.764 153.285 168.926 154.001 169.278 154.628C169.63 155.254 170.157 155.764 170.795 156.095V156.115Z" fill="#995037"/>
<path d="M174.336 156.28C174.336 156.319 174.071 156.28 173.715 156.101C173.252 155.842 172.874 155.454 172.625 154.985C172.37 154.519 172.251 153.99 172.282 153.46C172.321 153.057 172.434 152.799 172.48 152.845C172.5 153.529 172.655 154.203 172.935 154.827C173.306 155.395 173.781 155.888 174.336 156.28Z" fill="#995037"/>
<path d="M125.676 112.526C125.676 112.526 161.088 153.222 161.042 152.548C160.995 151.874 176.892 140 176.892 140L142.2 98.6571L125.676 112.526Z" fill="#455A64"/>
<path d="M147.152 104.548C147.152 104.548 147.245 104.621 147.403 104.786L148.064 105.526L150.441 108.273C152.423 110.598 155.177 113.834 158.188 117.42C161.2 121.006 163.914 124.269 165.862 126.666L168.154 129.486L168.768 130.265C168.9 130.444 168.973 130.543 168.96 130.549C168.869 130.481 168.786 130.401 168.715 130.312L168.055 129.572C167.454 128.912 166.655 127.954 165.677 126.825C163.696 124.5 160.935 121.264 157.924 117.678C154.912 114.092 152.205 110.829 150.25 108.432L147.958 105.612C147.714 105.301 147.509 105.044 147.35 104.832C147.273 104.746 147.207 104.65 147.152 104.548Z" fill="#263238"/>
<path d="M209.794 109.224C210.034 108.362 210.175 107.476 210.217 106.583C210.239 105.524 210.045 104.473 209.648 103.492C209.251 102.511 208.658 101.621 207.905 100.877C207.047 99.9718 206.122 99.1925 205.376 98.3735C204.693 97.6607 204.154 96.8218 203.791 95.9035C203.542 95.2745 203.442 94.5963 203.5 93.9222C203.514 93.6766 203.577 93.4362 203.685 93.2156C203.567 94.0888 203.683 94.9778 204.022 95.7913C204.409 96.6615 204.948 97.4555 205.614 98.1358C206.353 98.9217 207.278 99.6878 208.156 100.612C209.014 101.473 209.666 102.516 210.065 103.664C210.382 104.598 210.518 105.584 210.468 106.569C210.437 107.232 210.311 107.886 210.092 108.511C210.033 108.764 209.932 109.005 209.794 109.224Z" fill="#263238"/>
<path d="M162.032 77.9195C162.032 77.9195 162.21 77.8271 162.547 77.6752C162.884 77.5233 163.406 77.3318 164.079 77.1204C164.906 76.8661 165.755 76.6936 166.615 76.6053C167.765 76.4805 168.929 76.5883 170.036 76.9223C171.379 77.3489 172.584 78.1237 173.53 79.1678C174.605 80.3889 175.338 81.8719 175.657 83.4671C176.056 85.1982 176.17 86.9828 175.993 88.7506C175.783 90.6491 175.102 92.4652 174.012 94.034C172.861 95.552 171.423 96.8289 169.779 97.7918C168.227 98.7693 166.668 99.5618 165.189 100.341L157.323 104.475L152.04 107.229L150.587 107.962C150.421 108.057 150.246 108.134 150.065 108.194C150.221 108.084 150.384 107.985 150.554 107.896L151.974 107.104L157.257 104.251L165.076 100.057C166.549 99.2712 168.114 98.4655 169.64 97.4946C171.243 96.5522 172.647 95.3073 173.774 93.8293C174.828 92.3002 175.482 90.5314 175.676 88.6845C175.848 86.9618 175.744 85.2227 175.366 83.5332C175.077 82.0001 174.394 80.5685 173.385 79.3791C172.482 78.3589 171.324 77.5975 170.03 77.1733C168.963 76.8383 167.841 76.715 166.728 76.81C165.876 76.8827 165.034 77.0352 164.211 77.2657C163.551 77.4572 163.016 77.629 162.666 77.7544C162.462 77.835 162.249 77.8904 162.032 77.9195Z" fill="#263238"/>
<path d="M151.049 108.28C150.93 108.313 150.639 105.942 149.067 103.557C147.496 101.173 145.488 99.9185 145.567 99.826C146.05 100.017 146.497 100.29 146.888 100.632C148.848 102.183 150.241 104.337 150.851 106.761C151.004 107.252 151.071 107.766 151.049 108.28Z" fill="#263238"/>
<path d="M203.091 103.855C202.847 103.946 202.595 104.014 202.338 104.06C201.603 104.201 200.851 104.235 200.106 104.159C198.922 104.036 197.777 103.66 196.751 103.056C195.385 102.242 194.303 101.027 193.654 99.5753C192.852 97.8113 192.7 95.8204 193.224 93.9551C193.52 92.8975 194.183 91.9798 195.093 91.3662C195.591 91.0362 196.196 90.9108 196.784 91.0161C197.375 91.1529 197.897 91.5004 198.25 91.9936C198.903 93.0333 199.313 94.2067 199.45 95.4266C199.587 96.6465 199.448 97.8816 199.043 99.0404C198.648 100.28 197.97 101.411 197.061 102.343C196.109 103.295 194.922 103.978 193.621 104.324C192.339 104.678 190.988 104.701 189.694 104.391C188.401 104.082 187.207 103.45 186.224 102.554C185.348 101.692 184.69 100.634 184.305 99.4668C183.92 98.2997 183.82 97.0577 184.011 95.8439C184.179 94.7134 184.634 93.6447 185.332 92.7399C185.681 92.2977 186.135 91.9503 186.653 91.7294C187.173 91.5144 187.758 91.5144 188.278 91.7294C188.747 91.949 189.152 92.2854 189.454 92.7063C189.755 93.1272 189.944 93.6186 190.001 94.1334C190.074 95.0637 189.889 95.996 189.467 96.8279C188.766 98.2396 187.812 99.5109 186.653 100.579C185.786 101.384 184.815 102.071 183.767 102.62C183.108 102.969 182.418 103.259 181.707 103.485C181.469 103.564 181.277 103.604 181.152 103.637C181.088 103.659 181.021 103.672 180.954 103.677C181.011 103.643 181.074 103.619 181.139 103.604C181.264 103.558 181.449 103.505 181.687 103.412C182.381 103.163 183.055 102.858 183.701 102.501C184.726 101.936 185.674 101.241 186.521 100.434C187.644 99.373 188.566 98.1178 189.242 96.7289C189.634 95.9348 189.803 95.0491 189.731 94.1664C189.675 93.7023 189.501 93.2601 189.228 92.8813C188.954 92.5024 188.588 92.1992 188.166 92.0002C187.717 91.8153 187.214 91.8153 186.765 92.0002C186.298 92.2035 185.889 92.5215 185.577 92.9248C184.904 93.7868 184.467 94.8086 184.309 95.8901C184.129 97.0501 184.228 98.2361 184.598 99.3502C184.968 100.464 185.597 101.474 186.435 102.296C187.377 103.142 188.518 103.736 189.751 104.023C190.984 104.311 192.269 104.282 193.489 103.941C194.734 103.629 195.874 102.991 196.791 102.092C197.666 101.209 198.324 100.135 198.713 98.9545C199.089 97.8127 199.222 96.6044 199.102 95.408C199.052 94.8294 198.93 94.2592 198.739 93.7107C198.58 93.1722 198.33 92.6651 197.999 92.2115C197.691 91.778 197.236 91.4707 196.718 91.3464C196.211 91.2537 195.687 91.3627 195.259 91.6502C194.403 92.2086 193.776 93.0541 193.489 94.0343C192.97 95.8333 193.101 97.7575 193.858 99.4696C194.476 100.888 195.516 102.08 196.837 102.884C197.833 103.492 198.948 103.88 200.106 104.02C201.103 104.131 202.112 104.075 203.091 103.855Z" fill="#FAFAFA"/>
<path d="M205.759 64.2288C205.007 63.3129 204.468 62.2414 204.181 61.0918C204.062 60.722 204.049 60.3265 204.141 59.9493C204.189 59.7596 204.298 59.5914 204.453 59.4716C204.607 59.3518 204.798 59.2875 204.993 59.2888C205.389 59.2888 205.654 59.6917 205.872 60.0285C206.517 61.0005 207.062 62.0362 207.496 63.1193C207.624 63.4154 207.689 63.7347 207.688 64.0571C207.686 64.2181 207.644 64.3761 207.564 64.5159C207.484 64.6558 207.37 64.7729 207.232 64.8563C207.069 64.9267 206.891 64.9516 206.715 64.9284C206.539 64.9051 206.373 64.8345 206.235 64.7242C205.969 64.4988 205.746 64.2283 205.574 63.9251" fill="#995037"/>
<path d="M207.456 63.496L205.712 59.8373C205.515 59.4874 205.391 59.1008 205.349 58.7013C205.332 58.5007 205.377 58.2996 205.477 58.125C205.578 57.9504 205.729 57.8105 205.911 57.7239C206.079 57.6754 206.257 57.6732 206.427 57.7173C206.597 57.7615 206.751 57.8504 206.875 57.9749C207.123 58.2212 207.323 58.5126 207.463 58.8334L208.288 60.4383C208.533 60.8636 208.715 61.3217 208.83 61.7987C208.886 62.0391 208.891 62.2886 208.844 62.531C208.798 62.7733 208.7 63.0032 208.559 63.2055C208.408 63.4009 208.194 63.5384 207.954 63.595C207.713 63.6515 207.46 63.6235 207.238 63.5159" fill="#995037"/>
<path d="M199.696 74.8092C199.696 74.8092 197.265 71.6589 197.054 70.0012C196.843 68.3436 198.87 65.3782 203.236 64.7178C204.829 64.5506 206.364 64.0269 207.727 63.1856C207.995 63.0036 208.192 62.7347 208.284 62.4242C208.377 62.1138 208.359 61.7809 208.235 61.4817C207.66 60.0882 206.63 57.5191 206.709 57.1559C206.914 56.2643 207.495 56.2841 209.001 58.4768C210.507 60.6694 212.257 62.9281 211.92 63.9451C211.583 64.9622 206.26 68.1124 206.26 68.1124L207.713 70.4569L199.696 74.8092Z" fill="#B77153"/>
<path d="M214.133 107.197L197.378 74.3668L208.17 68.3239L230.836 104.251C230.836 104.251 232.031 106.549 233.702 109.237H214.701" fill="#455A64"/>
<path d="M208.017 68.3239C208.017 68.3239 207.958 68.3767 207.832 68.4559L207.264 68.7994L205.098 70.0608L197.305 74.4989L197.365 74.3007C198.996 77.6029 201.116 81.4664 203.249 85.6469C206.426 91.8219 209.193 97.4818 211.108 101.603C212.072 103.663 212.838 105.341 213.36 106.497C213.605 107.058 213.803 107.5 213.948 107.817C214.026 107.969 214.088 108.128 214.133 108.293C214.034 108.152 213.95 108.002 213.882 107.844C213.723 107.514 213.506 107.078 213.222 106.523L210.87 101.676C208.889 97.5874 206.102 91.9474 202.945 85.7724C200.812 81.5985 198.705 77.7482 197.1 74.4064L197.041 74.2743L197.166 74.2017L205.019 69.8759L207.231 68.6805L207.819 68.3767C207.883 68.3503 207.949 68.3326 208.017 68.3239Z" fill="#263238"/>
<path d="M163.571 110.116C162.124 107.761 161.174 105.136 160.777 102.402C160.883 102.402 161.339 104.158 162.098 106.278C162.858 108.398 163.663 110.069 163.571 110.116Z" fill="#263238"/>
<path d="M200.476 61.7195C201.807 62.2594 203.278 62.3505 204.666 61.979C206.054 61.6074 207.283 60.7935 208.166 59.6607C209.049 58.5278 209.539 57.1378 209.562 55.7013C209.584 54.2649 209.137 52.8604 208.289 51.7008C212.073 50.7432 214.431 46.3778 213.665 42.5473C212.899 38.7168 209.484 35.7317 205.667 34.9061C204.208 34.5562 202.682 34.5949 201.242 35.0184C200.526 35.2381 199.864 35.6031 199.296 36.0906C198.727 36.5781 198.266 37.1776 197.94 37.8516" fill="#263238"/>
<path d="M199.94 53.1601C199.94 53.1997 199.452 53.2921 198.652 53.7082C197.528 54.3064 196.638 55.2646 196.123 56.4292C195.745 57.2815 195.585 58.2148 195.659 59.1443C195.733 60.0739 196.038 60.9703 196.546 61.7522C196.835 62.2037 197.192 62.609 197.602 62.9542C198.024 63.3204 198.501 63.6169 199.016 63.8326C200.099 64.3018 201.303 64.4133 202.454 64.1508C203.605 63.8884 204.643 63.2656 205.415 62.373C205.784 61.9532 206.084 61.4786 206.307 60.9663C206.524 60.4771 206.669 59.9587 206.736 59.4275C206.832 58.6513 206.765 57.8638 206.541 57.1146C206.316 56.3654 205.939 55.6709 205.433 55.075C204.926 54.4791 204.302 53.9948 203.598 53.6527C202.895 53.3106 202.128 53.1181 201.347 53.0874C200.442 53.0544 199.947 53.1997 199.94 53.1535C200.054 53.1046 200.174 53.0713 200.297 53.0544C200.642 52.9806 200.994 52.9452 201.347 52.9487C202.467 52.9512 203.562 53.2781 204.499 53.89C205.437 54.5018 206.177 55.3723 206.63 56.3962C207.056 57.3577 207.214 58.4167 207.086 59.4605C207.028 60.0247 206.879 60.5757 206.644 61.0918C206.415 61.6394 206.098 62.1459 205.706 62.591C204.888 63.5426 203.787 64.2069 202.563 64.4862C201.34 64.7656 200.06 64.6453 198.91 64.143C198.366 63.9089 197.862 63.5902 197.417 63.1986C196.984 62.8338 196.609 62.4038 196.308 61.924C195.746 61.0362 195.429 60.0153 195.39 58.9652C195.353 57.8524 195.638 56.7527 196.211 55.7979C196.784 54.8432 197.62 54.074 198.619 53.5827C198.936 53.4228 199.271 53.3009 199.617 53.2195C199.722 53.1875 199.83 53.1676 199.94 53.1601Z" fill="#1E1E1E"/>
<path d="M202.806 42.7521C204.184 42.6738 205.501 42.1583 206.567 41.2804C207.632 40.4026 208.389 39.2081 208.73 37.8703C209.07 36.5326 208.975 35.1213 208.458 33.8413C207.942 32.5613 207.031 31.4792 205.857 30.7521C206.426 29.1586 206.478 27.4267 206.008 25.8016C205.538 24.1765 204.568 22.7404 203.237 21.6966C201.905 20.6529 200.279 20.0544 198.589 19.9859C196.899 19.9173 195.229 20.3821 193.818 21.3146C192.744 19.4113 191.114 17.8823 189.146 16.9332C187.178 15.9841 184.966 15.6604 182.808 16.0056C180.651 16.3508 178.65 17.3484 177.077 18.8643C175.503 20.3801 174.431 22.3415 174.005 24.4847C172.07 23.6849 169.939 23.4911 167.892 23.9286C165.845 24.3662 163.979 25.4147 162.54 26.9355C161.102 28.4562 160.158 30.3777 159.835 32.4459C159.512 34.5141 159.824 36.6317 160.73 38.5188C158.613 38.6992 156.653 39.7134 155.284 41.3384C153.914 42.9634 153.246 45.0659 153.426 47.1836C153.606 49.3012 154.621 51.2605 156.246 52.6303C157.871 54.0001 159.973 54.6683 162.091 54.4879C161.663 55.8853 161.679 57.3809 162.136 58.7689C162.593 60.1568 163.47 61.3688 164.645 62.238C165.82 63.1072 167.235 63.5907 168.696 63.6221C170.157 63.6534 171.592 63.231 172.803 62.4131C173.576 63.66 174.689 64.6613 176.01 65.3003C177.331 65.9393 178.806 66.1897 180.264 66.0221C181.722 65.8546 183.102 65.2762 184.243 64.3542C185.385 63.4322 186.241 62.2047 186.712 60.8148" fill="#263238"/>
<path d="M194.856 73.7393C194.994 70.523 195.166 67.6105 195.166 67.6105C195.166 67.6105 202.358 66.7057 202.668 59.3684C202.979 52.031 202.246 35.1373 202.246 35.1373L189.037 28.7839L174.798 40.249L177.031 73.9308C177.187 76.2645 178.252 78.444 179.996 80.002C181.741 81.5601 184.026 82.3726 186.362 82.2654C188.586 82.1589 190.69 81.2255 192.261 79.6482C193.832 78.0709 194.758 75.9635 194.856 73.7393Z" fill="#B77153"/>
<path d="M201.895 47.699C201.776 47.8245 201.09 47.25 200.106 47.2103C199.122 47.1707 198.388 47.6726 198.289 47.5405C198.19 47.4085 198.355 47.2566 198.672 47.0188C199.099 46.7207 199.613 46.5742 200.132 46.6027C200.653 46.6239 201.152 46.8167 201.552 47.1509C201.849 47.4151 201.948 47.6462 201.895 47.699Z" fill="#263238"/>
<path d="M190.985 47.699C190.866 47.8245 190.186 47.25 189.195 47.2103C188.205 47.1707 187.485 47.6726 187.379 47.5405C187.274 47.4085 187.445 47.2566 187.762 47.0188C188.189 46.7207 188.703 46.5742 189.222 46.6027C189.743 46.6239 190.242 46.8167 190.642 47.1509C190.939 47.4151 191.038 47.6462 190.985 47.699Z" fill="#263238"/>
<path d="M194.683 55.1021C195.205 54.9468 195.745 54.8646 196.288 54.8578C196.539 54.8578 196.777 54.7917 196.823 54.6134C196.85 54.3359 196.797 54.0565 196.671 53.8077C196.442 53.1472 196.205 52.4538 195.958 51.7273C194.967 48.762 194.261 46.3316 194.373 46.292C194.485 46.2524 195.37 48.6233 196.354 51.5754L197.015 53.669C197.164 54.0027 197.203 54.3749 197.127 54.7323C197.089 54.8224 197.031 54.903 196.958 54.9681C196.885 55.0332 196.798 55.0812 196.704 55.1087C196.567 55.1449 196.424 55.1604 196.282 55.1549C195.749 55.2085 195.211 55.1908 194.683 55.1021Z" fill="#263238"/>
<path d="M195.165 67.6171C191.757 67.5279 188.449 66.4444 185.648 64.4999C185.648 64.4999 187.887 69.8427 195.04 69.4201L195.165 67.6171Z" fill="#995037"/>
<path d="M184.955 29.1936C183.81 30.8474 183.207 32.8166 183.231 34.8283C183.254 36.8399 183.903 38.7944 185.087 40.4208C186.157 41.8209 187.769 42.9635 189.532 42.8974C191.295 42.8314 192.999 41.1671 192.623 39.4434C192.451 39.9845 192.408 40.5581 192.498 41.1186C192.587 41.6792 192.806 42.2111 193.137 42.6722C193.468 43.1332 193.902 43.5105 194.405 43.7741C194.908 44.0377 195.465 44.1802 196.032 44.1904C196.6 44.2006 197.162 44.0782 197.674 43.8328C198.186 43.5874 198.633 43.2259 198.981 42.7771C199.328 42.3283 199.566 41.8045 199.675 41.2475C199.785 40.6906 199.762 40.1157 199.61 39.5689C199.748 40.3611 200.027 41.1219 200.436 41.8143C200.645 42.1598 200.944 42.4419 201.301 42.6304C201.658 42.8189 202.06 42.9066 202.463 42.8842C203.566 42.7389 204.207 41.5634 204.445 40.4605C204.786 38.8198 204.708 37.1193 204.218 35.5169C203.727 33.9144 202.84 32.4618 201.638 31.2937C200.417 30.1499 198.972 29.2732 197.393 28.7194C195.815 28.1656 194.139 27.947 192.471 28.0774C189.116 28.3727 185.953 29.7654 183.469 32.04" fill="#263238"/>
<path d="M185.886 31.7821C186.817 33.8622 187.32 36.1081 187.366 38.3864C187.405 40.6774 186.553 42.894 184.988 44.568C184.196 45.3829 183.189 45.9563 182.085 46.2217C180.98 46.4871 179.822 46.4335 178.747 46.0672C179.037 47.0504 179.105 48.0855 178.947 49.0983C178.79 50.1111 178.41 51.0764 177.836 51.9252C176.607 53.5564 174.19 54.3357 172.4 53.3517C170.776 52.4667 170.076 50.4987 169.851 48.6627C169.581 46.4342 169.815 44.1736 170.534 42.0472C171.253 39.9208 172.439 37.9826 174.006 36.3752C175.573 34.7678 177.48 33.5321 179.588 32.759C181.695 31.9858 183.949 31.6949 186.183 31.9076" fill="#263238"/>
<path d="M176.812 49.264C175.835 48.6564 174.501 49.1517 173.721 50.0037C173.108 50.6772 172.729 51.5313 172.641 52.4381C172.553 53.345 172.761 54.256 173.233 55.0349C173.706 55.8138 174.418 56.4188 175.263 56.7595C176.108 57.1002 177.041 57.1582 177.922 56.9249" fill="#B77153"/>
<path d="M176.588 54.7255C176.588 54.7651 176.264 54.8113 175.756 54.6726C175.419 54.5854 175.107 54.4205 174.846 54.1912C174.584 53.9618 174.38 53.6743 174.25 53.3518C174.116 52.9686 174.131 52.5495 174.29 52.1762C174.423 51.8856 174.633 51.6367 174.897 51.4563C175.353 51.1591 175.696 51.1657 175.703 51.2054C175.709 51.245 175.406 51.3441 175.042 51.6545C174.812 51.8391 174.643 52.09 174.559 52.3734C174.475 52.6568 174.48 52.959 174.574 53.2395C174.689 53.5187 174.86 53.7712 175.077 53.9813C175.294 54.1915 175.552 54.3549 175.835 54.4613C176.317 54.6264 176.594 54.6726 176.588 54.7255Z" fill="#995037"/>
<path d="M191.593 44.6408C191.501 44.9248 190.424 44.8191 189.149 44.8786C187.875 44.938 186.812 45.0965 186.699 44.8191C186.587 44.5417 187.624 43.8747 189.11 43.8219C190.596 43.769 191.692 44.37 191.593 44.6408Z" fill="#263238"/>
<path d="M201.869 44.4362C201.756 44.5353 201.538 44.4362 201.281 44.4032C200.987 44.3324 200.683 44.3146 200.383 44.3503C200 44.3503 199.577 44.456 199.253 44.4494C198.93 44.4428 198.705 44.3768 198.666 44.2315C198.626 44.0862 198.771 43.9145 199.042 43.7295C199.419 43.4892 199.846 43.3399 200.29 43.2937C200.55 43.2598 200.814 43.2876 201.06 43.3748C201.307 43.462 201.53 43.6062 201.71 43.7956C201.955 44.0928 201.974 44.3437 201.869 44.4362Z" fill="#263238"/>
<path d="M192.973 56.9776C193.245 56.8017 193.552 56.6869 193.872 56.6413C194.193 56.5957 194.519 56.6203 194.829 56.7134C195.136 56.8194 195.395 57.0294 195.563 57.3069C195.731 57.5844 195.796 57.9119 195.747 58.2324C195.657 58.5765 195.446 58.8766 195.153 59.0778C194.939 59.2433 194.692 59.3618 194.429 59.4256C194.167 59.4893 193.893 59.4968 193.627 59.4476C193.361 59.3946 193.114 59.2701 192.912 59.0875C192.711 58.9048 192.563 58.6709 192.485 58.4107C192.419 58.1476 192.443 57.8701 192.551 57.6216C192.66 57.3731 192.848 57.1676 193.086 57.0371" fill="#995037"/>
<path d="M196.579 57.7636C196.579 57.7636 196.341 57.9684 195.872 58.0674C195.247 58.1971 194.598 58.135 194.01 57.8891C193.422 57.6411 192.922 57.2253 192.57 56.6937C192.306 56.2909 192.253 55.9937 192.293 55.9739C192.332 55.9541 192.477 56.205 192.768 56.5484C193.143 56.9869 193.613 57.3347 194.142 57.5655C194.678 57.7802 195.257 57.8683 195.832 57.8231C196.281 57.7901 196.559 57.7108 196.579 57.7636Z" fill="#263238"/>
<path d="M181.686 61.2637C181.64 61.2637 181.686 60.7485 181.435 59.8768C181.103 58.6502 180.368 57.5709 179.348 56.8124C178.654 56.2894 177.846 55.9365 176.99 55.7821C176.01 55.6079 175.001 55.6944 174.065 56.0331C173.56 56.2155 173.085 56.4738 172.658 56.7992C172.206 57.1266 171.811 57.526 171.489 57.9813C170.79 58.9317 170.413 60.0806 170.413 61.2604C170.413 62.4401 170.79 63.589 171.489 64.5394C171.811 64.9948 172.206 65.3941 172.658 65.7216C173.085 66.0469 173.56 66.3053 174.065 66.4877C174.799 66.754 175.582 66.8648 176.361 66.8129C177.141 66.761 177.902 66.5476 178.595 66.1861C179.288 65.8247 179.898 65.3232 180.387 64.7135C180.876 64.1037 181.233 63.399 181.435 62.644C181.666 61.7722 181.64 61.2571 181.686 61.2637C181.696 61.3845 181.696 61.506 181.686 61.6269C181.685 61.9806 181.643 62.3331 181.561 62.677C181.264 63.9613 180.531 65.1029 179.487 65.9065C178.767 66.4685 177.926 66.8531 177.03 67.0292C175.997 67.2276 174.93 67.1455 173.939 66.7915C173.404 66.6032 172.9 66.3337 172.447 65.9923C171.966 65.6467 171.544 65.2251 171.198 64.7441C170.449 63.7375 170.043 62.5157 170.043 61.2604C170.043 60.0051 170.449 58.7833 171.198 57.7766C171.544 57.2956 171.966 56.874 172.447 56.5284C172.9 56.1871 173.404 55.9175 173.939 55.7293C174.863 55.3946 175.857 55.3003 176.827 55.4551C177.798 55.6099 178.713 56.0088 179.487 56.6143C180.531 57.4179 181.264 58.5595 181.561 59.8438C181.643 60.1877 181.685 60.5401 181.686 60.8938C181.696 61.0169 181.696 61.1406 181.686 61.2637Z" fill="#1E1E1E"/>
<path d="M201.863 28.4272C201.926 28.4316 201.989 28.4473 202.047 28.4735C202.22 28.5413 202.377 28.6423 202.51 28.7707C202.759 29.0187 202.943 29.3246 203.046 29.6611C203.148 29.9975 203.166 30.3541 203.098 30.6991C202.957 31.2232 202.666 31.6944 202.26 32.0539C201.853 32.4133 201.35 32.645 200.812 32.72C199.453 32.8832 198.081 32.5553 196.942 31.7954L195.582 31.0095L197.074 31.4982C197.331 31.5891 197.561 31.7433 197.742 31.9464C197.923 32.1496 198.05 32.3953 198.111 32.6606C198.183 32.9245 198.201 33.2001 198.165 33.4711C198.129 33.7422 198.038 34.0032 197.9 34.239C197.598 34.7133 197.125 35.0536 196.579 35.19C196.029 35.3288 195.451 35.3151 194.908 35.1504C193.692 34.6767 192.676 33.8001 192.029 32.6672L191.025 31.2935L192.24 32.4757C192.555 32.8005 192.78 33.2006 192.896 33.6377C193.012 34.0748 193.013 34.5342 192.901 34.9721C192.812 35.3722 192.635 35.7471 192.381 36.0685C192.127 36.39 191.803 36.6496 191.434 36.8279C190.829 37.1154 190.155 37.2252 189.489 37.1445C188.824 37.0639 188.196 36.796 187.677 36.3722C186.992 35.8154 186.486 35.0687 186.224 34.2258C186.154 34.0099 186.101 33.7892 186.065 33.5654C186.058 33.4863 186.058 33.4067 186.065 33.3276C186.098 33.3276 186.138 33.6446 186.349 34.1928C186.641 34.9728 187.142 35.658 187.795 36.1741C188.287 36.5529 188.874 36.7876 189.491 36.8517C190.108 36.9159 190.73 36.807 191.289 36.5373C191.615 36.3745 191.9 36.1404 192.123 35.8522C192.346 35.5641 192.501 35.2294 192.577 34.873C192.673 34.4908 192.671 34.0904 192.571 33.7093C192.47 33.3281 192.275 32.9787 192.002 32.6936L192.26 32.4757C192.867 33.5358 193.814 34.3597 194.948 34.8136C195.411 34.985 195.917 35.0044 196.392 34.8691C196.867 34.7337 197.286 34.4505 197.59 34.0607C198.065 33.2814 197.781 32.0794 196.975 31.8086L197.107 31.5114C198.174 32.2443 199.465 32.5786 200.753 32.4559C201.251 32.3968 201.721 32.1925 202.104 31.8684C202.487 31.5443 202.766 31.1147 202.906 30.6331C202.975 30.3148 202.969 29.9847 202.887 29.6693C202.806 29.354 202.652 29.062 202.437 28.8169C202.265 28.661 202.071 28.5299 201.863 28.4272Z" fill="#455A64"/>
<path d="M184.242 40.2292C184.242 40.2292 184.242 40.2755 184.156 40.3547C184.061 40.4723 183.957 40.5827 183.846 40.6849C183.418 41.0735 182.918 41.3722 182.373 41.5633C181.519 41.8603 180.593 41.8742 179.731 41.6029C179.16 41.4242 178.632 41.1312 178.177 40.7418C177.723 40.3524 177.353 39.8746 177.089 39.3377L177.367 39.298C177.26 39.9668 176.995 40.6005 176.595 41.147C176.195 41.6934 175.671 42.1369 175.065 42.4409C174.46 42.7449 173.791 42.9006 173.114 42.8953C172.437 42.89 171.77 42.7238 171.17 42.4103C170.57 42.0969 170.052 41.6452 169.661 41.0926C169.269 40.5399 169.015 39.9021 168.918 39.2317C168.822 38.5614 168.886 37.8777 169.105 37.237C169.325 36.5963 169.694 36.017 170.181 35.5468L170.412 35.7912C169.633 36.4389 168.652 36.796 167.639 36.8016C166.719 36.8195 165.813 36.5719 165.03 36.0884C164.33 35.6539 163.783 35.0122 163.465 34.2524C163.206 33.6049 163.095 32.9075 163.141 32.2116C163.197 31.2229 163.577 30.2802 164.224 29.5303C164.45 29.2628 164.723 29.0389 165.03 28.8699C165.03 28.8699 164.733 29.0944 164.317 29.6162C163.726 30.3737 163.389 31.2979 163.352 32.2579C163.325 32.9187 163.445 33.5773 163.702 34.1863C164.011 34.8863 164.527 35.4743 165.182 35.8704C165.918 36.3219 166.769 36.5512 167.632 36.5308C168.568 36.5178 169.471 36.1871 170.194 35.593L170.419 35.8374C169.857 36.4135 169.478 37.1425 169.329 37.9332C169.18 38.7238 169.267 39.5409 169.58 40.2821C169.964 41.0912 170.605 41.7501 171.404 42.1553C172.202 42.5605 173.112 42.6891 173.992 42.5209C174.762 42.3395 175.464 41.9394 176.012 41.3689C176.56 40.7983 176.932 40.0815 177.083 39.3046L177.155 38.8423L177.36 39.265C177.601 39.7697 177.94 40.2212 178.357 40.5932C178.774 40.9651 179.262 41.2501 179.79 41.4312C180.616 41.7057 181.508 41.7057 182.333 41.4312C182.867 41.2669 183.364 41.0024 183.799 40.6519C184.116 40.3745 184.242 40.216 184.242 40.2292Z" fill="#455A64"/>
<path d="M171.172 51.9719C171.006 52.1244 170.811 52.2412 170.598 52.3153C170.02 52.5558 169.392 52.6532 168.768 52.5993C167.803 52.5279 166.902 52.0881 166.252 51.3709C165.842 50.9171 165.54 50.377 165.367 49.7905C165.195 49.204 165.156 48.5862 165.255 47.9829L165.559 48.115C164.907 48.9785 164.057 49.6737 163.082 50.1425C162.33 50.4996 161.504 50.6738 160.672 50.651C159.896 50.6292 159.137 50.4208 158.459 50.0434C157.874 49.7419 157.374 49.2975 157.005 48.7515C156.637 48.2055 156.412 47.5754 156.352 46.9196C156.274 46.042 156.508 45.1649 157.013 44.443C157.155 44.2548 157.322 44.0861 157.508 43.941C157.569 43.884 157.641 43.8392 157.719 43.809C157.719 43.809 157.462 44.0335 157.125 44.5222C156.683 45.2315 156.492 46.0689 156.583 46.8998C156.652 47.5132 156.875 48.0994 157.23 48.6039C157.586 49.1084 158.063 49.515 158.618 49.7858C159.28 50.1365 160.017 50.3247 160.767 50.3351C161.516 50.3454 162.258 50.1775 162.93 49.8453C163.856 49.404 164.664 48.7499 165.288 47.9366L165.717 47.3819L165.592 48.0423C165.498 48.5966 165.528 49.1647 165.68 49.7059C165.832 50.2471 166.102 50.748 166.47 51.1727C167.066 51.8537 167.895 52.2872 168.795 52.3879C169.389 52.4575 169.99 52.3967 170.558 52.2096C170.954 52.0709 171.159 51.952 171.172 51.9719Z" fill="#455A64"/>
<path d="M208.572 37.667C208.732 38.0532 208.782 38.4759 208.718 38.8888C208.639 39.9044 208.212 40.8615 207.507 41.5972C206.803 42.3329 205.865 42.8018 204.854 42.924C204.446 43.0103 204.022 42.9782 203.632 42.8315C203.632 42.7721 204.101 42.8315 204.814 42.6796C205.747 42.504 206.6 42.0406 207.255 41.3547C207.91 40.6688 208.334 39.7949 208.467 38.8558C208.586 38.1359 208.513 37.6736 208.572 37.667Z" fill="#455A64"/>
<path d="M212.64 44.5818C212.73 44.7356 212.786 44.9066 212.805 45.0837C212.884 45.5697 212.837 46.0679 212.667 46.53C212.546 46.8901 212.336 47.2139 212.056 47.4713C211.777 47.7287 211.437 47.9115 211.068 48.0028C210.626 48.0934 210.167 48.0521 209.748 47.8839C209.512 47.795 209.298 47.6589 209.117 47.484C208.937 47.3091 208.794 47.0991 208.697 46.8669L209.028 46.7546C209.088 46.9695 209.117 47.1919 209.114 47.415C209.094 47.9252 208.927 48.4188 208.633 48.836C208.339 49.2533 207.93 49.5763 207.456 49.7662C207.032 49.9214 206.571 49.9422 206.135 49.8256C205.768 49.7203 205.429 49.5328 205.144 49.2774C204.725 48.9217 204.443 48.4315 204.345 47.8905C204.286 47.5141 204.345 47.3028 204.345 47.3094C204.345 47.316 204.345 47.5141 204.458 47.8641C204.602 48.3459 204.89 48.7722 205.283 49.0859C205.559 49.3224 205.892 49.4818 206.249 49.5479C206.607 49.614 206.975 49.5845 207.317 49.4624C207.724 49.2899 208.074 49.0052 208.325 48.6415C208.577 48.2778 208.72 47.8502 208.737 47.4084C208.741 47.2252 208.716 47.0426 208.664 46.8669L209.001 46.7546C209.179 47.1109 209.47 47.3978 209.829 47.57C210.188 47.7423 210.594 47.79 210.983 47.7056C211.306 47.6309 211.607 47.4781 211.858 47.2605C212.109 47.0429 212.302 46.7672 212.422 46.4574C212.597 46.04 212.676 45.5886 212.653 45.1365C212.64 44.7667 212.581 44.5884 212.64 44.5818Z" fill="#455A64"/>
<path d="M192.471 54.4089C192.517 54.4089 192.544 54.5608 192.471 54.7854C192.381 55.0753 192.208 55.3325 191.973 55.525C191.738 55.7175 191.452 55.8369 191.15 55.8685C190.919 55.8685 190.78 55.8289 190.787 55.7826C190.793 55.7364 191.295 55.6373 191.744 55.2477C192.194 54.858 192.372 54.4089 192.471 54.4089Z" fill="#263238"/>
<path d="M381.168 279.496C381.168 279.595 295.973 279.667 190.886 279.667C85.7984 279.667 0.57666 279.615 0.57666 279.496C0.57666 279.377 85.7719 279.324 190.886 279.324C296 279.324 381.168 279.403 381.168 279.496Z" fill="#263238"/>
<path d="M117.803 0.00217729C117.65 0.0301592 117.495 0.0500001 117.34 0.061616L116.02 0.17389C115.291 0.223177 114.567 0.326932 113.853 0.48429C113.424 0.57675 112.955 0.616377 112.48 0.761671C112.004 0.906966 111.489 1.05226 110.954 1.20416C108.349 2.04036 105.896 3.29144 103.689 4.90916C100.789 7.07481 98.3754 9.82402 96.6029 12.9796C93.8855 17.8757 92.7136 23.4797 93.2413 29.0544C93.281 29.662 93.413 30.263 93.4989 30.8772C93.5808 31.4947 93.7044 32.1058 93.8687 32.7066C94.4512 35.226 95.4085 37.6437 96.7086 39.8789C99.4755 44.7157 103.751 48.5131 108.88 50.6901C111.583 51.8185 114.472 52.4344 117.4 52.5063C120.415 52.6257 123.425 52.1499 126.256 51.1062L127.121 50.7759L127.234 50.7363L127.339 50.7825L139.887 56.9774L139.524 57.301L135.522 45.3538L135.476 45.2019L135.581 45.0896C138.578 42.0081 140.782 38.2464 142.007 34.1265C143.109 30.362 143.388 26.4047 142.826 22.5228C141.93 16.0527 138.692 10.1359 133.726 5.8932C131.844 4.35112 129.768 3.06324 127.551 2.06272C125.876 1.36412 124.134 0.837472 122.353 0.490896L120.411 0.187099L118.978 0.101243L118.1 0.0418039C118 0.0409081 117.9 0.0298445 117.803 0.00878299C117.901 -0.00292766 118.001 -0.00292766 118.1 0.00878299H118.978L120.425 0.0484071L122.406 0.319183C124.215 0.636884 125.986 1.14379 127.689 1.83157C129.946 2.81445 132.058 4.09855 133.97 5.64884C136.289 7.59605 138.261 9.92303 139.802 12.5305C141.6 15.5737 142.787 18.9388 143.295 22.4369C143.883 26.3821 143.612 30.4076 142.503 34.2388C141.27 38.4416 139.032 42.2812 135.984 45.4265L136.03 45.1623C137.351 48.9928 138.672 52.9884 140.046 57.1028L140.251 57.7038L139.683 57.4265L127.135 51.2382H127.352L126.467 51.5751C123.572 52.6375 120.494 53.1156 117.413 52.9818C114.421 52.9094 111.47 52.2801 108.709 51.126C103.479 48.8952 99.1245 45.0118 96.3123 40.0704C94.9935 37.8062 94.0207 35.3576 93.4262 32.8057C93.2596 32.1946 93.1382 31.5721 93.063 30.9433C92.9772 30.3225 92.8385 29.7149 92.8054 29.0941C92.6926 27.8823 92.6617 26.6644 92.713 25.4485C92.7815 23.1443 93.1342 20.8573 93.7631 18.6395C94.3671 16.6036 95.2048 14.6445 96.2595 12.8013C98.0811 9.60966 100.557 6.83914 103.524 4.67141C105.762 3.0565 108.249 1.82043 110.888 1.01263L112.44 0.589958C112.895 0.482792 113.356 0.39903 113.82 0.338997C114.541 0.191413 115.272 0.10306 116.006 0.0748248L117.36 0.00878299L117.803 0.00217729Z" fill="#263238"/>
<path d="M123.706 23.0381H121.877L117.822 17.5236L117.782 13.8714C117.782 13.8714 114.955 13.7327 115.338 18.4944C115.721 23.2561 115.338 22.0541 115.338 22.0541C115.338 22.0541 109.342 22.1466 108.846 22.6749C108.49 23.058 108.391 29.0216 108.371 32.2511C108.335 33.0432 108.568 33.8242 109.034 34.4661C109.499 35.108 110.169 35.5728 110.933 35.7844C111.149 35.8374 111.371 35.864 111.594 35.8637C113.093 35.8637 120.721 34.5428 120.721 34.5428L123.884 34.5032L123.706 23.0381Z" fill="#1E1E1E"/>
<path d="M128.93 21.9747L127.946 34.4899L124.816 34.5295L124.677 22.2785L128.93 21.9747Z" fill="#1E1E1E"/>
</svg>
