<svg width="33" height="33" viewBox="0 0 33 33" fill="none" xmlns="http://www.w3.org/2000/svg">
<g id="Property 1=Frame 182">
<rect x="1" y="1" width="31" height="31" rx="4" fill="#263069"/>
<rect x="1" y="1" width="31" height="31" rx="4" stroke="#263069" stroke-width="2"/>
<path id="Vector" d="M11.0645 25.8333C11.0645 26.0641 11.0134 26.2896 10.9177 26.4815C10.822 26.6734 10.686 26.8229 10.5269 26.9112C10.3677 26.9995 10.1926 27.0226 10.0236 26.9776C9.85468 26.9326 9.69949 26.8215 9.57768 26.6583C9.45587 26.4951 9.37292 26.2873 9.33932 26.0609C9.30571 25.8346 9.32296 25.6 9.38888 25.3869C9.4548 25.1737 9.56643 24.9915 9.70966 24.8633C9.85289 24.7351 10.0213 24.6667 10.1935 24.6667C10.4245 24.6667 10.6461 24.7896 10.8094 25.0084C10.9728 25.2272 11.0645 25.5239 11.0645 25.8333ZM12.5161 21.5556C12.3439 21.5556 12.1755 21.624 12.0322 21.7522C11.889 21.8804 11.7774 22.0626 11.7115 22.2758C11.6455 22.4889 11.6283 22.7235 11.6619 22.9498C11.6955 23.1761 11.7785 23.384 11.9003 23.5472C12.0221 23.7103 12.1773 23.8215 12.3462 23.8665C12.5152 23.9115 12.6903 23.8884 12.8494 23.8001C13.0086 23.7118 13.1446 23.5622 13.2403 23.3704C13.336 23.1785 13.3871 22.953 13.3871 22.7222C13.3871 22.4128 13.2953 22.1161 13.132 21.8973C12.9687 21.6785 12.7471 21.5556 12.5161 21.5556ZM7.87097 21.5556C7.69871 21.5556 7.53031 21.624 7.38708 21.7522C7.24385 21.8804 7.13222 22.0626 7.0663 22.2758C7.00038 22.4889 6.98313 22.7235 7.01674 22.9498C7.05034 23.1761 7.13329 23.384 7.2551 23.5472C7.37691 23.7103 7.5321 23.8215 7.70105 23.8665C7.87 23.9115 8.04512 23.8884 8.20427 23.8001C8.36342 23.7118 8.49945 23.5622 8.59515 23.3704C8.69085 23.1785 8.74194 22.953 8.74194 22.7222C8.74194 22.4128 8.65017 22.1161 8.48684 21.8973C8.3235 21.6785 8.10196 21.5556 7.87097 21.5556ZM10.1935 18.4444C10.0213 18.4444 9.85289 18.5129 9.70966 18.6411C9.56643 18.7693 9.4548 18.9515 9.38888 19.1646C9.32296 19.3778 9.30571 19.6124 9.33932 19.8387C9.37292 20.065 9.45587 20.2729 9.57768 20.4361C9.69949 20.5992 9.85468 20.7103 10.0236 20.7554C10.1926 20.8004 10.3677 20.7773 10.5269 20.689C10.686 20.6007 10.822 20.4511 10.9177 20.2593C11.0134 20.0674 11.0645 19.8419 11.0645 19.6111C11.0645 19.3017 10.9728 19.0049 10.8094 18.7862C10.6461 18.5674 10.4245 18.4444 10.1935 18.4444ZM25 6.77778C25 6.98406 24.9388 7.18189 24.8299 7.32775C24.721 7.47361 24.5734 7.55556 24.4194 7.55556H22.337L20.3156 10.2642L18.7435 22.591C18.7082 22.8726 18.6156 23.1357 18.476 23.3515C18.3363 23.5674 18.155 23.7275 17.952 23.8145C17.7489 23.9014 17.5319 23.9118 17.3247 23.8445C17.1175 23.7772 16.9281 23.6348 16.7773 23.4329L9.66444 13.9051C9.51347 13.703 9.40701 13.4491 9.35676 13.1712C9.30651 12.8933 9.31441 12.6022 9.37959 12.33C9.44476 12.0577 9.5647 11.8148 9.72622 11.6279C9.88774 11.4409 10.0846 11.3173 10.2952 11.2704L19.494 9.16361L21.686 6.2275C21.7399 6.1553 21.804 6.09804 21.8745 6.05901C21.945 6.01997 22.0205 5.99992 22.0968 6H24.4194C24.5734 6 24.721 6.08194 24.8299 6.22781C24.9388 6.37367 25 6.5715 25 6.77778ZM19.0636 10.8407L10.4839 12.8056L17.5968 22.3333L19.0636 10.8407Z" fill="white"/>
</g>
</svg>
