<svg width="22" height="22" viewBox="0 0 22 22" fill="none" xmlns="http://www.w3.org/2000/svg">
<path id="Vector" d="M0.72764 8.51009C0.730101 8.85331 0.842857 9.18665 1.04926 9.46088C1.25567 9.73511 1.54479 9.93571 1.87393 10.033L1.89423 10.0391L9.81365 12.2566L12.0311 20.1759L12.0372 20.1962C12.1347 20.5253 12.3353 20.8143 12.6095 21.0207C12.8837 21.227 13.217 21.3399 13.5601 21.3425H13.5906C13.9271 21.3456 14.2561 21.2426 14.5308 21.0482C14.8054 20.8537 15.0119 20.5776 15.1207 20.2592L21.7446 2.40103C21.7467 2.39576 21.7484 2.39033 21.7496 2.38478C21.8486 2.09728 21.8649 1.78777 21.7967 1.49146C21.7285 1.19515 21.5785 0.923929 21.3637 0.708659C21.149 0.493389 20.8781 0.342709 20.582 0.273761C20.2859 0.204812 19.9763 0.220364 19.6886 0.318645L19.6723 0.323722L1.81098 6.94958C1.48757 7.06012 1.20798 7.2712 1.01307 7.55196C0.818165 7.83271 0.718149 8.16845 0.72764 8.51009Z" fill="white"/>
</svg>
