<svg width="35" height="35" viewBox="0 0 35 35" fill="none" xmlns="http://www.w3.org/2000/svg">
<path id="Vector" d="M31.8508 30.8096L28.7351 31.6055L26.9259 25.1714C28.2374 24.6109 29.297 23.6241 29.915 22.3876C30.533 21.1511 30.6693 19.7454 30.2994 18.422C28.3071 11.3376 24.165 5.12935 23.99 4.86859C23.882 4.70828 23.724 4.58429 23.5381 4.51411C23.3523 4.44393 23.148 4.43111 22.9541 4.47745L19.0777 5.40072C19.0952 3.93471 19.0538 2.99931 19.0475 2.89167C19.038 2.69648 18.9627 2.5094 18.8329 2.35814C18.703 2.20687 18.5255 2.09945 18.3266 2.05179L13.2346 0.838952C13.0418 0.794328 12.8392 0.808016 12.655 0.878112C12.4708 0.948208 12.3141 1.07123 12.2066 1.23009C12.0316 1.49085 7.88949 7.69905 5.89722 14.7835C5.5273 16.1069 5.66353 17.5126 6.28157 18.7491C6.8996 19.9856 7.95913 20.9724 9.27071 21.5329L7.45348 27.967L4.33777 27.1711C4.21575 27.1374 4.08789 27.1273 3.9617 27.1412C3.8355 27.1552 3.7135 27.1931 3.60285 27.2525C3.4922 27.312 3.39512 27.3919 3.3173 27.4876C3.23949 27.5833 3.18249 27.6928 3.14967 27.8097C3.11684 27.9267 3.10883 28.0487 3.12613 28.1686C3.14342 28.2885 3.18566 28.4039 3.25037 28.5081C3.31508 28.6122 3.40096 28.7031 3.50297 28.7752C3.60499 28.8473 3.72109 28.8994 3.84448 28.9282L11.4826 30.8793C11.5632 30.899 11.646 30.9092 11.7292 30.9097C11.9613 30.9102 12.1856 30.8301 12.3602 30.6845C12.5348 30.5389 12.6478 30.3377 12.6781 30.1185C12.7083 29.8993 12.6537 29.6771 12.5244 29.4935C12.3952 29.3098 12.2002 29.1773 11.9759 29.1207L9.29777 28.437L11.1086 22.0014C11.3147 22.0236 11.5219 22.0352 11.7292 22.0363C13.06 22.0343 14.3532 21.6151 15.409 20.8432C16.4647 20.0713 17.2245 18.9898 17.5708 17.7656V17.7459C17.6153 17.5715 17.6583 17.3987 17.6997 17.2243C17.9248 18.6321 18.2292 20.0274 18.6115 21.4041C18.9576 22.6295 19.7181 23.7121 20.7753 24.4842C21.8325 25.2562 23.1274 25.6747 24.4594 25.6748C24.6668 25.6737 24.8739 25.662 25.08 25.6399L26.8909 32.0755L24.2127 32.7592C23.9884 32.8158 23.7934 32.9483 23.6642 33.132C23.5349 33.3156 23.4803 33.5378 23.5106 33.757C23.5408 33.9762 23.6538 34.1774 23.8284 34.323C24.003 34.4686 24.2273 34.5487 24.4594 34.5482C24.5426 34.5477 24.6254 34.5375 24.706 34.5178L32.3441 32.5667C32.4675 32.5379 32.5836 32.4858 32.6856 32.4137C32.7877 32.3416 32.8735 32.2507 32.9383 32.1466C33.003 32.0424 33.0452 31.927 33.0625 31.8071C33.0798 31.6872 33.0718 31.5652 33.039 31.4482C33.0061 31.3313 32.9491 31.2218 32.8713 31.1261C32.7935 31.0304 32.6964 30.9505 32.5858 30.891C32.4751 30.8316 32.3531 30.7937 32.2269 30.7797C32.1007 30.7658 31.9729 30.7759 31.8508 30.8096ZM22.7376 6.40131C23.1959 7.13356 24.0441 8.54348 24.9877 10.3627L19.0602 11.7727C18.9727 10.0944 18.9791 8.69357 19.0013 7.78091C19.0093 7.61415 19.0172 7.4489 19.0236 7.2882L22.7376 6.40131ZM13.451 2.76281L17.1602 3.64666C17.1714 4.29098 17.1777 5.36282 17.13 6.70907C17.1189 6.88796 17.1045 7.17753 17.0934 7.56109C17.0791 7.83701 17.0632 8.12202 17.0457 8.41462L11.0625 6.98954C12.0602 5.03991 12.9704 3.52993 13.451 2.76584V2.76281ZM15.7249 17.3001C15.4396 18.3098 14.745 19.1701 13.794 19.6918C12.8429 20.2135 11.7132 20.3539 10.6535 20.0821C9.59381 19.8103 8.69082 19.1485 8.14322 18.2424C7.59562 17.3363 7.44825 16.2601 7.73355 15.2505C8.38754 12.9983 9.22551 10.7984 10.2398 8.67083L16.9009 10.2581C16.6922 12.6309 16.2991 14.9857 15.7249 17.3032V17.3001ZM20.4621 20.9296C19.8139 18.5314 19.3879 16.0837 19.1891 13.6146L25.8215 12.0349C26.8926 14.2481 27.7739 16.5403 28.4567 18.889C28.7407 19.8988 28.592 20.9747 28.0434 21.8801C27.4947 22.7855 26.591 23.4462 25.5311 23.7168C24.4712 23.9874 23.3418 23.8458 22.3915 23.3231C21.4412 22.8003 20.7477 21.9394 20.4637 20.9296H20.4621ZM27.4239 4.55629C27.3133 4.34116 27.2961 4.09313 27.3763 3.86604C27.4564 3.63896 27.6274 3.45117 27.852 3.34345L30.398 2.13062C30.5102 2.07726 30.6324 2.04549 30.7575 2.03711C30.8826 2.02873 31.0082 2.0439 31.1272 2.08177C31.2461 2.11964 31.3561 2.17946 31.4507 2.25782C31.5454 2.33617 31.623 2.43152 31.679 2.53844C31.735 2.64535 31.7683 2.76172 31.7771 2.88091C31.7859 3.0001 31.77 3.11978 31.7303 3.2331C31.6905 3.34643 31.6277 3.45119 31.5455 3.5414C31.4632 3.6316 31.3632 3.70549 31.2509 3.75885L28.7049 4.97168C28.5927 5.02507 28.4705 5.05688 28.3454 5.06527C28.2203 5.07367 28.0947 5.0585 27.9757 5.02063C27.8568 4.98276 27.7468 4.92292 27.6521 4.84455C27.5575 4.76618 27.4799 4.6708 27.4239 4.56387V4.55629ZM34.3253 8.9983C34.3253 9.23954 34.2247 9.47091 34.0456 9.6415C33.8666 9.81209 33.6237 9.90792 33.3705 9.90792H30.8245C30.5713 9.90792 30.3284 9.81209 30.1494 9.6415C29.9703 9.47091 29.8697 9.23954 29.8697 8.9983C29.8697 8.75705 29.9703 8.52568 30.1494 8.35509C30.3284 8.18451 30.5713 8.08867 30.8245 8.08867H33.3705C33.6237 8.08867 33.8666 8.18451 34.0456 8.35509C34.2247 8.52568 34.3253 8.75705 34.3253 8.9983ZM3.23662 1.31499C3.34968 1.10099 3.54678 0.938134 3.78514 0.861777C4.02349 0.785421 4.28383 0.801734 4.50963 0.907173L7.05567 2.12001C7.16788 2.17336 7.26797 2.24726 7.35021 2.33746C7.43245 2.42767 7.49524 2.53243 7.53499 2.64575C7.57474 2.75908 7.59067 2.87875 7.58187 2.99795C7.57307 3.11714 7.53972 3.23351 7.48372 3.34042C7.42771 3.44733 7.35016 3.54269 7.25547 3.62104C7.16079 3.6994 7.05083 3.75922 6.93188 3.79709C6.81293 3.83496 6.68732 3.85013 6.56221 3.84175C6.43711 3.83337 6.31496 3.80159 6.20274 3.74824L3.65671 2.5354C3.43143 2.42635 3.2607 2.23666 3.18196 2.0079C3.10321 1.77914 3.12287 1.52997 3.23662 1.31499ZM4.09113 8.69509H1.54509C1.29188 8.69509 1.04903 8.59925 0.869975 8.42866C0.690923 8.25808 0.590332 8.02671 0.590332 7.78546C0.590332 7.54421 0.690923 7.31285 0.869975 7.14226C1.04903 6.97167 1.29188 6.87584 1.54509 6.87584H4.09113C4.34435 6.87584 4.58719 6.97167 4.76625 7.14226C4.9453 7.31285 5.04589 7.54421 5.04589 7.78546C5.04589 8.02671 4.9453 8.25808 4.76625 8.42866C4.58719 8.59925 4.34435 8.69509 4.09113 8.69509Z" fill="black" fill-opacity="0.7"/>
</svg>
