<svg width="35" height="35" viewBox="0 0 35 35" fill="none" xmlns="http://www.w3.org/2000/svg">
<path id="Vector" d="M33.7065 32.7081H29.7196V2.65332H31.253C31.4971 2.65332 31.7311 2.55639 31.9036 2.38385C32.0762 2.2113 32.1731 1.97729 32.1731 1.73328C32.1731 1.48927 32.0762 1.25525 31.9036 1.08271C31.7311 0.910165 31.4971 0.813232 31.253 0.813232H4.2651C4.02108 0.813232 3.78707 0.910165 3.61453 1.08271C3.44198 1.25525 3.34505 1.48927 3.34505 1.73328C3.34505 1.97729 3.44198 2.2113 3.61453 2.38385C3.78707 2.55639 4.02108 2.65332 4.2651 2.65332H5.7985V32.7081H1.81165C1.56763 32.7081 1.33362 32.805 1.16108 32.9776C0.988534 33.1501 0.891602 33.3841 0.891602 33.6281C0.891602 33.8721 0.988534 34.1062 1.16108 34.2787C1.33362 34.4512 1.56763 34.5482 1.81165 34.5482H33.7065C33.9505 34.5482 34.1845 34.4512 34.3571 34.2787C34.5296 34.1062 34.6265 33.8721 34.6265 33.6281C34.6265 33.3841 34.5296 33.1501 34.3571 32.9776C34.1845 32.805 33.9505 32.7081 33.7065 32.7081ZM7.63859 2.65332H27.8796V32.7081H22.3593V26.2678C22.3593 26.0238 22.2624 25.7897 22.0898 25.6172C21.9173 25.4447 21.6833 25.3477 21.4392 25.3477H14.0789C13.8349 25.3477 13.6009 25.4447 13.4283 25.6172C13.2558 25.7897 13.1589 26.0238 13.1589 26.2678V32.7081H7.63859V2.65332ZM20.5192 32.7081H14.9989V27.1878H20.5192V32.7081ZM11.9321 7.8669C11.9321 7.62289 12.0291 7.38887 12.2016 7.21633C12.3741 7.04379 12.6082 6.94686 12.8522 6.94686H15.3056C15.5496 6.94686 15.7836 7.04379 15.9562 7.21633C16.1287 7.38887 16.2257 7.62289 16.2257 7.8669C16.2257 8.11091 16.1287 8.34493 15.9562 8.51747C15.7836 8.69001 15.5496 8.78695 15.3056 8.78695H12.8522C12.6082 8.78695 12.3741 8.69001 12.2016 8.51747C12.0291 8.34493 11.9321 8.11091 11.9321 7.8669ZM19.2925 7.8669C19.2925 7.62289 19.3894 7.38887 19.562 7.21633C19.7345 7.04379 19.9685 6.94686 20.2125 6.94686H22.666C22.91 6.94686 23.144 7.04379 23.3165 7.21633C23.4891 7.38887 23.586 7.62289 23.586 7.8669C23.586 8.11091 23.4891 8.34493 23.3165 8.51747C23.144 8.69001 22.91 8.78695 22.666 8.78695H20.2125C19.9685 8.78695 19.7345 8.69001 19.562 8.51747C19.3894 8.34493 19.2925 8.11091 19.2925 7.8669ZM11.9321 14.0005C11.9321 13.7565 12.0291 13.5225 12.2016 13.35C12.3741 13.1774 12.6082 13.0805 12.8522 13.0805H15.3056C15.5496 13.0805 15.7836 13.1774 15.9562 13.35C16.1287 13.5225 16.2257 13.7565 16.2257 14.0005C16.2257 14.2445 16.1287 14.4786 15.9562 14.6511C15.7836 14.8236 15.5496 14.9206 15.3056 14.9206H12.8522C12.6082 14.9206 12.3741 14.8236 12.2016 14.6511C12.0291 14.4786 11.9321 14.2445 11.9321 14.0005ZM19.2925 14.0005C19.2925 13.7565 19.3894 13.5225 19.562 13.35C19.7345 13.1774 19.9685 13.0805 20.2125 13.0805H22.666C22.91 13.0805 23.144 13.1774 23.3165 13.35C23.4891 13.5225 23.586 13.7565 23.586 14.0005C23.586 14.2445 23.4891 14.4786 23.3165 14.6511C23.144 14.8236 22.91 14.9206 22.666 14.9206H20.2125C19.9685 14.9206 19.7345 14.8236 19.562 14.6511C19.3894 14.4786 19.2925 14.2445 19.2925 14.0005ZM12.8522 21.0542C12.6082 21.0542 12.3741 20.9573 12.2016 20.7847C12.0291 20.6122 11.9321 20.3782 11.9321 20.1342C11.9321 19.8901 12.0291 19.6561 12.2016 19.4836C12.3741 19.311 12.6082 19.2141 12.8522 19.2141H15.3056C15.5496 19.2141 15.7836 19.311 15.9562 19.4836C16.1287 19.6561 16.2257 19.8901 16.2257 20.1342C16.2257 20.3782 16.1287 20.6122 15.9562 20.7847C15.7836 20.9573 15.5496 21.0542 15.3056 21.0542H12.8522ZM19.2925 20.1342C19.2925 19.8901 19.3894 19.6561 19.562 19.4836C19.7345 19.311 19.9685 19.2141 20.2125 19.2141H22.666C22.91 19.2141 23.144 19.311 23.3165 19.4836C23.4891 19.6561 23.586 19.8901 23.586 20.1342C23.586 20.3782 23.4891 20.6122 23.3165 20.7847C23.144 20.9573 22.91 21.0542 22.666 21.0542H20.2125C19.9685 21.0542 19.7345 20.9573 19.562 20.7847C19.3894 20.6122 19.2925 20.3782 19.2925 20.1342Z" fill="black" fill-opacity="0.7"/>
</svg>
