<svg width="24" height="21" viewBox="0 0 24 21" fill="none" xmlns="http://www.w3.org/2000/svg">
<path id="Vector" d="M6.1875 19.5C6.1875 19.7967 6.09953 20.0867 5.9347 20.3334C5.76988 20.58 5.53561 20.7723 5.26153 20.8858C4.98744 20.9994 4.68584 21.0291 4.39487 20.9712C4.10389 20.9133 3.83662 20.7704 3.62684 20.5607C3.41706 20.3509 3.2742 20.0836 3.21632 19.7926C3.15844 19.5017 3.18815 19.2001 3.30168 18.926C3.41521 18.6519 3.60747 18.4176 3.85415 18.2528C4.10082 18.088 4.39083 18 4.6875 18C5.08533 18 5.46686 18.158 5.74816 18.4393C6.02947 18.7206 6.1875 19.1022 6.1875 19.5ZM7.6875 15C7.39083 15 7.10082 15.088 6.85415 15.2528C6.60747 15.4176 6.41521 15.6519 6.30168 15.926C6.18815 16.2001 6.15844 16.5017 6.21632 16.7926C6.2742 17.0836 6.41706 17.3509 6.62684 17.5607C6.83662 17.7704 7.10389 17.9133 7.39487 17.9712C7.68584 18.0291 7.98744 17.9994 8.26153 17.8858C8.53561 17.7723 8.76988 17.58 8.9347 17.3334C9.09953 17.0867 9.1875 16.7967 9.1875 16.5C9.1875 16.1022 9.02946 15.7206 8.74816 15.4393C8.46686 15.158 8.08533 15 7.6875 15ZM1.6875 15C1.39083 15 1.10082 15.088 0.854145 15.2528C0.607472 15.4176 0.415213 15.6519 0.301681 15.926C0.18815 16.2001 0.158445 16.5017 0.216323 16.7926C0.274201 17.0836 0.417062 17.3509 0.626841 17.5607C0.836619 17.7704 1.10389 17.9133 1.39487 17.9712C1.68584 18.0291 1.98744 17.9994 2.26153 17.8858C2.53561 17.7723 2.76988 17.58 2.93471 17.3334C3.09953 17.0867 3.1875 16.7967 3.1875 16.5C3.1875 16.1022 3.02947 15.7206 2.74816 15.4393C2.46686 15.158 2.08533 15 1.6875 15ZM4.6875 15C4.98417 15 5.27418 14.912 5.52086 14.7472C5.76753 14.5824 5.95979 14.3481 6.07332 14.074C6.18685 13.7999 6.21656 13.4983 6.15868 13.2074C6.1008 12.9164 5.95794 12.6491 5.74816 12.4393C5.53838 12.2296 5.27111 12.0867 4.98014 12.0288C4.68916 11.9709 4.38756 12.0006 4.11348 12.1142C3.83939 12.2277 3.60512 12.42 3.4403 12.6666C3.27547 12.9133 3.1875 13.2033 3.1875 13.5C3.1875 13.8978 3.34554 14.2794 3.62684 14.5607C3.90814 14.842 4.28968 15 4.6875 15ZM23.8125 1.125C23.8125 1.42337 23.694 1.70952 23.483 1.9205C23.272 2.13147 22.9859 2.25 22.6875 2.25H20.5312L18.1116 4.66781L16.1006 16.4372C16.0431 16.7764 15.8934 17.0933 15.6678 17.3531C15.4423 17.6128 15.1496 17.8056 14.8218 17.9101C14.494 18.0147 14.1438 18.027 13.8094 17.9458C13.4751 17.8646 13.1695 17.693 12.9263 17.4497L3.73875 8.26219C3.4949 8.0187 3.32287 7.71273 3.24154 7.37786C3.16022 7.043 3.17275 6.6922 3.27776 6.36399C3.38277 6.03578 3.5762 5.74286 3.8368 5.5174C4.09741 5.29194 4.4151 5.14265 4.755 5.08594L16.5206 3.07594L19.2666 0.329063C19.3711 0.224624 19.4952 0.141808 19.6318 0.0853468C19.7684 0.0288852 19.9147 -0.000115859 20.0625 3.47849e-07H22.6875C22.9859 3.47849e-07 23.272 0.118527 23.483 0.329505C23.694 0.540484 23.8125 0.826632 23.8125 1.125ZM15.6863 5.50125L5.8425 7.18313L14.0053 15.3459L15.6863 5.50125Z" fill="#263069"/>
</svg>
