<svg width="35" height="30" viewBox="0 0 35 30" fill="none" xmlns="http://www.w3.org/2000/svg">
<path id="Vector" d="M34.0218 10.4632L27.5107 1.10432C27.3226 0.827929 27.0876 0.605767 26.8224 0.45348C26.5571 0.301192 26.268 0.222485 25.9755 0.222902H2.49537C1.96461 0.222902 1.45559 0.482918 1.08029 0.94575C0.704984 1.40858 0.494141 2.03632 0.494141 2.69086V22.4345C0.494141 23.0891 0.704984 23.7168 1.08029 24.1796C1.45559 24.6425 1.96461 24.9025 2.49537 24.9025H5.15414C5.35098 26.098 5.87692 27.1728 6.64283 27.9448C7.40873 28.7168 8.36751 29.1386 9.35671 29.1386C10.3459 29.1386 11.3047 28.7168 12.0706 27.9448C12.8365 27.1728 13.3624 26.098 13.5593 24.9025H21.1639C21.3608 26.098 21.8867 27.1728 22.6526 27.9448C23.4185 28.7168 24.3773 29.1386 25.3665 29.1386C26.3557 29.1386 27.3145 28.7168 28.0804 27.9448C28.8463 27.1728 29.3722 26.098 29.5691 24.9025H32.2279C32.7586 24.9025 33.2676 24.6425 33.6429 24.1796C34.0182 23.7168 34.2291 23.0891 34.2291 22.4345V11.1524C34.229 10.8995 34.1555 10.655 34.0218 10.4632ZM26.2027 2.47403L31.5046 10.0947H22.7935V2.33829H25.9755C26.0192 2.33795 26.0625 2.35 26.1019 2.37354C26.1413 2.39707 26.1758 2.43145 26.2027 2.47403ZM12.5015 10.0947V2.33829H21.0782V10.0947H12.5015ZM2.49537 2.33829H10.7862V10.0947H2.20948V2.69086C2.20948 2.59735 2.2396 2.50768 2.29321 2.44156C2.34683 2.37544 2.41954 2.33829 2.49537 2.33829ZM9.35671 27.0179C8.84782 27.0179 8.35035 26.8318 7.92723 26.4831C7.5041 26.1344 7.17431 25.6389 6.97956 25.0591C6.78482 24.4793 6.73387 23.8413 6.83315 23.2257C6.93243 22.6102 7.17748 22.0448 7.53732 21.6011C7.89716 21.1573 8.35563 20.8551 8.85474 20.7327C9.35386 20.6102 9.8712 20.6731 10.3414 20.9132C10.8115 21.1534 11.2134 21.5601 11.4961 22.0819C11.7788 22.6037 11.9297 23.2172 11.9297 23.8448C11.9297 24.6863 11.6586 25.4934 11.1761 26.0885C10.6936 26.6836 10.0391 27.0179 9.35671 27.0179ZM25.3665 27.0179C24.8576 27.0179 24.3602 26.8318 23.937 26.4831C23.5139 26.1344 23.1841 25.6389 22.9894 25.0591C22.7946 24.4793 22.7437 23.8413 22.8429 23.2257C22.9422 22.6102 23.1873 22.0448 23.5471 21.6011C23.907 21.1573 24.3654 20.8551 24.8645 20.7327C25.3637 20.6102 25.881 20.6731 26.3512 20.9132C26.8213 21.1534 27.2232 21.5601 27.5059 22.0819C27.7886 22.6037 27.9395 23.2172 27.9395 23.8448C27.9395 24.6863 27.6684 25.4934 27.1859 26.0885C26.7034 26.6836 26.0489 27.0179 25.3665 27.0179ZM32.2279 22.7871H29.5691C29.3722 21.5916 28.8463 20.5168 28.0804 19.7447C27.3145 18.9727 26.3557 18.551 25.3665 18.551C24.3773 18.551 23.4185 18.9727 22.6526 19.7447C21.8867 20.5168 21.3608 21.5916 21.1639 22.7871H13.5593C13.3624 21.5916 12.8365 20.5168 12.0706 19.7447C11.3047 18.9727 10.3459 18.551 9.35671 18.551C8.36751 18.551 7.40873 18.9727 6.64283 19.7447C5.87692 20.5168 5.35098 21.5916 5.15414 22.7871H2.49537C2.41954 22.7871 2.34683 22.7499 2.29321 22.6838C2.2396 22.6177 2.20948 22.528 2.20948 22.4345V12.2101H32.5137V22.4345C32.5137 22.528 32.4836 22.6177 32.43 22.6838C32.3764 22.7499 32.3037 22.7871 32.2279 22.7871Z" fill="black" fill-opacity="0.7"/>
</svg>
