<svg width="17" height="18" viewBox="0 0 17 18" fill="none" xmlns="http://www.w3.org/2000/svg">
<path id="Vector" d="M9.14127 5.15065V8.45522L11.8813 10.0991C11.9921 10.1628 12.0891 10.248 12.1666 10.3497C12.2441 10.4513 12.3006 10.5674 12.3328 10.6911C12.3649 10.8148 12.3721 10.9437 12.3539 11.0702C12.3357 11.1968 12.2925 11.3184 12.2267 11.428C12.161 11.5376 12.0741 11.6331 11.9711 11.7087C11.868 11.7844 11.7509 11.8388 11.6267 11.8687C11.5024 11.8986 11.3734 11.9035 11.2472 11.883C11.121 11.8625 11.0002 11.8171 10.8918 11.7494L7.68424 9.82484C7.5417 9.73939 7.42371 9.61847 7.34178 9.47386C7.25985 9.32926 7.21678 9.1659 7.21674 8.9997V5.15065C7.21674 4.89544 7.31812 4.65068 7.49858 4.47022C7.67904 4.28976 7.9238 4.18838 8.17901 4.18838C8.43422 4.18838 8.67897 4.28976 8.85943 4.47022C9.03989 4.65068 9.14127 4.89544 9.14127 5.15065ZM15.8771 2.90537C15.6219 2.90537 15.3772 3.00675 15.1967 3.18721C15.0162 3.36767 14.9149 3.61242 14.9149 3.86763V4.45862C14.5773 4.08414 14.2268 3.71206 13.8491 3.32956C12.7346 2.21516 11.3164 1.4539 9.77171 1.14091C8.22701 0.827923 6.62432 0.977077 5.16391 1.56974C3.70349 2.1624 2.45011 3.17229 1.56037 4.47322C0.670623 5.77415 0.183978 7.30843 0.161236 8.88436C0.138493 10.4603 0.580662 12.008 1.43249 13.334C2.28433 14.6601 3.50805 15.7057 4.95075 16.3403C6.39346 16.9748 7.99117 17.1702 9.54426 16.9019C11.0973 16.6336 12.5369 15.9136 13.6832 14.8318C13.8688 14.6566 13.9773 14.4148 13.9846 14.1596C13.992 13.9044 13.8977 13.6567 13.7224 13.471C13.5472 13.2854 13.3054 13.1769 13.0502 13.1695C12.795 13.1622 12.5473 13.2565 12.3616 13.4317C11.4907 14.2537 10.3968 14.8008 9.21669 15.0048C8.03657 15.2088 6.82252 15.0605 5.72618 14.5785C4.62983 14.0966 3.69979 13.3023 3.05222 12.2948C2.40465 11.2874 2.06825 10.1115 2.08505 8.91401C2.10185 7.71652 2.4711 6.55052 3.14668 5.56165C3.82226 4.57278 4.77421 3.80488 5.88365 3.35386C6.99308 2.90284 8.21081 2.78869 9.38474 3.02567C10.5587 3.26266 11.6368 3.84027 12.4843 4.68636C12.9591 5.16669 13.3913 5.63178 13.8107 6.11291H12.6696C12.4144 6.11291 12.1696 6.21429 11.9891 6.39475C11.8087 6.57521 11.7073 6.81997 11.7073 7.07517C11.7073 7.33038 11.8087 7.57514 11.9891 7.7556C12.1696 7.93606 12.4144 8.03744 12.6696 8.03744H15.8771C16.1323 8.03744 16.3771 7.93606 16.5575 7.7556C16.738 7.57514 16.8394 7.33038 16.8394 7.07517V3.86763C16.8394 3.61242 16.738 3.36767 16.5575 3.18721C16.3771 3.00675 16.1323 2.90537 15.8771 2.90537Z" fill="#FF0000"/>
</svg>
