<svg width="25" height="25" viewBox="0 0 25 25" fill="none" xmlns="http://www.w3.org/2000/svg">
<path id="Vector" d="M15.1667 9.64286C15.1667 10.2714 14.5667 10.7857 13.8333 10.7857H11.7267C11.3533 10.7857 10.9933 10.7171 10.66 10.5914L7.59333 9.43714L5.83333 13.9286V23.3571C5.83333 23.9857 5.23333 24.5 4.5 24.5H1.83333C1.1 24.5 0.5 23.9857 0.5 23.3571V13.4486C0.5 13.1971 0.553333 12.9457 0.646667 12.7057L2.62 7.76857C2.73831 7.46683 2.92913 7.18971 3.18015 6.9551C3.43116 6.72049 3.73679 6.53361 4.07729 6.40653C4.41779 6.27945 4.78561 6.21499 5.15698 6.21731C5.52835 6.21963 5.89503 6.28868 6.23333 6.42L11.7667 8.51143L13.8333 8.5C14.5667 8.5 15.1667 9.01429 15.1667 9.64286ZM7.16667 0.5C5.7 0.5 4.5 1.52857 4.5 2.78571C4.5 4.04286 5.7 5.07143 7.16667 5.07143C8.63333 5.07143 9.83333 4.04286 9.83333 2.78571C9.83333 1.52857 8.63333 0.5 7.16667 0.5ZM9.83333 21.0714H23.1667C23.9 21.0714 24.5 20.5571 24.5 19.9286C24.5 19.3 23.9 18.7857 23.1667 18.7857H9.83333C9.1 18.7857 8.5 19.3 8.5 19.9286C8.5 20.5571 9.1 21.0714 9.83333 21.0714ZM22.5 17.6429C23.6067 17.6429 24.5 16.8771 24.5 15.9286C24.5 14.98 23.6067 14.2143 22.5 14.2143C21.3933 14.2143 20.5 14.98 20.5 15.9286C20.5 16.8771 21.3933 17.6429 22.5 17.6429ZM13.8333 13.0714C13.8333 12.4429 13.2333 11.9286 12.5 11.9286H9.83333C9.1 11.9286 8.5 12.4429 8.5 13.0714C8.5 13.7 9.1 14.2143 9.83333 14.2143H11.1667V15.3571C11.1667 16.6143 12.3667 17.6429 13.8333 17.6429H16.5C17.9667 17.6429 19.1667 16.6143 19.1667 15.3571V13.0714C19.1667 12.4429 18.5667 11.9286 17.8333 11.9286C17.1 11.9286 16.5 12.4429 16.5 13.0714V14.2143H13.8333V13.0714Z" fill="#263069"/>
</svg>
