<svg width="78" height="71" viewBox="0 0 78 71" fill="none" xmlns="http://www.w3.org/2000/svg">
<path id="Vector" d="M74.4374 70.813H3.45892C2.27594 70.813 1.17746 70.1231 0.501477 69.0883C-0.0900106 68.0536 -0.0900106 66.7601 0.501477 65.6391L35.9907 1.8279C36.5822 0.706891 37.6807 0.103271 38.9482 0.103271C40.2157 0.103271 41.3141 0.793122 41.9056 1.8279L77.3949 65.6391C77.9864 66.6738 77.9864 68.0536 77.3949 69.0883C76.7189 70.1231 75.6204 70.813 74.4374 70.813ZM9.28929 63.9144H68.6916L38.9482 10.5373L9.28929 63.9144ZM42.3281 43.3052V27.2661C42.3281 25.369 40.8071 23.8169 38.9482 23.8169C37.0892 23.8169 35.5683 25.369 35.5683 27.2661V43.3052C35.5683 45.2022 37.0892 46.7544 38.9482 46.7544C40.8071 46.7544 42.3281 45.2022 42.3281 43.3052ZM41.9056 57.6196C42.6661 56.8435 43.1731 55.7225 43.1731 54.6015C43.1731 53.4805 42.7506 52.3594 41.9056 51.5834C41.1451 50.8073 40.0467 50.2899 38.9482 50.2899C37.8497 50.2899 36.7512 50.7211 35.9907 51.5834C35.2303 52.3594 34.7233 53.4805 34.7233 54.6015C34.7233 55.7225 35.1458 56.8435 35.9907 57.6196C36.7512 58.3956 37.8497 58.913 38.9482 58.913C40.0467 58.913 41.1451 58.3956 41.9056 57.6196Z" fill="#F9CE34"/>
</svg>
