<svg width="24" height="23" viewBox="0 0 24 23" fill="none" xmlns="http://www.w3.org/2000/svg">
<path id="Vector" d="M12.375 0C10.1005 0 7.87711 0.674463 5.98595 1.9381C4.09478 3.20174 2.6208 4.99779 1.75039 7.09914C0.879983 9.20049 0.652244 11.5128 1.09597 13.7435C1.5397 15.9743 2.63497 18.0234 4.24328 19.6317C5.85158 21.24 7.90068 22.3353 10.1315 22.779C12.3622 23.2228 14.6745 22.995 16.7759 22.1246C18.8772 21.2542 20.6733 19.7802 21.9369 17.8891C23.2005 15.9979 23.875 13.7745 23.875 11.5C23.8718 8.451 22.6591 5.5278 20.5032 3.37183C18.3472 1.21586 15.424 0.0032198 12.375 0ZM12.375 21.2308C10.4504 21.2308 8.56909 20.6601 6.96888 19.5908C5.36866 18.5216 4.12144 17.0019 3.38495 15.2238C2.64845 13.4457 2.45575 11.4892 2.83121 9.60162C3.20667 7.71404 4.13344 5.98018 5.49431 4.61931C6.85518 3.25843 8.58904 2.33167 10.4766 1.9562C12.3642 1.58074 14.3207 1.77344 16.0988 2.50994C17.8769 3.24644 19.3966 4.49366 20.4658 6.09387C21.5351 7.69409 22.1058 9.57543 22.1058 11.5C22.1028 14.0799 21.0767 16.5532 19.2525 18.3775C17.4282 20.2017 14.9549 21.2278 12.375 21.2308ZM14.1442 16.8077C14.1442 17.0423 14.051 17.2673 13.8851 17.4332C13.7192 17.5991 13.4942 17.6923 13.2596 17.6923C12.7904 17.6923 12.3404 17.5059 12.0086 17.1741C11.6768 16.8423 11.4904 16.3923 11.4904 15.9231V11.5C11.2558 11.5 11.0308 11.4068 10.8649 11.2409C10.699 11.075 10.6058 10.85 10.6058 10.6154C10.6058 10.3808 10.699 10.1558 10.8649 9.98987C11.0308 9.82397 11.2558 9.73077 11.4904 9.73077C11.9596 9.73077 12.4096 9.91717 12.7414 10.249C13.0732 10.5808 13.2596 11.0308 13.2596 11.5V15.9231C13.4942 15.9231 13.7192 16.0163 13.8851 16.1822C14.051 16.3481 14.1442 16.5731 14.1442 16.8077ZM10.6058 6.63461C10.6058 6.37217 10.6836 6.11563 10.8294 5.89742C10.9752 5.6792 11.1824 5.50913 11.4249 5.4087C11.6674 5.30827 11.9342 5.28199 12.1916 5.33319C12.449 5.38439 12.6854 5.51076 12.871 5.69634C13.0565 5.88191 13.1829 6.11835 13.2341 6.37574C13.2853 6.63314 13.259 6.89994 13.1586 7.14241C13.0582 7.38487 12.8881 7.59211 12.6699 7.73791C12.4517 7.88371 12.1951 7.96154 11.9327 7.96154C11.5808 7.96154 11.2433 7.82174 10.9944 7.57289C10.7456 7.32404 10.6058 6.98654 10.6058 6.63461Z" fill="#6228D7"/>
</svg>
