<svg width="24" height="25" viewBox="0 0 24 25" fill="none" xmlns="http://www.w3.org/2000/svg">
<g id="GenderMale">
<path id="Vector" d="M20.25 3.125H15.75C15.4517 3.125 15.1655 3.24353 14.9545 3.4545C14.7436 3.66548 14.625 3.95163 14.625 4.25C14.625 4.54837 14.7436 4.83452 14.9545 5.0455C15.1655 5.25647 15.4517 5.375 15.75 5.375H17.5313L14.4638 8.44438C12.8691 7.25261 10.8823 6.70904 8.90303 6.92303C6.92378 7.13702 5.09902 8.09269 3.79593 9.59775C2.49284 11.1028 1.80814 13.0455 1.87959 15.0351C1.95104 17.0246 2.77335 18.9132 4.18105 20.3209C5.58875 21.7286 7.47736 22.5509 9.46687 22.6223C11.4564 22.6938 13.3991 22.0091 14.9042 20.706C16.4092 19.4029 17.3649 17.5781 17.5789 15.5989C17.7929 13.6196 17.2493 11.6328 16.0575 10.0381L19.125 6.96875V8.75C19.125 9.04837 19.2436 9.33452 19.4545 9.5455C19.6655 9.75647 19.9517 9.875 20.25 9.875C20.5484 9.875 20.8346 9.75647 21.0455 9.5455C21.2565 9.33452 21.375 9.04837 21.375 8.75V4.25C21.375 3.95163 21.2565 3.66548 21.0455 3.4545C20.8346 3.24353 20.5484 3.125 20.25 3.125ZM13.726 18.7306C12.9392 19.5171 11.9369 20.0526 10.8459 20.2694C9.75478 20.4863 8.62389 20.3748 7.59619 19.9489C6.56849 19.5231 5.69012 18.8022 5.07214 17.8772C4.45415 16.9522 4.12431 15.8648 4.12431 14.7523C4.12431 13.6399 4.45415 12.5525 5.07214 11.6275C5.69012 10.7025 6.56849 9.98155 7.59619 9.55574C8.62389 9.12993 9.75478 9.0184 10.8459 9.23526C11.9369 9.45212 12.9392 9.98762 13.726 10.7741C14.7791 11.8302 15.3704 13.2609 15.3704 14.7523C15.3704 16.2438 14.7791 17.6745 13.726 18.7306Z" fill="#263069"/>
</g>
</svg>
