<svg width="44" height="44" viewBox="0 0 44 44" fill="none" xmlns="http://www.w3.org/2000/svg">
<path id="Vector" d="M41.8626 19.8902H38.1774C37.703 16.3308 36.0702 13.0264 33.5311 10.4873C30.9919 7.94813 27.6876 6.31534 24.1282 5.84095V2.15572C24.1282 1.59131 23.9039 1.05001 23.5048 0.650905C23.1057 0.251802 22.5644 0.0275879 22 0.0275879C21.4356 0.0275879 20.8943 0.251802 20.4952 0.650905C20.0961 1.05001 19.8719 1.59131 19.8719 2.15572V5.84095C16.3125 6.31534 13.0081 7.94813 10.469 10.4873C7.92982 13.0264 6.29703 16.3308 5.82264 19.8902H2.13741C1.573 19.8902 1.0317 20.1144 0.632594 20.5135C0.233491 20.9126 0.00927734 21.4539 0.00927734 22.0183C0.00927734 22.5827 0.233491 23.124 0.632594 23.5231C1.0317 23.9222 1.573 24.1465 2.13741 24.1465H5.82264C6.29703 27.7059 7.92982 31.0102 10.469 33.5494C13.0081 36.0885 16.3125 37.7213 19.8719 38.1957V41.8809C19.8719 42.4454 20.0961 42.9866 20.4952 43.3857C20.8943 43.7849 21.4356 44.0091 22 44.0091C22.5644 44.0091 23.1057 43.7849 23.5048 43.3857C23.9039 42.9866 24.1282 42.4454 24.1282 41.8809V38.1957C27.6876 37.7213 30.9919 36.0885 33.5311 33.5494C36.0702 31.0102 37.703 27.7059 38.1774 24.1465H41.8626C42.427 24.1465 42.9683 23.9222 43.3674 23.5231C43.7665 23.124 43.9908 22.5827 43.9908 22.0183C43.9908 21.4539 43.7665 20.9126 43.3674 20.5135C42.9683 20.1144 42.427 19.8902 41.8626 19.8902ZM22 34.0778C19.6149 34.0778 17.2833 33.3705 15.3002 32.0454C13.317 30.7203 11.7713 28.8369 10.8586 26.6333C9.9458 24.4297 9.70698 22.0049 10.1723 19.6656C10.6376 17.3263 11.7862 15.1776 13.4727 13.491C15.1593 11.8045 17.308 10.6559 19.6473 10.1906C21.9866 9.72529 24.4114 9.96411 26.615 10.8769C28.8185 11.7896 30.702 13.3353 32.0271 15.3185C33.3522 17.3016 34.0595 19.6332 34.0595 22.0183C34.0562 25.2157 32.7846 28.2811 30.5237 30.542C28.2628 32.8029 25.1974 34.0745 22 34.0778ZM22 14.2152C20.4567 14.2152 18.948 14.6728 17.6648 15.5302C16.3816 16.3877 15.3814 17.6063 14.7908 19.0322C14.2002 20.458 14.0457 22.027 14.3468 23.5406C14.6479 25.0543 15.3911 26.4447 16.4823 27.536C17.5736 28.6273 18.964 29.3705 20.4777 29.6716C21.9914 29.9726 23.5603 29.8181 24.9862 29.2275C26.412 28.6369 27.6307 27.6368 28.4881 26.3535C29.3455 25.0703 29.8032 23.5616 29.8032 22.0183C29.8008 19.9495 28.978 17.9661 27.5151 16.5032C26.0522 15.0404 24.0688 14.2175 22 14.2152ZM22 25.5652C21.2985 25.5652 20.6128 25.3572 20.0295 24.9675C19.4462 24.5777 18.9916 24.0238 18.7231 23.3757C18.4547 22.7276 18.3844 22.0144 18.5213 21.3264C18.6581 20.6383 18.9959 20.0063 19.492 19.5103C19.988 19.0143 20.62 18.6764 21.3081 18.5396C21.9961 18.4027 22.7092 18.473 23.3574 18.7414C24.0055 19.0099 24.5594 19.4645 24.9492 20.0478C25.3389 20.6311 25.5469 21.3168 25.5469 22.0183C25.5469 22.959 25.1732 23.8612 24.5081 24.5264C23.8429 25.1915 22.9407 25.5652 22 25.5652Z" fill="#263069"/>
</svg>
