<svg width="25" height="24" viewBox="0 0 25 24" fill="none" xmlns="http://www.w3.org/2000/svg">
<g id="Person">
<path id="Vector" d="M6.51126 12.8564C6.5138 12.9072 6.50599 12.958 6.48828 13.0057C6.47058 13.0533 6.44336 13.0969 6.40828 13.1338C6.3732 13.1706 6.331 13.1999 6.28423 13.2199C6.23747 13.2399 6.18712 13.2502 6.13626 13.2501H2.00001C1.83073 13.2504 1.66634 13.1934 1.53358 13.0884C1.40081 12.9833 1.30748 12.8365 1.26876 12.6717C1.24465 12.5589 1.24576 12.4422 1.27202 12.3299C1.29827 12.2176 1.34902 12.1124 1.42064 12.022C2.08233 11.1445 2.96028 10.4536 3.96876 10.0167C3.526 9.61302 3.18642 9.10912 2.97846 8.54721C2.77049 7.9853 2.7002 7.38173 2.77346 6.78707C2.84672 6.1924 3.06141 5.62395 3.39955 5.12931C3.73768 4.63468 4.18941 4.22827 4.71691 3.94413C5.24441 3.65998 5.83232 3.50636 6.43139 3.49615C7.03047 3.48594 7.62327 3.61942 8.16015 3.88542C8.69703 4.15142 9.16235 4.54219 9.51715 5.02501C9.87195 5.50783 10.1059 6.06863 10.1994 6.66046C10.2115 6.74004 10.1972 6.82139 10.1588 6.89213C10.1204 6.96287 10.0599 7.01912 9.98657 7.05233C8.94631 7.53325 8.06532 8.30168 7.44755 9.26697C6.82977 10.2322 6.50099 11.3541 6.50001 12.5001C6.50001 12.6201 6.50001 12.7383 6.51126 12.8564ZM23.5738 12.0211C22.9136 11.1446 22.0376 10.454 21.0313 10.0167C21.474 9.61302 21.8136 9.10912 22.0216 8.54721C22.2295 7.9853 22.2998 7.38173 22.2266 6.78707C22.1533 6.1924 21.9386 5.62395 21.6005 5.12931C21.2623 4.63468 20.8106 4.22827 20.2831 3.94413C19.7556 3.65998 19.1677 3.50636 18.5686 3.49615C17.9696 3.48594 17.3768 3.61942 16.8399 3.88542C16.303 4.15142 15.8377 4.54219 15.4829 5.02501C15.1281 5.50783 14.8941 6.06863 14.8006 6.66046C14.7886 6.74004 14.8028 6.82139 14.8412 6.89213C14.8796 6.96287 14.9401 7.01912 15.0134 7.05233C16.0537 7.53325 16.9347 8.30168 17.5525 9.26697C18.1702 10.2322 18.499 11.3541 18.5 12.5001C18.5 12.6201 18.5 12.7383 18.4888 12.8564C18.4862 12.9072 18.494 12.958 18.5117 13.0057C18.5294 13.0533 18.5567 13.0969 18.5917 13.1338C18.6268 13.1706 18.669 13.1999 18.7158 13.2199C18.7626 13.2399 18.8129 13.2502 18.8638 13.2501H23C23.1693 13.2504 23.3337 13.1934 23.4664 13.0884C23.5992 12.9833 23.6925 12.8365 23.7313 12.6717C23.7555 12.5587 23.7544 12.4417 23.728 12.3292C23.7015 12.2167 23.6505 12.1115 23.5784 12.0211H23.5738ZM15.23 16.0692C15.9768 15.4973 16.5256 14.7058 16.7992 13.8059C17.0729 12.9059 17.0577 11.9429 16.7558 11.0521C16.4538 10.1612 15.8804 9.38742 15.1159 8.83936C14.3515 8.2913 13.4345 7.99656 12.4939 7.99656C11.5533 7.99656 10.6364 8.2913 9.87191 8.83936C9.10747 9.38742 8.53399 10.1612 8.23206 11.0521C7.93012 11.9429 7.91493 12.9059 8.1886 13.8059C8.46227 14.7058 9.01106 15.4973 9.75782 16.0692C8.4327 16.6434 7.3262 17.6267 6.60032 18.8751C6.53449 18.9892 6.49983 19.1185 6.49984 19.2502C6.49985 19.3819 6.53452 19.5112 6.60036 19.6252C6.66621 19.7392 6.76091 19.8339 6.87495 19.8997C6.98899 19.9655 7.11834 20.0002 7.25001 20.0001H17.75C17.8817 20.0002 18.011 19.9655 18.1251 19.8997C18.2391 19.8339 18.3338 19.7392 18.3997 19.6252C18.4655 19.5112 18.5002 19.3819 18.5002 19.2502C18.5002 19.1185 18.4655 18.9892 18.3997 18.8751C17.6723 17.6258 16.5637 16.6425 15.2366 16.0692H15.23Z" fill="#263069"/>
</g>
</svg>
