<svg width="24" height="24" viewBox="0 0 24 24" fill="none" xmlns="http://www.w3.org/2000/svg">
<g id="Person">
<path id="Vector" d="M9.37508 3.375C9.37508 2.85582 9.52903 2.34831 9.81747 1.91663C10.1059 1.48495 10.5159 1.1485 10.9955 0.949817C11.4752 0.751137 12.003 0.699154 12.5122 0.80044C13.0214 0.901726 13.4891 1.15173 13.8562 1.51885C14.2233 1.88596 14.4734 2.35369 14.5746 2.86289C14.6759 3.37209 14.6239 3.89989 14.4253 4.37954C14.2266 4.8592 13.8901 5.26917 13.4585 5.55761C13.0268 5.84605 12.5193 6 12.0001 6C11.3039 6 10.6362 5.72344 10.1439 5.23116C9.65164 4.73887 9.37508 4.07119 9.37508 3.375ZM20.1957 13.1981L15.9535 8.38875C15.7072 8.10943 15.4042 7.88572 15.0648 7.73249C14.7254 7.57925 14.3572 7.5 13.9848 7.5H10.0154C9.64297 7.5 9.2748 7.57925 8.93536 7.73249C8.59592 7.88572 8.29297 8.10943 8.04664 8.38875L3.80445 13.1981C3.52899 13.48 3.37552 13.8589 3.37721 14.253C3.3789 14.6471 3.53562 15.0247 3.81349 15.3042C4.09136 15.5836 4.46806 15.7425 4.86214 15.7465C5.25622 15.7504 5.63603 15.5991 5.91945 15.3253L8.34383 13.3781L6.49695 20.3981C6.33627 20.7588 6.32431 21.1684 6.46367 21.5378C6.60303 21.9073 6.88246 22.2069 7.24134 22.3717C7.60021 22.5364 8.00958 22.553 8.38061 22.4179C8.75164 22.2827 9.0544 22.0067 9.2232 21.6497L12.0001 16.875L14.7732 21.6562C14.942 22.0132 15.2448 22.2893 15.6158 22.4244C15.9868 22.5596 16.3962 22.543 16.7551 22.3783C17.1139 22.2135 17.3934 21.9139 17.5327 21.5444C17.6721 21.1749 17.6601 20.7654 17.4995 20.4047L15.6563 13.3781L18.0845 15.3253C18.3679 15.5991 18.7477 15.7504 19.1418 15.7465C19.5358 15.7425 19.9125 15.5836 20.1904 15.3042C20.4683 15.0247 20.625 14.6471 20.6267 14.253C20.6284 13.8589 20.4749 13.48 20.1995 13.1981H20.1957Z" fill="#263069"/>
</g>
</svg>
