<svg width="36" height="35" viewBox="0 0 36 35" fill="none" xmlns="http://www.w3.org/2000/svg">
<path id="Vector" d="M35.2326 3.68029C34.2671 2.51896 33.0991 1.59296 31.8013 0.959837C30.5035 0.326714 29.1035 0 27.6885 0C26.2734 0 24.8734 0.326714 23.5756 0.959837C22.2778 1.59296 21.1098 2.51896 20.1443 3.68029C19.2437 4.74313 18.5168 5.97563 17.9968 7.32137C17.4765 5.97689 16.7496 4.74563 15.8493 3.68386C14.8838 2.52253 13.7159 1.59653 12.418 0.963409C11.1202 0.330286 9.72026 0.00357084 8.30519 0.00357084C6.89011 0.00357084 5.49016 0.330286 4.19234 0.963409C2.89451 1.59653 1.72656 2.52253 0.761063 3.68386C0.655372 3.80929 0.578249 3.96153 0.536259 4.12762C0.49427 4.29371 0.488658 4.46874 0.519901 4.63779C0.551145 4.80684 0.618318 4.96491 0.715702 5.09855C0.813086 5.23218 0.937796 5.33741 1.07921 5.40529L10.9148 10.2089C10.6205 10.2696 10.3262 10.341 10.0335 10.4285C8.62214 10.8435 7.29799 11.5682 6.13758 12.561C4.97717 13.5538 4.00351 14.7948 3.27285 16.2125C2.5373 17.6213 2.05989 19.1809 1.86867 20.7997C1.67745 22.4185 1.77627 24.0639 2.15933 25.6393C2.20005 25.809 2.27736 25.965 2.38444 26.0933C2.49153 26.2216 2.62509 26.3183 2.77336 26.375C2.87229 26.4124 2.97596 26.4317 3.08037 26.4321C3.28961 26.4321 3.49306 26.355 3.65941 26.2125L17.0424 14.7571V33.9286C17.0424 34.2127 17.1429 34.4853 17.3219 34.6862C17.5009 34.8871 17.7437 35 17.9968 35C18.25 35 18.4927 34.8871 18.6717 34.6862C18.8507 34.4853 18.9513 34.2127 18.9513 33.9286V14.7571L32.3406 26.2089C32.5069 26.3514 32.7104 26.4286 32.9196 26.4286C33.024 26.4282 33.1277 26.4089 33.2266 26.3714C33.3749 26.3147 33.5085 26.218 33.6156 26.0897C33.7226 25.9614 33.8 25.8055 33.8407 25.6357C34.2237 24.0603 34.3225 22.415 34.1313 20.7962C33.9401 19.1773 33.4627 17.6177 32.7271 16.2089C31.9965 14.7913 31.0228 13.5502 29.8624 12.5574C28.702 11.5647 27.3779 10.8399 25.9665 10.4249C25.6738 10.3374 25.3795 10.266 25.0852 10.2053L34.9208 5.40172C35.0622 5.33384 35.1869 5.22861 35.2843 5.09497C35.3817 4.96134 35.4489 4.80327 35.4801 4.63422C35.5113 4.46517 35.5057 4.29014 35.4637 4.12405C35.4218 3.95796 35.3446 3.80571 35.2389 3.68029H35.2326ZM8.30598 2.14278C9.46191 2.14585 10.605 2.41492 11.6647 2.93336C12.7243 3.45181 13.6781 4.20863 14.4669 5.15708C15.7828 6.71421 16.6417 8.68678 16.9278 10.8089L3.19173 4.10707C4.65589 2.83507 6.45457 2.14423 8.30598 2.14278ZM3.72622 23.4518C3.5285 21.3066 3.94532 19.1466 4.9161 17.2857C5.5228 16.1124 6.33033 15.0855 7.29216 14.2641C8.254 13.4428 9.35112 12.8432 10.5203 12.4999C11.3048 12.2642 12.1134 12.1441 12.9255 12.1428C14.0358 12.1422 15.1369 12.3679 16.1754 12.8089L3.72622 23.4518ZM31.0775 17.2857C32.0483 19.1466 32.4651 21.3066 32.2674 23.4518L19.8214 12.8071C21.8668 11.9434 24.1183 11.9193 26.1781 12.7388C28.2378 13.5583 29.9732 15.1688 31.0775 17.2857ZM19.0658 10.8089C19.352 8.68678 20.2109 6.71421 21.5267 5.15708C22.3156 4.20863 23.2693 3.45181 24.329 2.93336C25.3886 2.41492 26.5317 2.14585 27.6877 2.14278C29.5391 2.14423 31.3378 2.83507 32.8019 4.10707L19.0658 10.8089Z" fill="#263069"/>
</svg>
