<svg width="36" height="35" viewBox="0 0 36 35" fill="none" xmlns="http://www.w3.org/2000/svg">
<path id="Vector" d="M34.5455 33.0909H30.4091V1.90909H32C32.2532 1.90909 32.496 1.80852 32.675 1.62951C32.854 1.4505 32.9545 1.20771 32.9545 0.954545C32.9545 0.701384 32.854 0.458592 32.675 0.27958C32.496 0.100568 32.2532 0 32 0H4C3.74684 0 3.50405 0.100568 3.32503 0.27958C3.14602 0.458592 3.04545 0.701384 3.04545 0.954545C3.04545 1.20771 3.14602 1.4505 3.32503 1.62951C3.50405 1.80852 3.74684 1.90909 4 1.90909H5.59091V33.0909H1.45455C1.20138 33.0909 0.958592 33.1915 0.77958 33.3705C0.600568 33.5495 0.5 33.7923 0.5 34.0455C0.5 34.2986 0.600568 34.5414 0.77958 34.7204C0.958592 34.8994 1.20138 35 1.45455 35H34.5455C34.7986 35 35.0414 34.8994 35.2204 34.7204C35.3994 34.5414 35.5 34.2986 35.5 34.0455C35.5 33.7923 35.3994 33.5495 35.2204 33.3705C35.0414 33.1915 34.7986 33.0909 34.5455 33.0909ZM7.5 1.90909H28.5V33.0909H22.7727V26.4091C22.7727 26.1559 22.6722 25.9131 22.4931 25.7341C22.3141 25.5551 22.0713 25.4545 21.8182 25.4545H14.1818C13.9287 25.4545 13.6859 25.5551 13.5069 25.7341C13.3278 25.9131 13.2273 26.1559 13.2273 26.4091V33.0909H7.5V1.90909ZM20.8636 33.0909H15.1364V27.3636H20.8636V33.0909ZM11.9545 7.31818C11.9545 7.06502 12.0551 6.82223 12.2341 6.64322C12.4131 6.4642 12.6559 6.36364 12.9091 6.36364H15.4545C15.7077 6.36364 15.9505 6.4642 16.1295 6.64322C16.3085 6.82223 16.4091 7.06502 16.4091 7.31818C16.4091 7.57134 16.3085 7.81413 16.1295 7.99315C15.9505 8.17216 15.7077 8.27273 15.4545 8.27273H12.9091C12.6559 8.27273 12.4131 8.17216 12.2341 7.99315C12.0551 7.81413 11.9545 7.57134 11.9545 7.31818ZM19.5909 7.31818C19.5909 7.06502 19.6915 6.82223 19.8705 6.64322C20.0495 6.4642 20.2923 6.36364 20.5455 6.36364H23.0909C23.3441 6.36364 23.5869 6.4642 23.7659 6.64322C23.9449 6.82223 24.0455 7.06502 24.0455 7.31818C24.0455 7.57134 23.9449 7.81413 23.7659 7.99315C23.5869 8.17216 23.3441 8.27273 23.0909 8.27273H20.5455C20.2923 8.27273 20.0495 8.17216 19.8705 7.99315C19.6915 7.81413 19.5909 7.57134 19.5909 7.31818ZM11.9545 13.6818C11.9545 13.4287 12.0551 13.1859 12.2341 13.0069C12.4131 12.8278 12.6559 12.7273 12.9091 12.7273H15.4545C15.7077 12.7273 15.9505 12.8278 16.1295 13.0069C16.3085 13.1859 16.4091 13.4287 16.4091 13.6818C16.4091 13.935 16.3085 14.1778 16.1295 14.3568C15.9505 14.5358 15.7077 14.6364 15.4545 14.6364H12.9091C12.6559 14.6364 12.4131 14.5358 12.2341 14.3568C12.0551 14.1778 11.9545 13.935 11.9545 13.6818ZM19.5909 13.6818C19.5909 13.4287 19.6915 13.1859 19.8705 13.0069C20.0495 12.8278 20.2923 12.7273 20.5455 12.7273H23.0909C23.3441 12.7273 23.5869 12.8278 23.7659 13.0069C23.9449 13.1859 24.0455 13.4287 24.0455 13.6818C24.0455 13.935 23.9449 14.1778 23.7659 14.3568C23.5869 14.5358 23.3441 14.6364 23.0909 14.6364H20.5455C20.2923 14.6364 20.0495 14.5358 19.8705 14.3568C19.6915 14.1778 19.5909 13.935 19.5909 13.6818ZM12.9091 21C12.6559 21 12.4131 20.8994 12.2341 20.7204C12.0551 20.5414 11.9545 20.2986 11.9545 20.0455C11.9545 19.7923 12.0551 19.5495 12.2341 19.3705C12.4131 19.1915 12.6559 19.0909 12.9091 19.0909H15.4545C15.7077 19.0909 15.9505 19.1915 16.1295 19.3705C16.3085 19.5495 16.4091 19.7923 16.4091 20.0455C16.4091 20.2986 16.3085 20.5414 16.1295 20.7204C15.9505 20.8994 15.7077 21 15.4545 21H12.9091ZM19.5909 20.0455C19.5909 19.7923 19.6915 19.5495 19.8705 19.3705C20.0495 19.1915 20.2923 19.0909 20.5455 19.0909H23.0909C23.3441 19.0909 23.5869 19.1915 23.7659 19.3705C23.9449 19.5495 24.0455 19.7923 24.0455 20.0455C24.0455 20.2986 23.9449 20.5414 23.7659 20.7204C23.5869 20.8994 23.3441 21 23.0909 21H20.5455C20.2923 21 20.0495 20.8994 19.8705 20.7204C19.6915 20.5414 19.5909 20.2986 19.5909 20.0455Z" fill="#263069"/>
</svg>
