<svg width="36" height="35" viewBox="0 0 36 35" fill="none" xmlns="http://www.w3.org/2000/svg">
<path id="Vector" d="M35.5 13.0319V33.883C35.5 34.1792 35.3823 34.4633 35.1728 34.6728C34.9633 34.8823 34.6792 35 34.383 35C34.0867 35 33.8026 34.8823 33.5931 34.6728C33.3836 34.4633 33.266 34.1792 33.266 33.883V13.0319C33.2625 10.1692 32.1238 7.42472 30.0995 5.40048C28.0753 3.37623 25.3308 2.23749 22.4681 2.23404H13.5319C10.6692 2.23749 7.92472 3.37623 5.90048 5.40048C3.87623 7.42472 2.73749 10.1692 2.73404 13.0319V33.883C2.73404 34.1792 2.61636 34.4633 2.40687 34.6728C2.19739 34.8823 1.91327 35 1.61702 35C1.32077 35 1.03665 34.8823 0.827168 34.6728C0.617686 34.4633 0.5 34.1792 0.5 33.883V13.0319C0.503942 9.57685 1.87821 6.26442 4.32131 3.82131C6.76442 1.37821 10.0768 0.0039419 13.5319 0H22.4681C25.9232 0.0039419 29.2356 1.37821 31.6787 3.82131C34.1218 6.26442 35.4961 9.57685 35.5 13.0319ZM28.0532 13.0319V26.4362C28.0529 27.4684 27.6628 28.4625 26.9611 29.2194C26.2593 29.9764 25.2976 30.4405 24.2684 30.5189L24.9572 31.8947C25.0895 32.1598 25.1111 32.4667 25.0172 32.7477C24.9233 33.0288 24.7215 33.261 24.4564 33.3934C24.1912 33.5257 23.8844 33.5473 23.6033 33.4533C23.3223 33.3594 23.09 33.1577 22.9577 32.8926L21.7774 30.5319H14.2226L13.0423 32.8926C12.9768 33.0238 12.886 33.1409 12.7753 33.2372C12.6645 33.3334 12.5358 33.4068 12.3967 33.4533C12.2575 33.4998 12.1105 33.5185 11.9642 33.5082C11.8178 33.4979 11.6749 33.4589 11.5436 33.3934C11.4123 33.3278 11.2952 33.2371 11.199 33.1263C11.1028 33.0155 11.0293 32.8869 10.9828 32.7477C10.9363 32.6086 10.9177 32.4616 10.928 32.3152C10.9383 32.1689 10.9773 32.026 11.0428 31.8947L11.7316 30.5189C10.7024 30.4405 9.74069 29.9764 9.03893 29.2194C8.33717 28.4625 7.94711 27.4684 7.94681 26.4362V13.0319C7.94681 11.9457 8.37832 10.9039 9.14642 10.1358C9.91453 9.36769 10.9563 8.93617 12.0426 8.93617H23.9574C25.0437 8.93617 26.0855 9.36769 26.8536 10.1358C27.6217 10.9039 28.0532 11.9457 28.0532 13.0319ZM10.1809 13.0319V22.3404H25.8191V13.0319C25.8191 12.5382 25.623 12.0646 25.2739 11.7155C24.9247 11.3664 24.4512 11.1702 23.9574 11.1702H12.0426C11.5488 11.1702 11.0753 11.3664 10.7261 11.7155C10.377 12.0646 10.1809 12.5382 10.1809 13.0319ZM16.1383 24.5745V28.2979H19.8617V24.5745H16.1383ZM12.0426 28.2979H13.9043V24.5745H10.1809V26.4362C10.1809 26.9299 10.377 27.4035 10.7261 27.7526C11.0753 28.1017 11.5488 28.2979 12.0426 28.2979ZM25.8191 26.4362V24.5745H22.0957V28.2979H23.9574C24.4512 28.2979 24.9247 28.1017 25.2739 27.7526C25.623 27.4035 25.8191 26.9299 25.8191 26.4362Z" fill="#263069"/>
</svg>
