<svg width="36" height="35" viewBox="0 0 36 35" fill="none" xmlns="http://www.w3.org/2000/svg">
<path id="Vector" d="M32.9328 31.1212L29.7002 31.947L27.8231 25.2716C29.1839 24.6901 30.2831 23.6663 30.9244 22.3834C31.5656 21.1005 31.7069 19.6422 31.3231 18.2691C29.2561 10.919 24.9587 4.47798 24.7771 4.20744C24.6651 4.04111 24.5012 3.91247 24.3083 3.83966C24.1155 3.76685 23.9035 3.75355 23.7024 3.80163L19.6807 4.75952C19.6988 3.23853 19.6559 2.26806 19.6493 2.15638C19.6394 1.95387 19.5613 1.75978 19.4266 1.60284C19.2919 1.44589 19.1078 1.33445 18.9014 1.285L13.6184 0.0266836C13.4184 -0.019613 13.2082 -0.00541241 13.0171 0.0673125C12.826 0.140037 12.6634 0.267675 12.5519 0.43249C12.3703 0.703028 8.07288 7.14403 6.0059 14.4942C5.6221 15.8672 5.76345 17.3256 6.40466 18.6085C7.04587 19.8913 8.14513 20.9151 9.5059 21.4967L7.62052 28.1721L4.38797 27.3463C4.26137 27.3113 4.12872 27.3008 3.99779 27.3153C3.86686 27.3298 3.74029 27.3691 3.62549 27.4308C3.51069 27.4925 3.40997 27.5754 3.32923 27.6747C3.2485 27.7739 3.18937 27.8876 3.15531 28.0089C3.12125 28.1302 3.11295 28.2568 3.13089 28.3812C3.14883 28.5056 3.19265 28.6253 3.25979 28.7334C3.32692 28.8415 3.41602 28.9357 3.52186 29.0105C3.62771 29.0854 3.74817 29.1394 3.87618 29.1693L11.8007 31.1936C11.8843 31.214 11.9703 31.2246 12.0566 31.225C12.2974 31.2256 12.5301 31.1425 12.7113 30.9915C12.8924 30.8404 13.0097 30.6317 13.041 30.4042C13.0724 30.1768 13.0157 29.9463 12.8816 29.7558C12.7476 29.5652 12.5452 29.4278 12.3125 29.369L9.53396 28.6597L11.4127 21.9827C11.6265 22.0057 11.8415 22.0178 12.0566 22.0189C13.4373 22.0169 14.7789 21.5819 15.8743 20.7811C16.9697 19.9803 17.7579 18.8582 18.1172 17.5881V17.5676C18.1634 17.3867 18.208 17.2074 18.2509 17.0265C18.4845 18.4871 18.8003 19.9347 19.1969 21.363C19.556 22.6344 20.3451 23.7576 21.4419 24.5586C22.5388 25.3596 23.8822 25.7938 25.2642 25.7938C25.4793 25.7927 25.6942 25.7806 25.908 25.7577L27.7868 32.4346L25.0083 33.144C24.7755 33.2027 24.5732 33.3402 24.4391 33.5307C24.305 33.7212 24.2484 33.9517 24.2797 34.1792C24.3111 34.4066 24.4283 34.6154 24.6095 34.7664C24.7907 34.9175 25.0234 35.0005 25.2642 35C25.3505 34.9995 25.4364 34.9889 25.52 34.9685L33.4446 32.9442C33.5726 32.9143 33.6931 32.8603 33.7989 32.7855C33.9047 32.7106 33.9938 32.6164 34.061 32.5084C34.1281 32.4003 34.1719 32.2805 34.1899 32.1561C34.2078 32.0317 34.1995 31.9051 34.1655 31.7838C34.1314 31.6625 34.0723 31.5489 33.9915 31.4496C33.9108 31.3504 33.8101 31.2674 33.6953 31.2057C33.5805 31.144 33.4539 31.1048 33.323 31.0903C33.192 31.0757 33.0594 31.0863 32.9328 31.1212ZM23.4778 5.79763C23.9533 6.55734 24.8333 8.02013 25.8123 9.90761L19.6625 11.3704C19.5717 9.62921 19.5783 8.17585 19.6014 7.22897C19.6097 7.05595 19.6179 6.8845 19.6245 6.71778L23.4778 5.79763ZM13.8429 2.02269L17.6913 2.93968C17.7028 3.60816 17.7094 4.7202 17.6599 6.11693C17.6483 6.30253 17.6335 6.60296 17.6219 7.0009C17.6071 7.28717 17.5906 7.58287 17.5724 7.88644L11.3649 6.40792C12.4 4.38518 13.3443 2.81857 13.8429 2.02583V2.02269ZM16.2021 17.1052C15.9061 18.1527 15.1855 19.0452 14.1988 19.5865C13.212 20.1278 12.04 20.2734 10.9406 19.9914C9.84111 19.7094 8.90426 19.0229 8.33612 18.0828C7.76798 17.1427 7.61509 16.0261 7.91109 14.9786C8.5896 12.642 9.459 10.3596 10.5113 8.15226L17.4222 9.79908C17.2056 12.2609 16.7978 14.704 16.2021 17.1083V17.1052ZM21.117 20.8707C20.4445 18.3826 20.0025 15.8432 19.7962 13.2815L26.6774 11.6425C27.7886 13.9387 28.7029 16.3168 29.4113 18.7536C29.706 19.8013 29.5518 20.9176 28.9825 21.8569C28.4133 22.7963 27.4757 23.4817 26.3761 23.7625C25.2764 24.0432 24.1047 23.8963 23.1187 23.3539C22.1328 22.8116 21.4133 21.9184 21.1186 20.8707H21.117ZM28.3399 3.88342C28.225 3.66023 28.2073 3.40289 28.2904 3.16729C28.3736 2.93169 28.5509 2.73686 28.784 2.62511L31.4255 1.36679C31.5419 1.31143 31.6686 1.27847 31.7984 1.26977C31.9282 1.26107 32.0585 1.27682 32.182 1.31611C32.3054 1.3554 32.4194 1.41746 32.5177 1.49875C32.6159 1.58005 32.6964 1.67898 32.7545 1.7899C32.8126 1.90082 32.8472 2.02156 32.8563 2.14522C32.8654 2.26888 32.8489 2.39304 32.8077 2.51062C32.7664 2.62819 32.7013 2.73688 32.616 2.83047C32.5306 2.92406 32.4268 3.00072 32.3104 3.05608L29.6689 4.31439C29.5525 4.36978 29.4257 4.40278 29.2959 4.41149C29.1661 4.42021 29.0358 4.40447 28.9124 4.36517C28.7889 4.32588 28.6749 4.26381 28.5766 4.18249C28.4784 4.10118 28.3979 4.00223 28.3399 3.89129V3.88342ZM35.5 8.492C35.5 8.7423 35.3956 8.98234 35.2099 9.15933C35.0241 9.33631 34.7721 9.43574 34.5094 9.43574H31.8679C31.6052 9.43574 31.3533 9.33631 31.1675 9.15933C30.9817 8.98234 30.8774 8.7423 30.8774 8.492C30.8774 8.24171 30.9817 8.00167 31.1675 7.82468C31.3533 7.6477 31.6052 7.54827 31.8679 7.54827H34.5094C34.7721 7.54827 35.0241 7.6477 35.2099 7.82468C35.3956 8.00167 35.5 8.24171 35.5 8.492ZM3.24552 0.520572C3.36282 0.298552 3.56732 0.129585 3.81461 0.0503654C4.0619 -0.0288544 4.33201 -0.0119299 4.56627 0.0974636L7.20778 1.35578C7.32421 1.41114 7.42805 1.4878 7.51337 1.58139C7.5987 1.67498 7.66384 1.78367 7.70508 1.90124C7.74632 2.01882 7.76285 2.14298 7.75372 2.26664C7.74459 2.3903 7.70999 2.51104 7.65189 2.62196C7.59378 2.73288 7.51332 2.83181 7.41508 2.9131C7.31685 2.9944 7.20277 3.05646 7.07936 3.09575C6.95595 3.13504 6.82563 3.15078 6.69583 3.14209C6.56603 3.13339 6.4393 3.10043 6.32288 3.04507L3.68137 1.78675C3.44763 1.67361 3.27051 1.47681 3.18881 1.23947C3.10711 1.00213 3.12751 0.743613 3.24552 0.520572ZM4.13208 8.17742H1.49057C1.22785 8.17742 0.975897 8.07799 0.79013 7.90101C0.604363 7.72402 0.5 7.48398 0.5 7.23369C0.5 6.98339 0.604363 6.74335 0.79013 6.56636C0.975897 6.38938 1.22785 6.28995 1.49057 6.28995H4.13208C4.39479 6.28995 4.64674 6.38938 4.83251 6.56636C5.01828 6.74335 5.12264 6.98339 5.12264 7.23369C5.12264 7.48398 5.01828 7.72402 4.83251 7.90101C4.64674 8.07799 4.39479 8.17742 4.13208 8.17742Z" fill="#263069"/>
</svg>
