<svg width="36" height="31" viewBox="0 0 36 31" fill="none" xmlns="http://www.w3.org/2000/svg">
<path id="Vector" d="M35.285 11.1243L28.5297 1.41447C28.3345 1.12772 28.0908 0.897224 27.8156 0.739226C27.5404 0.581228 27.2404 0.499569 26.9369 0.500002H2.57627C2.02561 0.500002 1.4975 0.769769 1.10813 1.24996C0.718749 1.73014 0.5 2.38142 0.5 3.06051V23.5446C0.5 24.2236 0.718749 24.8749 1.10813 25.3551C1.4975 25.8353 2.02561 26.1051 2.57627 26.1051H5.33475C5.53897 27.3454 6.08463 28.4605 6.87926 29.2615C7.67389 30.0624 8.66862 30.5 9.69491 30.5C10.7212 30.5 11.7159 30.0624 12.5106 29.2615C13.3052 28.4605 13.8509 27.3454 14.0551 26.1051H21.9449C22.1491 27.3454 22.6948 28.4605 23.4894 29.2615C24.2841 30.0624 25.2788 30.5 26.3051 30.5C27.3314 30.5 28.3261 30.0624 29.1207 29.2615C29.9154 28.4605 30.461 27.3454 30.6653 26.1051H33.4237C33.9744 26.1051 34.5025 25.8353 34.8919 25.3551C35.2812 24.8749 35.5 24.2236 35.5 23.5446V11.8394C35.5 11.577 35.4237 11.3233 35.285 11.1243ZM27.1727 2.83555L32.6733 10.742H23.6356V2.69472H26.9369C26.9823 2.69436 27.0272 2.70687 27.0681 2.73129C27.1089 2.7557 27.1447 2.79137 27.1727 2.83555ZM12.9576 10.742V2.69472H21.8559V10.742H12.9576ZM2.57627 2.69472H11.178V10.742H2.27966V3.06051C2.27966 2.96349 2.31091 2.87046 2.36654 2.80186C2.42216 2.73326 2.49761 2.69472 2.57627 2.69472ZM9.69491 28.2998C9.16694 28.2998 8.65082 28.1067 8.21182 27.745C7.77283 27.3832 7.43067 26.8691 7.22863 26.2675C7.02658 25.666 6.97371 25.004 7.07672 24.3654C7.17972 23.7268 7.43396 23.1403 7.8073 22.6798C8.18063 22.2194 8.65629 21.9059 9.17412 21.7789C9.69195 21.6519 10.2287 21.717 10.7165 21.9662C11.2043 22.2154 11.6212 22.6373 11.9145 23.1787C12.2078 23.7201 12.3644 24.3566 12.3644 25.0077C12.3644 25.8808 12.0832 26.7182 11.5825 27.3356C11.0819 27.9529 10.4029 28.2998 9.69491 28.2998ZM26.3051 28.2998C25.7771 28.2998 25.261 28.1067 24.822 27.745C24.383 27.3832 24.0408 26.8691 23.8388 26.2675C23.6367 25.666 23.5839 25.004 23.6869 24.3654C23.7899 23.7268 24.0441 23.1403 24.4175 22.6798C24.7908 22.2194 25.2665 21.9059 25.7843 21.7789C26.3021 21.6519 26.8389 21.717 27.3267 21.9662C27.8144 22.2154 28.2314 22.6373 28.5247 23.1787C28.818 23.7201 28.9746 24.3566 28.9746 25.0077C28.9746 25.8808 28.6933 26.7182 28.1927 27.3356C27.6921 27.9529 27.0131 28.2998 26.3051 28.2998ZM33.4237 23.9103H30.6653C30.461 22.67 29.9154 21.5549 29.1207 20.7539C28.3261 19.953 27.3314 19.5154 26.3051 19.5154C25.2788 19.5154 24.2841 19.953 23.4894 20.7539C22.6948 21.5549 22.1491 22.67 21.9449 23.9103H14.0551C13.8509 22.67 13.3052 21.5549 12.5106 20.7539C11.7159 19.953 10.7212 19.5154 9.69491 19.5154C8.66862 19.5154 7.67389 19.953 6.87926 20.7539C6.08463 21.5549 5.53897 22.67 5.33475 23.9103H2.57627C2.49761 23.9103 2.42216 23.8718 2.36654 23.8032C2.31091 23.7346 2.27966 23.6416 2.27966 23.5446V12.9367H33.7203V23.5446C33.7203 23.6416 33.6891 23.7346 33.6335 23.8032C33.5778 23.8718 33.5024 23.9103 33.4237 23.9103Z" fill="#263069"/>
</svg>
