<svg width="30" height="35" viewBox="0 0 30 35" fill="none" xmlns="http://www.w3.org/2000/svg">
<path id="Vector" d="M29.9662 14.7032L26.3934 1.64182C26.2645 1.17024 25.9837 0.754013 25.5941 0.457315C25.2045 0.160616 24.7278 -8.07295e-05 24.2376 3.04252e-08H5.76241C5.27216 -8.07295e-05 4.79551 0.160616 4.40592 0.457315C4.01634 0.754013 3.73546 1.17024 3.6066 1.64182L0.0337925 14.7032C-0.0112642 14.8677 -0.0112642 15.0413 0.0337925 15.2059L3.6066 28.2673C3.73546 28.7388 4.01634 29.1551 4.40592 29.4518C4.79551 29.7485 5.27216 29.9092 5.76241 29.9091H7.97886L5.29805 33.4727C5.22262 33.573 5.16773 33.6871 5.13652 33.8086C5.10532 33.93 5.09841 34.0564 5.11619 34.1804C5.13397 34.3045 5.1761 34.4239 5.24015 34.5318C5.30421 34.6396 5.38896 34.7339 5.48954 34.8091C5.59013 34.8843 5.70459 34.939 5.82638 34.9701C5.94818 35.0012 6.07493 35.0081 6.1994 34.9904C6.32387 34.9727 6.44361 34.9307 6.5518 34.8668C6.65999 34.8029 6.7545 34.7185 6.82994 34.6182L10.3724 29.9091H19.6276L23.1701 34.6182C23.3224 34.8207 23.5492 34.9546 23.8006 34.9904C24.052 35.0262 24.3073 34.961 24.5105 34.8091C24.7136 34.6572 24.8479 34.4311 24.8838 34.1804C24.9197 33.9298 24.8543 33.6753 24.7019 33.4727L22.0211 29.9091H24.2376C24.7278 29.9092 25.2045 29.7485 25.5941 29.4518C25.9837 29.1551 26.2645 28.7388 26.3934 28.2673L29.9662 15.2059C30.0113 15.0413 30.0113 14.8677 29.9662 14.7032ZM5.45444 2.14295C5.47297 2.07571 5.51315 2.0164 5.56879 1.97415C5.62444 1.9319 5.69246 1.90904 5.76241 1.90909H24.2376C24.3075 1.90904 24.3756 1.9319 24.4312 1.97415C24.4869 2.0164 24.527 2.07571 24.5456 2.14295L27.8439 14.202L15 16.5295L2.15609 14.202L5.45444 2.14295ZM5.45444 27.7661L2.28056 16.1652L14.0426 18.2955V28H5.76241C5.69246 28 5.62444 27.9772 5.56879 27.9349C5.51315 27.8927 5.47297 27.8334 5.45444 27.7661ZM24.5456 27.7661C24.527 27.8334 24.4869 27.8927 24.4312 27.9349C24.3756 27.9772 24.3075 28 24.2376 28H15.9574V18.2955L27.7194 16.1636L24.5456 27.7661ZM8.93629 9.86364C8.93629 9.61047 9.03716 9.36768 9.21671 9.18867C9.39626 9.00966 9.63979 8.90909 9.89371 8.90909H20.1063C20.3602 8.90909 20.6037 9.00966 20.7833 9.18867C20.9628 9.36768 21.0637 9.61047 21.0637 9.86364C21.0637 10.1168 20.9628 10.3596 20.7833 10.5386C20.6037 10.7176 20.3602 10.8182 20.1063 10.8182H9.89371C9.63979 10.8182 9.39626 10.7176 9.21671 10.5386C9.03716 10.3596 8.93629 10.1168 8.93629 9.86364Z" fill="#263069"/>
</svg>
