<svg width="36" height="35" viewBox="0 0 36 35" fill="none" xmlns="http://www.w3.org/2000/svg">
<path id="Vector" d="M34.6667 16.1538H33.2778V8.52564C33.2778 7.69259 33.0729 6.89366 32.7083 6.3046C32.3436 5.71554 31.849 5.38462 31.3333 5.38462H28.8333V3.14103C28.8333 2.30797 28.6285 1.50904 28.2638 0.919985C27.8992 0.330929 27.4046 0 26.8889 0H23.5556C23.0399 0 22.5453 0.330929 22.1806 0.919985C21.816 1.50904 21.6111 2.30797 21.6111 3.14103V16.1538H14.3889V3.14103C14.3889 2.30797 14.184 1.50904 13.8194 0.919985C13.4547 0.330929 12.9601 0 12.4444 0H9.11111C8.59541 0 8.10084 0.330929 7.73618 0.919985C7.37153 1.50904 7.16667 2.30797 7.16667 3.14103V5.38462H4.66667C4.15097 5.38462 3.65639 5.71554 3.29174 6.3046C2.92708 6.89366 2.72222 7.69259 2.72222 8.52564V16.1538H1.33333C1.11232 16.1538 0.900358 16.2957 0.744078 16.5481C0.587797 16.8006 0.5 17.143 0.5 17.5C0.5 17.857 0.587797 18.1994 0.744078 18.4519C0.900358 18.7043 1.11232 18.8462 1.33333 18.8462H2.72222V26.4744C2.72222 27.3074 2.92708 28.1063 3.29174 28.6954C3.65639 29.2845 4.15097 29.6154 4.66667 29.6154H7.16667V31.859C7.16667 32.692 7.37153 33.491 7.73618 34.08C8.10084 34.6691 8.59541 35 9.11111 35H12.4444C12.9601 35 13.4547 34.6691 13.8194 34.08C14.184 33.491 14.3889 32.692 14.3889 31.859V18.8462H21.6111V31.859C21.6111 32.692 21.816 33.491 22.1806 34.08C22.5453 34.6691 23.0399 35 23.5556 35H26.8889C27.4046 35 27.8992 34.6691 28.2638 34.08C28.6285 33.491 28.8333 32.692 28.8333 31.859V29.6154H31.3333C31.849 29.6154 32.3436 29.2845 32.7083 28.6954C33.0729 28.1063 33.2778 27.3074 33.2778 26.4744V18.8462H34.6667C34.8877 18.8462 35.0996 18.7043 35.2559 18.4519C35.4122 18.1994 35.5 17.857 35.5 17.5C35.5 17.143 35.4122 16.8006 35.2559 16.5481C35.0996 16.2957 34.8877 16.1538 34.6667 16.1538ZM4.66667 26.9231C4.593 26.9231 4.52234 26.8758 4.47025 26.7917C4.41815 26.7075 4.38889 26.5934 4.38889 26.4744V8.52564C4.38889 8.40663 4.41815 8.2925 4.47025 8.20835C4.52234 8.1242 4.593 8.07692 4.66667 8.07692H7.16667V26.9231H4.66667ZM12.7222 31.859C12.7222 31.978 12.693 32.0921 12.6409 32.1763C12.5888 32.2604 12.5181 32.3077 12.4444 32.3077H9.11111C9.03744 32.3077 8.96679 32.2604 8.91469 32.1763C8.8626 32.0921 8.83333 31.978 8.83333 31.859V3.14103C8.83333 3.02202 8.8626 2.90788 8.91469 2.82373C8.96679 2.73958 9.03744 2.69231 9.11111 2.69231H12.4444C12.5181 2.69231 12.5888 2.73958 12.6409 2.82373C12.693 2.90788 12.7222 3.02202 12.7222 3.14103V31.859ZM27.1667 31.859C27.1667 31.978 27.1374 32.0921 27.0853 32.1763C27.0332 32.2604 26.9626 32.3077 26.8889 32.3077H23.5556C23.4819 32.3077 23.4112 32.2604 23.3591 32.1763C23.307 32.0921 23.2778 31.978 23.2778 31.859V3.14103C23.2778 3.02202 23.307 2.90788 23.3591 2.82373C23.4112 2.73958 23.4819 2.69231 23.5556 2.69231H26.8889C26.9626 2.69231 27.0332 2.73958 27.0853 2.82373C27.1374 2.90788 27.1667 3.02202 27.1667 3.14103V31.859ZM31.6111 26.4744C31.6111 26.5934 31.5818 26.7075 31.5298 26.7917C31.4777 26.8758 31.407 26.9231 31.3333 26.9231H28.8333V8.07692H31.3333C31.407 8.07692 31.4777 8.1242 31.5298 8.20835C31.5818 8.2925 31.6111 8.40663 31.6111 8.52564V26.4744Z" fill="#263069"/>
</svg>
