<svg width="23" height="24" viewBox="0 0 23 24" fill="none" xmlns="http://www.w3.org/2000/svg">
<g id="gis:location-poi-o" clip-path="url(#clip0_2086_7897)">
<path id="Vector" d="M15.8499 11.8154L15.8389 11.8444C15.8423 11.8357 15.8451 11.8267 15.8485 11.818L15.8499 11.8154Z" fill="#263069"/>
<path id="Vector_2" d="M11.5006 0.56665C7.71062 0.56665 4.6001 3.66705 4.6001 7.44871C4.6001 8.91427 5.0693 10.28 5.8605 11.3987L5.83221 11.3546L10.2496 18.9901L10.2719 19.0193C10.4499 19.2516 10.6261 19.4388 10.8393 19.5798C11.0525 19.7208 11.3255 19.8098 11.5937 19.7829C12.1296 19.7291 12.441 19.3588 12.7288 18.9687L12.7467 18.9446L17.6167 10.6567L17.6206 10.6498C17.7372 10.4394 17.8216 10.2271 17.8939 10.0215C18.2279 9.20484 18.3998 8.33102 18.4001 7.44871C18.4001 3.66705 15.2905 0.56665 11.5006 0.56665ZM11.5006 1.71665C14.664 1.71665 17.2501 4.29679 17.2501 7.44871C17.2503 8.18491 17.1065 8.91405 16.8269 9.59507L16.8211 9.60933L16.8161 9.62428C16.7556 9.79839 16.6898 9.9564 16.6139 10.0935L11.7933 18.2967C11.5801 18.5775 11.4311 18.644 11.4789 18.6389C11.5035 18.6366 11.5263 18.6559 11.4736 18.621C11.4233 18.5876 11.3205 18.4899 11.1986 18.3344L6.815 10.7556L6.79959 10.7343C6.1388 9.80046 5.7501 8.66955 5.7501 7.44871C5.7501 4.29702 8.33714 1.71665 11.5006 1.71665ZM11.5006 3.52215C9.3243 3.52215 7.56411 5.27613 7.56411 7.44871C7.56411 9.62129 9.32453 11.3753 11.5006 11.3753C13.6766 11.3753 15.4361 9.62106 15.4361 7.44871C15.4361 5.27613 13.6766 3.52215 11.5006 3.52215ZM11.5006 4.67215C13.0685 4.67215 14.2861 5.8877 14.2861 7.44871C14.2861 9.00972 13.0687 10.2253 11.5006 10.2253C9.93242 10.2253 8.71411 9.00949 8.71411 7.44871C8.71411 5.8877 9.93265 4.67215 11.5006 4.67215Z" fill="#263069"/>
<path id="Vector_3" d="M7.82143 16.4497C4.57245 16.9088 2.30005 18.007 2.30005 19.6237C2.30005 21.8013 6.09689 23.5666 11.5 23.5666C16.9032 23.5666 20.7 21.8013 20.7 19.6237C20.7 18.007 18.4279 16.9088 15.1791 16.4497L14.729 17.2161C17.1776 17.5558 18.86 18.2697 18.86 19.0982C18.86 20.2597 15.5648 21.201 11.5 21.201C7.43526 21.201 4.14005 20.2597 4.14005 19.0982C4.13982 18.2725 5.81123 17.5592 8.2674 17.2181C8.11905 16.9619 7.97001 16.7062 7.82143 16.4497Z" fill="#263069"/>
</g>
<defs>
<clipPath id="clip0_2086_7897">
<rect width="23" height="23" fill="white" transform="translate(0 0.56665)"/>
</clipPath>
</defs>
</svg>
