<svg width="41" height="41" viewBox="0 0 41 41" fill="none" xmlns="http://www.w3.org/2000/svg">
<g id="Group">
<path id="Vector" d="M20.0827 0.398071H19.9916C8.97103 0.398071 0.0371094 9.33462 0.0371094 20.3584V20.4495C0.0371094 31.4733 8.97103 40.4099 19.9916 40.4099H20.0827C31.1032 40.4099 40.0371 31.4733 40.0371 20.4495V20.3584C40.0371 9.33462 31.1032 0.398071 20.0827 0.398071Z" fill="url(#paint0_linear_2467_4707)"/>
<g id="Group_2">
<path id="Vector_2" d="M26.2265 8.53845H13.8494C10.43 8.53845 7.64819 11.321 7.64819 14.7414V26.0681C7.64819 29.4885 10.43 32.271 13.8494 32.271H26.2265C29.6459 32.271 32.4276 29.4885 32.4276 26.0681V14.7414C32.4276 11.321 29.6459 8.53845 26.2265 8.53845ZM9.83577 14.7414C9.83577 12.528 11.6366 10.7267 13.8494 10.7267H26.2265C28.4393 10.7267 30.2401 12.528 30.2401 14.7414V26.0681C30.2401 28.2815 28.4393 30.0828 26.2265 30.0828H13.8494C11.6366 30.0828 9.83577 28.2815 9.83577 26.0681V14.7414Z" fill="white"/>
<path id="Vector_3" d="M20.0379 26.1732C23.2177 26.1732 25.8061 23.5855 25.8061 20.4034C25.8061 17.2213 23.2191 14.6335 20.0379 14.6335C16.8568 14.6335 14.2698 17.2213 14.2698 20.4034C14.2698 23.5855 16.8568 26.1732 20.0379 26.1732ZM20.0379 16.8232C22.0125 16.8232 23.6185 18.4296 23.6185 20.4048C23.6185 22.3799 22.0125 23.9864 20.0379 23.9864C18.0634 23.9864 16.4574 22.3799 16.4574 20.4048C16.4574 18.4296 18.0634 16.8232 20.0379 16.8232Z" fill="white"/>
<path id="Vector_4" d="M26.3398 15.5658C27.196 15.5658 27.8939 14.8691 27.8939 14.0111C27.8939 13.1532 27.1974 12.4565 26.3398 12.4565C25.4821 12.4565 24.7856 13.1532 24.7856 14.0111C24.7856 14.8691 25.4821 15.5658 26.3398 15.5658Z" fill="white"/>
</g>
</g>
<defs>
<linearGradient id="paint0_linear_2467_4707" x1="5.88092" y1="34.5643" x2="34.2016" y2="6.25335" gradientUnits="userSpaceOnUse">
<stop stop-color="#FAAD4F"/>
<stop offset="0.35" stop-color="#DD2A7B"/>
<stop offset="0.62" stop-color="#9537B0"/>
<stop offset="1" stop-color="#515BD4"/>
</linearGradient>
</defs>
</svg>
