<svg width="41" height="41" viewBox="0 0 41 41" fill="none" xmlns="http://www.w3.org/2000/svg">
<g id="Group">
<path id="Vector" d="M40.8518 20.4047C40.8518 30.5089 33.3642 38.8623 23.6371 40.2178C22.7276 40.344 21.797 40.4099 20.8525 40.4099C19.7622 40.4099 18.6916 40.3229 17.6489 40.1547C8.12504 38.6211 0.851807 30.3617 0.851807 20.4047C0.851807 9.35562 9.80672 0.398071 20.8511 0.398071C31.8955 0.398071 40.8518 9.35562 40.8518 20.4047Z" fill="#1877F2"/>
<path id="Vector_2" d="M23.6371 16.4614V20.8196H29.0269L28.1734 26.6904H23.6371V40.2164C22.7276 40.3426 21.7971 40.4085 20.8526 40.4085C19.7623 40.4085 18.6916 40.3216 17.649 40.1534V26.6904H12.6782V20.8196H17.649V15.4872C17.649 12.1789 20.3298 9.49585 23.6385 9.49585V9.49865C23.6483 9.49865 23.6567 9.49585 23.6666 9.49585H29.0283V14.5732H25.5248C24.4836 14.5732 23.6385 15.4185 23.6385 16.46L23.6371 16.4614Z" fill="white"/>
</g>
</svg>
