<svg width="41" height="41" viewBox="0 0 41 41" fill="none" xmlns="http://www.w3.org/2000/svg">
<g id="Group">
<path id="Vector" d="M40.2194 20.4047C40.2194 30.5086 32.732 38.8617 23.0052 40.2172C22.0958 40.3433 21.1653 40.4092 20.2208 40.4092C19.1305 40.4092 18.0599 40.3223 17.0173 40.1541C7.49515 38.6206 0.222168 30.3614 0.222168 20.4047C0.222168 9.35604 9.17676 0.398804 20.2222 0.398804C31.2676 0.398804 40.2222 9.35604 40.2222 20.4047H40.2194Z" fill="#1C1C1B"/>
<g id="layer1">
<path id="path1009" d="M8.33309 9.22144L17.5567 21.5569L8.27563 31.5865H10.365L18.4914 22.8059L25.0567 31.5865H32.1658L22.4236 18.5571L31.0629 9.22144H28.9735L21.4903 17.3082L15.4435 9.22144H8.33448H8.33309ZM11.4048 10.7606H14.67L29.0912 30.0474H25.8261L11.4048 10.7606Z" fill="white"/>
</g>
</g>
</svg>
