<svg width="22" height="22" viewBox="0 0 22 22" fill="none" xmlns="http://www.w3.org/2000/svg">
<g id="Plus">
<path id="Vector" d="M19.1439 11.2553C19.1439 11.5165 19.0402 11.7671 18.8554 11.9518C18.6707 12.1365 18.4202 12.2403 18.159 12.2403H11.9209V18.4783C11.9209 18.7395 11.8172 18.9901 11.6324 19.1748C11.4477 19.3595 11.1972 19.4633 10.936 19.4633C10.6747 19.4633 10.4242 19.3595 10.2395 19.1748C10.0548 18.9901 9.95102 18.7395 9.95102 18.4783V12.2403H3.71298C3.45176 12.2403 3.20123 12.1365 3.01651 11.9518C2.8318 11.7671 2.72803 11.5165 2.72803 11.2553C2.72803 10.9941 2.8318 10.7436 3.01651 10.5588C3.20123 10.3741 3.45176 10.2704 3.71298 10.2704H9.95102V4.03232C9.95102 3.77109 10.0548 3.52056 10.2395 3.33585C10.4242 3.15113 10.6747 3.04736 10.936 3.04736C11.1972 3.04736 11.4477 3.15113 11.6324 3.33585C11.8172 3.52056 11.9209 3.77109 11.9209 4.03232V10.2704H18.159C18.4202 10.2704 18.6707 10.3741 18.8554 10.5588C19.0402 10.7436 19.1439 10.9941 19.1439 11.2553Z" fill="white"/>
</g>
</svg>
