<svg width="10" height="15" viewBox="0 0 10 15" fill="none" xmlns="http://www.w3.org/2000/svg">
<path d="M6.17829 6.89609H5.48755V3.67263H5.7178C6.14526 3.67263 6.55521 3.84244 6.85747 4.1447C7.15972 4.44695 7.32953 4.8569 7.32953 5.28436C7.32953 5.46756 7.4023 5.64325 7.53184 5.77279C7.66138 5.90233 7.83707 5.9751 8.02027 5.9751C8.20347 5.9751 8.37916 5.90233 8.5087 5.77279C8.63824 5.64325 8.71101 5.46756 8.71101 5.28436C8.7101 4.49079 8.39445 3.72999 7.83331 3.16885C7.27217 2.60771 6.51137 2.29206 5.7178 2.29115H5.48755V1.60041C5.48755 1.41721 5.41478 1.24152 5.28524 1.11198C5.1557 0.982442 4.98001 0.909668 4.79681 0.909668C4.61362 0.909668 4.43792 0.982442 4.30838 1.11198C4.17885 1.24152 4.10607 1.41721 4.10607 1.60041V2.29115H3.87582C3.08198 2.29115 2.32064 2.60651 1.7593 3.16784C1.19797 3.72918 0.882613 4.49051 0.882613 5.28436C0.882613 6.07821 1.19797 6.83955 1.7593 7.40088C2.32064 7.96222 3.08198 8.27757 3.87582 8.27757H4.10607V11.501H3.41533C2.98787 11.501 2.57792 11.3312 2.27567 11.029C1.97341 10.7267 1.8036 10.3168 1.8036 9.8893C1.8036 9.70611 1.73083 9.53041 1.60129 9.40087C1.47175 9.27133 1.29606 9.19856 1.11286 9.19856C0.929664 9.19856 0.753972 9.27133 0.624432 9.40087C0.494893 9.53041 0.422119 9.70611 0.422119 9.8893C0.423033 10.6829 0.738682 11.4437 1.29982 12.0048C1.86096 12.5659 2.62176 12.8816 3.41533 12.8825H4.10607V13.5733C4.10607 13.7564 4.17885 13.9321 4.30838 14.0617C4.43792 14.1912 4.61362 14.264 4.79681 14.264C4.98001 14.264 5.1557 14.1912 5.28524 14.0617C5.41478 13.9321 5.48755 13.7564 5.48755 13.5733V12.8825H6.17829C6.97214 12.8825 7.73348 12.5672 8.29481 12.0058C8.85615 11.4445 9.17151 10.6832 9.17151 9.8893C9.17151 9.09545 8.85615 8.33412 8.29481 7.77278C7.73348 7.21145 6.97214 6.89609 6.17829 6.89609ZM3.87582 6.89609C3.44837 6.89609 3.03842 6.72628 2.73616 6.42403C2.4339 6.12177 2.2641 5.71182 2.2641 5.28436C2.2641 4.8569 2.4339 4.44695 2.73616 4.1447C3.03842 3.84244 3.44837 3.67263 3.87582 3.67263H4.10607V6.89609H3.87582ZM6.17829 11.501H5.48755V8.27757H6.17829C6.60575 8.27757 7.0157 8.44738 7.31796 8.74964C7.62022 9.05189 7.79002 9.46184 7.79002 9.8893C7.79002 10.3168 7.62022 10.7267 7.31796 11.029C7.0157 11.3312 6.60575 11.501 6.17829 11.501Z" fill="#263069"/>
</svg>
