<svg width="33" height="33" viewBox="0 0 33 33" fill="none" xmlns="http://www.w3.org/2000/svg">
<rect x="1" y="1" width="31" height="31" rx="4" fill="#263069"/>
<rect x="1" y="1" width="31" height="31" rx="4" stroke="#263069" stroke-width="2"/>
<path d="M16.4393 11.2502V16.0047L20.4127 18.3748C20.6129 18.4944 20.7571 18.688 20.8136 18.9132C20.8701 19.1385 20.8344 19.3768 20.7142 19.5758C20.594 19.7748 20.3992 19.9181 20.1726 19.9743C19.9461 20.0306 19.7064 19.995 19.5063 19.8755L15.106 17.2505C14.9757 17.1727 14.868 17.0627 14.7932 16.9312C14.7184 16.7997 14.6791 16.6512 14.6791 16.5002V11.2502C14.6791 11.0181 14.7719 10.7955 14.9369 10.6314C15.1019 10.4674 15.3258 10.3752 15.5592 10.3752C15.7926 10.3752 16.0165 10.4674 16.1815 10.6314C16.3465 10.7955 16.4393 11.0181 16.4393 11.2502ZM26.4566 8.69188C26.2958 8.62556 26.1188 8.60814 25.9481 8.64182C25.7773 8.6755 25.6204 8.75877 25.4973 8.8811L24.1398 10.2341C23.7845 9.85016 23.4181 9.46844 23.0287 9.07579C21.5611 7.61641 19.6934 6.6194 17.6591 6.20935C15.6247 5.7993 13.514 5.99439 11.5905 6.77024C9.66711 7.54609 8.01627 8.86829 6.84432 10.5716C5.67236 12.275 5.03126 14.284 5.00111 16.3475C4.97097 18.4111 5.55312 20.4377 6.67482 22.1742C7.79653 23.9106 9.40804 25.28 11.308 26.111C13.208 26.9421 15.3121 27.198 17.3576 26.8469C19.403 26.4958 21.299 25.5531 22.8087 24.1367C22.8928 24.0577 22.9604 23.963 23.0077 23.8581C23.0549 23.7531 23.0809 23.6399 23.0842 23.5249C23.0875 23.4099 23.0679 23.2955 23.0267 23.188C22.9855 23.0805 22.9234 22.9822 22.8439 22.8986C22.7645 22.815 22.6692 22.7478 22.5636 22.7008C22.4581 22.6538 22.3442 22.6279 22.2286 22.6247C22.1129 22.6214 21.9978 22.6408 21.8897 22.6818C21.7816 22.7228 21.6827 22.7846 21.5986 22.8636C20.3407 24.0437 18.7609 24.8292 17.0565 25.1218C15.3522 25.4145 13.5989 25.2013 12.0157 24.509C10.4325 23.8167 9.08961 22.6759 8.15471 21.2292C7.21982 19.7825 6.73441 18.0939 6.75912 16.3745C6.78383 14.655 7.31757 12.981 8.29365 11.5614C9.26973 10.1418 10.6449 9.03962 12.2473 8.39256C13.8498 7.74551 15.6085 7.58225 17.3037 7.92319C18.9989 8.26412 20.5555 9.09414 21.779 10.3095C22.1685 10.7011 22.5348 11.0861 22.8912 11.4722L21.097 13.2561C20.9738 13.3785 20.8898 13.5344 20.8558 13.7043C20.8218 13.8741 20.8392 14.0501 20.9059 14.2101C20.9726 14.3701 21.0855 14.5068 21.2303 14.6029C21.3752 14.6991 21.5455 14.7503 21.7196 14.7502H26.1199C26.3533 14.7502 26.5772 14.658 26.7422 14.4939C26.9073 14.3298 27 14.1072 27 13.8752V9.50016C27 9.32711 26.9483 9.15795 26.8516 9.01407C26.7549 8.8702 26.6174 8.75808 26.4566 8.69188Z" fill="white"/>
</svg>
