<svg width="33" height="33" viewBox="0 0 33 33" fill="none" xmlns="http://www.w3.org/2000/svg">
<rect x="1" y="1" width="31" height="31" rx="4" fill="white"/>
<rect x="1" y="1" width="31" height="31" rx="4" stroke="#263069" stroke-width="2"/>
<path fill-rule="evenodd" clip-rule="evenodd" d="M16.8894 7.48126C17.6335 6.67487 18.6431 6.16064 19.7353 6.03181C20.8275 5.90298 21.9298 6.16809 22.8425 6.77906L23.0349 6.91524L23.38 7.17272C23.8509 7.52421 24.2392 7.97367 24.5179 8.4898C24.7966 9.00593 24.9589 9.57634 24.9936 10.1613L25 10.3986V25.9372C24.9997 26.2084 24.8954 26.4692 24.7084 26.6664C24.5215 26.8636 24.2659 26.9823 23.994 26.9982C23.7221 27.0141 23.4544 26.926 23.2456 26.7519C23.0367 26.5779 22.9025 26.331 22.8703 26.0617L22.8628 25.9372V10.3986C22.8622 10.1332 22.8063 9.87088 22.6985 9.6282C22.5907 9.38553 22.4334 9.16781 22.2366 8.98884L22.0977 8.875L21.7526 8.61753C21.3586 8.32252 20.8846 8.15229 20.3922 8.12895C19.8998 8.10562 19.4117 8.23025 18.9913 8.48667L18.8278 8.59625L19.6378 9.06226C20.5856 9.60693 21.2874 10.4928 21.5987 11.5373C21.91 12.5818 21.8072 13.7054 21.3112 14.6766L21.2022 14.8756L20.668 15.7969C20.537 16.0225 20.3275 16.1923 20.0791 16.2743C19.8307 16.3562 19.5608 16.3446 19.3205 16.2417L19.2083 16.1863L9.9543 10.8667C9.72754 10.7363 9.55677 10.5275 9.47443 10.2799C9.39209 10.0324 9.4039 9.76342 9.50764 9.524L9.5632 9.41335L10.0975 8.49199C10.6446 7.54838 11.5343 6.84961 12.5833 6.53965C13.6324 6.22968 14.7609 6.33212 15.7364 6.82587L15.9363 6.9344L16.8894 7.48126ZM10.8412 19.9761C11.0867 20.1171 11.2657 20.3495 11.3391 20.6221C11.4124 20.8946 11.374 21.185 11.2323 21.4294L10.698 22.3507C10.6284 22.4727 10.5352 22.5798 10.4238 22.6657C10.3124 22.7517 10.1851 22.8149 10.0491 22.8517C9.91308 22.8884 9.77112 22.898 9.63137 22.8799C9.49162 22.8619 9.35684 22.8164 9.2348 22.7463C9.11275 22.6761 9.00585 22.5826 8.92025 22.4712C8.83465 22.3597 8.77203 22.2325 8.73601 22.0968C8.69999 21.9612 8.69127 21.8198 8.71037 21.6808C8.72946 21.5417 8.77598 21.4079 8.84725 21.2868L9.38154 20.3654C9.52325 20.1211 9.75665 19.9428 10.0304 19.8698C10.3041 19.7967 10.5958 19.835 10.8412 19.9761ZM13.2263 20.1186C13.3617 19.8818 13.5833 19.7057 13.8453 19.6267C14.1073 19.5478 14.3897 19.5719 14.6343 19.6942C14.879 19.8164 15.0671 20.0275 15.1601 20.2838C15.253 20.5402 15.2436 20.8223 15.1337 21.0719L15.0771 21.1825L14.5428 22.1039C14.4062 22.3384 14.1848 22.5121 13.9239 22.5895C13.663 22.667 13.3822 22.6424 13.1389 22.5207C12.8956 22.3991 12.7082 22.1895 12.6148 21.9349C12.5214 21.6803 12.5291 21.3998 12.6365 21.1506L12.692 21.04L13.2263 20.1186ZM9.13363 16.5374C9.37906 16.6785 9.55814 16.9109 9.63148 17.1834C9.70483 17.456 9.66643 17.7464 9.52473 17.9908L8.99044 18.9121C8.84773 19.1545 8.61453 19.3308 8.34172 19.4026C8.06892 19.4744 7.77866 19.4359 7.53428 19.2954C7.28991 19.1549 7.11127 18.9239 7.03733 18.6528C6.9634 18.3817 7.00018 18.0924 7.13965 17.8482L7.67394 16.9268C7.81565 16.6825 8.04905 16.5042 8.32279 16.4311C8.59653 16.3581 8.8882 16.3963 9.13363 16.5374ZM12.9784 16.2906C13.2238 16.4317 13.4029 16.6641 13.4763 16.9366C13.5496 17.2092 13.5112 17.4996 13.3695 17.7439L12.8352 18.6653C12.7656 18.7873 12.6724 18.8943 12.561 18.9803C12.4496 19.0663 12.3223 19.1294 12.1863 19.1662C12.0503 19.203 11.9083 19.2126 11.7685 19.1945C11.6288 19.1764 11.494 19.131 11.372 19.0608C11.2499 18.9907 11.143 18.8972 11.0574 18.7857C10.9718 18.6742 10.9092 18.547 10.8732 18.4114C10.8372 18.2757 10.8284 18.1343 10.8475 17.9953C10.8666 17.8563 10.9131 17.7224 10.9844 17.6014L11.5187 16.68C11.6604 16.4356 11.8938 16.2573 12.1676 16.1843C12.4413 16.1113 12.733 16.1495 12.9784 16.2906ZM15.3635 16.4332C15.4994 16.1975 15.7208 16.0225 15.9822 15.9442C16.2435 15.8659 16.5251 15.8901 16.7691 16.0119C17.0131 16.1337 17.2011 16.3439 17.2944 16.5993C17.3877 16.8547 17.3793 17.1359 17.2709 17.3854L17.2143 17.4971L16.68 18.4185C16.5434 18.6529 16.322 18.8266 16.0611 18.9041C15.8002 18.9815 15.5194 18.9569 15.2761 18.8353C15.0328 18.7136 14.8453 18.5041 14.752 18.2494C14.6586 17.9948 14.6663 17.7143 14.7736 17.4652L14.8292 17.3545L15.3635 16.4332ZM11.2708 12.8509C11.5162 12.992 11.6953 13.2244 11.7687 13.4969C11.842 13.7695 11.8036 14.0599 11.6619 14.3042L11.1276 15.2256C10.9849 15.468 10.7517 15.6443 10.4789 15.7161C10.2061 15.7879 9.91583 15.7494 9.67146 15.6089C9.42708 15.4684 9.24844 15.2374 9.17451 14.9663C9.10057 14.6952 9.13735 14.4059 9.27682 14.1617L9.81111 13.2403C9.95282 12.996 10.1862 12.8176 10.46 12.7446C10.7337 12.6716 11.0254 12.7098 11.2708 12.8509ZM11.9483 9.55486L19.3515 13.8106C19.6348 13.3219 19.7116 12.7411 19.565 12.196C19.4183 11.6509 19.0601 11.1861 18.5692 10.9039L14.8677 8.77606C14.3768 8.4939 13.7935 8.41744 13.246 8.56349C12.6985 8.70954 12.2317 9.06614 11.9483 9.55486Z" fill="#263069"/>
</svg>
