<svg width="35" height="35" viewBox="0 0 35 35" fill="none" xmlns="http://www.w3.org/2000/svg">
<path d="M33.5306 7.46512L30.5681 4.00011C30.3937 3.80993 30.163 3.70639 29.9246 3.71132C29.6863 3.71624 29.4589 3.82923 29.2903 4.02649C29.1217 4.22375 29.0252 4.48988 29.021 4.7688C29.0168 5.04773 29.1052 5.31767 29.2677 5.52177L32.2288 8.98857C32.3716 9.15474 32.4849 9.35244 32.562 9.57021C32.6392 9.78798 32.6786 10.0215 32.678 10.2572V24.8583C32.678 25.3343 32.5165 25.7907 32.2289 26.1272C31.9414 26.4637 31.5513 26.6528 31.1446 26.6528C30.738 26.6528 30.3479 26.4637 30.0604 26.1272C29.7728 25.7907 29.6112 25.3343 29.6112 24.8583V17.6807C29.6112 16.6337 29.2558 15.6296 28.6232 14.8893C27.9905 14.1489 27.1324 13.733 26.2377 13.733H23.4776V4.76094C23.4776 3.71394 23.1222 2.70983 22.4895 1.96949C21.8569 1.22915 20.9988 0.813232 20.1041 0.813232H7.83687C6.94216 0.813232 6.0841 1.22915 5.45145 1.96949C4.8188 2.70983 4.46338 3.71394 4.46338 4.76094V32.3949H1.70325C1.45924 32.3949 1.22522 32.5083 1.05268 32.7102C0.880136 32.9121 0.783203 33.186 0.783203 33.4715C0.783203 33.7571 0.880136 34.0309 1.05268 34.2328C1.22522 34.4347 1.45924 34.5482 1.70325 34.5482H26.2377C26.4817 34.5482 26.7158 34.4347 26.8883 34.2328C27.0609 34.0309 27.1578 33.7571 27.1578 33.4715C27.1578 33.186 27.0609 32.9121 26.8883 32.7102C26.7158 32.5083 26.4817 32.3949 26.2377 32.3949H23.4776V15.8863H26.2377C26.6444 15.8863 27.0345 16.0753 27.322 16.4119C27.6096 16.7484 27.7711 17.2048 27.7711 17.6807V24.8583C27.7711 25.9053 28.1266 26.9095 28.7592 27.6498C29.3919 28.3901 30.2499 28.8061 31.1446 28.8061C32.0393 28.8061 32.8974 28.3901 33.5301 27.6498C34.1627 26.9095 34.5181 25.9053 34.5181 24.8583V10.2572C34.5193 9.73856 34.4326 9.22478 34.2631 8.74554C34.0936 8.2663 33.8447 7.83112 33.5306 7.46512ZM6.30346 32.3949V4.76094C6.30346 4.28503 6.46502 3.82861 6.75259 3.4921C7.04016 3.15558 7.43019 2.96653 7.83687 2.96653H20.1041C20.5108 2.96653 20.9008 3.15558 21.1884 3.4921C21.476 3.82861 21.6375 4.28503 21.6375 4.76094V32.3949H6.30346ZM18.5707 14.8096C18.5707 15.0952 18.4738 15.369 18.3012 15.5709C18.1287 15.7729 17.8947 15.8863 17.6507 15.8863H10.2903C10.0463 15.8863 9.81229 15.7729 9.63975 15.5709C9.46721 15.369 9.37028 15.0952 9.37028 14.8096C9.37028 14.5241 9.46721 14.2503 9.63975 14.0483C9.81229 13.8464 10.0463 13.733 10.2903 13.733H17.6507C17.8947 13.733 18.1287 13.8464 18.3012 14.0483C18.4738 14.2503 18.5707 14.5241 18.5707 14.8096Z" fill="black" fill-opacity="0.7"/>
</svg>
