<svg width="35" height="35" viewBox="0 0 35 35" fill="none" xmlns="http://www.w3.org/2000/svg">
<path d="M33.7665 4.36053C32.8359 3.24118 31.7102 2.34865 30.4592 1.73841C29.2083 1.12817 27.859 0.813263 26.495 0.813263C25.1311 0.813263 23.7818 1.12817 22.5309 1.73841C21.2799 2.34865 20.1542 3.24118 19.2236 4.36053C18.3555 5.38495 17.6549 6.5729 17.1537 7.87C16.6522 6.57412 15.9516 5.38737 15.0838 4.36397C14.1532 3.24462 13.0275 2.35209 11.7766 1.74185C10.5257 1.13161 9.1763 0.816705 7.81238 0.816705C6.44845 0.816705 5.0991 1.13161 3.84819 1.74185C2.59727 2.35209 1.47153 3.24462 0.540934 4.36397C0.439063 4.48486 0.364727 4.6316 0.324255 4.79169C0.283783 4.95178 0.278374 5.12048 0.308488 5.28342C0.338603 5.44636 0.403348 5.59872 0.497213 5.72752C0.591077 5.85633 0.711279 5.95776 0.847584 6.02318L10.3277 10.6531C10.044 10.7117 9.76037 10.7805 9.47826 10.8648C8.11788 11.2648 6.84158 11.9634 5.72312 12.9203C4.60465 13.8771 3.66618 15.0733 2.96194 16.4397C2.25296 17.7976 1.79282 19.3009 1.60851 20.8612C1.4242 22.4215 1.51945 24.0074 1.88866 25.5258C1.92791 25.6894 2.00242 25.8397 2.10564 25.9634C2.20885 26.0871 2.33759 26.1803 2.4805 26.2349C2.57585 26.271 2.67578 26.2896 2.77641 26.29C2.97809 26.29 3.17418 26.2156 3.33452 26.0783L16.2338 15.037V33.5155C16.2338 33.7894 16.3307 34.0521 16.5032 34.2457C16.6757 34.4394 16.9097 34.5482 17.1537 34.5482C17.3977 34.5482 17.6317 34.4394 17.8042 34.2457C17.9767 34.0521 18.0737 33.7894 18.0737 33.5155V15.037L30.979 26.0749C31.1394 26.2122 31.3355 26.2866 31.5371 26.2866C31.6378 26.2862 31.7377 26.2676 31.8331 26.2315C31.976 26.1769 32.1047 26.0836 32.2079 25.96C32.3111 25.8363 32.3856 25.686 32.4249 25.5224C32.7941 24.004 32.8894 22.418 32.705 20.8577C32.5207 19.2974 32.0606 17.7942 31.3516 16.4363C30.6474 15.0699 29.7089 13.8737 28.5904 12.9168C27.472 11.9599 26.1957 11.2613 24.8353 10.8614C24.5532 10.7771 24.2695 10.7082 23.9859 10.6497L33.466 6.01974C33.6023 5.95432 33.7225 5.85288 33.8163 5.72408C33.9102 5.59528 33.975 5.44292 34.0051 5.27998C34.0352 5.11704 34.0298 4.94834 33.9893 4.78825C33.9488 4.62816 33.8745 4.48142 33.7726 4.36053H33.7665ZM7.81314 2.8786C8.9273 2.88155 10.0291 3.14089 11.0504 3.6406C12.0718 4.14031 12.9911 4.86977 13.7514 5.78394C15.0197 7.28479 15.8475 9.18607 16.1234 11.2315L2.88374 4.77189C4.29498 3.54586 6.02865 2.87999 7.81314 2.8786ZM3.39891 23.4174C3.20834 21.3498 3.61009 19.2679 4.54579 17.4742C5.13056 16.3433 5.9089 15.3535 6.83597 14.5618C7.76304 13.7701 8.82051 13.1922 9.94743 12.8614C10.7036 12.6341 11.4829 12.5184 12.2657 12.5172C13.3359 12.5166 14.3972 12.7341 15.3981 13.1592L3.39891 23.4174ZM29.7616 17.4742C30.6973 19.2679 31.0991 21.3498 30.9085 23.4174L18.9124 13.1574C20.8838 12.325 23.054 12.3017 25.0393 13.0916C27.0246 13.8815 28.6972 15.4338 29.7616 17.4742ZM18.1841 11.2315C18.4599 9.18607 19.2877 7.28479 20.556 5.78394C21.3164 4.86977 22.2356 4.14031 23.257 3.6406C24.2783 3.14089 25.3801 2.88155 26.4943 2.8786C28.2788 2.87999 30.0124 3.54586 31.4237 4.77189L18.1841 11.2315Z" fill="black" fill-opacity="0.7"/>
</svg>
