<svg width="35" height="48" viewBox="0 0 35 48" fill="none" xmlns="http://www.w3.org/2000/svg">
<g id="Logo_Header 1" clip-path="url(#clip0_4529_489)">
<g id="Mask group">
<mask id="mask0_4529_489" style="mask-type:luminance" maskUnits="userSpaceOnUse" x="0" y="0" width="35" height="48">
<g id="Group">
<path id="Vector" d="M17.4898 0C7.83064 0 0 7.8302 0 17.4898C0 30.8132 11.6939 34.1442 17.0269 47.5545C17.1941 47.9747 17.7856 47.9747 17.9528 47.5545C23.2863 34.1442 34.9797 30.8132 34.9797 17.4898C34.9797 7.8302 27.1491 0 17.4898 0Z" fill="white"/>
</g>
</mask>
<g mask="url(#mask0_4529_489)">
<g id="Group_2">
<path id="Vector_2" d="M17.4898 0C7.83064 0 0 7.8302 0 17.4898C0 30.8132 11.6939 34.1442 17.0269 47.5545C17.1941 47.9747 17.7856 47.9747 17.9528 47.5545C23.2863 34.1442 34.9797 30.8132 34.9797 17.4898C34.9797 7.8302 27.1491 0 17.4898 0Z" fill="#253169"/>
<path id="Vector_3" d="M23.0554 16.1693C24.1507 16.1693 25.0385 15.2814 25.0385 14.1862C25.0385 13.091 24.1507 12.2032 23.0554 12.2032C21.9602 12.2032 21.0724 13.091 21.0724 14.1862C21.0724 15.2814 21.9602 16.1693 23.0554 16.1693Z" fill="white"/>
<path id="Vector_4" d="M23.2906 40.4548C23.0051 40.4548 22.8104 40.3255 22.7072 40.0655L18.2962 27.4276C18.2123 27.1866 17.985 27.0255 17.7299 27.0255H15.0495C14.6814 27.0255 14.3831 27.3238 14.3831 27.6919V42.4329C14.3831 42.5755 14.2679 42.6907 14.1253 42.6907H8.92255C8.77999 42.6907 8.66479 42.5755 8.66479 42.4329V11.0592C8.66479 10.8323 8.85679 10.7238 9.08365 10.7238L19.5956 10.6487C20.9439 10.6487 22.1691 10.85 23.2717 11.2516C24.3737 11.6542 25.32 12.2182 26.1114 12.9438C26.9023 13.6703 27.5118 14.5385 27.9395 15.5501C28.3672 16.5617 28.5813 17.6642 28.5813 18.8567C28.5813 20.5684 28.1664 22.0597 27.3366 23.3303C26.5479 24.5375 25.4674 25.4639 24.0944 26.1092C23.9717 26.167 23.9121 26.3078 23.9597 26.4345L29.0866 39.9878C29.1382 40.118 29.1382 40.2279 29.0866 40.3184C29.0345 40.4098 28.944 40.4548 28.8143 40.4548H23.2906Z" fill="#1F285D"/>
<path id="Vector_5" d="M22.7695 41.8936C22.4839 41.8936 22.2893 41.7643 22.186 41.5044L17.3681 27.3887C17.3014 27.1941 17.1187 27.063 16.913 27.063H14.1982C13.8037 27.063 13.4841 27.383 13.4841 27.7771V41.221C13.4841 41.5141 13.2467 41.7515 12.9536 41.7515H8.2959C8.00283 41.7515 7.76538 41.5141 7.76538 41.221V11.3051C7.76538 10.9634 8.04212 10.6867 8.38373 10.6867H18.6962C20.0445 10.6867 21.2697 10.888 22.3723 11.2896C23.4743 11.6921 24.4206 12.2562 25.212 12.9818C26.0029 13.7083 26.6124 14.5764 27.0401 15.588C27.4678 16.5996 27.6818 17.7022 27.6818 18.8947C27.6818 20.6063 27.267 22.0977 26.4372 23.3684C25.682 24.5243 24.6594 25.4229 23.368 26.0638C23.1468 26.1732 23.0427 26.4301 23.1279 26.6618L28.5654 41.4276C28.6171 41.5578 28.6171 41.6677 28.5654 41.7581C28.5134 41.8495 28.4229 41.8945 28.2931 41.8945H22.7695V41.8936Z" fill="white"/>
<path id="Vector_6" d="M12.9033 21.7842C12.9011 21.7458 12.8928 21.7326 12.8905 21.7379C12.8967 21.7538 12.9015 21.7697 12.9029 21.7838V21.7847L12.9033 21.7842Z" fill="#336186"/>
<path id="Vector_7" d="M21.3782 22.9235C23.4664 20.8353 23.4664 17.4497 21.3782 15.3615C19.29 13.2733 15.9044 13.2733 13.8163 15.3615C11.7281 17.4497 11.7281 20.8353 13.8163 22.9235C15.9044 25.0116 19.29 25.0116 21.3782 22.9235Z" fill="#243169" stroke="#243169" stroke-width="1.56507" stroke-miterlimit="10"/>
<g id="Group_3" opacity="0.9">
<path id="Vector_8" d="M13.2256 17.9466C13.2256 17.9466 13.2017 17.9726 13.1956 17.9793C13.2088 17.9603 13.2207 17.9457 13.2256 17.9466Z" fill="#4067B0"/>
</g>
<path id="Vector_9" d="M22.1837 16.1936C23.1439 16.1936 23.9222 15.4348 23.9222 14.4988C23.9222 13.5627 23.1439 12.8039 22.1837 12.8039C21.2236 12.8039 20.4452 13.5627 20.4452 14.4988C20.4452 15.4348 21.2236 16.1936 22.1837 16.1936Z" fill="#F6B219"/>
<path id="Vector_10" d="M22.3249 16.1379C23.3277 16.1379 24.1407 15.325 24.1407 14.3221C24.1407 13.3193 23.3277 12.5064 22.3249 12.5064C21.3221 12.5064 20.5092 13.3193 20.5092 14.3221C20.5092 15.325 21.3221 16.1379 22.3249 16.1379Z" fill="white"/>
</g>
</g>
</g>
</g>
<defs>
<clipPath id="clip0_4529_489">
<rect width="35" height="47.8878" fill="white"/>
</clipPath>
</defs>
</svg>
