<svg width="33" height="33" viewBox="0 0 33 33" fill="none" xmlns="http://www.w3.org/2000/svg">
<rect x="1" y="1" width="31" height="31" rx="4" fill="#263069"/>
<rect x="1" y="1" width="31" height="31" rx="4" stroke="#263069" stroke-width="2"/>
<path d="M18.3995 7.5C18.3995 6.80777 18.6048 6.13108 18.9894 5.55551C19.374 4.97993 19.9206 4.53133 20.5602 4.26642C21.1997 4.00152 21.9034 3.9322 22.5824 4.06725C23.2613 4.2023 23.8849 4.53564 24.3744 5.02513C24.8639 5.51461 25.1972 6.13825 25.3323 6.81719C25.4673 7.49612 25.398 8.19985 25.1331 8.83939C24.8682 9.47893 24.4196 10.0256 23.844 10.4101C23.2685 10.7947 22.5918 11 21.8995 11C20.9713 11 20.081 10.6313 19.4247 9.97487C18.7683 9.3185 18.3995 8.42826 18.3995 7.5ZM20.1495 19.75C19.9175 19.75 19.6949 19.8422 19.5308 20.0063C19.3667 20.1704 19.2745 20.3929 19.2745 20.625C19.2745 21.6634 18.9666 22.6784 18.3898 23.5417C17.8129 24.4051 16.9929 25.078 16.0336 25.4754C15.0743 25.8727 14.0187 25.9767 13.0003 25.7741C11.9819 25.5716 11.0465 25.0715 10.3122 24.3373C9.57801 23.6031 9.07799 22.6676 8.87542 21.6492C8.67285 20.6308 8.77682 19.5752 9.17418 18.6159C9.57154 17.6566 10.2444 16.8367 11.1078 16.2598C11.9712 15.6829 12.9862 15.375 14.0245 15.375C14.2566 15.375 14.4792 15.2828 14.6433 15.1187C14.8074 14.9546 14.8995 14.7321 14.8995 14.5C14.8995 14.2679 14.8074 14.0454 14.6433 13.8813C14.4792 13.7172 14.2566 13.625 14.0245 13.625C12.6401 13.625 11.2867 14.0355 10.1356 14.8047C8.98441 15.5739 8.0872 16.6671 7.55739 17.9462C7.02757 19.2253 6.88895 20.6328 7.15905 21.9906C7.42914 23.3485 8.09583 24.5958 9.0748 25.5747C10.0538 26.5537 11.301 27.2204 12.6589 27.4905C14.0168 27.7606 15.4242 27.622 16.7033 27.0922C17.9824 26.5623 19.0757 25.6651 19.8448 24.514C20.614 23.3628 21.0245 22.0095 21.0245 20.625C21.0245 20.3929 20.9324 20.1704 20.7683 20.0063C20.6042 19.8422 20.3816 19.75 20.1495 19.75ZM24.5245 16.25H18.1611L20.0336 12.9928C20.145 12.7989 20.178 12.5697 20.1257 12.3523C20.0735 12.1348 19.9399 11.9456 19.7525 11.8236C17.8781 10.6051 15.6637 10.0166 13.4317 10.1439C11.1997 10.2711 9.06653 11.1075 7.34282 12.5313C7.24949 12.6028 7.17152 12.6924 7.11358 12.7947C7.05565 12.897 7.01893 13.01 7.00562 13.1268C6.99231 13.2436 7.00269 13.3619 7.03613 13.4747C7.06957 13.5874 7.12539 13.6922 7.20026 13.7829C7.27512 13.8736 7.36749 13.9482 7.47185 14.0024C7.57622 14.0566 7.69043 14.0892 7.80766 14.0982C7.9249 14.1073 8.04276 14.0926 8.1542 14.0551C8.26564 14.0176 8.36837 13.958 8.45626 13.8798C9.78466 12.7857 11.4059 12.107 13.1177 11.9286C14.8294 11.7503 16.5558 12.0801 18.0813 12.8769L15.8905 16.6875C15.8136 16.8206 15.7732 16.9716 15.7733 17.1253C15.7733 17.279 15.8139 17.43 15.8908 17.5631C15.9678 17.6961 16.0784 17.8066 16.2116 17.8833C16.3448 17.96 16.4958 18.0002 16.6495 18H23.457L21.917 25.7033C21.8716 25.9307 21.9184 26.1668 22.0469 26.3598C22.1755 26.5528 22.3755 26.6868 22.6028 26.7325C22.6593 26.7441 22.7169 26.75 22.7745 26.75C22.9765 26.7496 23.1722 26.6794 23.3283 26.5512C23.4844 26.423 23.5913 26.2448 23.631 26.0467L25.381 17.2967C25.4063 17.1699 25.4033 17.039 25.372 16.9135C25.3408 16.788 25.2821 16.671 25.2002 16.5709C25.1183 16.4708 25.0152 16.3901 24.8984 16.3346C24.7816 16.2791 24.6539 16.2502 24.5245 16.25Z" fill="white"/>
</svg>
