<svg width="34" height="33" viewBox="0 0 34 33" fill="none" xmlns="http://www.w3.org/2000/svg">
<g id="Component 18">
<rect x="1.44678" y="1" width="31" height="31" rx="4" fill="white"/>
<rect x="1.44678" y="1" width="31" height="31" rx="4" stroke="#263069" stroke-width="2"/>
<path id="Vector" d="M11.5113 25.8333C11.5113 26.0641 11.4602 26.2896 11.3645 26.4815C11.2688 26.6734 11.1328 26.8229 10.9736 26.9112C10.8145 26.9995 10.6394 27.0226 10.4704 26.9776C10.3015 26.9326 10.1463 26.8215 10.0245 26.6583C9.90265 26.4951 9.8197 26.2873 9.78609 26.0609C9.75249 25.8346 9.76974 25.6 9.83566 25.3869C9.90158 25.1737 10.0132 24.9915 10.1564 24.8633C10.2997 24.7351 10.4681 24.6667 10.6403 24.6667C10.8713 24.6667 11.0929 24.7896 11.2562 25.0084C11.4195 25.2272 11.5113 25.5239 11.5113 25.8333ZM12.9629 21.5556C12.7906 21.5556 12.6223 21.624 12.479 21.7522C12.3358 21.8804 12.2242 22.0626 12.1582 22.2758C12.0923 22.4889 12.0751 22.7235 12.1087 22.9498C12.1423 23.1761 12.2252 23.384 12.347 23.5472C12.4688 23.7103 12.624 23.8215 12.793 23.8665C12.9619 23.9115 13.1371 23.8884 13.2962 23.8001C13.4554 23.7118 13.5914 23.5622 13.6871 23.3704C13.7828 23.1785 13.8339 22.953 13.8339 22.7222C13.8339 22.4128 13.7421 22.1161 13.5788 21.8973C13.4154 21.6785 13.1939 21.5556 12.9629 21.5556ZM8.31775 21.5556C8.14548 21.5556 7.97709 21.624 7.83386 21.7522C7.69063 21.8804 7.579 22.0626 7.51308 22.2758C7.44715 22.4889 7.42991 22.7235 7.46351 22.9498C7.49712 23.1761 7.58007 23.384 7.70188 23.5472C7.82369 23.7103 7.97888 23.8215 8.14783 23.8665C8.31678 23.9115 8.4919 23.8884 8.65105 23.8001C8.8102 23.7118 8.94623 23.5622 9.04193 23.3704C9.13763 23.1785 9.18871 22.953 9.18871 22.7222C9.18871 22.4128 9.09695 22.1161 8.93361 21.8973C8.77027 21.6785 8.54874 21.5556 8.31775 21.5556ZM10.6403 18.4444C10.4681 18.4444 10.2997 18.5129 10.1564 18.6411C10.0132 18.7693 9.90158 18.9515 9.83566 19.1646C9.76974 19.3778 9.75249 19.6124 9.78609 19.8387C9.8197 20.065 9.90265 20.2729 10.0245 20.4361C10.1463 20.5992 10.3015 20.7103 10.4704 20.7554C10.6394 20.8004 10.8145 20.7773 10.9736 20.689C11.1328 20.6007 11.2688 20.4511 11.3645 20.2593C11.4602 20.0674 11.5113 19.8419 11.5113 19.6111C11.5113 19.3017 11.4195 19.0049 11.2562 18.7862C11.0929 18.5674 10.8713 18.4444 10.6403 18.4444ZM25.4468 6.77778C25.4468 6.98406 25.3856 7.18189 25.2767 7.32775C25.1678 7.47361 25.0201 7.55556 24.8661 7.55556H22.7838L20.7624 10.2642L19.1903 22.591C19.1549 22.8726 19.0624 23.1357 18.9227 23.3515C18.7831 23.5674 18.6018 23.7275 18.3987 23.8145C18.1957 23.9014 17.9786 23.9118 17.7715 23.8445C17.5643 23.7772 17.3749 23.6348 17.2241 23.4329L10.1112 13.9051C9.96025 13.703 9.85379 13.4491 9.80354 13.1712C9.75329 12.8933 9.76119 12.6022 9.82636 12.33C9.89154 12.0577 10.0115 11.8148 10.173 11.6279C10.3345 11.4409 10.5314 11.3173 10.7419 11.2704L19.9408 9.16361L22.1327 6.2275C22.1867 6.1553 22.2508 6.09804 22.3213 6.05901C22.3917 6.01997 22.4673 5.99992 22.5436 6H24.8661C25.0201 6 25.1678 6.08194 25.2767 6.22781C25.3856 6.37367 25.4468 6.5715 25.4468 6.77778ZM19.5104 10.8407L10.9306 12.8056L18.0436 22.3333L19.5104 10.8407Z" fill="#263069"/>
</g>
</svg>
