<svg width="34" height="33" viewBox="0 0 34 33" fill="none" xmlns="http://www.w3.org/2000/svg">
<g id="Component 19">
<rect x="1.44678" y="1" width="31" height="31" rx="4" fill="white"/>
<rect x="1.44678" y="1" width="31" height="31" rx="4" stroke="#263069" stroke-width="2"/>
<path id="Vector" d="M23.9468 12.75H20.9468V10.5C20.9468 9.30653 20.4727 8.16193 19.6288 7.31802C18.7848 6.47411 17.6403 6 16.4468 6C15.2533 6 14.1087 6.47411 13.2648 7.31802C12.4209 8.16193 11.9468 9.30653 11.9468 10.5V12.75H8.94678C8.54895 12.75 8.16742 12.908 7.88612 13.1893C7.60481 13.4706 7.44678 13.8522 7.44678 14.25V24.75C7.44678 25.1478 7.60481 25.5294 7.88612 25.8107C8.16742 26.092 8.54895 26.25 8.94678 26.25H23.9468C24.3446 26.25 24.7261 26.092 25.0074 25.8107C25.2887 25.5294 25.4468 25.1478 25.4468 24.75V14.25C25.4468 13.8522 25.2887 13.4706 25.0074 13.1893C24.7261 12.908 24.3446 12.75 23.9468 12.75ZM13.4468 10.5C13.4468 9.70435 13.7628 8.94129 14.3255 8.37868C14.8881 7.81607 15.6511 7.5 16.4468 7.5C17.2424 7.5 18.0055 7.81607 18.5681 8.37868C19.1307 8.94129 19.4468 9.70435 19.4468 10.5V12.75H13.4468V10.5ZM23.9468 24.75H8.94678V14.25H23.9468V24.75ZM17.5718 19.5C17.5718 19.7225 17.5058 19.94 17.3822 20.125C17.2586 20.31 17.0829 20.4542 16.8773 20.5394C16.6717 20.6245 16.4455 20.6468 16.2273 20.6034C16.0091 20.56 15.8086 20.4528 15.6513 20.2955C15.4939 20.1382 15.3868 19.9377 15.3434 19.7195C15.3 19.5012 15.3223 19.275 15.4074 19.0695C15.4926 18.8639 15.6368 18.6882 15.8218 18.5646C16.0068 18.441 16.2243 18.375 16.4468 18.375C16.7451 18.375 17.0313 18.4935 17.2423 18.7045C17.4532 18.9155 17.5718 19.2016 17.5718 19.5Z" fill="#263069"/>
</g>
</svg>
