<svg width="34" height="33" viewBox="0 0 34 33" fill="none" xmlns="http://www.w3.org/2000/svg">
<g id="Component 21">
<rect x="1.44678" y="1" width="31" height="31" rx="4" fill="white"/>
<rect x="1.44678" y="1" width="31" height="31" rx="4" stroke="#263069" stroke-width="2"/>
<path id="Vector" d="M18.4468 15.75H16.9468V9.75H17.6968C18.4924 9.75 19.2555 10.0661 19.8181 10.6287C20.3807 11.1913 20.6968 11.9544 20.6968 12.75C20.6968 12.9489 20.7758 13.1397 20.9164 13.2803C21.0571 13.421 21.2479 13.5 21.4468 13.5C21.6457 13.5 21.8365 13.421 21.9771 13.2803C22.1178 13.1397 22.1968 12.9489 22.1968 12.75C22.1955 11.5569 21.721 10.413 20.8774 9.56939C20.0337 8.72575 18.8899 8.25124 17.6968 8.25H16.9468V6.75C16.9468 6.55109 16.8678 6.36032 16.7271 6.21967C16.5865 6.07902 16.3957 6 16.1968 6C15.9979 6 15.8071 6.07902 15.6664 6.21967C15.5258 6.36032 15.4468 6.55109 15.4468 6.75V8.25H14.6968C13.5033 8.25 12.3587 8.72411 11.5148 9.56802C10.6709 10.4119 10.1968 11.5565 10.1968 12.75C10.1968 13.9435 10.6709 15.0881 11.5148 15.932C12.3587 16.7759 13.5033 17.25 14.6968 17.25H15.4468V23.25H13.9468C13.1511 23.25 12.3881 22.9339 11.8255 22.3713C11.2628 21.8087 10.9468 21.0456 10.9468 20.25C10.9468 20.0511 10.8678 19.8603 10.7271 19.7197C10.5865 19.579 10.3957 19.5 10.1968 19.5C9.99786 19.5 9.8071 19.579 9.66645 19.7197C9.5258 19.8603 9.44678 20.0511 9.44678 20.25C9.44802 21.4431 9.92252 22.587 10.7662 23.4306C11.6098 24.2743 12.7537 24.7488 13.9468 24.75H15.4468V26.25C15.4468 26.4489 15.5258 26.6397 15.6664 26.7803C15.8071 26.921 15.9979 27 16.1968 27C16.3957 27 16.5865 26.921 16.7271 26.7803C16.8678 26.6397 16.9468 26.4489 16.9468 26.25V24.75H18.4468C19.6403 24.75 20.7848 24.2759 21.6288 23.432C22.4727 22.5881 22.9468 21.4435 22.9468 20.25C22.9468 19.0565 22.4727 17.9119 21.6288 17.068C20.7848 16.2241 19.6403 15.75 18.4468 15.75ZM14.6968 15.75C13.9011 15.75 13.1381 15.4339 12.5755 14.8713C12.0128 14.3087 11.6968 13.5456 11.6968 12.75C11.6968 11.9544 12.0128 11.1913 12.5755 10.6287C13.1381 10.0661 13.9011 9.75 14.6968 9.75H15.4468V15.75H14.6968ZM18.4468 23.25H16.9468V17.25H18.4468C19.2424 17.25 20.0055 17.5661 20.5681 18.1287C21.1307 18.6913 21.4468 19.4544 21.4468 20.25C21.4468 21.0456 21.1307 21.8087 20.5681 22.3713C20.0055 22.9339 19.2424 23.25 18.4468 23.25Z" fill="#263069"/>
</g>
</svg>
