<svg width="92" height="24" viewBox="0 0 92 24" fill="none" xmlns="http://www.w3.org/2000/svg">
<path d="M6.01126 13.8562C6.0138 13.907 6.00599 13.9578 5.98828 14.0055C5.97058 14.0532 5.94336 14.0968 5.90828 14.1336C5.8732 14.1704 5.831 14.1998 5.78423 14.2198C5.73747 14.2398 5.68712 14.2501 5.63626 14.25H1.50001C1.33073 14.2502 1.16634 14.1932 1.03358 14.0882C0.900815 13.9832 0.807483 13.8363 0.76876 13.6716C0.744649 13.5588 0.74576 13.442 0.772015 13.3297C0.79827 13.2174 0.84902 13.1123 0.920635 13.0219C1.58233 12.1443 2.46028 11.4534 3.46876 11.0166C3.026 10.6129 2.68642 10.109 2.47846 9.54706C2.27049 8.98514 2.2002 8.38158 2.27346 7.78691C2.34672 7.19225 2.56141 6.62379 2.89955 6.12916C3.23768 5.63453 3.68941 5.22812 4.21691 4.94397C4.74441 4.65983 5.33232 4.50621 5.93139 4.496C6.53047 4.48578 7.12327 4.61927 7.66015 4.88527C8.19703 5.15127 8.66235 5.54204 9.01715 6.02486C9.37195 6.50768 9.60589 7.06848 9.69938 7.6603C9.71146 7.73989 9.6972 7.82124 9.65879 7.89198C9.62037 7.96272 9.5599 8.01897 9.48657 8.05218C8.44631 8.53309 7.56532 9.30153 6.94755 10.2668C6.32977 11.2321 6.00099 12.3539 6.00001 13.5C6.00001 13.62 6.00001 13.7381 6.01126 13.8562ZM23.0738 13.0209C22.4136 12.1444 21.5376 11.4539 20.5313 11.0166C20.974 10.6129 21.3136 10.109 21.5216 9.54706C21.7295 8.98514 21.7998 8.38158 21.7266 7.78691C21.6533 7.19225 21.4386 6.62379 21.1005 6.12916C20.7623 5.63453 20.3106 5.22812 19.7831 4.94397C19.2556 4.65983 18.6677 4.50621 18.0686 4.496C17.4696 4.48578 16.8768 4.61927 16.3399 4.88527C15.803 5.15127 15.3377 5.54204 14.9829 6.02486C14.6281 6.50768 14.3941 7.06848 14.3006 7.6603C14.2886 7.73989 14.3028 7.82124 14.3412 7.89198C14.3796 7.96272 14.4401 8.01897 14.5134 8.05218C15.5537 8.53309 16.4347 9.30153 17.0525 10.2668C17.6702 11.2321 17.999 12.3539 18 13.5C18 13.62 18 13.7381 17.9888 13.8562C17.9862 13.907 17.994 13.9578 18.0117 14.0055C18.0294 14.0532 18.0567 14.0968 18.0917 14.1336C18.1268 14.1704 18.169 14.1998 18.2158 14.2198C18.2626 14.2398 18.3129 14.2501 18.3638 14.25H22.5C22.6693 14.2502 22.8337 14.1932 22.9664 14.0882C23.0992 13.9832 23.1925 13.8363 23.2313 13.6716C23.2555 13.5586 23.2544 13.4416 23.228 13.3291C23.2015 13.2166 23.1505 13.1113 23.0784 13.0209H23.0738ZM14.73 17.0691C15.4768 16.4971 16.0256 15.7056 16.2992 14.8057C16.5729 13.9058 16.5577 12.9427 16.2558 12.0519C15.9538 11.1611 15.3804 10.3873 14.6159 9.83921C13.8515 9.29115 12.9345 8.99641 11.9939 8.99641C11.0533 8.99641 10.1364 9.29115 9.37191 9.83921C8.60747 10.3873 8.03399 11.1611 7.73206 12.0519C7.43012 12.9427 7.41493 13.9058 7.6886 14.8057C7.96227 15.7056 8.51106 16.4971 9.25782 17.0691C7.9327 17.6432 6.8262 18.6265 6.10032 19.875C6.03449 19.989 5.99983 20.1184 5.99984 20.25C5.99985 20.3817 6.03452 20.511 6.10036 20.6251C6.16621 20.7391 6.26091 20.8338 6.37495 20.8996C6.48899 20.9654 6.61834 21 6.75001 21H17.25C17.3817 21 17.511 20.9654 17.6251 20.8996C17.7391 20.8338 17.8338 20.7391 17.8997 20.6251C17.9655 20.511 18.0002 20.3817 18.0002 20.25C18.0002 20.1184 17.9655 19.989 17.8997 19.875C17.1723 18.6257 16.0637 17.6423 14.7366 17.0691H14.73Z" fill="black"/>
<path d="M38.864 18.112C38.1173 18.112 37.4453 17.984 36.848 17.728C36.2507 17.4613 35.7813 17.088 35.44 16.608C35.0987 16.128 34.928 15.568 34.928 14.928H36.88C36.9227 15.408 37.1093 15.8027 37.44 16.112C37.7813 16.4213 38.256 16.576 38.864 16.576C39.4933 16.576 39.984 16.4267 40.336 16.128C40.688 15.8187 40.864 15.424 40.864 14.944C40.864 14.5707 40.752 14.2667 40.528 14.032C40.3147 13.7973 40.0427 13.616 39.712 13.488C39.392 13.36 38.944 13.2213 38.368 13.072C37.6427 12.88 37.0507 12.688 36.592 12.496C36.144 12.2933 35.76 11.984 35.44 11.568C35.12 11.152 34.96 10.5973 34.96 9.904C34.96 9.264 35.12 8.704 35.44 8.224C35.76 7.744 36.208 7.376 36.784 7.12C37.36 6.864 38.0267 6.736 38.784 6.736C39.8613 6.736 40.7413 7.008 41.424 7.552C42.1173 8.08533 42.5013 8.82133 42.576 9.76H40.56C40.528 9.35467 40.336 9.008 39.984 8.72C39.632 8.432 39.168 8.288 38.592 8.288C38.0693 8.288 37.6427 8.42133 37.312 8.688C36.9813 8.95467 36.816 9.33867 36.816 9.84C36.816 10.1813 36.9173 10.464 37.12 10.688C37.3333 10.9013 37.6 11.072 37.92 11.2C38.24 11.328 38.6773 11.4667 39.232 11.616C39.968 11.8187 40.5653 12.0213 41.024 12.224C41.4933 12.4267 41.888 12.7413 42.208 13.168C42.5387 13.584 42.704 14.144 42.704 14.848C42.704 15.4133 42.5493 15.9467 42.24 16.448C41.9413 16.9493 41.4987 17.3547 40.912 17.664C40.336 17.9627 39.6533 18.112 38.864 18.112ZM49.4163 9.04C50.0883 9.04 50.6856 9.184 51.2083 9.472C51.7416 9.76 52.1576 10.1867 52.4563 10.752C52.7656 11.3173 52.9203 12 52.9203 12.8V18H51.1123V13.072C51.1123 12.2827 50.9149 11.68 50.5203 11.264C50.1256 10.8373 49.5869 10.624 48.9043 10.624C48.2216 10.624 47.6776 10.8373 47.2723 11.264C46.8776 11.68 46.6803 12.2827 46.6803 13.072V18H44.8563V6.16H46.6803V10.208C46.9896 9.83467 47.3789 9.54667 47.8483 9.344C48.3283 9.14133 48.8509 9.04 49.4163 9.04ZM54.6389 13.552C54.6389 12.6667 54.8202 11.8827 55.1829 11.2C55.5562 10.5173 56.0575 9.98933 56.6869 9.616C57.3269 9.232 58.0309 9.04 58.7989 9.04C59.4922 9.04 60.0949 9.17867 60.6069 9.456C61.1295 9.72267 61.5455 10.0587 61.8549 10.464V9.184H63.6949V18H61.8549V16.688C61.5455 17.104 61.1242 17.4507 60.5909 17.728C60.0575 18.0053 59.4495 18.144 58.7669 18.144C58.0095 18.144 57.3162 17.952 56.6869 17.568C56.0575 17.1733 55.5562 16.6293 55.1829 15.936C54.8202 15.232 54.6389 14.4373 54.6389 13.552ZM61.8549 13.584C61.8549 12.976 61.7269 12.448 61.4709 12C61.2255 11.552 60.9002 11.2107 60.4949 10.976C60.0895 10.7413 59.6522 10.624 59.1829 10.624C58.7135 10.624 58.2762 10.7413 57.8709 10.976C57.4655 11.2 57.1349 11.536 56.8789 11.984C56.6335 12.4213 56.5109 12.944 56.5109 13.552C56.5109 14.16 56.6335 14.6933 56.8789 15.152C57.1349 15.6107 57.4655 15.9627 57.8709 16.208C58.2869 16.4427 58.7242 16.56 59.1829 16.56C59.6522 16.56 60.0895 16.4427 60.4949 16.208C60.9002 15.9733 61.2255 15.632 61.4709 15.184C61.7269 14.7253 61.8549 14.192 61.8549 13.584ZM67.9146 10.464C68.1813 10.016 68.5333 9.66933 68.9706 9.424C69.4186 9.168 69.9466 9.04 70.5546 9.04V10.928H70.0906C69.376 10.928 68.832 11.1093 68.4586 11.472C68.096 11.8347 67.9146 12.464 67.9146 13.36V18H66.0906V9.184H67.9146V10.464ZM80.3113 13.376C80.3113 13.7067 80.2899 14.0053 80.2473 14.272H73.5113C73.5646 14.976 73.8259 15.5413 74.2953 15.968C74.7646 16.3947 75.3406 16.608 76.0233 16.608C77.0046 16.608 77.6979 16.1973 78.1033 15.376H80.0712C79.8046 16.1867 79.3193 16.8533 78.6153 17.376C77.9219 17.888 77.0579 18.144 76.0233 18.144C75.1806 18.144 74.4233 17.9573 73.7513 17.584C73.0899 17.2 72.5673 16.6667 72.1833 15.984C71.8099 15.2907 71.6233 14.4907 71.6233 13.584C71.6233 12.6773 71.8046 11.8827 72.1673 11.2C72.5406 10.5067 73.0579 9.97333 73.7193 9.6C74.3913 9.22667 75.1593 9.04 76.0233 9.04C76.8553 9.04 77.5966 9.22133 78.2473 9.584C78.8979 9.94667 79.4046 10.4587 79.7673 11.12C80.1299 11.7707 80.3113 12.5227 80.3113 13.376ZM78.4073 12.8C78.3966 12.128 78.1566 11.5893 77.6873 11.184C77.2179 10.7787 76.6366 10.576 75.9433 10.576C75.3139 10.576 74.7753 10.7787 74.3273 11.184C73.8793 11.5787 73.6126 12.1173 73.5273 12.8H78.4073ZM81.4983 13.552C81.4983 12.6667 81.6796 11.8827 82.0423 11.2C82.4156 10.5173 82.9169 9.98933 83.5463 9.616C84.1863 9.232 84.8956 9.04 85.6743 9.04C86.2503 9.04 86.8156 9.168 87.3703 9.424C87.9356 9.66933 88.3836 10 88.7143 10.416V6.16H90.5543V18H88.7143V16.672C88.4156 17.0987 87.9996 17.4507 87.4663 17.728C86.9436 18.0053 86.3409 18.144 85.6583 18.144C84.8903 18.144 84.1863 17.952 83.5463 17.568C82.9169 17.1733 82.4156 16.6293 82.0423 15.936C81.6796 15.232 81.4983 14.4373 81.4983 13.552ZM88.7143 13.584C88.7143 12.976 88.5863 12.448 88.3303 12C88.0849 11.552 87.7596 11.2107 87.3543 10.976C86.9489 10.7413 86.5116 10.624 86.0423 10.624C85.5729 10.624 85.1356 10.7413 84.7303 10.976C84.3249 11.2 83.9943 11.536 83.7383 11.984C83.4929 12.4213 83.3703 12.944 83.3703 13.552C83.3703 14.16 83.4929 14.6933 83.7383 15.152C83.9943 15.6107 84.3249 15.9627 84.7303 16.208C85.1463 16.4427 85.5836 16.56 86.0423 16.56C86.5116 16.56 86.9489 16.4427 87.3543 16.208C87.7596 15.9733 88.0849 15.632 88.3303 15.184C88.5863 14.7253 88.7143 14.192 88.7143 13.584Z" fill="black"/>
</svg>
