<svg width="122" height="33" viewBox="0 0 122 33" fill="none" xmlns="http://www.w3.org/2000/svg">
<rect x="9.44678" y="1" width="31" height="31" rx="4" fill="white"/>
<rect x="9.44678" y="1" width="31" height="31" rx="4" stroke="#263069" stroke-width="2"/>
<path fill-rule="evenodd" clip-rule="evenodd" d="M25.3362 7.48126C26.0803 6.67487 27.0899 6.16064 28.1821 6.03181C29.2742 5.90298 30.3766 6.16809 31.2893 6.77906L31.4816 6.91524L31.8268 7.17272C32.2977 7.52421 32.686 7.97367 32.9647 8.4898C33.2433 9.00593 33.4057 9.57634 33.4404 10.1613L33.4468 10.3986V25.9372C33.4465 26.2084 33.3422 26.4692 33.1552 26.6664C32.9682 26.8636 32.7127 26.9823 32.4408 26.9982C32.1689 27.0141 31.9012 26.926 31.6923 26.7519C31.4835 26.5779 31.3493 26.331 31.3171 26.0617L31.3096 25.9372V10.3986C31.309 10.1332 31.253 9.87088 31.1453 9.6282C31.0375 9.38553 30.8802 9.16781 30.6834 8.98884L30.5445 8.875L30.1993 8.61753C29.8054 8.32252 29.3314 8.15229 28.839 8.12895C28.3465 8.10562 27.8585 8.23025 27.4381 8.48667L27.2746 8.59625L28.0846 9.06226C29.0323 9.60693 29.7342 10.4928 30.0455 11.5373C30.3568 12.5818 30.2539 13.7054 29.758 14.6766L29.649 14.8756L29.1147 15.7969C28.9838 16.0225 28.7742 16.1923 28.5259 16.2743C28.2775 16.3562 28.0076 16.3446 27.7672 16.2417L27.655 16.1863L18.4011 10.8667C18.1743 10.7363 18.0035 10.5275 17.9212 10.2799C17.8389 10.0324 17.8507 9.76342 17.9544 9.524L18.01 9.41335L18.5443 8.49199C19.0913 7.54838 19.981 6.84961 21.0301 6.53965C22.0792 6.22968 23.2077 6.33212 24.1832 6.82587L24.383 6.9344L25.3362 7.48126ZM19.288 19.9761C19.5334 20.1171 19.7125 20.3495 19.7859 20.6221C19.8592 20.8946 19.8208 21.185 19.6791 21.4294L19.1448 22.3507C19.0752 22.4727 18.982 22.5798 18.8706 22.6657C18.7592 22.7517 18.6319 22.8149 18.4959 22.8517C18.3599 22.8884 18.2179 22.898 18.0781 22.8799C17.9384 22.8619 17.8036 22.8164 17.6816 22.7463C17.5595 22.6761 17.4526 22.5826 17.367 22.4712C17.2814 22.3597 17.2188 22.2325 17.1828 22.0968C17.1468 21.9612 17.1381 21.8198 17.1571 21.6808C17.1762 21.5417 17.2228 21.4079 17.294 21.2868L17.8283 20.3654C17.97 20.1211 18.2034 19.9428 18.4772 19.8698C18.7509 19.7967 19.0426 19.835 19.288 19.9761ZM21.6731 20.1186C21.8085 19.8818 22.0301 19.7057 22.2921 19.6267C22.554 19.5478 22.8365 19.5719 23.0811 19.6942C23.3257 19.8164 23.5139 20.0275 23.6068 20.2838C23.6998 20.5402 23.6903 20.8223 23.5805 21.0719L23.5239 21.1825L22.9896 22.1039C22.853 22.3384 22.6316 22.5121 22.3707 22.5895C22.1098 22.667 21.829 22.6424 21.5857 22.5207C21.3424 22.3991 21.1549 22.1895 21.0616 21.9349C20.9682 21.6803 20.9759 21.3998 21.0832 21.1506L21.1388 21.04L21.6731 20.1186ZM17.5804 16.5374C17.8258 16.6785 18.0049 16.9109 18.0783 17.1834C18.1516 17.456 18.1132 17.7464 17.9715 17.9908L17.4372 18.9121C17.2945 19.1545 17.0613 19.3308 16.7885 19.4026C16.5157 19.4744 16.2254 19.4359 15.9811 19.2954C15.7367 19.1549 15.558 18.9239 15.4841 18.6528C15.4102 18.3817 15.447 18.0924 15.5864 17.8482L16.1207 16.9268C16.2624 16.6825 16.4958 16.5042 16.7696 16.4311C17.0433 16.3581 17.335 16.3963 17.5804 16.5374ZM21.4252 16.2906C21.6706 16.4317 21.8497 16.6641 21.923 16.9366C21.9964 17.2092 21.958 17.4996 21.8163 17.7439L21.282 18.6653C21.2123 18.7873 21.1191 18.8943 21.0078 18.9803C20.8964 19.0663 20.769 19.1294 20.633 19.1662C20.497 19.203 20.3551 19.2126 20.2153 19.1945C20.0756 19.1764 19.9408 19.131 19.8187 19.0608C19.6967 18.9907 19.5898 18.8972 19.5042 18.7857C19.4186 18.6742 19.356 18.547 19.32 18.4114C19.2839 18.2757 19.2752 18.1343 19.2943 17.9953C19.3134 17.8563 19.3599 17.7224 19.4312 17.6014L19.9655 16.68C20.1072 16.4356 20.3406 16.2573 20.6143 16.1843C20.8881 16.1113 21.1797 16.1495 21.4252 16.2906ZM23.8103 16.4332C23.9462 16.1975 24.1676 16.0225 24.4289 15.9442C24.6903 15.8659 24.9719 15.8901 25.2159 16.0119C25.4599 16.1337 25.6478 16.3439 25.7412 16.5993C25.8345 16.8547 25.8261 17.1359 25.7177 17.3854L25.6611 17.4971L25.1268 18.4185C24.9901 18.6529 24.7688 18.8266 24.5079 18.9041C24.247 18.9815 23.9662 18.9569 23.7229 18.8353C23.4796 18.7136 23.2921 18.5041 23.1987 18.2494C23.1053 17.9948 23.1131 17.7143 23.2204 17.4652L23.276 17.3545L23.8103 16.4332ZM19.7176 12.8509C19.963 12.992 20.1421 13.2244 20.2154 13.4969C20.2888 13.7695 20.2504 14.0599 20.1087 14.3042L19.5744 15.2256C19.4317 15.468 19.1985 15.6443 18.9257 15.7161C18.6529 15.7879 18.3626 15.7494 18.1182 15.6089C17.8739 15.4684 17.6952 15.2374 17.6213 14.9663C17.5473 14.6952 17.5841 14.4059 17.7236 14.1617L18.2579 13.2403C18.3996 12.996 18.633 12.8176 18.9067 12.7446C19.1805 12.6716 19.4721 12.7098 19.7176 12.8509ZM20.3951 9.55486L27.7982 13.8106C28.0816 13.3219 28.1584 12.7411 28.0117 12.196C27.865 11.6509 27.5069 11.1861 27.016 10.9039L23.3144 8.77606C22.8236 8.4939 22.2402 8.41744 21.6928 8.56349C21.1453 8.70954 20.6785 9.06614 20.3951 9.55486Z" fill="#263069"/>
<path d="M54.9272 22.1183C54.1501 22.1183 53.4519 21.9831 52.8325 21.7128C52.2243 21.4313 51.7457 21.0484 51.3966 20.5641C51.0474 20.0686 50.8672 19.4998 50.856 18.8579H52.4946C52.5509 19.4097 52.7762 19.8771 53.1703 20.26C53.5758 20.6317 54.1614 20.8175 54.9272 20.8175C55.6592 20.8175 56.2336 20.6373 56.6503 20.2769C57.0783 19.9053 57.2922 19.4323 57.2922 18.8579C57.2922 18.4074 57.1684 18.0414 56.9206 17.7598C56.6728 17.4783 56.3631 17.2643 55.9915 17.1179C55.6198 16.9715 55.1187 16.8138 54.488 16.6449C53.7109 16.4422 53.0859 16.2395 52.6129 16.0367C52.1511 15.834 51.7513 15.5187 51.4134 15.0907C51.0868 14.6515 50.9235 14.0659 50.9235 13.3338C50.9235 12.6919 51.0868 12.1232 51.4134 11.6276C51.74 11.1321 52.1962 10.7492 52.7818 10.4789C53.3787 10.2086 54.06 10.0735 54.8258 10.0735C55.9295 10.0735 56.8305 10.3494 57.5287 10.9012C58.2382 11.4531 58.6381 12.1851 58.7281 13.0973H57.0388C56.9825 12.6469 56.746 12.2527 56.3293 11.9148C55.9126 11.5657 55.3608 11.3911 54.6738 11.3911C54.0319 11.3911 53.5082 11.5601 53.1028 11.8979C52.6973 12.2245 52.4946 12.6863 52.4946 13.2832C52.4946 13.7111 52.6129 14.0603 52.8494 14.3305C53.0971 14.6008 53.3956 14.8092 53.7447 14.9556C54.1051 15.0907 54.6062 15.2484 55.2482 15.4286C56.0253 15.6426 56.6503 15.8565 57.1233 16.0705C57.5963 16.2732 58.0017 16.5942 58.3396 17.0334C58.6775 17.4614 58.8464 18.047 58.8464 18.7903C58.8464 19.3647 58.6944 19.9053 58.3903 20.4121C58.0862 20.9188 57.6357 21.3299 57.0388 21.6452C56.442 21.9606 55.7381 22.1183 54.9272 22.1183ZM65.7035 12.5737C66.4018 12.5737 67.0325 12.7257 67.5956 13.0298C68.1587 13.3226 68.5979 13.7674 68.9132 14.3643C69.2398 14.9612 69.4031 15.6876 69.4031 16.5435V22H67.8827V16.7631C67.8827 15.8397 67.6519 15.1358 67.1901 14.6515C66.7284 14.156 66.0977 13.9082 65.2981 13.9082C64.4872 13.9082 63.8397 14.1616 63.3554 14.6684C62.8824 15.1752 62.6459 15.9129 62.6459 16.8814V22H61.1086V9.49912H62.6459V14.0603C62.95 13.5872 63.3667 13.2212 63.896 12.9622C64.4366 12.7032 65.0391 12.5737 65.7035 12.5737ZM75.9517 22.152C75.0845 22.152 74.2962 21.955 73.5867 21.5608C72.8884 21.1666 72.3366 20.6091 71.9311 19.8884C71.537 19.1563 71.3399 18.3117 71.3399 17.3544C71.3399 16.4084 71.5426 15.575 71.948 14.8542C72.3647 14.1222 72.9278 13.5647 73.6373 13.1818C74.3469 12.7876 75.1408 12.5906 76.0193 12.5906C76.8977 12.5906 77.6917 12.7876 78.4012 13.1818C79.1107 13.5647 79.6682 14.1166 80.0736 14.8373C80.4903 15.5581 80.6987 16.3971 80.6987 17.3544C80.6987 18.3117 80.4847 19.1563 80.0567 19.8884C79.64 20.6091 79.0713 21.1666 78.3505 21.5608C77.6297 21.955 76.8301 22.152 75.9517 22.152ZM75.9517 20.8006C76.5035 20.8006 77.0216 20.6711 77.5059 20.4121C77.9901 20.153 78.3787 19.7645 78.6715 19.2464C78.9756 18.7284 79.1276 18.0977 79.1276 17.3544C79.1276 16.6111 78.9812 15.9804 78.6884 15.4624C78.3956 14.9443 78.0127 14.5614 77.5397 14.3136C77.0666 14.0546 76.5542 13.9251 76.0024 13.9251C75.4393 13.9251 74.9212 14.0546 74.4482 14.3136C73.9865 14.5614 73.6148 14.9443 73.3333 15.4624C73.0517 15.9804 72.9109 16.6111 72.9109 17.3544C72.9109 18.109 73.0461 18.7453 73.3164 19.2633C73.5979 19.7814 73.9696 20.1699 74.4313 20.4289C74.8931 20.6767 75.3999 20.8006 75.9517 20.8006ZM95.0518 12.7426L92.1631 22H90.5752L88.3453 14.6515L86.1154 22H84.5274L81.6218 12.7426H83.1929L85.3214 20.5134L87.6189 12.7426H89.1899L91.4367 20.5303L93.5315 12.7426H95.0518ZM105.024 17.0165C105.024 17.3094 105.007 17.6191 104.973 17.9457H97.5742C97.6305 18.8579 97.9402 19.573 98.5033 20.0911C99.0777 20.5979 99.7703 20.8513 100.581 20.8513C101.246 20.8513 101.797 20.6992 102.237 20.3952C102.687 20.0798 103.002 19.6631 103.183 19.1451H104.838C104.59 20.0348 104.095 20.7612 103.352 21.3243C102.608 21.8761 101.685 22.152 100.581 22.152C99.7027 22.152 98.9144 21.955 98.2161 21.5608C97.5291 21.1666 96.9886 20.6091 96.5944 19.8884C96.2002 19.1563 96.0031 18.3117 96.0031 17.3544C96.0031 16.3971 96.1946 15.5581 96.5775 14.8373C96.9604 14.1166 97.4954 13.5647 98.1823 13.1818C98.8806 12.7876 99.6802 12.5906 100.581 12.5906C101.46 12.5906 102.237 12.782 102.912 13.1649C103.588 13.5478 104.106 14.0771 104.467 14.7529C104.838 15.4173 105.024 16.1719 105.024 17.0165ZM103.436 16.6956C103.436 16.1099 103.307 15.6088 103.048 15.1921C102.789 14.7641 102.434 14.4432 101.983 14.2292C101.544 14.0039 101.054 13.8913 100.514 13.8913C99.7365 13.8913 99.072 14.1391 98.5202 14.6346C97.9796 15.1301 97.6699 15.8171 97.5911 16.6956H103.436ZM108.59 14.2461C108.861 13.7168 109.244 13.3057 109.739 13.0129C110.246 12.7201 110.86 12.5737 111.581 12.5737V14.1616H111.175C109.452 14.1616 108.59 15.0964 108.59 16.9659V22H107.053V12.7426H108.59V14.2461Z" fill="#263069"/>
</svg>
