<svg width="21" height="21" viewBox="0 0 21 21" fill="none" xmlns="http://www.w3.org/2000/svg">
<path d="M18.9715 5.9435L17.4957 4.46922C17.3811 4.35468 17.2258 4.29032 17.0638 4.29032C16.9018 4.29032 16.7464 4.35468 16.6319 4.46922C16.5173 4.58377 16.453 4.73913 16.453 4.90113C16.453 5.06312 16.5173 5.21848 16.6319 5.33303L18.1061 6.80883C18.22 6.92285 18.2842 7.07729 18.2847 7.23845V13.4476C18.2847 13.6095 18.2204 13.7648 18.1059 13.8793C17.9914 13.9938 17.8361 14.0581 17.6742 14.0581C17.5123 14.0581 17.357 13.9938 17.2426 13.8793C17.1281 13.7648 17.0638 13.6095 17.0638 13.4476V10.3953C17.0638 9.9096 16.8708 9.44377 16.5274 9.10032C16.1839 8.75687 15.7181 8.56392 15.2324 8.56392H14.0114V4.90113C14.0114 4.41541 13.8185 3.94959 13.475 3.60614C13.1316 3.26268 12.6658 3.06973 12.18 3.06973H6.07539C5.58967 3.06973 5.12385 3.26268 4.7804 3.60614C4.43694 3.94959 4.24399 4.41541 4.24399 4.90113V16.5H3.02306C2.86116 16.5 2.70588 16.5643 2.5914 16.6788C2.47691 16.7933 2.4126 16.9485 2.4126 17.1104C2.4126 17.2723 2.47691 17.4276 2.5914 17.5421C2.70588 17.6566 2.86116 17.7209 3.02306 17.7209H15.2324C15.3943 17.7209 15.5495 17.6566 15.664 17.5421C15.7785 17.4276 15.8428 17.2723 15.8428 17.1104C15.8428 16.9485 15.7785 16.7933 15.664 16.6788C15.5495 16.5643 15.3943 16.5 15.2324 16.5H14.0114V9.78485H15.2324C15.3943 9.78485 15.5495 9.84917 15.664 9.96365C15.7785 10.0781 15.8428 10.2334 15.8428 10.3953V13.4476C15.8428 13.9334 16.0358 14.3992 16.3792 14.7426C16.7227 15.0861 17.1885 15.279 17.6742 15.279C18.1599 15.279 18.6258 15.0861 18.9692 14.7426C19.3127 14.3992 19.5056 13.9334 19.5056 13.4476V7.23845C19.5065 6.99802 19.4598 6.75979 19.3681 6.53752C19.2764 6.31526 19.1416 6.11336 18.9715 5.9435ZM11.5696 9.78485H6.68585C6.52395 9.78485 6.36867 9.72053 6.25419 9.60605C6.1397 9.49156 6.07539 9.33629 6.07539 9.17438C6.07539 9.01248 6.1397 8.8572 6.25419 8.74272C6.36867 8.62824 6.52395 8.56392 6.68585 8.56392H11.5696C11.7315 8.56392 11.8868 8.62824 12.0012 8.74272C12.1157 8.8572 12.18 9.01248 12.18 9.17438C12.18 9.33629 12.1157 9.49156 12.0012 9.60605C11.8868 9.72053 11.7315 9.78485 11.5696 9.78485Z" fill="black"/>
</svg>
