<svg width="33" height="33" viewBox="0 0 33 33" fill="none" xmlns="http://www.w3.org/2000/svg">
<rect x="1" y="1" width="31" height="31" rx="4" fill="#263069"/>
<rect x="1" y="1" width="31" height="31" rx="4" stroke="#263069" stroke-width="2"/>
<path d="M18 14C18 14.55 17.55 15 17 15H15.42C15.14 15 14.87 14.94 14.62 14.83L12.32 13.82L11 17.75V26C11 26.55 10.55 27 10 27H8C7.45 27 7 26.55 7 26V17.33C7 17.11 7.04 16.89 7.11 16.68L8.59 12.36C8.67873 12.096 8.82185 11.8535 9.01011 11.6482C9.19837 11.4429 9.42759 11.2794 9.68297 11.1682C9.93835 11.057 10.2142 11.0006 10.4927 11.0026C10.7713 11.0047 11.0463 11.0651 11.3 11.18L15.45 13.01L17 13C17.55 13 18 13.45 18 14ZM12 6C10.9 6 10 6.9 10 8C10 9.1 10.9 10 12 10C13.1 10 14 9.1 14 8C14 6.9 13.1 6 12 6ZM14 24H24C24.55 24 25 23.55 25 23C25 22.45 24.55 22 24 22H14C13.45 22 13 22.45 13 23C13 23.55 13.45 24 14 24ZM23.5 21C24.33 21 25 20.33 25 19.5C25 18.67 24.33 18 23.5 18C22.67 18 22 18.67 22 19.5C22 20.33 22.67 21 23.5 21ZM17 17C17 16.45 16.55 16 16 16H14C13.45 16 13 16.45 13 17C13 17.55 13.45 18 14 18H15V19C15 20.1 15.9 21 17 21H19C20.1 21 21 20.1 21 19V17C21 16.45 20.55 16 20 16C19.45 16 19 16.45 19 17V18H17V17Z" fill="white"/>
</svg>
