<svg width="35" height="35" viewBox="0 0 35 35" fill="none" xmlns="http://www.w3.org/2000/svg">
<path d="M15.7598 6.86006C15.7598 7.11328 15.6464 7.35613 15.4445 7.53518C15.2426 7.71423 14.9687 7.81482 14.6832 7.81482H11.8121C11.5266 7.81482 11.2527 7.71423 11.0508 7.53518C10.8489 7.35613 10.7355 7.11328 10.7355 6.86006C10.7355 6.60684 10.8489 6.36399 11.0508 6.18494C11.2527 6.00589 11.5266 5.9053 11.8121 5.9053H14.6832C14.9687 5.9053 15.2426 6.00589 15.4445 6.18494C15.6464 6.36399 15.7598 6.60684 15.7598 6.86006ZM25.1159 27.8648L25.7834 32.0021C25.8349 32.3184 25.809 32.6407 25.7077 32.9473C25.6063 33.2539 25.4317 33.5375 25.1958 33.779C24.9599 34.0205 24.6682 34.2142 24.3405 34.3469C24.0127 34.4796 23.6566 34.5483 23.2964 34.5482H11.8121C11.4518 34.5483 11.0957 34.4796 10.768 34.3469C10.4403 34.2142 10.1486 34.0205 9.91266 33.779C9.67676 33.5375 9.5022 33.2539 9.40081 32.9473C9.29943 32.6407 9.2736 32.3184 9.32507 32.0021L9.99259 27.8648C7.1976 26.6198 4.84752 24.7107 3.20439 22.3505C1.56126 19.9904 0.689654 17.2719 0.686768 14.4982C0.686768 14.2449 0.8002 14.0021 1.00211 13.823C1.20402 13.644 1.47787 13.5434 1.76341 13.5434H4.99336V3.04101C4.99336 2.45017 5.25803 1.88352 5.72916 1.46573C6.20028 1.04794 6.83926 0.813232 7.50553 0.813232H27.6029C28.2692 0.813232 28.9082 1.04794 29.3793 1.46573C29.8504 1.88352 30.1151 2.45017 30.1151 3.04101V13.5434H33.3451C33.6306 13.5434 33.9045 13.644 34.1064 13.823C34.3083 14.0021 34.4217 14.2449 34.4217 14.4982C34.4188 17.2719 33.5472 19.9904 31.9041 22.3505C30.261 24.7107 27.9109 26.6198 25.1159 27.8648ZM7.14665 13.5434H27.9618V3.04101C27.9618 2.95661 27.924 2.87566 27.8567 2.81597C27.7894 2.75629 27.6981 2.72276 27.6029 2.72276H7.50553C7.41035 2.72276 7.31907 2.75629 7.25176 2.81597C7.18446 2.87566 7.14665 2.95661 7.14665 3.04101V13.5434ZM23.0649 28.635C19.4948 29.7294 15.6137 29.7294 12.0436 28.635L11.4532 32.2758C11.4461 32.3209 11.4499 32.3668 11.4644 32.4105C11.479 32.4541 11.5039 32.4945 11.5376 32.5288C11.5716 32.5637 11.6138 32.5916 11.6612 32.6105C11.7086 32.6295 11.7601 32.6391 11.8121 32.6386H23.2964C23.3478 32.6386 23.3985 32.6288 23.4453 32.6099C23.492 32.5909 23.5336 32.5633 23.5673 32.5288C23.601 32.4945 23.6259 32.4541 23.6404 32.4105C23.655 32.3668 23.6588 32.3209 23.6516 32.2758L23.0649 28.635ZM32.2289 15.4529H2.87954C3.15156 18.7394 4.81573 21.8129 7.5378 24.0561C10.2599 26.2993 13.8383 27.5462 17.5542 27.5462C21.2702 27.5462 24.8486 26.2993 27.5707 24.0561C30.2927 21.8129 31.9569 18.7394 32.2289 15.4529Z" fill="black" fill-opacity="0.7"/>
</svg>
