<svg width="34" height="35" viewBox="0 0 34 35" fill="none" xmlns="http://www.w3.org/2000/svg">
<path d="M7.58113 9.60804V1.34658C7.58113 1.0727 7.6996 0.810033 7.91048 0.616367C8.12137 0.422702 8.40739 0.313902 8.70562 0.313902C9.00386 0.313902 9.28988 0.422702 9.50076 0.616367C9.71165 0.810033 9.83012 1.0727 9.83012 1.34658V9.60804C9.83012 9.88192 9.71165 10.1446 9.50076 10.3383C9.28988 10.5319 9.00386 10.6407 8.70562 10.6407C8.40739 10.6407 8.12137 10.5319 7.91048 10.3383C7.6996 10.1446 7.58113 9.88192 7.58113 9.60804ZM33.8194 1.34658V33.0155C33.8194 33.2894 33.7009 33.552 33.4901 33.7457C33.2792 33.9394 32.9931 34.0482 32.6949 34.0482C32.3967 34.0482 32.1107 33.9394 31.8998 33.7457C31.6889 33.552 31.5704 33.2894 31.5704 33.0155V24.4098H22.1996C21.9014 24.4098 21.6153 24.301 21.4045 24.1073C21.1936 23.9137 21.0751 23.651 21.0751 23.3771C21.0751 22.6181 21.2025 4.74583 32.2526 0.398238C32.4235 0.331079 32.61 0.303891 32.7951 0.319108C32.9803 0.334326 33.1585 0.391473 33.3137 0.485434C33.469 0.579396 33.5964 0.70724 33.6847 0.857524C33.7729 1.00781 33.8192 1.17584 33.8194 1.34658ZM31.5704 3.06772C24.6754 7.24836 23.5452 18.8127 23.3597 22.3444H31.5704V3.06772ZM15.8125 1.17447C15.7878 1.04066 15.7348 0.912621 15.6563 0.79765C15.5778 0.68268 15.4754 0.583033 15.355 0.5044C15.2345 0.425768 15.0984 0.369689 14.9544 0.339366C14.8104 0.309042 14.6612 0.305068 14.5155 0.327671C14.3698 0.350273 14.2304 0.399009 14.1052 0.471096C13.98 0.543183 13.8715 0.637209 13.7859 0.747806C13.7003 0.858403 13.6392 0.983405 13.6062 1.11567C13.5732 1.24794 13.5688 1.38489 13.5934 1.5187L15.0778 9.69065C15.0778 11.2427 14.4064 12.7311 13.2114 13.8285C12.0164 14.926 10.3956 15.5425 8.70562 15.5425C7.01562 15.5425 5.39484 14.926 4.19983 13.8285C3.00482 12.7311 2.33347 11.2427 2.33347 9.69065L3.81781 1.5187C3.86751 1.24846 3.79829 0.971167 3.62536 0.747806C3.45244 0.524445 3.18998 0.373319 2.89572 0.327671C2.60146 0.282024 2.29951 0.345595 2.05629 0.504401C1.81307 0.663207 1.6485 0.904238 1.5988 1.17447L0.0994663 9.43592C0.0897282 9.49286 0.0847157 9.5504 0.0844727 9.60804C0.0871788 11.5281 0.848622 13.3821 2.22738 14.8255C3.60614 16.269 5.50849 17.2038 7.58113 17.4564V33.0155C7.58113 33.2894 7.6996 33.552 7.91048 33.7457C8.12137 33.9394 8.40739 34.0482 8.70562 34.0482C9.00386 34.0482 9.28988 33.9394 9.50076 33.7457C9.71165 33.552 9.83012 33.2894 9.83012 33.0155V17.4564C11.9028 17.2038 13.8051 16.269 15.1839 14.8255C16.5626 13.3821 17.3241 11.5281 17.3268 9.60804C17.3265 9.5504 17.3215 9.49286 17.3118 9.43592L15.8125 1.17447Z" fill="black" fill-opacity="0.7"/>
</svg>
