<svg width="11" height="6" viewBox="0 0 11 6" fill="none" xmlns="http://www.w3.org/2000/svg">
<path d="M10.8534 0.853694L5.85376 5.85337C5.80733 5.89985 5.75219 5.93673 5.69149 5.96189C5.6308 5.98705 5.56574 6 5.50003 6C5.43433 6 5.36927 5.98705 5.30858 5.96189C5.24788 5.93673 5.19274 5.89985 5.14631 5.85337L0.146634 0.853694C0.0766331 0.783771 0.0289524 0.69465 0.0096285 0.597614C-0.00969543 0.500578 0.000206233 0.39999 0.03808 0.308585C0.0759538 0.217179 0.140097 0.139066 0.222388 0.0841345C0.30468 0.0292027 0.40142 -7.77087e-05 0.500361 1.5489e-07H10.4997C10.5986 -7.77087e-05 10.6954 0.0292027 10.7777 0.0841345C10.86 0.139066 10.9241 0.217179 10.962 0.308585C10.9999 0.39999 11.0098 0.500578 10.9904 0.597614C10.9711 0.69465 10.9234 0.783771 10.8534 0.853694Z" fill="black"/>
</svg>
