<svg width="18" height="18" viewBox="0 0 18 18" fill="none" xmlns="http://www.w3.org/2000/svg">
<path id="Vector" d="M9.63468 5.15058V8.45516L12.3747 10.099C12.4855 10.1628 12.5825 10.2479 12.66 10.3496C12.7375 10.4512 12.794 10.5673 12.8262 10.691C12.8583 10.8147 12.8655 10.9436 12.8473 11.0702C12.8291 11.1967 12.7859 11.3183 12.7201 11.4279C12.6544 11.5376 12.5675 11.633 12.4645 11.7087C12.3614 11.7843 12.2444 11.8387 12.1201 11.8686C11.9958 11.8986 11.8668 11.9034 11.7406 11.8829C11.6145 11.8624 11.4936 11.817 11.3852 11.7493L8.17765 9.82478C8.0351 9.73932 7.91712 9.6184 7.83519 9.4738C7.75326 9.3292 7.71018 9.16584 7.71015 8.99964V5.15058C7.71015 4.89537 7.81153 4.65062 7.99199 4.47016C8.17245 4.2897 8.41721 4.18832 8.67242 4.18832C8.92762 4.18832 9.17238 4.2897 9.35284 4.47016C9.5333 4.65062 9.63468 4.89537 9.63468 5.15058ZM16.3705 2.9053C16.1153 2.9053 15.8706 3.00668 15.6901 3.18714C15.5096 3.3676 15.4083 3.61236 15.4083 3.86756V4.45856C15.0707 4.08407 14.7202 3.712 14.3426 3.3295C13.228 2.2151 11.8098 1.45384 10.2651 1.14085C8.72041 0.827858 7.11773 0.977012 5.65731 1.56967C4.1969 2.16234 2.94352 3.17222 2.05377 4.47315C1.16403 5.77408 0.677386 7.30837 0.654644 8.88429C0.631901 10.4602 1.07407 12.0079 1.9259 13.334C2.77773 14.66 4.00145 15.7057 5.44416 16.3402C6.88686 16.9748 8.48458 17.1701 10.0377 16.9018C11.5908 16.6335 13.0303 15.9135 14.1766 14.8318C14.3622 14.6565 14.4707 14.4147 14.478 14.1595C14.4854 13.9043 14.3911 13.6566 14.2159 13.471C14.0406 13.2853 13.7988 13.1768 13.5436 13.1695C13.2884 13.1621 13.0407 13.2564 12.8551 13.4317C11.9841 14.2536 10.8902 14.8008 9.71009 15.0047C8.52998 15.2087 7.31593 15.0604 6.21959 14.5785C5.12324 14.0965 4.1932 13.3022 3.54563 12.2948C2.89806 11.2873 2.56166 10.1114 2.57846 8.91395C2.59526 7.71646 2.96451 6.55046 3.64009 5.56159C4.31566 4.57272 5.26762 3.80482 6.37706 3.35379C7.48649 2.90277 8.70422 2.78862 9.87815 3.02561C11.0521 3.26259 12.1302 3.8402 12.9777 4.68629C13.4525 5.16662 13.8847 5.63171 14.3041 6.11285H13.163C12.9078 6.11285 12.663 6.21423 12.4826 6.39469C12.3021 6.57515 12.2007 6.8199 12.2007 7.07511C12.2007 7.33032 12.3021 7.57507 12.4826 7.75553C12.663 7.93599 12.9078 8.03737 13.163 8.03737H16.3705C16.6257 8.03737 16.8705 7.93599 17.0509 7.75553C17.2314 7.57507 17.3328 7.33032 17.3328 7.07511V3.86756C17.3328 3.61236 17.2314 3.3676 17.0509 3.18714C16.8705 3.00668 16.6257 2.9053 16.3705 2.9053Z" fill="#B92525"/>
</svg>
