<svg width="35" height="35" viewBox="0 0 35 35" fill="none" xmlns="http://www.w3.org/2000/svg">
<path d="M34.5023 7.52125C34.4127 7.41369 34.3005 7.32715 34.1738 7.26776C34.047 7.20837 33.9087 7.17758 33.7687 7.17757H7.8306L6.81695 1.59764C6.77708 1.37767 6.66126 1.17866 6.48969 1.03531C6.31811 0.891969 6.10167 0.813375 5.87809 0.813232H1.94281C1.68959 0.813232 1.44674 0.913811 1.26768 1.09284C1.08863 1.27187 0.988037 1.51469 0.988037 1.76788C0.988037 2.02107 1.08863 2.26389 1.26768 2.44292C1.44674 2.62196 1.68959 2.72253 1.94281 2.72253H5.08085L9.18798 25.3064C9.31674 26.0185 9.66375 26.6729 10.1809 27.1791C9.55593 27.6783 9.08904 28.3479 8.83681 29.107C8.58459 29.866 8.55783 30.6818 8.75979 31.4558C8.96175 32.2297 9.38376 32.9285 9.97473 33.4675C10.5657 34.0066 11.3003 34.3628 12.0895 34.493C12.8788 34.6232 13.6889 34.5218 14.4217 34.2012C15.1546 33.8806 15.7787 33.3544 16.2187 32.6864C16.6586 32.0183 16.8954 31.2371 16.9004 30.4373C16.9054 29.6375 16.6785 28.8534 16.247 28.1799H24.5567C24.0619 28.9541 23.839 29.8709 23.923 30.7858C24.0071 31.7007 24.3934 32.5616 25.0209 33.2327C25.6485 33.9038 26.4816 34.347 27.389 34.4922C28.2963 34.6375 29.2262 34.4766 30.0319 34.0349C30.8376 33.5933 31.4734 32.896 31.839 32.0531C32.2045 31.2101 32.279 30.2695 32.0507 29.3796C31.8224 28.4896 31.3043 27.701 30.5781 27.1381C29.8519 26.5751 28.9589 26.2699 28.04 26.2706H12.6315C12.2589 26.2707 11.898 26.1399 11.6118 25.9012C11.3257 25.6625 11.1324 25.3309 11.0657 24.9643L10.4928 21.8156H29.329C30.1489 21.8158 30.9428 21.5282 31.5724 21.0031C32.202 20.478 32.6273 19.7486 32.7741 18.9421L34.7076 8.30247C34.7325 8.16517 34.7271 8.02406 34.6916 7.88908C34.6562 7.75411 34.5915 7.62855 34.5023 7.52125ZM14.9914 30.4074C14.9914 30.848 14.8608 31.2786 14.616 31.645C14.3712 32.0113 14.0232 32.2968 13.6162 32.4654C13.2091 32.634 12.7611 32.6781 12.329 32.5921C11.8968 32.5062 11.4999 32.294 11.1883 31.9825C10.8768 31.671 10.6646 31.2741 10.5786 30.842C10.4927 30.4099 10.5368 29.962 10.7054 29.555C10.874 29.148 11.1595 28.8001 11.5259 28.5553C11.8923 28.3105 12.323 28.1799 12.7636 28.1799C13.3545 28.1799 13.9211 28.4146 14.3389 28.8323C14.7567 29.2501 14.9914 29.8166 14.9914 30.4074ZM30.2679 30.4074C30.2679 30.848 30.1372 31.2786 29.8924 31.645C29.6476 32.0113 29.2997 32.2968 28.8926 32.4654C28.4855 32.634 28.0376 32.6781 27.6054 32.5921C27.1733 32.5062 26.7763 32.294 26.4647 31.9825C26.1532 31.671 25.941 31.2741 25.855 30.842C25.7691 30.4099 25.8132 29.962 25.9818 29.555C26.1504 29.148 26.436 28.8001 26.8023 28.5553C27.1687 28.3105 27.5994 28.1799 28.04 28.1799C28.6309 28.1799 29.1976 28.4146 29.6153 28.8323C30.0331 29.2501 30.2679 29.8166 30.2679 30.4074ZM30.8948 18.6C30.8281 18.9666 30.6348 19.2981 30.3487 19.5369C30.0625 19.7756 29.7017 19.9063 29.329 19.9063H10.1459L8.1791 9.08688H32.6246L30.8948 18.6Z" fill="black" fill-opacity="0.7"/>
</svg>
