<svg width="30" height="39" viewBox="0 0 30 39" fill="none" xmlns="http://www.w3.org/2000/svg">
<path id="Vector" d="M14.9424 0.455078C11.0204 0.459527 7.26035 2.0195 4.48709 4.79276C1.71383 7.56602 0.153863 11.3261 0.149414 15.2481C0.149414 27.9061 13.5976 37.4661 14.1708 37.8662C14.3969 38.0246 14.6663 38.1096 14.9424 38.1096C15.2185 38.1096 15.4879 38.0246 15.714 37.8662C16.2872 37.4661 29.7354 27.9061 29.7354 15.2481C29.7309 11.3261 28.171 7.56602 25.3977 4.79276C22.6244 2.0195 18.8644 0.459527 14.9424 0.455078ZM14.9424 9.8688C16.0063 9.86879 17.0463 10.1843 17.931 10.7754C18.8156 11.3664 19.5051 12.2066 19.9122 13.1895C20.3193 14.1724 20.4259 15.254 20.2183 16.2975C20.0107 17.341 19.4984 18.2995 18.7461 19.0518C17.9938 19.8041 17.0353 20.3164 15.9918 20.524C14.9484 20.7315 13.8668 20.625 12.8838 20.2179C11.9009 19.8107 11.0608 19.1212 10.4697 18.2366C9.87862 17.352 9.56313 16.312 9.56313 15.2481C9.56313 13.8214 10.1299 12.4532 11.1387 11.4443C12.1475 10.4355 13.5157 9.8688 14.9424 9.8688Z" fill="#263069"/>
</svg>
